<?xml version="1.0" encoding="UTF-8"?>
<svg id="Layer_2" data-name="Layer 2" xmlns="http://www.w3.org/2000/svg" xmlns:xlink="http://www.w3.org/1999/xlink" viewBox="0 0 217.4 221.76">
  <defs>
    <style>
      .cls-1 {
        fill: #e25ca2;
      }

      .cls-2 {
        fill: url(#radial-gradient);
      }
    </style>
    <radialGradient id="radial-gradient" cx="-2438.87" cy="110.88" fx="-2438.87" fy="110.88" r="109.8" gradientTransform="translate(-2330.17) rotate(-180) scale(1 -1)" gradientUnits="userSpaceOnUse">
      <stop offset=".33" stop-color="#e25ca2"/>
      <stop offset=".41" stop-color="#da5aa4"/>
      <stop offset=".53" stop-color="#c757ac"/>
      <stop offset=".68" stop-color="#a652b8"/>
      <stop offset=".84" stop-color="#794aca"/>
      <stop offset="1" stop-color="#4442df"/>
    </radialGradient>
  </defs>
  <g id="Layer_1-2" data-name="Layer 1">
    <g>
      <path class="cls-2" d="M181.25,61.98c10.77,33.26-7.15,69.01-39.97,80.29l-.36-1.08-.11-.36-3.34-10.92v-.04c25.96-9.14,40.03-37.51,31.46-63.87C155.97,26.08,113.21,4.01,73.25,16.39l-4.02-12.31c46.74-14.58,96.81,11.19,112.03,57.91Zm-89.47,83.34c20.86,27.74,60.4,33.72,88.69,13.22,39.73-28.92,48.77-84.52,20.46-124.45l-10.47,7.62c24.14,34.17,16.38,81.69-17.58,106.36-22.43,16.29-53.78,11.66-70.47-10.2-.02,0-.04-.02-.04-.02t.02,.04l-9.29,6.5-.8,.55-.51,.38Zm-3.36,42.31c39.78,28.84,95.44,20.25,124.68-19l-10.47-7.62c-25.05,33.51-72.63,40.79-106.59,16.12-22.43-16.29-27.69-47.5-12.1-70.14l-9.14-6.94-1.18-.89-.02,.02c-19.95,28.41-13.41,67.85,14.83,88.44Zm.49,34.13l4-12.31c-39.63-13.48-61.25-56.47-48.28-96.39,8.57-26.36,36.67-41.07,63.03-33.2l3.7-10.73,.49-1.52c-33.17-10.18-68.7,8.23-79.53,41.45-15.15,46.74,10.22,97.05,56.59,112.7ZM0,120.06H12.93c.57-41.83,34.78-75.7,76.76-75.7,27.72,0,50.35,22.15,51.03,49.66,.02,.08,.02,.15,.02,.23v.02h12.95c-.57-34.7-29.07-62.82-64-62.86C40.56,31.45,.55,71.12,0,120.06Z"/>
      <g>
        <path class="cls-1" d="M140.72,94.01c.02,.08,.02,.15,.02,.23v-.23s-.02,0-.02,0Z"/>
        <path class="cls-1" d="M102.36,137.85s0,.02,.02,.04l.02-.02s-.04-.02-.04-.02Z"/>
        <polygon class="cls-1" points="73.58 99.19 74.79 100.06 84.06 106.81 84.06 106.79 73.61 99.17 73.58 99.19"/>
        <polygon class="cls-1" points="73.61 99.17 74.79 100.06 84.06 106.81 84.06 106.79 73.61 99.17"/>
      </g>
      <path class="cls-1" d="M84.06,106.81l-9.27-6.75,9.14,6.94,9.31,7c-7.36,8.7-8.29,21.58-1.48,31.31h.02s.51-.38,.51-.38l.8-.55,9.29-6.5s-.02-.02-.02-.04c0,0,.02,.02,.04,.02l9.52-6.66c5.97,9.71,17.96,14.58,29.34,11.09l-.34-1.1-.11-.36-3.34-10.92v-.04l-3.41-11.15c11.07-2.67,19.38-12.55,19.61-24.46h-12.95v-.02c0-.08,0-.15-.02-.23l-11.66-.19c.04-.63,.06-1.29,.06-1.92,0-10.64-6.69-20.63-17.28-24.29l-.49,1.52-3.7,10.73v.02l-3.81,11.07c-10.54-4.36-23.06-1.25-30.23,8.23l10.45,7.62v.02Zm15.89,3.09c0-8.17,6.62-14.77,14.79-14.77,8.17,0,14.79,6.6,14.79,14.77,0,8.17-6.62,14.79-14.79,14.79-8.17,0-14.79-6.62-14.79-14.79Z"/>
    </g>
  </g>
</svg>