<?xml version="1.0" encoding="UTF-8"?>
<svg id="Layer_2" data-name="Layer 2" xmlns="http://www.w3.org/2000/svg" xmlns:xlink="http://www.w3.org/1999/xlink" viewBox="0 0 665.31 162.61">
  <defs>
    <style>
      .cls-1 {
        fill: #e25ca2;
      }

      .cls-2 {
        fill: url(#radial-gradient);
      }

      .cls-3 {
        fill: #f1f3ff;
      }
    </style>
    <radialGradient id="radial-gradient" cx="-901.43" cy="81.31" fx="-901.43" fy="81.31" r="80.51" gradientTransform="translate(-821.71) rotate(-180) scale(1 -1)" gradientUnits="userSpaceOnUse">
      <stop offset=".33" stop-color="#e25ca2"/>
      <stop offset=".41" stop-color="#da5aa4"/>
      <stop offset=".53" stop-color="#c757ac"/>
      <stop offset=".68" stop-color="#a652b8"/>
      <stop offset=".84" stop-color="#794aca"/>
      <stop offset="1" stop-color="#4442df"/>
    </radialGradient>
  </defs>
  <g id="Layer_1-2" data-name="Layer 1">
    <g>
      <g>
        <g>
          <path class="cls-3" d="M252.35,134.54c0-.73-.24-1.33-.74-1.82-.5-.5-1.09-.75-1.79-.75h-31.95v-12.12h27.68c.73,0,1.33-.25,1.84-.77,.51-.51,.76-1.11,.76-1.84v-3.37c0-.73-.25-1.33-.76-1.84-.51-.51-1.12-.77-1.84-.77h-27.68v-11.97h32.02c.73,0,1.33-.25,1.84-.77,.51-.51,.76-1.11,.76-1.84v-3.37c0-.73-.25-1.34-.77-1.87-.51-.53-1.11-.78-1.84-.78h-41.37c-.73,0-1.35,.25-1.87,.75-.52,.5-.77,1.09-.77,1.82v44.67c0,.77,.25,1.4,.77,1.91,.53,.51,1.14,.77,1.87,.77h41.19c.73,0,1.34-.25,1.87-.77,.52-.51,.77-1.12,.77-1.84v-3.44Z"/>
          <path class="cls-3" d="M307.25,134.61c0-.73-.25-1.34-.77-1.87-.51-.53-1.11-.78-1.84-.78h-32.02v-38.58c0-.78-.25-1.41-.77-1.94-.51-.53-1.11-.78-1.84-.78h-6.75c-.73,0-1.34,.26-1.86,.78-.53,.52-.78,1.15-.78,1.93v44.67c0,.72,.25,1.31,.77,1.79,.53,.5,1.14,.74,1.88,.74h41.37c.73,0,1.33-.25,1.84-.77,.51-.51,.76-1.11,.76-1.84v-3.37Z"/>
          <path class="cls-3" d="M361.11,134.54c0-.73-.24-1.33-.74-1.82-.5-.5-1.09-.75-1.79-.75h-31.95v-12.12h27.68c.73,0,1.33-.25,1.84-.77,.51-.51,.76-1.11,.76-1.84v-3.37c0-.73-.25-1.33-.76-1.84-.51-.51-1.12-.77-1.84-.77h-27.68v-11.97h32.02c.73,0,1.33-.25,1.84-.77,.51-.51,.76-1.11,.76-1.84v-3.37c0-.73-.25-1.34-.77-1.87-.51-.53-1.11-.78-1.84-.78h-41.37c-.73,0-1.35,.25-1.87,.75-.52,.5-.77,1.09-.77,1.82v44.67c0,.77,.25,1.4,.77,1.91,.53,.51,1.14,.77,1.87,.77h41.19c.73,0,1.34-.25,1.87-.77,.52-.51,.77-1.12,.77-1.84v-3.44Z"/>
          <path class="cls-3" d="M433.55,93.39c0-.78-.24-1.42-.74-1.95-.49-.51-1.07-.77-1.79-.77h-14.6c-.76,0-1.47,.28-2.18,.84-.72,.57-1.19,1.24-1.43,2.03l-11.32,32.76-11.31-32.74c-.25-.81-.72-1.48-1.44-2.06-.7-.56-1.42-.84-2.18-.84h-14.6c-.72,0-1.32,.25-1.82,.77-.51,.53-.75,1.16-.75,1.94v44.53c0,.77,.25,1.4,.77,1.91,.53,.51,1.14,.77,1.87,.77h6.46c.73,0,1.33-.25,1.84-.77,.51-.51,.76-1.14,.76-1.91v-39.46l14.12,39.42c.3,.74,.8,1.38,1.52,1.93,.69,.54,1.41,.8,2.17,.8h5.13c.77,0,1.49-.26,2.19-.8,.73-.55,1.22-1.18,1.51-1.94l14.15-39.4v39.45c0,.78,.25,1.41,.76,1.91,.51,.51,1.12,.77,1.84,.77h6.46c.73,0,1.33-.25,1.84-.77,.51-.51,.76-1.14,.76-1.91v-44.53Z"/>
          <path class="cls-3" d="M491.86,134.54c0-.73-.24-1.33-.74-1.82-.5-.5-1.09-.75-1.79-.75h-31.95v-12.12h27.68c.73,0,1.33-.25,1.84-.77,.51-.51,.76-1.11,.76-1.84v-3.37c0-.73-.25-1.33-.76-1.84-.51-.51-1.12-.77-1.84-.77h-27.68v-11.97h32.02c.73,0,1.33-.25,1.84-.77,.51-.51,.76-1.11,.76-1.84v-3.37c0-.73-.25-1.34-.77-1.87-.51-.53-1.11-.78-1.84-.78h-41.37c-.73,0-1.35,.25-1.87,.75-.52,.5-.77,1.09-.77,1.82v44.67c0,.77,.25,1.4,.77,1.91,.53,.51,1.14,.77,1.87,.77h41.19c.73,0,1.34-.25,1.87-.77,.52-.51,.77-1.12,.77-1.84v-3.44Z"/>
          <path class="cls-3" d="M552.03,93.31c0-.77-.25-1.39-.76-1.9-.51-.5-1.12-.75-1.85-.75h-6.17c-.73,0-1.34,.25-1.85,.75-.51,.5-.76,1.1-.76,1.82v35.99l-23.08-35.5c-.54-.86-1.25-1.59-2.1-2.2-.8-.57-1.54-.86-2.21-.86h-10.55c-.72,0-1.32,.25-1.82,.77-.51,.53-.75,1.14-.75,1.87v44.67c0,.72,.25,1.33,.77,1.84,.53,.51,1.14,.77,1.87,.77h6.32c.73,0,1.33-.25,1.84-.77,.51-.51,.76-1.11,.76-1.84v-33.39l21.25,32.97c.52,.84,1.23,1.57,2.12,2.16,.85,.57,1.67,.86,2.44,.86h11.91c.73,0,1.33-.25,1.84-.77,.51-.51,.76-1.11,.76-1.84v-44.67Z"/>
          <path class="cls-3" d="M610.27,93.31c0-.78-.24-1.4-.74-1.9-.5-.5-1.12-.75-1.9-.75h-45.53c-.78,0-1.4,.25-1.9,.75-.5,.5-.74,1.12-.74,1.9v3.37c0,.77,.24,1.39,.74,1.88,.5,.49,1.12,.73,1.9,.73h16.77v38.76c0,.72,.25,1.31,.75,1.8,.51,.5,1.12,.74,1.85,.74h6.78c.73,0,1.34-.24,1.85-.74,.51-.49,.75-1.08,.75-1.8v-38.76h16.77c.78,0,1.4-.24,1.9-.73,.5-.49,.74-1.11,.74-1.88v-3.37Z"/>
          <path class="cls-3" d="M665.31,126.65c0-3.32-1.22-6.01-3.74-8.23-2.57-2.27-5.74-3.92-9.43-4.91-3.79-1.02-7.62-1.9-11.37-2.63-3.81-.74-7.11-1.6-9.8-2.57-2.99-1.07-4.51-2.55-4.51-4.41,0-2.23,1.23-4.89,7.08-4.89l10.82,.22c4.21,0,6.99,1.33,8.25,3.97,1,2.09,2.38,3.1,4.23,3.1h4.27c.6,0,1.25-.26,1.95-.78,.64-.47,.95-1.27,.95-2.43,0-3.53-1.81-6.42-5.55-8.81-3.79-2.43-8.11-3.67-12.85-3.67l-9.13-.22c-8.12,0-13.9,1.26-17.17,3.74-3.25,2.46-4.83,5.9-4.83,10.5,0,2.43,.67,4.56,1.99,6.35,1.34,1.81,3.12,3.27,5.3,4.31,2.25,1.08,4.75,2.03,7.44,2.82,2.7,.8,5.46,1.48,8.2,2.01,2.77,.54,5.34,1.09,7.64,1.64,5.58,1.3,8.3,3.15,8.3,5.66,0,2.23-1.23,4.89-7.08,4.89l-12.57-.25c-4.21,0-6.99-1.33-8.25-3.95-.99-2.07-2.38-3.08-4.23-3.08h-4.27c-.62,0-1.29,.26-1.99,.77-.63,.47-.94,1.26-.94,2.42,0,3.53,1.82,6.42,5.57,8.81,3.8,2.43,8.13,3.67,12.86,3.67l10.89,.22c8.1,0,13.88-1.26,17.16-3.74,3.26-2.46,4.84-5.9,4.84-10.5Z"/>
        </g>
        <g>
          <path class="cls-3" d="M264.19,67.71c0-.73-.25-1.33-.75-1.85-.5-.51-1.12-.76-1.89-.76h-7.41l1.13-1.27c1.47-1.66,2.86-3.58,4.15-5.7,1.79-2.88,2.69-6.69,2.69-11.3,0-8.76-2.35-15.17-6.99-19.04-4.68-3.91-11.76-5.88-21.04-5.88s-16.38,2.09-21.12,6.2c-4.71,4.08-7.09,10.64-7.09,19.48s2.39,15.39,7.09,19.48c4.74,4.11,11.81,6.2,21.03,6.2h27.56c.77,0,1.39-.25,1.89-.76,.51-.51,.75-1.12,.75-1.85v-2.94Zm-30.2-2.61c-5.54,0-9.67-1.52-12.26-4.53-2.56-2.98-3.86-7.35-3.86-12.99s1.3-10.01,3.86-12.99c2.59-3.01,6.74-4.53,12.31-4.53s9.68,1.41,12.24,4.17c2.54,2.76,3.83,6.99,3.83,12.59,0,12.13-5.42,18.28-16.12,18.28Z"/>
          <path class="cls-3" d="M320.35,25.62c0-.73-.25-1.34-.78-1.86-.53-.53-1.16-.78-1.93-.78h-6.67c-.73,0-1.33,.25-1.84,.78-.52,.53-.77,1.14-.77,1.87v27.77c0,3.7-.84,6.51-2.51,8.37-1.69,1.88-4.29,2.84-7.73,2.84h-5.74c-3.44,0-6.04-.96-7.73-2.84-1.67-1.85-2.51-4.67-2.51-8.37V25.62c0-.73-.25-1.34-.78-1.86-.53-.53-1.12-.78-1.83-.78h-6.71c-.77,0-1.4,.25-1.91,.78-.52,.53-.77,1.14-.77,1.87v27.7c0,6.3,1.86,11.24,5.52,14.68,3.67,3.44,9.18,5.19,16.36,5.19h6.46c7.16,0,12.65-1.75,16.34-5.2,3.67-3.43,5.53-8.37,5.53-14.67V25.62Z"/>
          <path class="cls-3" d="M380.2,25.55c0-.7-.22-1.3-.69-1.83-.44-.51-.96-.74-1.63-.74h-19.34c-13.17,.02-20.72,4.41-23.08,13.42l-9,34.15c-.06,.26-.1,.57-.1,.91,0,.13,.05,.42,.44,.93,.1,.13,.38,.5,1.4,.5h7.07c.77,0,1.49-.26,2.19-.8,.7-.53,1.14-1.18,1.33-1.99l2.56-9.63h26.87v9.81c0,.78,.24,1.39,.73,1.88,.49,.49,1.1,.73,1.88,.73h6.75c.74,0,1.35-.25,1.88-.74,.51-.48,.77-1.08,.77-1.79V25.55Zm-12,26.31h-24.63l3.42-12.49c.64-2.36,1.9-4.26,3.74-5.66,1.84-1.4,4.02-2.11,6.47-2.11h10.99v20.26Z"/>
          <path class="cls-3" d="M443.89,25.62c0-.77-.25-1.39-.76-1.9-.51-.5-1.12-.75-1.85-.75h-6.17c-.73,0-1.34,.25-1.85,.75-.51,.5-.76,1.1-.76,1.82V61.54l-23.08-35.5c-.54-.86-1.25-1.59-2.1-2.2-.8-.57-1.54-.86-2.21-.86h-10.55c-.72,0-1.32,.25-1.82,.77-.51,.53-.75,1.14-.75,1.87v44.67c0,.72,.25,1.33,.77,1.84,.53,.51,1.14,.77,1.87,.77h6.32c.73,0,1.33-.25,1.84-.77,.51-.51,.76-1.11,.76-1.84V36.91l21.25,32.97c.52,.84,1.23,1.57,2.12,2.16,.85,.57,1.67,.86,2.44,.86h11.91c.73,0,1.33-.25,1.84-.77,.51-.51,.76-1.11,.76-1.84V25.62Z"/>
          <path class="cls-3" d="M502.12,25.62c0-.78-.24-1.4-.74-1.9-.5-.5-1.12-.75-1.9-.75h-45.53c-.78,0-1.4,.25-1.9,.75-.5,.5-.74,1.12-.74,1.9v3.37c0,.77,.24,1.39,.74,1.88,.5,.49,1.12,.73,1.9,.73h16.77v38.76c0,.72,.25,1.31,.75,1.8,.51,.5,1.12,.74,1.85,.74h6.78c.73,0,1.34-.24,1.85-.74,.51-.49,.75-1.08,.75-1.8V31.6h16.77c.78,0,1.4-.24,1.9-.73,.5-.49,.74-1.11,.74-1.88v-3.37Z"/>
          <path class="cls-3" d="M558.99,25.62c0-.73-.25-1.34-.78-1.86-.53-.53-1.16-.78-1.93-.78h-6.67c-.73,0-1.33,.25-1.84,.78-.52,.53-.77,1.14-.77,1.87v27.77c0,3.7-.84,6.51-2.51,8.37-1.69,1.88-4.29,2.84-7.73,2.84h-5.74c-3.44,0-6.04-.96-7.73-2.84-1.67-1.85-2.51-4.67-2.51-8.37V25.62c0-.73-.25-1.34-.78-1.86-.53-.53-1.12-.78-1.83-.78h-6.71c-.77,0-1.4,.25-1.91,.78-.52,.53-.77,1.14-.77,1.87v27.7c0,6.3,1.86,11.24,5.52,14.68,3.67,3.44,9.18,5.19,16.36,5.19h6.46c7.16,0,12.65-1.75,16.34-5.2,3.67-3.43,5.53-8.37,5.53-14.67V25.62Z"/>
          <path class="cls-3" d="M634.24,25.7c0-.78-.24-1.42-.74-1.95-.49-.51-1.07-.77-1.79-.77h-14.6c-.76,0-1.47,.28-2.18,.84-.72,.57-1.19,1.24-1.43,2.03l-11.32,32.76-11.31-32.74c-.25-.81-.72-1.48-1.44-2.06-.7-.56-1.42-.84-2.18-.84h-14.6c-.72,0-1.32,.25-1.82,.77-.51,.53-.75,1.16-.75,1.94v44.53c0,.77,.25,1.4,.77,1.91,.53,.51,1.14,.77,1.87,.77h6.46c.73,0,1.33-.25,1.84-.77,.51-.51,.76-1.14,.76-1.91V30.76l14.12,39.42c.3,.74,.8,1.38,1.52,1.93,.69,.54,1.41,.8,2.17,.8h5.13c.77,0,1.49-.26,2.19-.8,.73-.55,1.22-1.18,1.51-1.94l14.15-39.4v39.45c0,.78,.25,1.41,.76,1.91,.51,.51,1.12,.77,1.84,.77h6.46c.73,0,1.33-.25,1.84-.77,.51-.51,.76-1.14,.76-1.91V25.7Z"/>
        </g>
      </g>
      <g>
        <path class="cls-2" d="M132.91,45.45c7.9,24.39-5.24,50.61-29.31,58.88l-.26-.79-.08-.26-2.45-8.01v-.03c19.04-6.7,29.35-27.51,23.07-46.84C114.37,19.12,83.02,2.94,53.71,12.02l-2.95-9.03c34.27-10.69,70.99,8.21,82.15,42.46Zm-65.61,61.11c15.3,20.34,44.29,24.73,65.04,9.7,29.14-21.21,35.76-61.98,15-91.26l-7.68,5.59c17.7,25.06,12.01,59.9-12.89,77.99-16.45,11.95-39.44,8.55-51.68-7.48-.02,0-.03-.02-.03-.02t.02,.03l-6.81,4.76-.59,.4-.37,.28Zm-2.47,31.03c29.17,21.15,69.99,14.85,91.43-13.93l-7.68-5.59c-18.37,24.58-53.26,29.91-78.16,11.82-16.45-11.95-20.31-34.83-8.87-51.43l-6.7-5.09-.87-.65-.02,.02c-14.63,20.84-9.84,49.76,10.88,64.85Zm.36,25.02l2.93-9.03c-29.06-9.88-44.91-41.41-35.4-70.68,6.28-19.33,26.89-30.11,46.22-24.34l2.72-7.87,.36-1.12c-24.33-7.46-50.38,6.03-58.32,30.39-11.11,34.27,7.49,71.17,41.5,82.65ZM0,88.04H9.48c.42-30.67,25.51-55.51,56.29-55.51,20.32,0,36.92,16.24,37.42,36.41,.02,.06,.02,.11,.02,.17v.02h9.5c-.42-25.44-21.32-46.06-46.93-46.09C29.74,23.06,.4,52.15,0,88.04Z"/>
        <g>
          <path class="cls-1" d="M103.19,68.94c.02,.06,.02,.11,.02,.17v-.17h-.02Z"/>
          <path class="cls-1" d="M75.06,101.08s0,.02,.02,.03l.02-.02s-.03-.02-.03-.02Z"/>
          <polygon class="cls-1" points="53.96 72.74 54.84 73.38 61.64 78.32 61.64 78.31 53.97 72.72 53.96 72.74"/>
          <polygon class="cls-1" points="53.97 72.72 54.84 73.38 61.64 78.32 61.64 78.31 53.97 72.72"/>
        </g>
        <path class="cls-1" d="M61.64,78.32l-6.8-4.95,6.7,5.09,6.83,5.14c-5.4,6.38-6.08,15.82-1.09,22.96h.02l.37-.28,.59-.4,6.81-4.76s-.02-.02-.02-.03c0,0,.02,.02,.03,.02l6.98-4.89c4.38,7.12,13.17,10.69,21.52,8.13l-.25-.81-.08-.26-2.45-8.01v-.03l-2.5-8.18c8.11-1.95,14.21-9.2,14.38-17.93h-9.49v-.02c0-.06,0-.11-.02-.17l-8.55-.14c.03-.47,.05-.95,.05-1.41,0-7.8-4.9-15.13-12.67-17.81l-.36,1.12-2.71,7.87v.02l-2.79,8.11c-7.73-3.2-16.91-.92-22.17,6.03l7.66,5.59v.02Zm11.65,2.26c0-5.99,4.86-10.83,10.84-10.83,5.99,0,10.84,4.84,10.84,10.83,0,5.99-4.86,10.84-10.84,10.84-5.99,0-10.84-4.86-10.84-10.84Z"/>
      </g>
    </g>
  </g>
</svg>