<?xml version="1.0" encoding="UTF-8"?>
<svg id="Layer_2" data-name="Layer 2" xmlns="http://www.w3.org/2000/svg" viewBox="0 0 364.47 409.52">
  <defs>
    <style>
      .cls-1 {
        fill: #f1f3ff;
      }
    </style>
  </defs>
  <g id="Layer_1-2" data-name="Layer 1">
    <g>
      <g>
        <g>
          <path class="cls-1" d="M36.87,404.49c0-.58-.19-1.05-.59-1.45-.4-.4-.86-.59-1.42-.59H9.52v-9.61H31.47c.58,0,1.06-.2,1.46-.61,.41-.4,.6-.88,.6-1.46v-2.68c0-.58-.2-1.06-.6-1.46-.41-.41-.88-.61-1.46-.61H9.52v-9.5h25.4c.58,0,1.06-.2,1.46-.61,.41-.4,.6-.88,.6-1.46v-2.68c0-.58-.2-1.06-.61-1.48-.41-.42-.88-.62-1.46-.62H2.1c-.58,0-1.07,.19-1.48,.6-.41,.4-.61,.87-.61,1.44v35.44c0,.61,.2,1.11,.61,1.52,.42,.41,.9,.61,1.48,.61H34.77c.58,0,1.07-.2,1.48-.61,.41-.41,.61-.89,.61-1.46v-2.73Z"/>
          <path class="cls-1" d="M80.42,404.55c0-.58-.2-1.06-.61-1.48-.41-.42-.88-.62-1.46-.62h-25.4v-30.61c0-.62-.2-1.12-.61-1.54-.41-.42-.88-.62-1.46-.62h-5.35c-.58,0-1.06,.2-1.48,.62-.42,.41-.62,.92-.62,1.53v35.44c0,.57,.2,1.04,.61,1.42,.42,.39,.91,.59,1.49,.59h32.82c.58,0,1.06-.2,1.46-.61,.41-.4,.6-.88,.6-1.46v-2.68Z"/>
          <path class="cls-1" d="M123.15,404.49c0-.58-.19-1.05-.59-1.45-.4-.4-.86-.59-1.42-.59h-25.34v-9.61h21.96c.58,0,1.06-.2,1.46-.61,.41-.4,.6-.88,.6-1.46v-2.68c0-.58-.2-1.06-.6-1.46-.41-.41-.88-.61-1.46-.61h-21.96v-9.5h25.4c.58,0,1.06-.2,1.46-.61,.41-.4,.6-.88,.6-1.46v-2.68c0-.58-.2-1.06-.61-1.48-.41-.42-.88-.62-1.46-.62h-32.82c-.58,0-1.07,.19-1.48,.6-.41,.4-.61,.87-.61,1.44v35.44c0,.61,.2,1.11,.61,1.52,.42,.41,.9,.61,1.48,.61h32.68c.58,0,1.07-.2,1.48-.61,.41-.41,.61-.89,.61-1.46v-2.73Z"/>
          <path class="cls-1" d="M180.62,371.84c0-.62-.19-1.13-.59-1.55-.39-.41-.85-.61-1.42-.61h-11.59c-.6,0-1.17,.22-1.73,.66-.57,.46-.94,.99-1.14,1.61l-8.98,25.99-8.97-25.97c-.2-.65-.57-1.18-1.14-1.63-.56-.45-1.12-.66-1.73-.66h-11.59c-.57,0-1.05,.2-1.44,.61-.4,.42-.6,.92-.6,1.54v35.32c0,.61,.2,1.11,.61,1.52,.42,.41,.9,.61,1.48,.61h5.12c.58,0,1.06-.2,1.46-.61,.41-.4,.6-.9,.6-1.52v-31.31l11.2,31.27c.24,.58,.63,1.09,1.21,1.53,.55,.43,1.11,.63,1.72,.63h4.07c.61,0,1.18-.21,1.74-.63,.58-.44,.97-.94,1.2-1.54l11.22-31.25v31.3c0,.62,.2,1.11,.6,1.52,.41,.41,.88,.61,1.46,.61h5.12c.58,0,1.06-.2,1.46-.61,.41-.4,.6-.9,.6-1.52v-35.32Z"/>
          <path class="cls-1" d="M226.88,404.49c0-.58-.19-1.05-.59-1.45-.4-.4-.86-.59-1.42-.59h-25.34v-9.61h21.96c.58,0,1.06-.2,1.46-.61,.41-.4,.6-.88,.6-1.46v-2.68c0-.58-.2-1.06-.6-1.46-.41-.41-.88-.61-1.46-.61h-21.96v-9.5h25.4c.58,0,1.06-.2,1.46-.61,.41-.4,.6-.88,.6-1.46v-2.68c0-.58-.2-1.06-.61-1.48-.41-.42-.88-.62-1.46-.62h-32.82c-.58,0-1.07,.19-1.48,.6-.41,.4-.61,.87-.61,1.44v35.44c0,.61,.2,1.11,.61,1.52,.42,.41,.9,.61,1.48,.61h32.68c.58,0,1.07-.2,1.48-.61,.41-.41,.61-.89,.61-1.46v-2.73Z"/>
          <path class="cls-1" d="M274.61,371.79c0-.61-.2-1.11-.6-1.5-.41-.4-.89-.59-1.47-.59h-4.9c-.58,0-1.06,.19-1.47,.59-.4,.4-.6,.87-.6,1.45v28.55l-18.31-28.16c-.43-.68-.99-1.26-1.67-1.75-.63-.46-1.22-.68-1.75-.68h-8.37c-.57,0-1.04,.2-1.44,.61-.4,.42-.6,.9-.6,1.48v35.44c0,.57,.2,1.05,.61,1.46,.42,.41,.9,.61,1.48,.61h5.01c.58,0,1.06-.2,1.46-.61,.41-.4,.6-.88,.6-1.46v-26.49l16.86,26.16c.42,.67,.98,1.25,1.68,1.72,.67,.45,1.32,.68,1.94,.68h9.45c.58,0,1.06-.2,1.46-.61,.41-.4,.6-.88,.6-1.46v-35.44Z"/>
          <path class="cls-1" d="M320.81,371.79c0-.62-.19-1.11-.59-1.5-.4-.4-.89-.59-1.51-.59h-36.12c-.62,0-1.11,.19-1.51,.59-.4,.39-.59,.89-.59,1.5v2.68c0,.61,.19,1.1,.59,1.49,.4,.39,.89,.58,1.51,.58h13.3v30.75c0,.57,.19,1.04,.6,1.43,.41,.39,.89,.58,1.47,.58h5.38c.58,0,1.06-.19,1.47-.58,.4-.39,.6-.85,.6-1.43v-30.75h13.3c.62,0,1.11-.19,1.51-.58,.39-.39,.59-.88,.59-1.49v-2.68Z"/>
          <path class="cls-1" d="M364.47,398.23c0-2.63-.97-4.77-2.97-6.53-2.04-1.8-4.55-3.11-7.48-3.89-3.01-.81-6.04-1.51-9.02-2.08-3.02-.58-5.64-1.27-7.78-2.04-2.37-.85-3.58-2.03-3.58-3.5,0-1.77,.97-3.88,5.62-3.88l8.58,.17c3.34,0,5.55,1.06,6.54,3.15,.79,1.66,1.89,2.46,3.35,2.46h3.39c.47,0,.99-.21,1.54-.62,.51-.37,.75-1.01,.75-1.93,0-2.8-1.44-5.09-4.4-6.99-3.01-1.93-6.44-2.91-10.19-2.91l-7.24-.17c-6.44,0-11.03,1-13.62,2.97-2.58,1.95-3.83,4.68-3.83,8.33,0,1.93,.53,3.62,1.58,5.03,1.07,1.44,2.48,2.59,4.2,3.42,1.78,.85,3.77,1.61,5.9,2.24,2.14,.64,4.33,1.18,6.5,1.59,2.2,.43,4.24,.87,6.06,1.3,4.43,1.03,6.58,2.5,6.58,4.49,0,1.77-.97,3.88-5.62,3.88l-9.97-.2c-3.34,0-5.54-1.05-6.54-3.14-.79-1.64-1.89-2.44-3.35-2.44h-3.39c-.49,0-1.02,.2-1.58,.61-.5,.37-.75,1-.75,1.92,0,2.8,1.44,5.09,4.42,6.99,3.02,1.93,6.45,2.91,10.2,2.91l8.64,.17c6.43,0,11.01-1,13.61-2.97,2.59-1.95,3.84-4.68,3.84-8.33Z"/>
        </g>
        <g>
          <path class="cls-1" d="M58.59,351.48c0-.58-.19-1.06-.6-1.47-.4-.41-.89-.6-1.5-.6h-5.88l.9-1.01c1.16-1.31,2.27-2.84,3.29-4.52,1.42-2.29,2.13-5.3,2.13-8.97,0-6.95-1.87-12.03-5.55-15.11-3.71-3.1-9.33-4.67-16.69-4.67s-12.99,1.66-16.75,4.92c-3.73,3.24-5.63,8.44-5.63,15.45s1.89,12.21,5.63,15.45c3.76,3.26,9.37,4.92,16.68,4.92h21.86c.61,0,1.11-.19,1.5-.6,.4-.41,.6-.89,.6-1.47v-2.33Zm-23.96-2.07c-4.4,0-7.67-1.21-9.73-3.6-2.03-2.36-3.06-5.83-3.06-10.3s1.03-7.94,3.06-10.3c2.06-2.39,5.34-3.6,9.77-3.6s7.68,1.11,9.71,3.31c2.01,2.19,3.04,5.55,3.04,9.99,0,9.62-4.3,14.5-12.79,14.5Z"/>
          <path class="cls-1" d="M103.14,318.09c0-.58-.2-1.06-.62-1.48-.42-.42-.92-.62-1.53-.62h-5.29c-.58,0-1.05,.2-1.46,.62-.41,.42-.61,.9-.61,1.48v22.03c0,2.93-.67,5.17-1.99,6.64-1.34,1.49-3.4,2.25-6.13,2.25h-4.55c-2.73,0-4.79-.76-6.13-2.25-1.32-1.47-1.99-3.71-1.99-6.64v-22.03c0-.58-.2-1.06-.62-1.48-.42-.42-.89-.62-1.45-.62h-5.32c-.61,0-1.11,.2-1.52,.62-.41,.42-.61,.9-.61,1.48v21.97c0,5,1.47,8.92,4.38,11.64,2.92,2.73,7.28,4.12,12.98,4.12h5.12c5.68,0,10.04-1.39,12.96-4.12,2.91-2.72,4.39-6.64,4.39-11.64v-21.97Z"/>
          <path class="cls-1" d="M150.62,318.03c0-.56-.18-1.03-.55-1.45-.35-.4-.76-.59-1.29-.59h-15.34c-10.45,.02-16.44,3.5-18.31,10.65l-7.14,27.09c-.05,.21-.08,.45-.08,.73,0,.1,.04,.33,.35,.74,.08,.1,.3,.4,1.11,.4h5.61c.61,0,1.18-.21,1.74-.63,.56-.42,.9-.94,1.06-1.58l2.03-7.64h21.31v7.78c0,.62,.19,1.11,.58,1.49,.39,.39,.88,.58,1.49,.58h5.35c.58,0,1.07-.19,1.49-.59,.41-.38,.61-.85,.61-1.42v-35.55Zm-9.52,20.87h-19.54l2.72-9.91c.51-1.87,1.51-3.38,2.97-4.49,1.46-1.11,3.19-1.67,5.14-1.67h8.72v16.07Z"/>
          <path class="cls-1" d="M201.14,318.09c0-.61-.2-1.11-.6-1.5-.41-.4-.89-.59-1.47-.59h-4.9c-.58,0-1.06,.19-1.47,.59-.4,.4-.6,.87-.6,1.45v28.55l-18.31-28.16c-.43-.68-.99-1.26-1.67-1.75-.63-.46-1.22-.68-1.75-.68h-8.37c-.57,0-1.04,.2-1.44,.61-.4,.42-.6,.9-.6,1.48v35.44c0,.57,.2,1.05,.61,1.46,.42,.41,.9,.61,1.48,.61h5.01c.58,0,1.06-.2,1.46-.61,.41-.4,.6-.88,.6-1.46v-26.49l16.86,26.16c.42,.67,.98,1.25,1.68,1.72,.67,.45,1.32,.68,1.94,.68h9.45c.58,0,1.06-.2,1.46-.61,.41-.4,.6-.88,.6-1.46v-35.44Z"/>
          <path class="cls-1" d="M247.34,318.09c0-.62-.19-1.11-.59-1.5-.4-.4-.89-.59-1.51-.59h-36.12c-.62,0-1.11,.19-1.51,.59-.4,.39-.59,.89-.59,1.5v2.68c0,.61,.19,1.1,.59,1.49,.4,.39,.89,.58,1.51,.58h13.3v30.75c0,.57,.19,1.04,.6,1.43,.41,.39,.89,.58,1.47,.58h5.38c.58,0,1.06-.19,1.47-.58,.4-.39,.6-.85,.6-1.43v-30.75h13.3c.62,0,1.11-.19,1.51-.58,.39-.39,.59-.88,.59-1.49v-2.68Z"/>
          <path class="cls-1" d="M292.46,318.09c0-.58-.2-1.06-.62-1.48-.42-.42-.92-.62-1.53-.62h-5.29c-.58,0-1.05,.2-1.46,.62-.41,.42-.61,.9-.61,1.48v22.03c0,2.93-.67,5.17-1.99,6.64-1.34,1.49-3.4,2.25-6.13,2.25h-4.55c-2.73,0-4.79-.76-6.13-2.25-1.32-1.47-1.99-3.71-1.99-6.64v-22.03c0-.58-.2-1.06-.62-1.48-.42-.42-.89-.62-1.45-.62h-5.32c-.61,0-1.11,.2-1.52,.62-.41,.42-.61,.9-.61,1.48v21.97c0,5,1.47,8.92,4.38,11.64,2.92,2.73,7.28,4.12,12.98,4.12h5.12c5.68,0,10.04-1.39,12.96-4.12,2.91-2.72,4.39-6.64,4.39-11.64v-21.97Z"/>
          <path class="cls-1" d="M352.15,318.14c0-.62-.19-1.13-.59-1.55-.39-.41-.85-.61-1.42-.61h-11.59c-.6,0-1.17,.22-1.73,.66-.57,.46-.94,.99-1.14,1.61l-8.98,25.99-8.97-25.97c-.2-.65-.57-1.18-1.14-1.63-.56-.45-1.12-.66-1.73-.66h-11.59c-.57,0-1.05,.2-1.44,.61-.4,.42-.6,.92-.6,1.54v35.32c0,.61,.2,1.11,.61,1.52,.42,.41,.9,.61,1.48,.61h5.12c.58,0,1.06-.2,1.46-.61,.41-.4,.6-.9,.6-1.52v-31.31l11.2,31.27c.24,.58,.63,1.09,1.21,1.53,.55,.43,1.11,.63,1.72,.63h4.07c.61,0,1.18-.21,1.74-.63,.58-.44,.97-.94,1.2-1.54l11.22-31.25v31.3c0,.62,.2,1.11,.6,1.52,.41,.41,.88,.61,1.46,.61h5.12c.58,0,1.06-.2,1.46-.61,.41-.4,.6-.9,.6-1.52v-35.32Z"/>
        </g>
      </g>
      <g>
        <path class="cls-1" d="M269.54,74.59c12.96,40.02-8.61,83.05-48.1,96.62l-.43-1.3-.13-.43-4.02-13.14v-.05c31.24-11,48.17-45.14,37.86-76.87C239.12,31.38,187.66,4.82,139.57,19.72l-4.84-14.82c56.24-17.54,116.51,13.47,134.81,69.69Zm-107.67,100.29c25.1,33.38,72.69,40.58,106.73,15.91,47.81-34.8,58.69-101.71,24.62-149.76l-12.6,9.17c29.05,41.12,19.71,98.3-21.16,127.99-26.99,19.6-64.72,14.03-84.81-12.27-.03,0-.05-.03-.05-.03t.03,.05l-11.18,7.82-.97,.66-.61,.46Zm-4.05,50.92c47.87,34.7,114.85,24.37,150.04-22.86l-12.6-9.17c-30.15,40.33-87.41,49.09-128.27,19.4-26.99-19.61-33.33-57.16-14.56-84.4l-11-8.35-1.43-1.07-.03,.03c-24.01,34.19-16.14,81.65,17.85,106.42Zm.59,41.07l4.81-14.82c-47.69-16.22-73.71-67.95-58.1-116,10.31-31.72,44.12-49.42,75.85-39.95l4.46-12.91,.59-1.83c-39.92-12.25-82.67,9.9-95.71,49.88-18.23,56.24,12.3,116.79,68.11,135.63ZM51.42,144.48h15.56c.69-50.34,41.86-91.1,92.37-91.1,33.35,0,60.6,26.66,61.41,59.76,.03,.1,.03,.18,.03,.28v.03h15.58c-.69-41.76-34.98-75.59-77.02-75.64-59.12,.05-107.27,47.79-107.93,106.68Z"/>
        <g>
          <path class="cls-1" d="M220.76,113.13c.03,.1,.03,.18,.03,.28v-.28s-.03,0-.03,0Z"/>
          <path class="cls-1" d="M174.6,165.89s0,.03,.03,.05l.03-.03s-.05-.03-.05-.03Z"/>
          <polygon class="cls-1" points="139.98 119.37 141.43 120.41 152.58 128.54 152.58 128.51 140 119.35 139.98 119.37"/>
          <polygon class="cls-1" points="140 119.35 141.43 120.41 152.58 128.54 152.58 128.51 140 119.35"/>
        </g>
        <path class="cls-1" d="M152.58,128.54l-11.15-8.12,11,8.35,11.2,8.43c-8.86,10.46-9.98,25.97-1.78,37.68h.03s.61-.46,.61-.46l.97-.66,11.18-7.82s-.03-.03-.03-.05c0,0,.03,.03,.05,.03l11.46-8.02c7.18,11.69,21.62,17.54,35.31,13.34l-.41-1.32-.13-.43-4.02-13.14v-.05l-4.1-13.42c13.32-3.21,23.32-15.1,23.6-29.43h-15.58v-.03c0-.1,0-.18-.03-.28l-14.03-.23c.05-.76,.08-1.55,.08-2.32,0-12.81-8.04-24.82-20.8-29.23l-.59,1.83-4.46,12.91v.03l-4.58,13.32c-12.68-5.24-27.75-1.5-36.38,9.9l12.58,9.17v.03Zm19.12,3.72c0-9.83,7.97-17.77,17.8-17.77,9.83,0,17.8,7.94,17.8,17.77,0,9.83-7.97,17.8-17.8,17.8-9.83,0-17.8-7.97-17.8-17.8Z"/>
      </g>
    </g>
  </g>
</svg>