<?xml version="1.0" encoding="utf-8"?>
<svg viewBox="0 0 209 241" fill="none" xmlns="http://www.w3.org/2000/svg">
  <path d="M55 155H115" stroke="#6B7B92" stroke-width="2" stroke-linecap="round" transform="matrix(1, 0, 0, 1, -7.105427357601002e-15, 0)"/>
  <path d="M55 228H115" stroke="#6B7B92" stroke-width="2" stroke-linecap="round" transform="matrix(1, 0, 0, 1, -7.105427357601002e-15, 0)"/>
  <path d="M55 47H115" stroke="#6B7B92" stroke-width="2" stroke-linecap="round" transform="matrix(1, 0, 0, 1, -7.105427357601002e-15, 0)"/>
  <path d="M148 46H208" stroke="#6B7B92" stroke-width="2" stroke-linecap="round" transform="matrix(1, 0, 0, 1, -7.105427357601002e-15, 0)"/>
  <path d="M148 143H208" stroke="#6B7B92" stroke-width="2" stroke-linecap="round" transform="matrix(1, 0, 0, 1, -7.105427357601002e-15, 0)"/>
  <path d="M148 228H208" stroke="#6B7B92" stroke-width="2" stroke-linecap="round" transform="matrix(1, 0, 0, 1, -7.105427357601002e-15, 0)"/>
  <path d="M1 237.5L1 217.5" stroke="white" stroke-width="2" stroke-linecap="round" transform="matrix(1, 0, 0, 1, -7.105427357601002e-15, 0)"/>
  <path d="M19.92 233.456C19.504 234.32 18.92 235.008 18.168 235.52C17.432 236.032 16.552 236.288 15.528 236.288C14.504 236.288 13.624 236.08 12.888 235.664C12.168 235.248 11.616 234.656 11.232 233.888C10.544 232.496 10.2 230.608 10.2 228.224C10.2 225.92 10.584 224 11.352 222.464C11.768 221.648 12.352 221.016 13.104 220.568C13.872 220.12 14.768 219.896 15.792 219.896C16.832 219.896 17.704 220.096 18.408 220.496C19.128 220.88 19.68 221.44 20.064 222.176C20.784 223.552 21.144 225.36 21.144 227.6C21.144 229.84 20.736 231.792 19.92 233.456ZM13.728 234.248C14.224 234.616 14.832 234.8 15.552 234.8C16.272 234.8 16.888 234.576 17.4 234.128C17.928 233.664 18.32 233.056 18.576 232.304C19.056 230.896 19.296 229.328 19.296 227.6C19.296 225.888 19.104 224.48 18.72 223.376C18.256 222.048 17.288 221.384 15.816 221.384C15.08 221.384 14.448 221.592 13.92 222.008C13.392 222.408 13 222.96 12.744 223.664C12.28 224.944 12.048 226.464 12.048 228.224C12.048 231.408 12.608 233.416 13.728 234.248Z" fill="white" transform="matrix(1, 0, 0, 1, -7.105427357601002e-15, 0)"/>
  <path d="M31 218L37 227.5L31 237" stroke="white" stroke-width="2" stroke-linecap="round" transform="matrix(1, 0, 0, 1, -7.105427357601002e-15, 0)"/>
  <path d="M1 165.5L1 145.5" stroke="white" stroke-width="2" stroke-linecap="round" transform="matrix(1, 0, 0, 1, -7.105427357601002e-15, 0)"/>
  <path d="M12.48 164V162.512H15.432L15.504 150.104L12.192 152.24L11.4 151.16L15.576 147.896L17.256 148.184V162.512H20.112V164H12.48Z" fill="white" transform="matrix(1, 0, 0, 1, -7.105427357601002e-15, 0)"/>
  <path d="M31 146L37 155.5L31 165" stroke="white" stroke-width="2" stroke-linecap="round" transform="matrix(1, 0, 0, 1, -7.105427357601002e-15, 0)"/>
  <path d="M1 56.5L1 36.5" stroke="white" stroke-width="2" stroke-linecap="round" transform="matrix(1, 0, 0, 1, -7.105427357601002e-15, 0)"/>
  <path d="M10.56 55V54.352C11.456 53.456 12.4 52.44 13.392 51.304C14.384 50.152 15.008 49.4 15.264 49.048C15.536 48.68 15.88 48.184 16.296 47.56C16.712 46.936 17.016 46.408 17.208 45.976C17.736 44.824 18 43.824 18 42.976C18 42.128 17.696 41.496 17.088 41.08C16.496 40.648 15.68 40.432 14.64 40.432C13.616 40.432 12.616 40.592 11.64 40.912L11.28 39.592C12.48 39.128 13.768 38.896 15.144 38.896C16.52 38.896 17.648 39.256 18.528 39.976C19.408 40.68 19.848 41.728 19.848 43.12C19.848 45.76 17.736 49.232 13.512 53.536L20.184 53.464L20.28 55H10.56Z" fill="white" transform="matrix(1, 0, 0, 1, -7.105427357601002e-15, 0)"/>
  <path d="M31 37L37 46.5L31 56" stroke="white" stroke-width="2" stroke-linecap="round" transform="matrix(1, 0, 0, 1, -7.105427357601002e-15, 0)"/>
  <path d="M 179.5 146.557 C 179.5 145.761 178.828 145.115 178 145.115 C 177.172 145.115 176.5 145.761 176.5 146.557 L 179.5 146.557 Z M 176.939 225.962 C 177.525 226.525 178.475 226.525 179.061 225.962 L 188.607 216.782 C 189.192 216.218 189.192 215.304 188.607 214.74 C 188.021 214.179 187.071 214.179 186.485 214.74 L 178 222.902 L 169.515 214.74 C 168.929 214.179 167.979 214.179 167.393 214.74 C 166.808 215.304 166.808 216.218 167.393 216.782 L 176.939 225.962 Z M 176.5 146.557 L 176.5 224.943 L 179.5 224.943 L 179.5 146.557 L 176.5 146.557 Z" fill="white" style="" transform="matrix(1, 0, 0, 1, -7.105427357601002e-15, 0)"/>
  <path d="M 83.5 224.476 C 83.5 225.288 84.172 225.947 85 225.947 C 85.828 225.947 86.5 225.288 86.5 224.476 L 83.5 224.476 Z M 86.061 49.93 C 85.475 49.357 84.525 49.357 83.939 49.93 L 74.393 59.288 C 73.808 59.862 73.808 60.793 74.393 61.368 C 74.979 61.942 75.929 61.942 76.515 61.368 L 85 53.05 L 93.485 61.368 C 94.071 61.942 95.021 61.942 95.607 61.368 C 96.192 60.793 96.192 59.862 95.607 59.288 L 86.061 49.93 Z M 86.5 224.476 L 86.5 50.971 L 83.5 50.971 L 83.5 224.476 L 86.5 224.476 Z" fill="white" style="" transform="matrix(1, 0, 0, 1, -7.105427357601002e-15, 0)"/>
  <path d="M 89.551 10.342 C 89.231 10.274 88.775 10.186 88.226 10.112 C 87.334 9.993 85.456 9.757 83.279 10.163 C 82.199 10.364 80.093 10.782 78.026 12.407 C 77.342 12.944 75.854 14.25 74.94 16.385 C 74.548 17.302 74.186 18.182 74.405 19.292 C 74.699 20.779 75.83 21.616 76.037 21.765 C 77.593 22.876 79.477 22.506 80.78 22.25 C 82.233 21.964 83.353 21.386 84.094 20.913 C 83.748 22.146 83.407 23.398 83.074 24.673 C 82.881 25.408 82.695 26.14 82.514 26.866 L 87.843 26.866 C 87.962 26.424 88.081 25.982 88.2 25.54 L 85.675 25.54 C 86.967 20.474 88.259 15.408 89.551 10.342 Z M 82.591 20.264 C 81.437 21.133 79.746 21.404 78.409 20.8 C 78.102 20.662 77.359 20.326 77.006 19.55 C 76.761 19.012 76.796 18.467 76.929 17.842 C 77.483 15.238 79.071 13.609 79.071 13.609 C 79.606 13.06 81.251 11.53 83.788 11.238 C 84.645 11.139 85.365 11.21 85.853 11.288 C 85.493 14.29 84.744 16.523 84.145 17.969 C 83.731 18.97 83.348 19.692 82.59 20.264 L 82.591 20.264 Z" fill="white" stroke="white" stroke-miterlimit="10" style="" transform="matrix(1, 0, 0, 1, -7.105427357601002e-15, 0)"/>
  <path d="M 91.568 28.625 L 91.568 27.763 L 93.279 27.763 L 93.321 20.572 L 91.401 21.81 L 90.942 21.184 L 93.362 19.292 L 94.336 19.459 L 94.336 27.763 L 95.991 27.763 L 95.991 28.625 L 91.568 28.625 Z" fill="white" style="" transform="matrix(1, 0, 0, 1, -7.105427357601002e-15, 0)"/>
  <path d="M 183.137 10.227 C 182.834 10.162 182.405 10.08 181.887 10.01 C 181.045 9.9 179.274 9.679 177.221 10.058 C 176.203 10.247 174.216 10.639 172.267 12.165 C 171.622 12.669 170.219 13.893 169.357 15.897 C 168.987 16.756 168.646 17.582 168.853 18.625 C 169.13 20.019 170.196 20.806 170.392 20.945 C 171.858 21.986 173.637 21.64 174.864 21.399 C 176.236 21.132 177.292 20.589 177.991 20.144 C 177.664 21.303 177.343 22.477 177.029 23.672 C 176.846 24.363 176.67 25.049 176.499 25.73 L 181.526 25.73 C 181.638 25.316 181.75 24.901 181.863 24.487 L 179.481 24.487 C 180.699 19.734 181.918 14.98 183.137 10.227 Z M 176.572 19.536 C 175.485 20.352 173.889 20.605 172.629 20.038 C 172.339 19.91 171.64 19.594 171.305 18.867 C 171.074 18.361 171.108 17.85 171.233 17.263 C 171.755 14.82 173.252 13.293 173.252 13.293 C 173.757 12.777 175.309 11.341 177.701 11.067 C 178.51 10.974 179.189 11.041 179.649 11.115 C 179.309 13.93 178.603 16.026 178.039 17.384 C 177.647 18.321 177.286 19 176.571 19.536 L 176.572 19.536 Z" fill="white" stroke="white" stroke-miterlimit="10" style="" transform="matrix(1, 0, 0, 1, -7.105427357601002e-15, 0)"/>
  <path d="M 183.989 27.381 L 183.989 27.029 C 184.48 26.542 184.995 25.989 185.538 25.371 C 186.08 24.746 186.422 24.336 186.561 24.144 C 186.71 23.944 186.896 23.676 187.125 23.335 C 187.353 22.996 187.517 22.709 187.624 22.474 C 187.912 21.848 188.056 21.304 188.056 20.843 C 188.056 20.381 187.889 20.038 187.557 19.813 C 187.234 19.577 186.788 19.46 186.219 19.46 C 185.659 19.46 185.114 19.547 184.58 19.72 L 184.383 19.003 C 185.039 18.751 185.743 18.625 186.495 18.625 C 187.248 18.625 187.864 18.82 188.343 19.211 C 188.827 19.594 189.066 20.165 189.066 20.922 C 189.066 22.356 187.912 24.244 185.603 26.586 L 189.25 26.545 L 189.302 27.381 L 183.989 27.381 Z" fill="white" style="" transform="matrix(1, 0, 0, 1, -7.105427357601002e-15, 0)"/>
</svg>