<svg width="24" height="26" viewBox="0 0 24 26" fill="none" xmlns="http://www.w3.org/2000/svg">
<path d="M19.9776 7.48718C21.165 11.237 19.19 15.2682 15.572 16.5397L15.5329 16.4183L15.5209 16.3783L15.1527 15.1468V15.1422C18.0146 14.1121 19.5642 10.9126 18.6203 7.94073C17.1909 3.43906 12.4787 0.951461 8.07311 2.34747L7.62969 0.959149C12.7808 -0.684391 18.3001 2.2214 19.9776 7.48718ZM10.1158 16.8826C12.4155 20.0098 16.773 20.6847 19.8919 18.3739C24.2719 15.113 25.267 8.84475 22.1466 4.34309L20.9922 5.20252C23.6527 9.05538 22.7974 14.4119 19.0547 17.1931C16.5821 19.0304 13.1265 18.5077 11.2867 16.0431C11.2837 16.0431 11.2822 16.04 11.2822 16.04C11.2822 16.04 11.2832 16.0416 11.2852 16.0447L10.2616 16.7765L10.1729 16.838L10.1173 16.881L10.1158 16.8826ZM9.74454 21.6533C14.1291 24.905 20.2647 23.9364 23.4873 19.5116L22.3329 18.6522C19.5718 22.4312 14.3275 23.2507 10.5848 20.4694C8.11219 18.6322 7.53199 15.1145 9.25153 12.5623L8.24446 11.7798L8.11369 11.6798L8.11068 11.6829C5.91166 14.887 6.63164 19.3333 9.74605 21.6533H9.74454ZM9.79866 25.5L10.2391 24.1117C5.87108 22.5927 3.48868 17.7451 4.91812 13.2449C5.86206 10.273 8.95993 8.61567 11.8654 9.50278L12.2742 8.29281L12.3284 8.12061C8.67134 6.97367 4.75578 9.0477 3.56233 12.7929C1.89239 18.0618 4.68814 23.735 9.80016 25.5H9.79866ZM0 14.0352H1.42493C1.48806 9.31983 5.25932 5.50079 9.88583 5.50079C12.9401 5.50079 15.4352 7.99762 15.5104 11.0987C15.5134 11.1079 15.5134 11.1156 15.5134 11.1248V11.1279H16.9413C16.8782 7.21659 13.7368 4.04636 9.88734 4.04175C4.47019 4.04482 0.0601237 8.51728 0 14.0352Z" fill="#F1F3FF"/>
<path d="M15.5103 11.0987C15.5133 11.108 15.5133 11.1157 15.5133 11.1249V11.0987H15.5103Z" fill="#F1F3FF"/>
<path d="M11.282 16.0402C11.282 16.0402 11.282 16.0433 11.285 16.0449L11.288 16.0417L11.2835 16.0386L11.282 16.0402Z" fill="#F1F3FF"/>
<path d="M8.1106 11.683L8.24287 11.7814L9.26497 12.5409V12.5393L8.1121 11.6799L8.1106 11.683Z" fill="#F1F3FF"/>
<path d="M8.11206 11.6799L8.24283 11.7814L9.26493 12.5409V12.5393L8.11206 11.6799Z" fill="#F1F3FF"/>
<path d="M9.26493 12.5409L8.24283 11.7799L9.2499 12.5624L10.2765 13.3527C9.46484 14.3336 9.36263 15.7849 10.1127 16.8827H10.1157L10.1713 16.8396L10.26 16.7781L11.2836 16.0463C11.2836 16.0463 11.2806 16.0432 11.2806 16.0417C11.2806 16.0417 11.2836 16.0448 11.2851 16.0448L12.3342 15.293C12.9926 16.3876 14.3138 16.9365 15.5689 16.5429L15.5313 16.4184L15.5193 16.3784L15.151 15.1469V15.1423L14.7753 13.8846C15.9943 13.5848 16.9112 12.4702 16.9367 11.128H15.5103V11.1249C15.5103 11.1157 15.5103 11.108 15.5073 11.0988L14.2221 11.0773C14.2266 11.005 14.2296 10.9312 14.2296 10.8605C14.2296 9.66126 13.4931 8.53431 12.3252 8.12227L12.2711 8.29446L11.8638 9.50444V9.50752L11.4444 10.7544C10.2825 10.2624 8.90269 10.6129 8.11206 11.6815L9.26343 12.5409V12.544L9.26493 12.5409ZM11.016 12.8884C11.016 11.9674 11.7465 11.2233 12.6454 11.2233C13.5457 11.2233 14.2747 11.9674 14.2747 12.8884C14.2747 13.8093 13.5442 14.555 12.6454 14.555C11.745 14.555 11.016 13.8078 11.016 12.8884Z" fill="#F1F3FF"/>
</svg>
