<svg width="27" height="32" viewBox="0 0 27 32" fill="none" xmlns="http://www.w3.org/2000/svg">
<g clip-path="url(#clip0_80_6716)">
<path d="M12.7496 11.2C12.7496 11.6907 12.33 12.0885 11.8125 12.0885C11.295 12.0885 10.8754 11.6907 10.8754 11.2C10.8754 10.7093 11.295 10.3115 11.8125 10.3115C12.33 10.3115 12.7496 10.7093 12.7496 11.2ZM8.06177 10.3115C7.54427 10.3115 7.12465 10.7093 7.12465 11.2C7.12465 11.6907 7.54427 12.0885 8.06177 12.0885C8.57927 12.0885 8.9989 11.6907 8.9989 11.2C8.9989 10.7093 8.57927 10.3115 8.06177 10.3115ZM15.5621 10.3115C15.0446 10.3115 14.625 10.7093 14.625 11.2C14.625 11.6907 15.0446 12.0885 15.5621 12.0885C16.0796 12.0885 16.4993 11.6907 16.4993 11.2C16.4993 10.7093 16.0796 10.3115 15.5621 10.3115ZM24.4361 22.1813C24.5194 22.4608 24.4361 22.7605 24.2213 22.9653C24.0604 23.1179 23.8455 23.2 23.625 23.2C23.5485 23.2 23.4698 23.1893 23.3944 23.1701L20.4131 22.3648C19.3264 22.9131 18.1103 23.2 16.875 23.2C14.2999 23.2 11.9093 21.9403 10.5143 19.904C9.43315 19.7568 8.38127 19.4368 7.4104 18.9387L3.60677 19.9691C3.53027 19.9904 3.45152 20 3.37502 20C3.15452 20 2.93852 19.9179 2.77877 19.7653C2.56277 19.5605 2.47952 19.2587 2.56502 18.9803L3.65177 15.3739C2.91827 14.0885 2.5324 12.6528 2.5324 11.2C2.53127 6.34773 6.6949 2.4 11.8125 2.4C16.488 2.4 20.3569 5.69813 20.9914 9.968C23.1401 11.2917 24.4688 13.5573 24.4688 16C24.4688 17.1712 24.165 18.3243 23.5879 19.3547L24.4361 22.1813ZM11.8114 18.4C15.9986 18.4 19.4051 15.1701 19.4051 11.2C19.4051 7.22987 15.9986 4 11.8114 4C7.62415 4 4.21765 7.22987 4.21765 11.2C4.21765 12.4821 4.58665 13.7493 5.28302 14.864C5.40115 15.0539 5.43265 15.2811 5.36852 15.4923L4.6024 18.0352L7.2844 17.3088C7.35977 17.2875 7.43852 17.2779 7.51615 17.2779C7.6669 17.2779 7.8154 17.3152 7.94702 17.3899C9.12265 18.0501 10.458 18.4 11.8114 18.4ZM21.9544 18.8437C22.4944 17.984 22.7801 17.0005 22.7801 16C22.7801 14.5003 22.14 13.0805 21.0476 12.0427C20.6269 16.2229 17.109 19.5584 12.7001 19.9573C13.7948 20.9931 15.2921 21.6 16.8739 21.6C17.9291 21.6 18.9664 21.3291 19.8731 20.8171C20.0723 20.7061 20.313 20.6763 20.5358 20.7349L22.3976 21.2384L21.8666 19.4731C21.8025 19.2619 21.8351 19.0336 21.9533 18.8448L21.9544 18.8437Z" fill="white"/>
</g>
<defs>
<clipPath id="clip0_80_6716">
<rect width="27" height="32" fill="white"/>
</clipPath>
</defs>
</svg>
