<svg width="24" height="24" viewBox="0 0 24 24" fill="none" xmlns="http://www.w3.org/2000/svg">
<path d="M6.42744 10.7104C6.42108 11.5416 5.89518 12.3178 5.10421 12.5977C4.30052 12.8797 3.40776 12.6295 2.8649 11.9764C2.33264 11.3338 2.2775 10.3859 2.70586 9.67767C3.13421 8.9694 3.98668 8.58134 4.80309 8.74462C5.73826 8.92911 6.42108 9.75613 6.42744 10.7104C6.42956 10.9839 6.85367 10.9839 6.85155 10.7104C6.84519 9.69464 6.2069 8.78491 5.25689 8.42866C4.31324 8.07453 3.19571 8.37777 2.55742 9.15601C1.91065 9.94486 1.81098 11.0794 2.34112 11.9594C2.86914 12.8352 3.90185 13.2826 4.90276 13.0897C5.87398 12.903 6.67131 12.0824 6.81975 11.1027C6.83883 10.9712 6.85155 10.8419 6.85367 10.7104C6.85155 10.439 6.42744 10.4368 6.42744 10.7104Z" fill="white"/>
<path d="M12.4859 16.9321C12.4795 18.0242 11.7903 19.042 10.7576 19.4174C9.69947 19.8012 8.50771 19.4746 7.78884 18.6115C7.07845 17.7591 7.00211 16.5058 7.57254 15.5601C8.14298 14.6185 9.2796 14.1138 10.3611 14.3365C11.4404 14.5592 12.2759 15.4371 12.4562 16.5228C12.4774 16.6564 12.4859 16.7942 12.4859 16.9321C12.488 17.2056 12.9121 17.2056 12.91 16.9321C12.9036 15.647 12.0893 14.4871 10.8827 14.0439C9.68462 13.6028 8.27657 13.9866 7.47076 14.9748C6.65646 15.9736 6.53559 17.4092 7.20569 18.5182C7.87366 19.6209 9.18205 20.1892 10.4459 19.9433C11.6758 19.7036 12.6789 18.6667 12.8697 17.4262C12.8952 17.2629 12.91 17.0975 12.91 16.9321C12.9121 16.6585 12.488 16.6585 12.4859 16.9321Z" fill="white"/>
<path d="M18.7394 9.1581C18.7331 9.87485 18.2835 10.5471 17.6007 10.7888C16.9073 11.0348 16.1375 10.8249 15.6646 10.2629C15.1938 9.70521 15.1451 8.87819 15.5204 8.25899C15.8915 7.64614 16.6337 7.3111 17.3399 7.45529C18.1499 7.61858 18.7331 8.33321 18.7394 9.1581C18.7415 9.43166 19.1657 9.43166 19.1635 9.1581C19.1572 8.25262 18.5889 7.44469 17.7406 7.12873C16.9051 6.817 15.9127 7.08632 15.3486 7.7755C14.7719 8.47952 14.6807 9.48891 15.1557 10.2714C15.6264 11.0518 16.5489 11.4483 17.4395 11.2723C18.4362 11.0751 19.1572 10.1633 19.1635 9.1581C19.1657 8.88455 18.7415 8.88455 18.7394 9.1581Z" fill="white"/>
<path d="M5.63011 12.6125C6.2578 13.291 6.88548 13.9717 7.51317 14.6503C7.60011 14.7457 7.68918 14.8412 7.77612 14.9345C7.96061 15.1359 8.26173 14.8348 8.07512 14.6355C7.44743 13.9569 6.81975 13.2762 6.19206 12.5976C6.10512 12.5022 6.01605 12.4068 5.92911 12.3135C5.74462 12.112 5.44562 12.4131 5.63011 12.6125Z" fill="white"/>
<path d="M12.1148 15.1508C12.5304 14.6822 12.946 14.2156 13.3617 13.747C14.0233 13.0027 14.6849 12.2584 15.3465 11.5119C15.4971 11.3423 15.6476 11.1726 15.7982 11.003C15.9784 10.7994 15.6794 10.4983 15.4992 10.704C15.0836 11.1726 14.6679 11.6392 14.2523 12.1078C13.5907 12.8521 12.9291 13.5964 12.2675 14.3429C12.1169 14.5125 11.9663 14.6822 11.8158 14.8518C11.6355 15.0554 11.9345 15.3565 12.1148 15.1508Z" fill="white"/>
<path d="M21.6085 13.6537C21.6043 13.9654 21.4156 14.2538 21.1187 14.3641C20.8133 14.4786 20.4634 14.3832 20.2577 14.1287C20.0626 13.887 20.0393 13.5371 20.1941 13.2699C20.3532 12.9963 20.684 12.8415 20.9957 12.9073C21.352 12.9836 21.6022 13.289 21.6085 13.6537C21.6128 13.9273 22.0369 13.9273 22.0327 13.6537C22.0242 13.1533 21.7146 12.7122 21.2459 12.5383C20.79 12.3708 20.2471 12.5213 19.9418 12.8988C19.6301 13.2826 19.5792 13.834 19.8379 14.2623C20.0966 14.6907 20.5949 14.9027 21.0826 14.8137C21.6361 14.714 22.0263 14.2051 22.0348 13.6537C22.0369 13.3802 21.6128 13.3802 21.6085 13.6537Z" fill="white"/>
<path d="M18.2517 10.8249C18.7924 11.425 19.3353 12.023 19.876 12.6231C19.9524 12.708 20.0287 12.7907 20.1051 12.8755C20.2874 13.0791 20.5885 12.7779 20.4041 12.5765C19.8633 11.9764 19.3205 11.3784 18.7797 10.7783C18.7034 10.6934 18.627 10.6107 18.5507 10.5259C18.3683 10.3223 18.0693 10.6235 18.2517 10.8249Z" fill="white"/>
</svg>
