<svg width="358" height="360" viewBox="0 0 358 360" fill="none" xmlns="http://www.w3.org/2000/svg">
<rect x="44" y="44" width="272" height="272" stroke="#6B7B92" stroke-width="2"/>
<path d="M247 45L247 316" stroke="white" stroke-opacity="0.125" stroke-linecap="round"/>
<path d="M180 45L180 316" stroke="white" stroke-opacity="0.125" stroke-linecap="round"/>
<path d="M112 45L112 316" stroke="white" stroke-opacity="0.125" stroke-linecap="round"/>
<path d="M45 247L317 247" stroke="white" stroke-opacity="0.125" stroke-linecap="round"/>
<path d="M45 180L315 180" stroke="white" stroke-opacity="0.125" stroke-linecap="round"/>
<path d="M45 112L317 112" stroke="white" stroke-opacity="0.125" stroke-linecap="round"/>
<rect width="67.5" height="67.5" transform="translate(180 45)" fill="#3A4C5B" fill-opacity="0.49"/>
<path d="M200.274 74.1534C200.723 74.1534 201.155 74.2287 201.57 74.3793C201.987 74.5298 202.359 74.7699 202.686 75.0994C203.016 75.429 203.276 75.8665 203.466 76.4119C203.659 76.9545 203.757 77.6207 203.76 78.4105C203.76 79.152 203.676 79.8139 203.509 80.3963C203.344 80.9759 203.107 81.4688 202.797 81.875C202.487 82.2812 202.114 82.5909 201.676 82.804C201.239 83.0142 200.75 83.1193 200.21 83.1193C199.628 83.1193 199.114 83.0071 198.668 82.7827C198.222 82.5554 197.862 82.2472 197.59 81.858C197.32 81.4659 197.156 81.0256 197.099 80.5369H198.919C198.99 80.8551 199.139 81.1023 199.367 81.2784C199.594 81.4517 199.875 81.5384 200.21 81.5384C200.778 81.5384 201.21 81.2912 201.506 80.7969C201.801 80.2997 201.95 79.6193 201.953 78.7557H201.894C201.763 79.0114 201.587 79.2315 201.365 79.4162C201.144 79.598 200.889 79.7386 200.602 79.8381C200.318 79.9375 200.016 79.9872 199.695 79.9872C199.18 79.9872 198.722 79.8665 198.318 79.625C197.915 79.3835 197.597 79.0511 197.364 78.6278C197.131 78.2045 197.014 77.7216 197.014 77.179C197.011 76.5938 197.146 76.0724 197.419 75.6151C197.692 75.1577 198.072 74.7997 198.561 74.5412C199.053 74.2798 199.624 74.1506 200.274 74.1534ZM200.287 75.6023C200 75.6023 199.744 75.6705 199.52 75.8068C199.298 75.9432 199.122 76.1264 198.992 76.3565C198.864 76.5866 198.801 76.8437 198.804 77.1278C198.804 77.4148 198.867 77.6733 198.992 77.9034C199.119 78.1307 199.293 78.3125 199.511 78.4489C199.733 78.5824 199.986 78.6491 200.27 78.6491C200.483 78.6491 200.68 78.6094 200.862 78.5298C201.044 78.4503 201.202 78.3409 201.335 78.2017C201.472 78.0597 201.578 77.8963 201.655 77.7116C201.732 77.527 201.77 77.331 201.77 77.1236C201.767 76.848 201.702 76.5952 201.574 76.3651C201.446 76.1349 201.27 75.9503 201.046 75.8111C200.821 75.6719 200.568 75.6023 200.287 75.6023ZM205.629 83L209.247 75.8409V75.7812H205.033V74.2727H211.156V75.8026L207.534 83H205.629ZM212.479 83.1108C212.198 83.1108 211.956 83.0114 211.754 82.8125C211.556 82.6108 211.456 82.3693 211.456 82.0881C211.456 81.8097 211.556 81.571 211.754 81.3722C211.956 81.1733 212.198 81.0739 212.479 81.0739C212.752 81.0739 212.99 81.1733 213.195 81.3722C213.399 81.571 213.502 81.8097 213.502 82.0881C213.502 82.2756 213.453 82.4474 213.357 82.6037C213.263 82.7571 213.139 82.8807 212.986 82.9744C212.833 83.0653 212.664 83.1108 212.479 83.1108ZM218.4 83.1193C217.763 83.1193 217.196 83.0099 216.699 82.7912C216.205 82.5696 215.814 82.2656 215.527 81.8793C215.243 81.4901 215.097 81.0412 215.088 80.5327H216.946C216.958 80.7457 217.027 80.9332 217.155 81.0952C217.286 81.2543 217.459 81.3778 217.675 81.4659C217.891 81.554 218.134 81.598 218.404 81.598C218.685 81.598 218.934 81.5483 219.15 81.4489C219.365 81.3494 219.535 81.2116 219.657 81.0355C219.779 80.8594 219.84 80.6562 219.84 80.4261C219.84 80.1932 219.775 79.9872 219.644 79.8082C219.516 79.6264 219.331 79.4844 219.09 79.3821C218.851 79.2798 218.567 79.2287 218.238 79.2287H217.424V77.8736H218.238C218.516 77.8736 218.762 77.8253 218.975 77.7287C219.191 77.6321 219.358 77.4986 219.478 77.3281C219.597 77.1548 219.657 76.9531 219.657 76.723C219.657 76.5043 219.604 76.3125 219.499 76.1477C219.397 75.9801 219.252 75.8494 219.064 75.7557C218.88 75.6619 218.664 75.6151 218.417 75.6151C218.167 75.6151 217.938 75.6605 217.731 75.7514C217.523 75.8395 217.357 75.9659 217.232 76.1307C217.107 76.2955 217.04 76.4886 217.032 76.7102H215.263C215.272 76.2074 215.415 75.7642 215.694 75.3807C215.972 74.9972 216.347 74.6974 216.819 74.4815C217.293 74.2628 217.829 74.1534 218.425 74.1534C219.027 74.1534 219.554 74.2628 220.006 74.4815C220.458 74.7003 220.809 74.9957 221.059 75.3679C221.312 75.7372 221.437 76.152 221.434 76.6122C221.437 77.1009 221.285 77.5085 220.978 77.8352C220.674 78.1619 220.277 78.3693 219.789 78.4574V78.5256C220.431 78.608 220.919 78.831 221.255 79.1946C221.593 79.5554 221.76 80.0071 221.758 80.5497C221.76 81.0469 221.617 81.4886 221.327 81.875C221.04 82.2614 220.644 82.5653 220.138 82.7869C219.633 83.0085 219.053 83.1193 218.4 83.1193ZM226.751 83.1193C226.149 83.1193 225.612 83.0085 225.141 82.7869C224.672 82.5653 224.3 82.2599 224.024 81.8707C223.749 81.4815 223.605 81.0355 223.594 80.5327H225.383C225.403 80.8707 225.545 81.1449 225.81 81.3551C226.074 81.5653 226.388 81.6705 226.751 81.6705C227.041 81.6705 227.297 81.6065 227.518 81.4787C227.743 81.348 227.918 81.1676 228.043 80.9375C228.17 80.7045 228.234 80.4375 228.234 80.1364C228.234 79.8295 228.169 79.5597 228.038 79.3267C227.91 79.0937 227.733 78.9119 227.506 78.7812C227.278 78.6506 227.018 78.5838 226.726 78.581C226.47 78.581 226.222 78.6335 225.98 78.7386C225.741 78.8437 225.555 78.9872 225.422 79.169L223.781 78.875L224.195 74.2727H229.53V75.7812H225.716L225.49 77.9673H225.541C225.695 77.7514 225.926 77.5724 226.236 77.4304C226.545 77.2884 226.892 77.2173 227.276 77.2173C227.801 77.2173 228.27 77.3409 228.682 77.5881C229.094 77.8352 229.419 78.1747 229.658 78.6065C229.896 79.0355 230.014 79.5298 230.011 80.0895C230.014 80.6776 229.878 81.2003 229.602 81.6577C229.329 82.1122 228.947 82.4702 228.456 82.7315C227.967 82.9901 227.399 83.1193 226.751 83.1193Z" fill="white"/>
<rect width="67.5" height="67.5" transform="translate(247.5 112.5)" fill="#3A4C5B" fill-opacity="0.49"/>
<path d="M266.137 141.153C266.586 141.153 267.018 141.229 267.433 141.379C267.851 141.53 268.223 141.77 268.549 142.099C268.879 142.429 269.139 142.866 269.329 143.412C269.522 143.955 269.62 144.621 269.623 145.411C269.623 146.152 269.539 146.814 269.372 147.396C269.207 147.976 268.97 148.469 268.66 148.875C268.351 149.281 267.977 149.591 267.539 149.804C267.102 150.014 266.613 150.119 266.074 150.119C265.491 150.119 264.977 150.007 264.531 149.783C264.085 149.555 263.726 149.247 263.453 148.858C263.183 148.466 263.02 148.026 262.963 147.537H264.782C264.853 147.855 265.003 148.102 265.23 148.278C265.457 148.452 265.738 148.538 266.074 148.538C266.642 148.538 267.074 148.291 267.369 147.797C267.664 147.3 267.814 146.619 267.816 145.756H267.757C267.626 146.011 267.45 146.232 267.228 146.416C267.007 146.598 266.753 146.739 266.466 146.838C266.182 146.938 265.879 146.987 265.558 146.987C265.044 146.987 264.585 146.866 264.182 146.625C263.778 146.384 263.46 146.051 263.227 145.628C262.994 145.205 262.878 144.722 262.878 144.179C262.875 143.594 263.01 143.072 263.282 142.615C263.555 142.158 263.936 141.8 264.424 141.541C264.916 141.28 265.487 141.151 266.137 141.153ZM266.15 142.602C265.863 142.602 265.608 142.67 265.383 142.807C265.162 142.943 264.985 143.126 264.855 143.357C264.727 143.587 264.664 143.844 264.667 144.128C264.667 144.415 264.73 144.673 264.855 144.903C264.983 145.131 265.156 145.312 265.375 145.449C265.596 145.582 265.849 145.649 266.133 145.649C266.346 145.649 266.544 145.609 266.726 145.53C266.907 145.45 267.065 145.341 267.199 145.202C267.335 145.06 267.441 144.896 267.518 144.712C267.595 144.527 267.633 144.331 267.633 144.124C267.63 143.848 267.565 143.595 267.437 143.365C267.309 143.135 267.133 142.95 266.909 142.811C266.684 142.672 266.432 142.602 266.15 142.602ZM274.731 150.119C274.282 150.116 273.849 150.041 273.431 149.893C273.017 149.746 272.644 149.506 272.315 149.173C271.985 148.841 271.724 148.401 271.531 147.852C271.34 147.304 271.245 146.631 271.245 145.832C271.248 145.099 271.332 144.445 271.497 143.868C271.664 143.288 271.903 142.797 272.213 142.393C272.525 141.99 272.899 141.683 273.333 141.473C273.768 141.26 274.255 141.153 274.795 141.153C275.377 141.153 275.892 141.267 276.338 141.494C276.784 141.719 277.142 142.024 277.412 142.411C277.684 142.797 277.849 143.23 277.906 143.71H276.086C276.015 143.406 275.866 143.168 275.639 142.994C275.412 142.821 275.13 142.734 274.795 142.734C274.227 142.734 273.795 142.982 273.5 143.476C273.207 143.97 273.058 144.642 273.052 145.491H273.112C273.242 145.233 273.419 145.013 273.64 144.831C273.865 144.646 274.119 144.506 274.403 144.409C274.69 144.31 274.992 144.26 275.311 144.26C275.828 144.26 276.288 144.382 276.691 144.626C277.095 144.868 277.413 145.2 277.646 145.624C277.879 146.047 277.995 146.531 277.995 147.077C277.995 147.668 277.858 148.193 277.582 148.653C277.309 149.114 276.927 149.474 276.436 149.736C275.947 149.994 275.379 150.122 274.731 150.119ZM274.723 148.67C275.007 148.67 275.261 148.602 275.485 148.466C275.71 148.33 275.886 148.145 276.014 147.912C276.142 147.679 276.206 147.418 276.206 147.128C276.206 146.838 276.142 146.578 276.014 146.348C275.889 146.118 275.715 145.935 275.494 145.798C275.272 145.662 275.019 145.594 274.735 145.594C274.522 145.594 274.325 145.634 274.143 145.713C273.964 145.793 273.806 145.903 273.67 146.045C273.537 146.187 273.431 146.352 273.355 146.54C273.278 146.724 273.24 146.922 273.24 147.132C273.24 147.413 273.304 147.67 273.431 147.903C273.562 148.136 273.738 148.322 273.96 148.462C274.184 148.601 274.439 148.67 274.723 148.67ZM280.498 150.111C280.217 150.111 279.976 150.011 279.774 149.812C279.575 149.611 279.476 149.369 279.476 149.088C279.476 148.81 279.575 148.571 279.774 148.372C279.976 148.173 280.217 148.074 280.498 148.074C280.771 148.074 281.01 148.173 281.214 148.372C281.419 148.571 281.521 148.81 281.521 149.088C281.521 149.276 281.473 149.447 281.376 149.604C281.282 149.757 281.159 149.881 281.006 149.974C280.852 150.065 280.683 150.111 280.498 150.111ZM283.474 150V148.67L286.581 145.794C286.845 145.538 287.067 145.308 287.246 145.104C287.428 144.899 287.565 144.699 287.659 144.503C287.753 144.304 287.8 144.089 287.8 143.859C287.8 143.604 287.742 143.384 287.625 143.199C287.509 143.011 287.349 142.868 287.148 142.768C286.946 142.666 286.717 142.615 286.462 142.615C286.195 142.615 285.962 142.669 285.763 142.777C285.564 142.885 285.411 143.04 285.303 143.241C285.195 143.443 285.141 143.683 285.141 143.962H283.389C283.389 143.391 283.519 142.895 283.777 142.474C284.036 142.054 284.398 141.729 284.864 141.499C285.33 141.268 285.867 141.153 286.474 141.153C287.099 141.153 287.644 141.264 288.107 141.486C288.573 141.705 288.935 142.009 289.193 142.398C289.452 142.787 289.581 143.233 289.581 143.736C289.581 144.065 289.516 144.391 289.385 144.712C289.257 145.033 289.028 145.389 288.699 145.781C288.369 146.17 287.905 146.638 287.305 147.183L286.031 148.432V148.491H289.696V150H283.474ZM294.863 150.119C294.414 150.116 293.98 150.041 293.563 149.893C293.148 149.746 292.776 149.506 292.446 149.173C292.117 148.841 291.855 148.401 291.662 147.852C291.472 147.304 291.377 146.631 291.377 145.832C291.38 145.099 291.463 144.445 291.628 143.868C291.796 143.288 292.034 142.797 292.344 142.393C292.657 141.99 293.03 141.683 293.465 141.473C293.899 141.26 294.387 141.153 294.926 141.153C295.509 141.153 296.023 141.267 296.469 141.494C296.915 141.719 297.273 142.024 297.543 142.411C297.816 142.797 297.98 143.23 298.037 143.71H296.218C296.147 143.406 295.997 143.168 295.77 142.994C295.543 142.821 295.262 142.734 294.926 142.734C294.358 142.734 293.926 142.982 293.631 143.476C293.338 143.97 293.189 144.642 293.184 145.491H293.243C293.374 145.233 293.55 145.013 293.772 144.831C293.996 144.646 294.25 144.506 294.534 144.409C294.821 144.31 295.124 144.26 295.442 144.26C295.959 144.26 296.419 144.382 296.823 144.626C297.226 144.868 297.544 145.2 297.777 145.624C298.01 146.047 298.127 146.531 298.127 147.077C298.127 147.668 297.989 148.193 297.713 148.653C297.441 149.114 297.059 149.474 296.567 149.736C296.078 149.994 295.51 150.122 294.863 150.119ZM294.854 148.67C295.138 148.67 295.392 148.602 295.617 148.466C295.841 148.33 296.017 148.145 296.145 147.912C296.273 147.679 296.337 147.418 296.337 147.128C296.337 146.838 296.273 146.578 296.145 146.348C296.02 146.118 295.847 145.935 295.625 145.798C295.404 145.662 295.151 145.594 294.867 145.594C294.654 145.594 294.456 145.634 294.274 145.713C294.095 145.793 293.938 145.903 293.801 146.045C293.668 146.187 293.563 146.352 293.486 146.54C293.409 146.724 293.371 146.922 293.371 147.132C293.371 147.413 293.435 147.67 293.563 147.903C293.693 148.136 293.87 148.322 294.091 148.462C294.316 148.601 294.57 148.67 294.854 148.67Z" fill="white"/>
<rect width="67.5" height="67.5" transform="translate(45 180)" fill="#3A4C5B" fill-opacity="0.49"/>
<path d="M65.2742 209.153C65.7231 209.153 66.1549 209.229 66.5697 209.379C66.9873 209.53 67.3594 209.77 67.6861 210.099C68.0157 210.429 68.2756 210.866 68.466 211.412C68.6591 211.955 68.7572 212.621 68.76 213.411C68.76 214.152 68.6762 214.814 68.5086 215.396C68.3438 215.976 68.1066 216.469 67.7969 216.875C67.4873 217.281 67.1137 217.591 66.6762 217.804C66.2387 218.014 65.7501 218.119 65.2103 218.119C64.6279 218.119 64.1137 218.007 63.6677 217.783C63.2216 217.555 62.8623 217.247 62.5895 216.858C62.3197 216.466 62.1563 216.026 62.0995 215.537H63.9191C63.9901 215.855 64.1393 216.102 64.3665 216.278C64.5938 216.452 64.8751 216.538 65.2103 216.538C65.7785 216.538 66.2103 216.291 66.5057 215.797C66.8012 215.3 66.9503 214.619 66.9532 213.756H66.8935C66.7628 214.011 66.5867 214.232 66.3651 214.416C66.1435 214.598 65.8893 214.739 65.6023 214.838C65.3182 214.938 65.0157 214.987 64.6947 214.987C64.1804 214.987 63.7216 214.866 63.3182 214.625C62.9148 214.384 62.5966 214.051 62.3637 213.628C62.1307 213.205 62.0143 212.722 62.0143 212.179C62.0114 211.594 62.1464 211.072 62.4191 210.615C62.6918 210.158 63.0725 209.8 63.5611 209.541C64.0526 209.28 64.6236 209.151 65.2742 209.153ZM65.287 210.602C65.0001 210.602 64.7444 210.67 64.5199 210.807C64.2983 210.943 64.1222 211.126 63.9915 211.357C63.8637 211.587 63.8012 211.844 63.804 212.128C63.804 212.415 63.8665 212.673 63.9915 212.903C64.1194 213.131 64.2927 213.312 64.5114 213.449C64.733 213.582 64.9858 213.649 65.2699 213.649C65.483 213.649 65.6804 213.609 65.8623 213.53C66.0441 213.45 66.2018 213.341 66.3353 213.202C66.4716 213.06 66.5782 212.896 66.6549 212.712C66.7316 212.527 66.7699 212.331 66.7699 212.124C66.7671 211.848 66.7018 211.595 66.5739 211.365C66.4461 211.135 66.2699 210.95 66.0455 210.811C65.8211 210.672 65.5682 210.602 65.287 210.602ZM70.6292 218L74.2471 210.841V210.781H70.0326V209.273H76.1562V210.803L72.534 218H70.6292ZM77.4789 218.111C77.1976 218.111 76.9561 218.011 76.7544 217.812C76.5556 217.611 76.4561 217.369 76.4561 217.088C76.4561 216.81 76.5556 216.571 76.7544 216.372C76.9561 216.173 77.1976 216.074 77.4789 216.074C77.7516 216.074 77.9902 216.173 78.1948 216.372C78.3993 216.571 78.5016 216.81 78.5016 217.088C78.5016 217.276 78.4533 217.447 78.3567 217.604C78.263 217.757 78.1394 217.881 77.986 217.974C77.8326 218.065 77.6635 218.111 77.4789 218.111ZM83.3996 218.119C82.7632 218.119 82.1964 218.01 81.6993 217.791C81.205 217.57 80.8143 217.266 80.5274 216.879C80.2433 216.49 80.097 216.041 80.0885 215.533H81.9464C81.9578 215.746 82.0274 215.933 82.1553 216.095C82.2859 216.254 82.4592 216.378 82.6751 216.466C82.891 216.554 83.1339 216.598 83.4038 216.598C83.6851 216.598 83.9337 216.548 84.1496 216.449C84.3655 216.349 84.5345 216.212 84.6567 216.036C84.7788 215.859 84.8399 215.656 84.8399 215.426C84.8399 215.193 84.7746 214.987 84.6439 214.808C84.516 214.626 84.3314 214.484 84.0899 214.382C83.8513 214.28 83.5672 214.229 83.2376 214.229H82.4237V212.874H83.2376C83.516 212.874 83.7618 212.825 83.9749 212.729C84.1908 212.632 84.3584 212.499 84.4777 212.328C84.597 212.155 84.6567 211.953 84.6567 211.723C84.6567 211.504 84.6041 211.312 84.499 211.148C84.3967 210.98 84.2518 210.849 84.0643 210.756C83.8797 210.662 83.6638 210.615 83.4166 210.615C83.1666 210.615 82.9379 210.661 82.7305 210.751C82.5231 210.839 82.357 210.966 82.232 211.131C82.107 211.295 82.0402 211.489 82.0317 211.71H80.2632C80.2717 211.207 80.4152 210.764 80.6936 210.381C80.972 209.997 81.347 209.697 81.8186 209.482C82.293 209.263 82.8285 209.153 83.4251 209.153C84.0274 209.153 84.5544 209.263 85.0061 209.482C85.4578 209.7 85.8087 209.996 86.0587 210.368C86.3115 210.737 86.4365 211.152 86.4337 211.612C86.4365 212.101 86.2845 212.509 85.9777 212.835C85.6737 213.162 85.2774 213.369 84.7888 213.457V213.526C85.4308 213.608 85.9195 213.831 86.2547 214.195C86.5928 214.555 86.7604 215.007 86.7575 215.55C86.7604 216.047 86.6169 216.489 86.3271 216.875C86.0402 217.261 85.6439 217.565 85.1382 217.787C84.6325 218.009 84.053 218.119 83.3996 218.119ZM91.7514 218.119C91.1491 218.119 90.6122 218.009 90.1406 217.787C89.6718 217.565 89.2997 217.26 89.0241 216.871C88.7485 216.482 88.6051 216.036 88.5937 215.533H90.3835C90.4034 215.871 90.5454 216.145 90.8096 216.355C91.0738 216.565 91.3877 216.67 91.7514 216.67C92.0411 216.67 92.2968 216.607 92.5184 216.479C92.7428 216.348 92.9176 216.168 93.0426 215.938C93.1704 215.705 93.2343 215.437 93.2343 215.136C93.2343 214.83 93.169 214.56 93.0383 214.327C92.9105 214.094 92.7329 213.912 92.5056 213.781C92.2784 213.651 92.0184 213.584 91.7258 213.581C91.4701 213.581 91.2215 213.634 90.9801 213.739C90.7414 213.844 90.5553 213.987 90.4218 214.169L88.7812 213.875L89.1946 209.273H94.5298V210.781H90.7159L90.49 212.967H90.5411C90.6946 212.751 90.9261 212.572 91.2357 212.43C91.5454 212.288 91.892 212.217 92.2755 212.217C92.8011 212.217 93.2698 212.341 93.6818 212.588C94.0937 212.835 94.419 213.175 94.6576 213.607C94.8963 214.036 95.0142 214.53 95.0113 215.089C95.0142 215.678 94.8778 216.2 94.6022 216.658C94.3295 217.112 93.9474 217.47 93.4559 217.732C92.9673 217.99 92.3991 218.119 91.7514 218.119Z" fill="white"/>
<rect width="67.5" height="67.5" transform="translate(112.5 180)" fill="#3A4C5B" fill-opacity="0.49"/>
<path d="M131.483 209.153C131.932 209.153 132.364 209.229 132.779 209.379C133.196 209.53 133.568 209.77 133.895 210.099C134.225 210.429 134.485 210.866 134.675 211.412C134.868 211.955 134.966 212.621 134.969 213.411C134.969 214.152 134.885 214.814 134.718 215.396C134.553 215.976 134.316 216.469 134.006 216.875C133.696 217.281 133.323 217.591 132.885 217.804C132.448 218.014 131.959 218.119 131.419 218.119C130.837 218.119 130.323 218.007 129.877 217.783C129.431 217.555 129.071 217.247 128.799 216.858C128.529 216.466 128.365 216.026 128.308 215.537H130.128C130.199 215.855 130.348 216.102 130.576 216.278C130.803 216.452 131.084 216.538 131.419 216.538C131.987 216.538 132.419 216.291 132.715 215.797C133.01 215.3 133.159 214.619 133.162 213.756H133.103C132.972 214.011 132.796 214.232 132.574 214.416C132.353 214.598 132.098 214.739 131.811 214.838C131.527 214.938 131.225 214.987 130.904 214.987C130.389 214.987 129.931 214.866 129.527 214.625C129.124 214.384 128.806 214.051 128.573 213.628C128.34 213.205 128.223 212.722 128.223 212.179C128.22 211.594 128.355 211.072 128.628 210.615C128.901 210.158 129.281 209.8 129.77 209.541C130.262 209.28 130.833 209.151 131.483 209.153ZM131.496 210.602C131.209 210.602 130.953 210.67 130.729 210.807C130.507 210.943 130.331 211.126 130.201 211.357C130.073 211.587 130.01 211.844 130.013 212.128C130.013 212.415 130.076 212.673 130.201 212.903C130.328 213.131 130.502 213.312 130.72 213.449C130.942 213.582 131.195 213.649 131.479 213.649C131.692 213.649 131.889 213.609 132.071 213.53C132.253 213.45 132.411 213.341 132.544 213.202C132.681 213.06 132.787 212.896 132.864 212.712C132.941 212.527 132.979 212.331 132.979 212.124C132.976 211.848 132.911 211.595 132.783 211.365C132.655 211.135 132.479 210.95 132.254 210.811C132.03 210.672 131.777 210.602 131.496 210.602ZM139.983 218.119C139.327 218.119 138.743 218.013 138.232 217.8C137.723 217.584 137.324 217.29 137.034 216.918C136.744 216.545 136.6 216.124 136.6 215.652C136.6 215.288 136.682 214.955 136.847 214.651C137.014 214.344 137.242 214.089 137.529 213.888C137.815 213.683 138.136 213.553 138.492 213.496V213.436C138.026 213.342 137.648 213.116 137.358 212.759C137.068 212.398 136.923 211.979 136.923 211.501C136.923 211.05 137.056 210.648 137.32 210.295C137.584 209.94 137.946 209.662 138.406 209.46C138.869 209.256 139.395 209.153 139.983 209.153C140.571 209.153 141.095 209.256 141.556 209.46C142.019 209.665 142.382 209.945 142.646 210.3C142.911 210.652 143.044 211.053 143.047 211.501C143.044 211.982 142.896 212.401 142.604 212.759C142.311 213.116 141.936 213.342 141.479 213.436V213.496C141.828 213.553 142.145 213.683 142.429 213.888C142.716 214.089 142.943 214.344 143.111 214.651C143.281 214.955 143.368 215.288 143.371 215.652C143.368 216.124 143.222 216.545 142.932 216.918C142.642 217.29 142.242 217.584 141.73 217.8C141.222 218.013 140.639 218.119 139.983 218.119ZM139.983 216.764C140.276 216.764 140.531 216.712 140.75 216.607C140.969 216.499 141.139 216.351 141.261 216.163C141.386 215.973 141.449 215.754 141.449 215.507C141.449 215.254 141.385 215.031 141.257 214.838C141.129 214.642 140.956 214.489 140.737 214.378C140.519 214.264 140.267 214.207 139.983 214.207C139.702 214.207 139.45 214.264 139.229 214.378C139.007 214.489 138.833 214.642 138.705 214.838C138.58 215.031 138.517 215.254 138.517 215.507C138.517 215.754 138.578 215.973 138.7 216.163C138.823 216.351 138.994 216.499 139.216 216.607C139.438 216.712 139.693 216.764 139.983 216.764ZM139.983 212.865C140.227 212.865 140.445 212.815 140.635 212.716C140.825 212.616 140.975 212.479 141.083 212.303C141.19 212.126 141.244 211.923 141.244 211.693C141.244 211.466 141.19 211.267 141.083 211.097C140.975 210.923 140.827 210.788 140.639 210.692C140.452 210.592 140.233 210.543 139.983 210.543C139.736 210.543 139.517 210.592 139.327 210.692C139.136 210.788 138.987 210.923 138.879 211.097C138.774 211.267 138.722 211.466 138.722 211.693C138.722 211.923 138.776 212.126 138.884 212.303C138.992 212.479 139.141 212.616 139.331 212.716C139.521 212.815 139.739 212.865 139.983 212.865ZM145.973 218.111C145.692 218.111 145.45 218.011 145.249 217.812C145.05 217.611 144.95 217.369 144.95 217.088C144.95 216.81 145.05 216.571 145.249 216.372C145.45 216.173 145.692 216.074 145.973 216.074C146.246 216.074 146.484 216.173 146.689 216.372C146.893 216.571 146.996 216.81 146.996 217.088C146.996 217.276 146.947 217.447 146.851 217.604C146.757 217.757 146.634 217.881 146.48 217.974C146.327 218.065 146.158 218.111 145.973 218.111ZM151.943 209.153C152.392 209.153 152.823 209.229 153.238 209.379C153.656 209.53 154.028 209.77 154.355 210.099C154.684 210.429 154.944 210.866 155.134 211.412C155.328 211.955 155.426 212.621 155.429 213.411C155.429 214.152 155.345 214.814 155.177 215.396C155.012 215.976 154.775 216.469 154.465 216.875C154.156 217.281 153.782 217.591 153.345 217.804C152.907 218.014 152.419 218.119 151.879 218.119C151.296 218.119 150.782 218.007 150.336 217.783C149.89 217.555 149.531 217.247 149.258 216.858C148.988 216.466 148.825 216.026 148.768 215.537H150.588C150.659 215.855 150.808 216.102 151.035 216.278C151.262 216.452 151.544 216.538 151.879 216.538C152.447 216.538 152.879 216.291 153.174 215.797C153.47 215.3 153.619 214.619 153.622 213.756H153.562C153.431 214.011 153.255 214.232 153.034 214.416C152.812 214.598 152.558 214.739 152.271 214.838C151.987 214.938 151.684 214.987 151.363 214.987C150.849 214.987 150.39 214.866 149.987 214.625C149.583 214.384 149.265 214.051 149.032 213.628C148.799 213.205 148.683 212.722 148.683 212.179C148.68 211.594 148.815 211.072 149.088 210.615C149.36 210.158 149.741 209.8 150.23 209.541C150.721 209.28 151.292 209.151 151.943 209.153ZM151.956 210.602C151.669 210.602 151.413 210.67 151.188 210.807C150.967 210.943 150.791 211.126 150.66 211.357C150.532 211.587 150.47 211.844 150.473 212.128C150.473 212.415 150.535 212.673 150.66 212.903C150.788 213.131 150.961 213.312 151.18 213.449C151.402 213.582 151.654 213.649 151.938 213.649C152.152 213.649 152.349 213.609 152.531 213.53C152.713 213.45 152.87 213.341 153.004 213.202C153.14 213.06 153.247 212.896 153.323 212.712C153.4 212.527 153.438 212.331 153.438 212.124C153.436 211.848 153.37 211.595 153.242 211.365C153.115 211.135 152.938 210.95 152.714 210.811C152.49 210.672 152.237 210.602 151.956 210.602ZM157.298 218L160.916 210.841V210.781H156.701V209.273H162.825V210.803L159.203 218H157.298Z" fill="white"/>
<rect width="67.5" height="67.5" transform="translate(112.5 247.5)" fill="#3A4C5B" fill-opacity="0.49"/>
<path d="M131.137 276.153C131.586 276.153 132.018 276.229 132.433 276.379C132.851 276.53 133.223 276.77 133.549 277.099C133.879 277.429 134.139 277.866 134.329 278.412C134.522 278.955 134.62 279.621 134.623 280.411C134.623 281.152 134.539 281.814 134.372 282.396C134.207 282.976 133.97 283.469 133.66 283.875C133.351 284.281 132.977 284.591 132.539 284.804C132.102 285.014 131.613 285.119 131.074 285.119C130.491 285.119 129.977 285.007 129.531 284.783C129.085 284.555 128.726 284.247 128.453 283.858C128.183 283.466 128.02 283.026 127.963 282.537H129.782C129.853 282.855 130.003 283.102 130.23 283.278C130.457 283.452 130.738 283.538 131.074 283.538C131.642 283.538 132.074 283.291 132.369 282.797C132.664 282.3 132.814 281.619 132.816 280.756H132.757C132.626 281.011 132.45 281.232 132.228 281.416C132.007 281.598 131.753 281.739 131.466 281.838C131.182 281.938 130.879 281.987 130.558 281.987C130.044 281.987 129.585 281.866 129.182 281.625C128.778 281.384 128.46 281.051 128.227 280.628C127.994 280.205 127.878 279.722 127.878 279.179C127.875 278.594 128.01 278.072 128.282 277.615C128.555 277.158 128.936 276.8 129.424 276.541C129.916 276.28 130.487 276.151 131.137 276.153ZM131.15 277.602C130.863 277.602 130.608 277.67 130.383 277.807C130.162 277.943 129.985 278.126 129.855 278.357C129.727 278.587 129.664 278.844 129.667 279.128C129.667 279.415 129.73 279.673 129.855 279.903C129.983 280.131 130.156 280.312 130.375 280.449C130.596 280.582 130.849 280.649 131.133 280.649C131.346 280.649 131.544 280.609 131.726 280.53C131.907 280.45 132.065 280.341 132.199 280.202C132.335 280.06 132.441 279.896 132.518 279.712C132.595 279.527 132.633 279.331 132.633 279.124C132.63 278.848 132.565 278.595 132.437 278.365C132.309 278.135 132.133 277.95 131.909 277.811C131.684 277.672 131.432 277.602 131.15 277.602ZM139.731 285.119C139.282 285.116 138.849 285.041 138.431 284.893C138.017 284.746 137.644 284.506 137.315 284.173C136.985 283.841 136.724 283.401 136.531 282.852C136.34 282.304 136.245 281.631 136.245 280.832C136.248 280.099 136.332 279.445 136.497 278.868C136.664 278.288 136.903 277.797 137.213 277.393C137.525 276.99 137.899 276.683 138.333 276.473C138.768 276.26 139.255 276.153 139.795 276.153C140.377 276.153 140.892 276.267 141.338 276.494C141.784 276.719 142.142 277.024 142.412 277.411C142.684 277.797 142.849 278.23 142.906 278.71H141.086C141.015 278.406 140.866 278.168 140.639 277.994C140.412 277.821 140.13 277.734 139.795 277.734C139.227 277.734 138.795 277.982 138.5 278.476C138.207 278.97 138.058 279.642 138.052 280.491H138.112C138.242 280.233 138.419 280.013 138.64 279.831C138.865 279.646 139.119 279.506 139.403 279.409C139.69 279.31 139.992 279.26 140.311 279.26C140.828 279.26 141.288 279.382 141.691 279.626C142.095 279.868 142.413 280.2 142.646 280.624C142.879 281.047 142.995 281.531 142.995 282.077C142.995 282.668 142.858 283.193 142.582 283.653C142.309 284.114 141.927 284.474 141.436 284.736C140.947 284.994 140.379 285.122 139.731 285.119ZM139.723 283.67C140.007 283.67 140.261 283.602 140.485 283.466C140.71 283.33 140.886 283.145 141.014 282.912C141.142 282.679 141.206 282.418 141.206 282.128C141.206 281.838 141.142 281.578 141.014 281.348C140.889 281.118 140.715 280.935 140.494 280.798C140.272 280.662 140.019 280.594 139.735 280.594C139.522 280.594 139.325 280.634 139.143 280.713C138.964 280.793 138.806 280.903 138.67 281.045C138.537 281.187 138.431 281.352 138.355 281.54C138.278 281.724 138.24 281.922 138.24 282.132C138.24 282.413 138.304 282.67 138.431 282.903C138.562 283.136 138.738 283.322 138.96 283.462C139.184 283.601 139.439 283.67 139.723 283.67ZM145.498 285.111C145.217 285.111 144.976 285.011 144.774 284.812C144.575 284.611 144.476 284.369 144.476 284.088C144.476 283.81 144.575 283.571 144.774 283.372C144.976 283.173 145.217 283.074 145.498 283.074C145.771 283.074 146.01 283.173 146.214 283.372C146.419 283.571 146.521 283.81 146.521 284.088C146.521 284.276 146.473 284.447 146.376 284.604C146.282 284.757 146.159 284.881 146.006 284.974C145.852 285.065 145.683 285.111 145.498 285.111ZM148.474 285V283.67L151.581 280.794C151.845 280.538 152.067 280.308 152.246 280.104C152.428 279.899 152.565 279.699 152.659 279.503C152.753 279.304 152.8 279.089 152.8 278.859C152.8 278.604 152.742 278.384 152.625 278.199C152.509 278.011 152.349 277.868 152.148 277.768C151.946 277.666 151.717 277.615 151.462 277.615C151.195 277.615 150.962 277.669 150.763 277.777C150.564 277.885 150.411 278.04 150.303 278.241C150.195 278.443 150.141 278.683 150.141 278.962H148.389C148.389 278.391 148.519 277.895 148.777 277.474C149.036 277.054 149.398 276.729 149.864 276.499C150.33 276.268 150.867 276.153 151.474 276.153C152.099 276.153 152.644 276.264 153.107 276.486C153.573 276.705 153.935 277.009 154.193 277.398C154.452 277.787 154.581 278.233 154.581 278.736C154.581 279.065 154.516 279.391 154.385 279.712C154.257 280.033 154.028 280.389 153.699 280.781C153.369 281.17 152.905 281.638 152.305 282.183L151.031 283.432V283.491H154.696V285H148.474ZM159.863 285.119C159.414 285.116 158.98 285.041 158.563 284.893C158.148 284.746 157.776 284.506 157.446 284.173C157.117 283.841 156.855 283.401 156.662 282.852C156.472 282.304 156.377 281.631 156.377 280.832C156.38 280.099 156.463 279.445 156.628 278.868C156.796 278.288 157.034 277.797 157.344 277.393C157.657 276.99 158.03 276.683 158.465 276.473C158.899 276.26 159.387 276.153 159.926 276.153C160.509 276.153 161.023 276.267 161.469 276.494C161.915 276.719 162.273 277.024 162.543 277.411C162.816 277.797 162.98 278.23 163.037 278.71H161.218C161.147 278.406 160.997 278.168 160.77 277.994C160.543 277.821 160.262 277.734 159.926 277.734C159.358 277.734 158.926 277.982 158.631 278.476C158.338 278.97 158.189 279.642 158.184 280.491H158.243C158.374 280.233 158.55 280.013 158.772 279.831C158.996 279.646 159.25 279.506 159.534 279.409C159.821 279.31 160.124 279.26 160.442 279.26C160.959 279.26 161.419 279.382 161.823 279.626C162.226 279.868 162.544 280.2 162.777 280.624C163.01 281.047 163.127 281.531 163.127 282.077C163.127 282.668 162.989 283.193 162.713 283.653C162.441 284.114 162.059 284.474 161.567 284.736C161.078 284.994 160.51 285.122 159.863 285.119ZM159.854 283.67C160.138 283.67 160.392 283.602 160.617 283.466C160.841 283.33 161.017 283.145 161.145 282.912C161.273 282.679 161.337 282.418 161.337 282.128C161.337 281.838 161.273 281.578 161.145 281.348C161.02 281.118 160.847 280.935 160.625 280.798C160.404 280.662 160.151 280.594 159.867 280.594C159.654 280.594 159.456 280.634 159.274 280.713C159.095 280.793 158.938 280.903 158.801 281.045C158.668 281.187 158.563 281.352 158.486 281.54C158.409 281.724 158.371 281.922 158.371 282.132C158.371 282.413 158.435 282.67 158.563 282.903C158.693 283.136 158.87 283.322 159.091 283.462C159.316 283.601 159.57 283.67 159.854 283.67Z" fill="white"/>
<rect width="67.5" height="67.5" transform="translate(45 45)" fill="black" fill-opacity="0.125"/>
<path d="M80.4901 78.696V80.1364H76.5099V78.696H80.4901Z" fill="white"/>
<rect width="67.5" height="67.5" transform="translate(112.5 112.5)" fill="black" fill-opacity="0.125"/>
<path d="M148.153 145.261V147.182H142.847V145.261H148.153Z" fill="white"/>
<rect width="67.5" height="67.5" transform="translate(180 180)" fill="black" fill-opacity="0.125"/>
<path d="M216.153 213.261V215.182H210.847V213.261H216.153Z" fill="white"/>
<g clip-path="url(#clip0_484_747)">
<rect width="67.5" height="67.5" transform="translate(45 247.5)" fill="black" fill-opacity="0.125"/>
<path d="M80.4901 280.696V282.136H76.5099V280.696H80.4901Z" fill="white"/>
<rect width="67.5" height="67.5" transform="translate(44.5 248)" fill="#3A4C5B" fill-opacity="0.49"/>
<path d="M64.1043 277.153C64.5531 277.153 64.985 277.229 65.3997 277.379C65.8173 277.53 66.1895 277.77 66.5162 278.099C66.8458 278.429 67.1057 278.866 67.296 279.412C67.4892 279.955 67.5872 280.621 67.5901 281.411C67.5901 282.152 67.5063 282.814 67.3387 283.396C67.1739 283.976 66.9367 284.469 66.627 284.875C66.3173 285.281 65.9438 285.591 65.5063 285.804C65.0688 286.014 64.5801 286.119 64.0404 286.119C63.458 286.119 62.9438 286.007 62.4977 285.783C62.0517 285.555 61.6923 285.247 61.4196 284.858C61.1497 284.466 60.9864 284.026 60.9296 283.537H62.7492C62.8202 283.855 62.9693 284.102 63.1966 284.278C63.4239 284.452 63.7051 284.538 64.0404 284.538C64.6085 284.538 65.0404 284.291 65.3358 283.797C65.6313 283.3 65.7804 282.619 65.7833 281.756H65.7236C65.5929 282.011 65.4168 282.232 65.1952 282.416C64.9736 282.598 64.7193 282.739 64.4324 282.838C64.1483 282.938 63.8458 282.987 63.5247 282.987C63.0105 282.987 62.5517 282.866 62.1483 282.625C61.7449 282.384 61.4267 282.051 61.1938 281.628C60.9608 281.205 60.8443 280.722 60.8443 280.179C60.8415 279.594 60.9764 279.072 61.2492 278.615C61.5219 278.158 61.9026 277.8 62.3912 277.541C62.8827 277.28 63.4537 277.151 64.1043 277.153ZM64.1171 278.602C63.8301 278.602 63.5744 278.67 63.35 278.807C63.1284 278.943 62.9523 279.126 62.8216 279.357C62.6938 279.587 62.6313 279.844 62.6341 280.128C62.6341 280.415 62.6966 280.673 62.8216 280.903C62.9494 281.131 63.1227 281.312 63.3415 281.449C63.5631 281.582 63.8159 281.649 64.1 281.649C64.3131 281.649 64.5105 281.609 64.6923 281.53C64.8742 281.45 65.0318 281.341 65.1654 281.202C65.3017 281.06 65.4083 280.896 65.485 280.712C65.5617 280.527 65.6 280.331 65.6 280.124C65.5972 279.848 65.5318 279.595 65.404 279.365C65.2762 279.135 65.1 278.95 64.8756 278.811C64.6512 278.672 64.3983 278.602 64.1171 278.602ZM72.5062 277.153C72.955 277.153 73.3868 277.229 73.8016 277.379C74.2192 277.53 74.5914 277.77 74.9181 278.099C75.2476 278.429 75.5076 278.866 75.6979 279.412C75.8911 279.955 75.9891 280.621 75.9919 281.411C75.9919 282.152 75.9081 282.814 75.7405 283.396C75.5758 283.976 75.3385 284.469 75.0289 284.875C74.7192 285.281 74.3456 285.591 73.9081 285.804C73.4706 286.014 72.982 286.119 72.4422 286.119C71.8598 286.119 71.3456 286.007 70.8996 285.783C70.4536 285.555 70.0942 285.247 69.8215 284.858C69.5516 284.466 69.3883 284.026 69.3314 283.537H71.151C71.2221 283.855 71.3712 284.102 71.5985 284.278C71.8258 284.452 72.107 284.538 72.4422 284.538C73.0104 284.538 73.4422 284.291 73.7377 283.797C74.0331 283.3 74.1823 282.619 74.1851 281.756H74.1255C73.9948 282.011 73.8187 282.232 73.5971 282.416C73.3755 282.598 73.1212 282.739 72.8343 282.838C72.5502 282.938 72.2476 282.987 71.9266 282.987C71.4124 282.987 70.9536 282.866 70.5502 282.625C70.1468 282.384 69.8286 282.051 69.5956 281.628C69.3627 281.205 69.2462 280.722 69.2462 280.179C69.2434 279.594 69.3783 279.072 69.651 278.615C69.9238 278.158 70.3044 277.8 70.7931 277.541C71.2846 277.28 71.8556 277.151 72.5062 277.153ZM72.5189 278.602C72.232 278.602 71.9763 278.67 71.7519 278.807C71.5303 278.943 71.3542 279.126 71.2235 279.357C71.0956 279.587 71.0331 279.844 71.036 280.128C71.036 280.415 71.0985 280.673 71.2235 280.903C71.3513 281.131 71.5246 281.312 71.7434 281.449C71.965 281.582 72.2178 281.649 72.5019 281.649C72.715 281.649 72.9124 281.609 73.0942 281.53C73.276 281.45 73.4337 281.341 73.5672 281.202C73.7036 281.06 73.8101 280.896 73.8868 280.712C73.9635 280.527 74.0019 280.331 74.0019 280.124C73.999 279.848 73.9337 279.595 73.8059 279.365C73.678 279.135 73.5019 278.95 73.2775 278.811C73.053 278.672 72.8002 278.602 72.5189 278.602ZM78.4769 286.111C78.1957 286.111 77.9542 286.011 77.7525 285.812C77.5536 285.611 77.4542 285.369 77.4542 285.088C77.4542 284.81 77.5536 284.571 77.7525 284.372C77.9542 284.173 78.1957 284.074 78.4769 284.074C78.7496 284.074 78.9883 284.173 79.1928 284.372C79.3974 284.571 79.4996 284.81 79.4996 285.088C79.4996 285.276 79.4513 285.447 79.3548 285.604C79.261 285.757 79.1374 285.881 78.984 285.974C78.8306 286.065 78.6616 286.111 78.4769 286.111ZM84.5702 286.119C83.9679 286.119 83.431 286.009 82.9594 285.787C82.4907 285.565 82.1185 285.26 81.8429 284.871C81.5674 284.482 81.4239 284.036 81.4125 283.533H83.2023C83.2222 283.871 83.3642 284.145 83.6284 284.355C83.8926 284.565 84.2066 284.67 84.5702 284.67C84.86 284.67 85.1157 284.607 85.3372 284.479C85.5617 284.348 85.7364 284.168 85.8614 283.938C85.9892 283.705 86.0532 283.437 86.0532 283.136C86.0532 282.83 85.9878 282.56 85.8571 282.327C85.7293 282.094 85.5517 281.912 85.3245 281.781C85.0972 281.651 84.8372 281.584 84.5446 281.581C84.289 281.581 84.0404 281.634 83.7989 281.739C83.5603 281.844 83.3742 281.987 83.2407 282.169L81.6 281.875L82.0134 277.273H87.3486V278.781H83.5347L83.3088 280.967H83.36C83.5134 280.751 83.7449 280.572 84.0546 280.43C84.3642 280.288 84.7108 280.217 85.0943 280.217C85.6199 280.217 86.0887 280.341 86.5006 280.588C86.9125 280.835 87.2378 281.175 87.4765 281.607C87.7151 282.036 87.833 282.53 87.8301 283.089C87.833 283.678 87.6966 284.2 87.4211 284.658C87.1483 285.112 86.7662 285.47 86.2747 285.732C85.7861 285.99 85.2179 286.119 84.5702 286.119ZM93.3939 277.273V286H91.5488V279.024H91.4976L89.4991 280.277V278.641L91.6596 277.273H93.3939Z" fill="white"/>
</g>
<rect width="67.5" height="67.5" transform="translate(247.5 247.5)" fill="black" fill-opacity="0.125"/>
<path d="M285.49 280.696V282.136H281.51V280.696H285.49Z" fill="white"/>
<g clip-path="url(#clip1_484_747)">
<rect width="67.5" height="67.5" transform="translate(247.5 45)" fill="black" fill-opacity="0.125"/>
<path d="M285.49 78.696V80.1364H281.51V78.696H285.49Z" fill="white"/>
<rect width="67.5" height="67.5" transform="translate(247.5 45)" fill="#3A4C5B" fill-opacity="0.49"/>
<path d="M266.091 74.1534C266.539 74.1534 266.971 74.2287 267.386 74.3793C267.804 74.5298 268.176 74.7699 268.503 75.0994C268.832 75.429 269.092 75.8665 269.282 76.4119C269.476 76.9545 269.574 77.6207 269.576 78.4105C269.576 79.152 269.493 79.8139 269.325 80.3963C269.16 80.9759 268.923 81.4688 268.613 81.875C268.304 82.2812 267.93 82.5909 267.493 82.804C267.055 83.0142 266.566 83.1193 266.027 83.1193C265.444 83.1193 264.93 83.0071 264.484 82.7827C264.038 82.5554 263.679 82.2472 263.406 81.858C263.136 81.4659 262.973 81.0256 262.916 80.5369H264.735C264.807 80.8551 264.956 81.1023 265.183 81.2784C265.41 81.4517 265.691 81.5384 266.027 81.5384C266.595 81.5384 267.027 81.2912 267.322 80.7969C267.618 80.2997 267.767 79.6193 267.77 78.7557H267.71C267.579 79.0114 267.403 79.2315 267.182 79.4162C266.96 79.598 266.706 79.7386 266.419 79.8381C266.135 79.9375 265.832 79.9872 265.511 79.9872C264.997 79.9872 264.538 79.8665 264.135 79.625C263.731 79.3835 263.413 79.0511 263.18 78.6278C262.947 78.2045 262.831 77.7216 262.831 77.179C262.828 76.5938 262.963 76.0724 263.235 75.6151C263.508 75.1577 263.889 74.7997 264.378 74.5412C264.869 74.2798 265.44 74.1506 266.091 74.1534ZM266.103 75.6023C265.816 75.6023 265.561 75.6705 265.336 75.8068C265.115 75.9432 264.939 76.1264 264.808 76.3565C264.68 76.5866 264.618 76.8437 264.62 77.1278C264.62 77.4148 264.683 77.6733 264.808 77.9034C264.936 78.1307 265.109 78.3125 265.328 78.4489C265.549 78.5824 265.802 78.6491 266.086 78.6491C266.299 78.6491 266.497 78.6094 266.679 78.5298C266.86 78.4503 267.018 78.3409 267.152 78.2017C267.288 78.0597 267.395 77.8963 267.471 77.7116C267.548 77.527 267.586 77.331 267.586 77.1236C267.584 76.848 267.518 76.5952 267.39 76.3651C267.262 76.1349 267.086 75.9503 266.862 75.8111C266.637 75.6719 266.385 75.6023 266.103 75.6023ZM274.492 74.1534C274.941 74.1534 275.373 74.2287 275.788 74.3793C276.206 74.5298 276.578 74.7699 276.904 75.0994C277.234 75.429 277.494 75.8665 277.684 76.4119C277.877 76.9545 277.975 77.6207 277.978 78.4105C277.978 79.152 277.894 79.8139 277.727 80.3963C277.562 80.9759 277.325 81.4688 277.015 81.875C276.706 82.2812 276.332 82.5909 275.894 82.804C275.457 83.0142 274.968 83.1193 274.429 83.1193C273.846 83.1193 273.332 83.0071 272.886 82.7827C272.44 82.5554 272.081 82.2472 271.808 81.858C271.538 81.4659 271.375 81.0256 271.318 80.5369H273.137C273.208 80.8551 273.358 81.1023 273.585 81.2784C273.812 81.4517 274.093 81.5384 274.429 81.5384C274.997 81.5384 275.429 81.2912 275.724 80.7969C276.019 80.2997 276.169 79.6193 276.171 78.7557H276.112C275.981 79.0114 275.805 79.2315 275.583 79.4162C275.362 79.598 275.108 79.7386 274.821 79.8381C274.537 79.9375 274.234 79.9872 273.913 79.9872C273.399 79.9872 272.94 79.8665 272.537 79.625C272.133 79.3835 271.815 79.0511 271.582 78.6278C271.349 78.2045 271.233 77.7216 271.233 77.179C271.23 76.5938 271.365 76.0724 271.637 75.6151C271.91 75.1577 272.291 74.7997 272.779 74.5412C273.271 74.2798 273.842 74.1506 274.492 74.1534ZM274.505 75.6023C274.218 75.6023 273.963 75.6705 273.738 75.8068C273.517 75.9432 273.34 76.1264 273.21 76.3565C273.082 76.5866 273.019 76.8437 273.022 77.1278C273.022 77.4148 273.085 77.6733 273.21 77.9034C273.338 78.1307 273.511 78.3125 273.73 78.4489C273.951 78.5824 274.204 78.6491 274.488 78.6491C274.701 78.6491 274.899 78.6094 275.081 78.5298C275.262 78.4503 275.42 78.3409 275.554 78.2017C275.69 78.0597 275.796 77.8963 275.873 77.7116C275.95 77.527 275.988 77.331 275.988 77.1236C275.985 76.848 275.92 76.5952 275.792 76.3651C275.664 76.1349 275.488 75.9503 275.264 75.8111C275.039 75.6719 274.787 75.6023 274.505 75.6023ZM280.463 83.1108C280.182 83.1108 279.941 83.0114 279.739 82.8125C279.54 82.6108 279.441 82.3693 279.441 82.0881C279.441 81.8097 279.54 81.571 279.739 81.3722C279.941 81.1733 280.182 81.0739 280.463 81.0739C280.736 81.0739 280.975 81.1733 281.179 81.3722C281.384 81.571 281.486 81.8097 281.486 82.0881C281.486 82.2756 281.438 82.4474 281.341 82.6037C281.247 82.7571 281.124 82.8807 280.97 82.9744C280.817 83.0653 280.648 83.1108 280.463 83.1108ZM286.384 83.1193C285.748 83.1193 285.181 83.0099 284.684 82.7912C284.189 82.5696 283.799 82.2656 283.512 81.8793C283.228 81.4901 283.081 81.0412 283.073 80.5327H284.931C284.942 80.7457 285.012 80.9332 285.14 81.0952C285.27 81.2543 285.444 81.3778 285.66 81.4659C285.875 81.554 286.118 81.598 286.388 81.598C286.669 81.598 286.918 81.5483 287.134 81.4489C287.35 81.3494 287.519 81.2116 287.641 81.0355C287.763 80.8594 287.824 80.6562 287.824 80.4261C287.824 80.1932 287.759 79.9872 287.628 79.8082C287.5 79.6264 287.316 79.4844 287.074 79.3821C286.836 79.2798 286.552 79.2287 286.222 79.2287H285.408V77.8736H286.222C286.5 77.8736 286.746 77.8253 286.959 77.7287C287.175 77.6321 287.343 77.4986 287.462 77.3281C287.581 77.1548 287.641 76.9531 287.641 76.723C287.641 76.5043 287.588 76.3125 287.483 76.1477C287.381 75.9801 287.236 75.8494 287.049 75.7557C286.864 75.6619 286.648 75.6151 286.401 75.6151C286.151 75.6151 285.922 75.6605 285.715 75.7514C285.508 75.8395 285.341 75.9659 285.216 76.1307C285.091 76.2955 285.025 76.4886 285.016 76.7102H283.248C283.256 76.2074 283.4 75.7642 283.678 75.3807C283.956 74.9972 284.331 74.6974 284.803 74.4815C285.277 74.2628 285.813 74.1534 286.41 74.1534C287.012 74.1534 287.539 74.2628 287.99 74.4815C288.442 74.7003 288.793 74.9957 289.043 75.3679C289.296 75.7372 289.421 76.152 289.418 76.6122C289.421 77.1009 289.269 77.5085 288.962 77.8352C288.658 78.1619 288.262 78.3693 287.773 78.4574V78.5256C288.415 78.608 288.904 78.831 289.239 79.1946C289.577 79.5554 289.745 80.0071 289.742 80.5497C289.745 81.0469 289.601 81.4886 289.312 81.875C289.025 82.2614 288.628 82.5653 288.123 82.7869C287.617 83.0085 287.037 83.1193 286.384 83.1193ZM294.804 83.1193C294.148 83.1193 293.564 83.0128 293.053 82.7997C292.544 82.5838 292.145 82.2898 291.855 81.9176C291.565 81.5455 291.42 81.1236 291.42 80.652C291.42 80.2884 291.503 79.9545 291.668 79.6506C291.835 79.3438 292.062 79.0895 292.349 78.8878C292.636 78.6832 292.957 78.5526 293.312 78.4957V78.4361C292.847 78.3423 292.469 78.1165 292.179 77.7585C291.889 77.3977 291.744 76.9787 291.744 76.5014C291.744 76.0497 291.876 75.6477 292.141 75.2955C292.405 74.9403 292.767 74.6619 293.227 74.4602C293.69 74.2557 294.216 74.1534 294.804 74.1534C295.392 74.1534 295.916 74.2557 296.376 74.4602C296.839 74.6648 297.203 74.9446 297.467 75.2997C297.731 75.652 297.865 76.0526 297.868 76.5014C297.865 76.9815 297.717 77.4006 297.425 77.7585C297.132 78.1165 296.757 78.3423 296.3 78.4361V78.4957C296.649 78.5526 296.966 78.6832 297.25 78.8878C297.537 79.0895 297.764 79.3438 297.932 79.6506C298.102 79.9545 298.189 80.2884 298.192 80.652C298.189 81.1236 298.043 81.5455 297.753 81.9176C297.463 82.2898 297.062 82.5838 296.551 82.7997C296.043 83.0128 295.46 83.1193 294.804 83.1193ZM294.804 81.7642C295.097 81.7642 295.352 81.7116 295.571 81.6065C295.79 81.4986 295.96 81.3509 296.082 81.1634C296.207 80.973 296.27 80.7543 296.27 80.5071C296.27 80.2543 296.206 80.0312 296.078 79.8381C295.95 79.642 295.777 79.4886 295.558 79.3778C295.339 79.2642 295.088 79.2074 294.804 79.2074C294.523 79.2074 294.271 79.2642 294.05 79.3778C293.828 79.4886 293.653 79.642 293.526 79.8381C293.401 80.0312 293.338 80.2543 293.338 80.5071C293.338 80.7543 293.399 80.973 293.521 81.1634C293.643 81.3509 293.815 81.4986 294.037 81.6065C294.258 81.7116 294.514 81.7642 294.804 81.7642ZM294.804 77.8651C295.048 77.8651 295.266 77.8153 295.456 77.7159C295.646 77.6165 295.795 77.4787 295.903 77.3026C296.011 77.1264 296.065 76.9233 296.065 76.6932C296.065 76.4659 296.011 76.267 295.903 76.0966C295.795 75.9233 295.648 75.7884 295.46 75.6918C295.273 75.5923 295.054 75.5426 294.804 75.5426C294.557 75.5426 294.338 75.5923 294.148 75.6918C293.957 75.7884 293.808 75.9233 293.7 76.0966C293.595 76.267 293.543 76.4659 293.543 76.6932C293.543 76.9233 293.597 77.1264 293.704 77.3026C293.812 77.4787 293.962 77.6165 294.152 77.7159C294.342 77.8153 294.56 77.8651 294.804 77.8651Z" fill="white"/>
</g>
<rect width="67.5" height="67.5" transform="translate(180 247.5)" fill="#3A4C5B" fill-opacity="0.49"/>
<path d="M198.845 276.153C199.293 276.153 199.725 276.229 200.14 276.379C200.558 276.53 200.93 276.77 201.256 277.099C201.586 277.429 201.846 277.866 202.036 278.412C202.229 278.955 202.327 279.621 202.33 280.411C202.33 281.152 202.246 281.814 202.079 282.396C201.914 282.976 201.677 283.469 201.367 283.875C201.058 284.281 200.684 284.591 200.246 284.804C199.809 285.014 199.32 285.119 198.781 285.119C198.198 285.119 197.684 285.007 197.238 284.783C196.792 284.555 196.433 284.247 196.16 283.858C195.89 283.466 195.727 283.026 195.67 282.537H197.489C197.56 282.855 197.71 283.102 197.937 283.278C198.164 283.452 198.445 283.538 198.781 283.538C199.349 283.538 199.781 283.291 200.076 282.797C200.371 282.3 200.521 281.619 200.523 280.756H200.464C200.333 281.011 200.157 281.232 199.935 281.416C199.714 281.598 199.46 281.739 199.173 281.838C198.889 281.938 198.586 281.987 198.265 281.987C197.751 281.987 197.292 281.866 196.889 281.625C196.485 281.384 196.167 281.051 195.934 280.628C195.701 280.205 195.585 279.722 195.585 279.179C195.582 278.594 195.717 278.072 195.989 277.615C196.262 277.158 196.643 276.8 197.131 276.541C197.623 276.28 198.194 276.151 198.845 276.153ZM198.857 277.602C198.57 277.602 198.315 277.67 198.09 277.807C197.869 277.943 197.693 278.126 197.562 278.357C197.434 278.587 197.371 278.844 197.374 279.128C197.374 279.415 197.437 279.673 197.562 279.903C197.69 280.131 197.863 280.312 198.082 280.449C198.303 280.582 198.556 280.649 198.84 280.649C199.053 280.649 199.251 280.609 199.433 280.53C199.614 280.45 199.772 280.341 199.906 280.202C200.042 280.06 200.148 279.896 200.225 279.712C200.302 279.527 200.34 279.331 200.34 279.124C200.337 278.848 200.272 278.595 200.144 278.365C200.016 278.135 199.84 277.95 199.616 277.811C199.391 277.672 199.139 277.602 198.857 277.602ZM207.246 276.153C207.695 276.153 208.127 276.229 208.542 276.379C208.959 276.53 209.332 276.77 209.658 277.099C209.988 277.429 210.248 277.866 210.438 278.412C210.631 278.955 210.729 279.621 210.732 280.411C210.732 281.152 210.648 281.814 210.481 282.396C210.316 282.976 210.079 283.469 209.769 283.875C209.459 284.281 209.086 284.591 208.648 284.804C208.211 285.014 207.722 285.119 207.182 285.119C206.6 285.119 206.086 285.007 205.64 284.783C205.194 284.555 204.834 284.247 204.562 283.858C204.292 283.466 204.128 283.026 204.072 282.537H205.891C205.962 282.855 206.111 283.102 206.339 283.278C206.566 283.452 206.847 283.538 207.182 283.538C207.751 283.538 208.182 283.291 208.478 282.797C208.773 282.3 208.923 281.619 208.925 280.756H208.866C208.735 281.011 208.559 281.232 208.337 281.416C208.116 281.598 207.861 281.739 207.575 281.838C207.29 281.938 206.988 281.987 206.667 281.987C206.153 281.987 205.694 281.866 205.29 281.625C204.887 281.384 204.569 281.051 204.336 280.628C204.103 280.205 203.986 279.722 203.986 279.179C203.984 278.594 204.119 278.072 204.391 277.615C204.664 277.158 205.045 276.8 205.533 276.541C206.025 276.28 206.596 276.151 207.246 276.153ZM207.259 277.602C206.972 277.602 206.717 277.67 206.492 277.807C206.271 277.943 206.094 278.126 205.964 278.357C205.836 278.587 205.773 278.844 205.776 279.128C205.776 279.415 205.839 279.673 205.964 279.903C206.092 280.131 206.265 280.312 206.484 280.449C206.705 280.582 206.958 280.649 207.242 280.649C207.455 280.649 207.653 280.609 207.834 280.53C208.016 280.45 208.174 280.341 208.307 280.202C208.444 280.06 208.55 279.896 208.627 279.712C208.704 279.527 208.742 279.331 208.742 279.124C208.739 278.848 208.674 278.595 208.546 278.365C208.418 278.135 208.242 277.95 208.018 277.811C207.793 277.672 207.54 277.602 207.259 277.602ZM213.217 285.111C212.936 285.111 212.694 285.011 212.493 284.812C212.294 284.611 212.194 284.369 212.194 284.088C212.194 283.81 212.294 283.571 212.493 283.372C212.694 283.173 212.936 283.074 213.217 283.074C213.49 283.074 213.729 283.173 213.933 283.372C214.138 283.571 214.24 283.81 214.24 284.088C214.24 284.276 214.192 284.447 214.095 284.604C214.001 284.757 213.878 284.881 213.724 284.974C213.571 285.065 213.402 285.111 213.217 285.111ZM216.061 283.466V282.013L219.705 276.273H220.957V278.284H220.216L217.919 281.919V281.987H223.097V283.466H216.061ZM220.25 285V283.023L220.284 282.379V276.273H222.014V285H220.25ZM227.964 276.153C228.413 276.153 228.844 276.229 229.259 276.379C229.677 276.53 230.049 276.77 230.376 277.099C230.705 277.429 230.965 277.866 231.155 278.412C231.349 278.955 231.447 279.621 231.45 280.411C231.45 281.152 231.366 281.814 231.198 282.396C231.033 282.976 230.796 283.469 230.486 283.875C230.177 284.281 229.803 284.591 229.366 284.804C228.928 285.014 228.44 285.119 227.9 285.119C227.317 285.119 226.803 285.007 226.357 284.783C225.911 284.555 225.552 284.247 225.279 283.858C225.009 283.466 224.846 283.026 224.789 282.537H226.609C226.68 282.855 226.829 283.102 227.056 283.278C227.283 283.452 227.565 283.538 227.9 283.538C228.468 283.538 228.9 283.291 229.195 282.797C229.491 282.3 229.64 281.619 229.643 280.756H229.583C229.452 281.011 229.276 281.232 229.055 281.416C228.833 281.598 228.579 281.739 228.292 281.838C228.008 281.938 227.705 281.987 227.384 281.987C226.87 281.987 226.411 281.866 226.008 281.625C225.604 281.384 225.286 281.051 225.053 280.628C224.82 280.205 224.704 279.722 224.704 279.179C224.701 278.594 224.836 278.072 225.109 277.615C225.381 277.158 225.762 276.8 226.251 276.541C226.742 276.28 227.313 276.151 227.964 276.153ZM227.977 277.602C227.69 277.602 227.434 277.67 227.209 277.807C226.988 277.943 226.812 278.126 226.681 278.357C226.553 278.587 226.491 278.844 226.494 279.128C226.494 279.415 226.556 279.673 226.681 279.903C226.809 280.131 226.982 280.312 227.201 280.449C227.423 280.582 227.675 280.649 227.959 280.649C228.173 280.649 228.37 280.609 228.552 280.53C228.734 280.45 228.891 280.341 229.025 280.202C229.161 280.06 229.268 279.896 229.344 279.712C229.421 279.527 229.459 279.331 229.459 279.124C229.457 278.848 229.391 278.595 229.263 278.365C229.136 278.135 228.959 277.95 228.735 277.811C228.511 277.672 228.258 277.602 227.977 277.602Z" fill="white"/>
<rect width="67.5" height="67.5" transform="translate(247.5 180)" fill="#3A4C5B" fill-opacity="0.49"/>
<path d="M265.845 209.153C266.293 209.153 266.725 209.229 267.14 209.379C267.558 209.53 267.93 209.77 268.256 210.099C268.586 210.429 268.846 210.866 269.036 211.412C269.229 211.955 269.327 212.621 269.33 213.411C269.33 214.152 269.246 214.814 269.079 215.396C268.914 215.976 268.677 216.469 268.367 216.875C268.058 217.281 267.684 217.591 267.246 217.804C266.809 218.014 266.32 218.119 265.781 218.119C265.198 218.119 264.684 218.007 264.238 217.783C263.792 217.555 263.433 217.247 263.16 216.858C262.89 216.466 262.727 216.026 262.67 215.537H264.489C264.56 215.855 264.71 216.102 264.937 216.278C265.164 216.452 265.445 216.538 265.781 216.538C266.349 216.538 266.781 216.291 267.076 215.797C267.371 215.3 267.521 214.619 267.523 213.756H267.464C267.333 214.011 267.157 214.232 266.935 214.416C266.714 214.598 266.46 214.739 266.173 214.838C265.889 214.938 265.586 214.987 265.265 214.987C264.751 214.987 264.292 214.866 263.889 214.625C263.485 214.384 263.167 214.051 262.934 213.628C262.701 213.205 262.585 212.722 262.585 212.179C262.582 211.594 262.717 211.072 262.989 210.615C263.262 210.158 263.643 209.8 264.131 209.541C264.623 209.28 265.194 209.151 265.845 209.153ZM265.857 210.602C265.57 210.602 265.315 210.67 265.09 210.807C264.869 210.943 264.693 211.126 264.562 211.357C264.434 211.587 264.371 211.844 264.374 212.128C264.374 212.415 264.437 212.673 264.562 212.903C264.69 213.131 264.863 213.312 265.082 213.449C265.303 213.582 265.556 213.649 265.84 213.649C266.053 213.649 266.251 213.609 266.433 213.53C266.614 213.45 266.772 213.341 266.906 213.202C267.042 213.06 267.148 212.896 267.225 212.712C267.302 212.527 267.34 212.331 267.34 212.124C267.337 211.848 267.272 211.595 267.144 211.365C267.016 211.135 266.84 210.95 266.616 210.811C266.391 210.672 266.139 210.602 265.857 210.602ZM274.246 209.153C274.695 209.153 275.127 209.229 275.542 209.379C275.959 209.53 276.332 209.77 276.658 210.099C276.988 210.429 277.248 210.866 277.438 211.412C277.631 211.955 277.729 212.621 277.732 213.411C277.732 214.152 277.648 214.814 277.481 215.396C277.316 215.976 277.079 216.469 276.769 216.875C276.459 217.281 276.086 217.591 275.648 217.804C275.211 218.014 274.722 218.119 274.182 218.119C273.6 218.119 273.086 218.007 272.64 217.783C272.194 217.555 271.834 217.247 271.562 216.858C271.292 216.466 271.128 216.026 271.072 215.537H272.891C272.962 215.855 273.111 216.102 273.339 216.278C273.566 216.452 273.847 216.538 274.182 216.538C274.751 216.538 275.182 216.291 275.478 215.797C275.773 215.3 275.923 214.619 275.925 213.756H275.866C275.735 214.011 275.559 214.232 275.337 214.416C275.116 214.598 274.861 214.739 274.575 214.838C274.29 214.938 273.988 214.987 273.667 214.987C273.153 214.987 272.694 214.866 272.29 214.625C271.887 214.384 271.569 214.051 271.336 213.628C271.103 213.205 270.986 212.722 270.986 212.179C270.984 211.594 271.119 211.072 271.391 210.615C271.664 210.158 272.045 209.8 272.533 209.541C273.025 209.28 273.596 209.151 274.246 209.153ZM274.259 210.602C273.972 210.602 273.717 210.67 273.492 210.807C273.271 210.943 273.094 211.126 272.964 211.357C272.836 211.587 272.773 211.844 272.776 212.128C272.776 212.415 272.839 212.673 272.964 212.903C273.092 213.131 273.265 213.312 273.484 213.449C273.705 213.582 273.958 213.649 274.242 213.649C274.455 213.649 274.653 213.609 274.834 213.53C275.016 213.45 275.174 213.341 275.307 213.202C275.444 213.06 275.55 212.896 275.627 212.712C275.704 212.527 275.742 212.331 275.742 212.124C275.739 211.848 275.674 211.595 275.546 211.365C275.418 211.135 275.242 210.95 275.018 210.811C274.793 210.672 274.54 210.602 274.259 210.602ZM280.217 218.111C279.936 218.111 279.694 218.011 279.493 217.812C279.294 217.611 279.194 217.369 279.194 217.088C279.194 216.81 279.294 216.571 279.493 216.372C279.694 216.173 279.936 216.074 280.217 216.074C280.49 216.074 280.729 216.173 280.933 216.372C281.138 216.571 281.24 216.81 281.24 217.088C281.24 217.276 281.192 217.447 281.095 217.604C281.001 217.757 280.878 217.881 280.724 217.974C280.571 218.065 280.402 218.111 280.217 218.111ZM283.061 216.466V215.013L286.705 209.273H287.957V211.284H287.216L284.919 214.919V214.987H290.097V216.466H283.061ZM287.25 218V216.023L287.284 215.379V209.273H289.014V218H287.25ZM294.964 209.153C295.413 209.153 295.844 209.229 296.259 209.379C296.677 209.53 297.049 209.77 297.376 210.099C297.705 210.429 297.965 210.866 298.155 211.412C298.349 211.955 298.447 212.621 298.45 213.411C298.45 214.152 298.366 214.814 298.198 215.396C298.033 215.976 297.796 216.469 297.486 216.875C297.177 217.281 296.803 217.591 296.366 217.804C295.928 218.014 295.44 218.119 294.9 218.119C294.317 218.119 293.803 218.007 293.357 217.783C292.911 217.555 292.552 217.247 292.279 216.858C292.009 216.466 291.846 216.026 291.789 215.537H293.609C293.68 215.855 293.829 216.102 294.056 216.278C294.283 216.452 294.565 216.538 294.9 216.538C295.468 216.538 295.9 216.291 296.195 215.797C296.491 215.3 296.64 214.619 296.643 213.756H296.583C296.452 214.011 296.276 214.232 296.055 214.416C295.833 214.598 295.579 214.739 295.292 214.838C295.008 214.938 294.705 214.987 294.384 214.987C293.87 214.987 293.411 214.866 293.008 214.625C292.604 214.384 292.286 214.051 292.053 213.628C291.82 213.205 291.704 212.722 291.704 212.179C291.701 211.594 291.836 211.072 292.109 210.615C292.381 210.158 292.762 209.8 293.251 209.541C293.742 209.28 294.313 209.151 294.964 209.153ZM294.977 210.602C294.69 210.602 294.434 210.67 294.209 210.807C293.988 210.943 293.812 211.126 293.681 211.357C293.553 211.587 293.491 211.844 293.494 212.128C293.494 212.415 293.556 212.673 293.681 212.903C293.809 213.131 293.982 213.312 294.201 213.449C294.423 213.582 294.675 213.649 294.959 213.649C295.173 213.649 295.37 213.609 295.552 213.53C295.734 213.45 295.891 213.341 296.025 213.202C296.161 213.06 296.268 212.896 296.344 212.712C296.421 212.527 296.459 212.331 296.459 212.124C296.457 211.848 296.391 211.595 296.263 211.365C296.136 211.135 295.959 210.95 295.735 210.811C295.511 210.672 295.258 210.602 294.977 210.602Z" fill="white"/>
<rect width="67.5" height="67.5" transform="translate(180 112.5)" fill="#3A4C5B" fill-opacity="0.49"/>
<path d="M199.483 141.153C199.932 141.153 200.364 141.229 200.779 141.379C201.196 141.53 201.568 141.77 201.895 142.099C202.225 142.429 202.485 142.866 202.675 143.412C202.868 143.955 202.966 144.621 202.969 145.411C202.969 146.152 202.885 146.814 202.718 147.396C202.553 147.976 202.316 148.469 202.006 148.875C201.696 149.281 201.323 149.591 200.885 149.804C200.448 150.014 199.959 150.119 199.419 150.119C198.837 150.119 198.323 150.007 197.877 149.783C197.431 149.555 197.071 149.247 196.799 148.858C196.529 148.466 196.365 148.026 196.308 147.537H198.128C198.199 147.855 198.348 148.102 198.576 148.278C198.803 148.452 199.084 148.538 199.419 148.538C199.987 148.538 200.419 148.291 200.715 147.797C201.01 147.3 201.159 146.619 201.162 145.756H201.103C200.972 146.011 200.796 146.232 200.574 146.416C200.353 146.598 200.098 146.739 199.811 146.838C199.527 146.938 199.225 146.987 198.904 146.987C198.389 146.987 197.931 146.866 197.527 146.625C197.124 146.384 196.806 146.051 196.573 145.628C196.34 145.205 196.223 144.722 196.223 144.179C196.22 143.594 196.355 143.072 196.628 142.615C196.901 142.158 197.281 141.8 197.77 141.541C198.262 141.28 198.833 141.151 199.483 141.153ZM199.496 142.602C199.209 142.602 198.953 142.67 198.729 142.807C198.507 142.943 198.331 143.126 198.201 143.357C198.073 143.587 198.01 143.844 198.013 144.128C198.013 144.415 198.076 144.673 198.201 144.903C198.328 145.131 198.502 145.312 198.72 145.449C198.942 145.582 199.195 145.649 199.479 145.649C199.692 145.649 199.889 145.609 200.071 145.53C200.253 145.45 200.411 145.341 200.544 145.202C200.681 145.06 200.787 144.896 200.864 144.712C200.941 144.527 200.979 144.331 200.979 144.124C200.976 143.848 200.911 143.595 200.783 143.365C200.655 143.135 200.479 142.95 200.254 142.811C200.03 142.672 199.777 142.602 199.496 142.602ZM207.983 150.119C207.327 150.119 206.743 150.013 206.232 149.8C205.723 149.584 205.324 149.29 205.034 148.918C204.744 148.545 204.6 148.124 204.6 147.652C204.6 147.288 204.682 146.955 204.847 146.651C205.014 146.344 205.242 146.089 205.529 145.888C205.815 145.683 206.136 145.553 206.492 145.496V145.436C206.026 145.342 205.648 145.116 205.358 144.759C205.068 144.398 204.923 143.979 204.923 143.501C204.923 143.05 205.056 142.648 205.32 142.295C205.584 141.94 205.946 141.662 206.406 141.46C206.869 141.256 207.395 141.153 207.983 141.153C208.571 141.153 209.095 141.256 209.556 141.46C210.019 141.665 210.382 141.945 210.646 142.3C210.911 142.652 211.044 143.053 211.047 143.501C211.044 143.982 210.896 144.401 210.604 144.759C210.311 145.116 209.936 145.342 209.479 145.436V145.496C209.828 145.553 210.145 145.683 210.429 145.888C210.716 146.089 210.943 146.344 211.111 146.651C211.281 146.955 211.368 147.288 211.371 147.652C211.368 148.124 211.222 148.545 210.932 148.918C210.642 149.29 210.242 149.584 209.73 149.8C209.222 150.013 208.639 150.119 207.983 150.119ZM207.983 148.764C208.276 148.764 208.531 148.712 208.75 148.607C208.969 148.499 209.139 148.351 209.261 148.163C209.386 147.973 209.449 147.754 209.449 147.507C209.449 147.254 209.385 147.031 209.257 146.838C209.129 146.642 208.956 146.489 208.737 146.378C208.519 146.264 208.267 146.207 207.983 146.207C207.702 146.207 207.45 146.264 207.229 146.378C207.007 146.489 206.833 146.642 206.705 146.838C206.58 147.031 206.517 147.254 206.517 147.507C206.517 147.754 206.578 147.973 206.7 148.163C206.823 148.351 206.994 148.499 207.216 148.607C207.438 148.712 207.693 148.764 207.983 148.764ZM207.983 144.865C208.227 144.865 208.445 144.815 208.635 144.716C208.825 144.616 208.975 144.479 209.083 144.303C209.19 144.126 209.244 143.923 209.244 143.693C209.244 143.466 209.19 143.267 209.083 143.097C208.975 142.923 208.827 142.788 208.639 142.692C208.452 142.592 208.233 142.543 207.983 142.543C207.736 142.543 207.517 142.592 207.327 142.692C207.136 142.788 206.987 142.923 206.879 143.097C206.774 143.267 206.722 143.466 206.722 143.693C206.722 143.923 206.776 144.126 206.884 144.303C206.992 144.479 207.141 144.616 207.331 144.716C207.521 144.815 207.739 144.865 207.983 144.865ZM213.973 150.111C213.692 150.111 213.45 150.011 213.249 149.812C213.05 149.611 212.95 149.369 212.95 149.088C212.95 148.81 213.05 148.571 213.249 148.372C213.45 148.173 213.692 148.074 213.973 148.074C214.246 148.074 214.484 148.173 214.689 148.372C214.893 148.571 214.996 148.81 214.996 149.088C214.996 149.276 214.947 149.447 214.851 149.604C214.757 149.757 214.634 149.881 214.48 149.974C214.327 150.065 214.158 150.111 213.973 150.111ZM219.943 141.153C220.392 141.153 220.823 141.229 221.238 141.379C221.656 141.53 222.028 141.77 222.355 142.099C222.684 142.429 222.944 142.866 223.134 143.412C223.328 143.955 223.426 144.621 223.429 145.411C223.429 146.152 223.345 146.814 223.177 147.396C223.012 147.976 222.775 148.469 222.465 148.875C222.156 149.281 221.782 149.591 221.345 149.804C220.907 150.014 220.419 150.119 219.879 150.119C219.296 150.119 218.782 150.007 218.336 149.783C217.89 149.555 217.531 149.247 217.258 148.858C216.988 148.466 216.825 148.026 216.768 147.537H218.588C218.659 147.855 218.808 148.102 219.035 148.278C219.262 148.452 219.544 148.538 219.879 148.538C220.447 148.538 220.879 148.291 221.174 147.797C221.47 147.3 221.619 146.619 221.622 145.756H221.562C221.431 146.011 221.255 146.232 221.034 146.416C220.812 146.598 220.558 146.739 220.271 146.838C219.987 146.938 219.684 146.987 219.363 146.987C218.849 146.987 218.39 146.866 217.987 146.625C217.583 146.384 217.265 146.051 217.032 145.628C216.799 145.205 216.683 144.722 216.683 144.179C216.68 143.594 216.815 143.072 217.088 142.615C217.36 142.158 217.741 141.8 218.23 141.541C218.721 141.28 219.292 141.151 219.943 141.153ZM219.956 142.602C219.669 142.602 219.413 142.67 219.188 142.807C218.967 142.943 218.791 143.126 218.66 143.357C218.532 143.587 218.47 143.844 218.473 144.128C218.473 144.415 218.535 144.673 218.66 144.903C218.788 145.131 218.961 145.312 219.18 145.449C219.402 145.582 219.654 145.649 219.938 145.649C220.152 145.649 220.349 145.609 220.531 145.53C220.713 145.45 220.87 145.341 221.004 145.202C221.14 145.06 221.247 144.896 221.323 144.712C221.4 144.527 221.438 144.331 221.438 144.124C221.436 143.848 221.37 143.595 221.242 143.365C221.115 143.135 220.938 142.95 220.714 142.811C220.49 142.672 220.237 142.602 219.956 142.602ZM225.298 150L228.916 142.841V142.781H224.701V141.273H230.825V142.803L227.203 150H225.298Z" fill="white"/>
<rect width="67.5" height="67.5" transform="translate(45 112.5)" fill="#3A4C5B" fill-opacity="0.49"/>
<path d="M65.157 141.153C65.6059 141.153 66.0377 141.229 66.4525 141.379C66.8701 141.53 67.2422 141.77 67.5689 142.099C67.8985 142.429 68.1584 142.866 68.3488 143.412C68.542 143.955 68.64 144.621 68.6428 145.411C68.6428 146.152 68.559 146.814 68.3914 147.396C68.2266 147.976 67.9894 148.469 67.6797 148.875C67.3701 149.281 66.9965 149.591 66.559 149.804C66.1215 150.014 65.6329 150.119 65.0931 150.119C64.5107 150.119 63.9965 150.007 63.5505 149.783C63.1045 149.555 62.7451 149.247 62.4724 148.858C62.2025 148.466 62.0391 148.026 61.9823 147.537H63.8019C63.8729 147.855 64.0221 148.102 64.2493 148.278C64.4766 148.452 64.7579 148.538 65.0931 148.538C65.6613 148.538 66.0931 148.291 66.3885 147.797C66.684 147.3 66.8331 146.619 66.836 145.756H66.7763C66.6456 146.011 66.4695 146.232 66.2479 146.416C66.0263 146.598 65.7721 146.739 65.4851 146.838C65.201 146.938 64.8985 146.987 64.5775 146.987C64.0633 146.987 63.6045 146.866 63.201 146.625C62.7976 146.384 62.4795 146.051 62.2465 145.628C62.0135 145.205 61.8971 144.722 61.8971 144.179C61.8942 143.594 62.0292 143.072 62.3019 142.615C62.5746 142.158 62.9553 141.8 63.4439 141.541C63.9354 141.28 64.5064 141.151 65.157 141.153ZM65.1698 142.602C64.8829 142.602 64.6272 142.67 64.4027 142.807C64.1812 142.943 64.005 143.126 63.8743 143.357C63.7465 143.587 63.684 143.844 63.6868 144.128C63.6868 144.415 63.7493 144.673 63.8743 144.903C64.0022 145.131 64.1755 145.312 64.3942 145.449C64.6158 145.582 64.8687 145.649 65.1527 145.649C65.3658 145.649 65.5633 145.609 65.7451 145.53C65.9269 145.45 66.0846 145.341 66.2181 145.202C66.3545 145.06 66.461 144.896 66.5377 144.712C66.6144 144.527 66.6527 144.331 66.6527 144.124C66.6499 143.848 66.5846 143.595 66.4567 143.365C66.3289 143.135 66.1527 142.95 65.9283 142.811C65.7039 142.672 65.451 142.602 65.1698 142.602ZM73.5589 141.153C74.0077 141.153 74.4396 141.229 74.8543 141.379C75.272 141.53 75.6441 141.77 75.9708 142.099C76.3004 142.429 76.5603 142.866 76.7506 143.412C76.9438 143.955 77.0418 144.621 77.0447 145.411C77.0447 146.152 76.9609 146.814 76.7933 147.396C76.6285 147.976 76.3913 148.469 76.0816 148.875C75.772 149.281 75.3984 149.591 74.9609 149.804C74.5234 150.014 74.0347 150.119 73.495 150.119C72.9126 150.119 72.3984 150.007 71.9524 149.783C71.5063 149.555 71.147 149.247 70.8742 148.858C70.6043 148.466 70.441 148.026 70.3842 147.537H72.2038C72.2748 147.855 72.4239 148.102 72.6512 148.278C72.8785 148.452 73.1597 148.538 73.495 148.538C74.0631 148.538 74.495 148.291 74.7904 147.797C75.0859 147.3 75.235 146.619 75.2379 145.756H75.1782C75.0475 146.011 74.8714 146.232 74.6498 146.416C74.4282 146.598 74.1739 146.739 73.887 146.838C73.6029 146.938 73.3004 146.987 72.9793 146.987C72.4651 146.987 72.0063 146.866 71.6029 146.625C71.1995 146.384 70.8813 146.051 70.6484 145.628C70.4154 145.205 70.2989 144.722 70.2989 144.179C70.2961 143.594 70.431 143.072 70.7038 142.615C70.9765 142.158 71.3572 141.8 71.8458 141.541C72.3373 141.28 72.9083 141.151 73.5589 141.153ZM73.5717 142.602C73.2847 142.602 73.0291 142.67 72.8046 142.807C72.583 142.943 72.4069 143.126 72.2762 143.357C72.1484 143.587 72.0859 143.844 72.0887 144.128C72.0887 144.415 72.1512 144.673 72.2762 144.903C72.4041 145.131 72.5774 145.312 72.7961 145.449C73.0177 145.582 73.2705 145.649 73.5546 145.649C73.7677 145.649 73.9651 145.609 74.147 145.53C74.3288 145.45 74.4864 145.341 74.62 145.202C74.7563 145.06 74.8629 144.896 74.9396 144.712C75.0163 144.527 75.0546 144.331 75.0546 144.124C75.0518 143.848 74.9864 143.595 74.8586 143.365C74.7308 143.135 74.5546 142.95 74.3302 142.811C74.1058 142.672 73.8529 142.602 73.5717 142.602ZM79.5297 150.111C79.2484 150.111 79.0069 150.011 78.8052 149.812C78.6064 149.611 78.5069 149.369 78.5069 149.088C78.5069 148.81 78.6064 148.571 78.8052 148.372C79.0069 148.173 79.2484 148.074 79.5297 148.074C79.8024 148.074 80.041 148.173 80.2456 148.372C80.4501 148.571 80.5524 148.81 80.5524 149.088C80.5524 149.276 80.5041 149.447 80.4075 149.604C80.3137 149.757 80.1902 149.881 80.0368 149.974C79.8833 150.065 79.7143 150.111 79.5297 150.111ZM82.5057 150V148.67L85.6123 145.794C85.8765 145.538 86.0981 145.308 86.2771 145.104C86.4589 144.899 86.5967 144.699 86.6904 144.503C86.7842 144.304 86.831 144.089 86.831 143.859C86.831 143.604 86.7728 143.384 86.6563 143.199C86.5398 143.011 86.3807 142.868 86.179 142.768C85.9773 142.666 85.7486 142.615 85.493 142.615C85.2259 142.615 84.993 142.669 84.7941 142.777C84.5952 142.885 84.4418 143.04 84.3339 143.241C84.2259 143.443 84.1719 143.683 84.1719 143.962H82.4205C82.4205 143.391 82.5498 142.895 82.8083 142.474C83.0668 142.054 83.429 141.729 83.895 141.499C84.3609 141.268 84.8978 141.153 85.5057 141.153C86.1307 141.153 86.6748 141.264 87.1379 141.486C87.6038 141.705 87.966 142.009 88.2245 142.398C88.483 142.787 88.6123 143.233 88.6123 143.736C88.6123 144.065 88.5469 144.391 88.4163 144.712C88.2884 145.033 88.0597 145.389 87.7302 145.781C87.4006 146.17 86.9361 146.638 86.3367 147.183L85.0626 148.432V148.491H88.7273V150H82.5057ZM94.3412 141.273V150H92.496V143.024H92.4449L90.4463 144.277V142.641L92.6068 141.273H94.3412Z" fill="white"/>
<rect width="67.5" height="67.5" transform="translate(112.5 45)" fill="#3A4C5B" fill-opacity="0.49"/>
<path d="M132.157 74.1534C132.606 74.1534 133.038 74.2287 133.452 74.3793C133.87 74.5298 134.242 74.7699 134.569 75.0994C134.898 75.429 135.158 75.8665 135.349 76.4119C135.542 76.9545 135.64 77.6207 135.643 78.4105C135.643 79.152 135.559 79.8139 135.391 80.3963C135.227 80.9759 134.989 81.4688 134.68 81.875C134.37 82.2812 133.996 82.5909 133.559 82.804C133.121 83.0142 132.633 83.1193 132.093 83.1193C131.511 83.1193 130.996 83.0071 130.55 82.7827C130.104 82.5554 129.745 82.2472 129.472 81.858C129.202 81.4659 129.039 81.0256 128.982 80.5369H130.802C130.873 80.8551 131.022 81.1023 131.249 81.2784C131.477 81.4517 131.758 81.5384 132.093 81.5384C132.661 81.5384 133.093 81.2912 133.389 80.7969C133.684 80.2997 133.833 79.6193 133.836 78.7557H133.776C133.646 79.0114 133.47 79.2315 133.248 79.4162C133.026 79.598 132.772 79.7386 132.485 79.8381C132.201 79.9375 131.898 79.9872 131.577 79.9872C131.063 79.9872 130.604 79.8665 130.201 79.625C129.798 79.3835 129.479 79.0511 129.246 78.6278C129.014 78.2045 128.897 77.7216 128.897 77.179C128.894 76.5938 129.029 76.0724 129.302 75.6151C129.575 75.1577 129.955 74.7997 130.444 74.5412C130.935 74.2798 131.506 74.1506 132.157 74.1534ZM132.17 75.6023C131.883 75.6023 131.627 75.6705 131.403 75.8068C131.181 75.9432 131.005 76.1264 130.874 76.3565C130.746 76.5866 130.684 76.8437 130.687 77.1278C130.687 77.4148 130.749 77.6733 130.874 77.9034C131.002 78.1307 131.175 78.3125 131.394 78.4489C131.616 78.5824 131.869 78.6491 132.153 78.6491C132.366 78.6491 132.563 78.6094 132.745 78.5298C132.927 78.4503 133.085 78.3409 133.218 78.2017C133.354 78.0597 133.461 77.8963 133.538 77.7116C133.614 77.527 133.653 77.331 133.653 77.1236C133.65 76.848 133.585 76.5952 133.457 76.3651C133.329 76.1349 133.153 75.9503 132.928 75.8111C132.704 75.6719 132.451 75.6023 132.17 75.6023ZM140.559 74.1534C141.008 74.1534 141.44 74.2287 141.854 74.3793C142.272 74.5298 142.644 74.7699 142.971 75.0994C143.3 75.429 143.56 75.8665 143.751 76.4119C143.944 76.9545 144.042 77.6207 144.045 78.4105C144.045 79.152 143.961 79.8139 143.793 80.3963C143.628 80.9759 143.391 81.4688 143.082 81.875C142.772 82.2812 142.398 82.5909 141.961 82.804C141.523 83.0142 141.035 83.1193 140.495 83.1193C139.913 83.1193 139.398 83.0071 138.952 82.7827C138.506 82.5554 138.147 82.2472 137.874 81.858C137.604 81.4659 137.441 81.0256 137.384 80.5369H139.204C139.275 80.8551 139.424 81.1023 139.651 81.2784C139.878 81.4517 140.16 81.5384 140.495 81.5384C141.063 81.5384 141.495 81.2912 141.79 80.7969C142.086 80.2997 142.235 79.6193 142.238 78.7557H142.178C142.048 79.0114 141.871 79.2315 141.65 79.4162C141.428 79.598 141.174 79.7386 140.887 79.8381C140.603 79.9375 140.3 79.9872 139.979 79.9872C139.465 79.9872 139.006 79.8665 138.603 79.625C138.2 79.3835 137.881 79.0511 137.648 78.6278C137.415 78.2045 137.299 77.7216 137.299 77.179C137.296 76.5938 137.431 76.0724 137.704 75.6151C137.976 75.1577 138.357 74.7997 138.846 74.5412C139.337 74.2798 139.908 74.1506 140.559 74.1534ZM140.572 75.6023C140.285 75.6023 140.029 75.6705 139.805 75.8068C139.583 75.9432 139.407 76.1264 139.276 76.3565C139.148 76.5866 139.086 76.8437 139.089 77.1278C139.089 77.4148 139.151 77.6733 139.276 77.9034C139.404 78.1307 139.577 78.3125 139.796 78.4489C140.018 78.5824 140.271 78.6491 140.555 78.6491C140.768 78.6491 140.965 78.6094 141.147 78.5298C141.329 78.4503 141.486 78.3409 141.62 78.2017C141.756 78.0597 141.863 77.8963 141.94 77.7116C142.016 77.527 142.055 77.331 142.055 77.1236C142.052 76.848 141.986 76.5952 141.859 76.3651C141.731 76.1349 141.555 75.9503 141.33 75.8111C141.106 75.6719 140.853 75.6023 140.572 75.6023ZM146.53 83.1108C146.248 83.1108 146.007 83.0114 145.805 82.8125C145.606 82.6108 145.507 82.3693 145.507 82.0881C145.507 81.8097 145.606 81.571 145.805 81.3722C146.007 81.1733 146.248 81.0739 146.53 81.0739C146.802 81.0739 147.041 81.1733 147.246 81.3722C147.45 81.571 147.552 81.8097 147.552 82.0881C147.552 82.2756 147.504 82.4474 147.407 82.6037C147.314 82.7571 147.19 82.8807 147.037 82.9744C146.883 83.0653 146.714 83.1108 146.53 83.1108ZM149.506 83V81.6705L152.612 78.794C152.876 78.5384 153.098 78.3082 153.277 78.1037C153.459 77.8991 153.597 77.6989 153.69 77.5028C153.784 77.304 153.831 77.0895 153.831 76.8594C153.831 76.6037 153.773 76.3835 153.656 76.1989C153.54 76.0114 153.381 75.8679 153.179 75.7685C152.977 75.6662 152.749 75.6151 152.493 75.6151C152.226 75.6151 151.993 75.669 151.794 75.777C151.595 75.8849 151.442 76.0398 151.334 76.2415C151.226 76.4432 151.172 76.6832 151.172 76.9616H149.421C149.421 76.3906 149.55 75.8949 149.808 75.4744C150.067 75.054 150.429 74.7287 150.895 74.4986C151.361 74.2685 151.898 74.1534 152.506 74.1534C153.131 74.1534 153.675 74.2642 154.138 74.4858C154.604 74.7045 154.966 75.0085 155.224 75.3977C155.483 75.7869 155.612 76.233 155.612 76.7358C155.612 77.0653 155.547 77.3906 155.416 77.7116C155.288 78.0327 155.06 78.3892 154.73 78.7812C154.401 79.1705 153.936 79.6378 153.337 80.1832L152.063 81.4318V81.4915H155.727V83H149.506ZM161.341 74.2727V83H159.496V76.0241H159.445L157.446 77.277V75.6406L159.607 74.2727H161.341Z" fill="white"/>
<path d="M24.2452 69.8717C24.0295 69.8256 23.7229 69.7667 23.3524 69.717C22.7519 69.6368 21.4871 69.4778 20.0208 69.7511C19.294 69.8866 17.8752 70.1677 16.4833 71.2621C16.0227 71.6241 15.0205 72.5035 14.4052 73.9415C14.1411 74.559 13.897 75.1516 14.0446 75.899C14.2426 76.9004 15.0042 77.4647 15.144 77.5648C16.1916 78.3129 17.4607 78.0637 18.3379 77.8913C19.3167 77.6989 20.0712 77.3093 20.5701 76.9906C20.3366 77.821 20.1074 78.6649 19.8831 79.523C19.7532 80.0184 19.6276 80.511 19.5055 81H23.0947C23.1749 80.7026 23.2551 80.4045 23.3353 80.1071H21.6347C22.5049 76.6953 23.3751 73.2835 24.2452 69.8717ZM19.5573 76.5541C18.7808 77.1389 17.6417 77.3213 16.741 76.9146C16.5344 76.8217 16.0341 76.5953 15.7963 76.0729C15.6309 75.7102 15.6551 75.3432 15.7445 74.9224C16.1171 73.1693 17.1867 72.072 17.1867 72.072C17.5473 71.7022 18.6552 70.6716 20.3636 70.475C20.9406 70.4083 21.4261 70.4559 21.7547 70.5091C21.512 72.5305 21.0073 74.0345 20.6042 75.0082C20.3252 75.6825 20.0676 76.1687 19.5566 76.5541H19.5573Z" fill="white" stroke="white" stroke-width="0.5" stroke-miterlimit="10"/>
<path d="M26.16 82V81.504H27.144L27.168 77.368L26.064 78.08L25.8 77.72L27.192 76.632L27.752 76.728V81.504H28.704V82H26.16Z" fill="white"/>
<path d="M24.2452 138.872C24.0295 138.826 23.7229 138.767 23.3524 138.717C22.7519 138.637 21.4871 138.478 20.0208 138.751C19.294 138.887 17.8752 139.168 16.4833 140.262C16.0227 140.624 15.0205 141.504 14.4052 142.941C14.1411 143.559 13.897 144.152 14.0446 144.899C14.2426 145.9 15.0042 146.465 15.144 146.565C16.1916 147.313 17.4607 147.064 18.3379 146.891C19.3167 146.699 20.0712 146.309 20.5701 145.991C20.3366 146.821 20.1074 147.665 19.8831 148.523C19.7532 149.018 19.6276 149.511 19.5055 150H23.0947C23.1749 149.703 23.2551 149.405 23.3353 149.107H21.6347C22.5049 145.695 23.3751 142.284 24.2452 138.872ZM19.5573 145.554C18.7808 146.139 17.6417 146.321 16.741 145.915C16.5344 145.822 16.0341 145.595 15.7963 145.073C15.6309 144.71 15.6551 144.343 15.7445 143.922C16.1171 142.169 17.1867 141.072 17.1867 141.072C17.5473 140.702 18.6552 139.672 20.3636 139.475C20.9406 139.408 21.4261 139.456 21.7547 139.509C21.512 141.53 21.0073 143.034 20.6042 144.008C20.3252 144.683 20.0676 145.169 19.5566 145.554H19.5573Z" fill="white" stroke="white" stroke-width="0.5" stroke-miterlimit="10"/>
<path d="M25.52 151V150.784C25.8187 150.485 26.1333 150.147 26.464 149.768C26.7947 149.384 27.0027 149.133 27.088 149.016C27.1787 148.893 27.2933 148.728 27.432 148.52C27.5707 148.312 27.672 148.136 27.736 147.992C27.912 147.608 28 147.275 28 146.992C28 146.709 27.8987 146.499 27.696 146.36C27.4987 146.216 27.2267 146.144 26.88 146.144C26.5387 146.144 26.2053 146.197 25.88 146.304L25.76 145.864C26.16 145.709 26.5893 145.632 27.048 145.632C27.5067 145.632 27.8827 145.752 28.176 145.992C28.4693 146.227 28.616 146.576 28.616 147.04C28.616 147.92 27.912 149.077 26.504 150.512L28.728 150.488L28.76 151H25.52Z" fill="white"/>
<path d="M24.2452 207.872C24.0295 207.826 23.7229 207.767 23.3524 207.717C22.7519 207.637 21.4871 207.478 20.0208 207.751C19.294 207.887 17.8752 208.168 16.4833 209.262C16.0227 209.624 15.0205 210.504 14.4052 211.941C14.1411 212.559 13.897 213.152 14.0446 213.899C14.2426 214.9 15.0042 215.465 15.144 215.565C16.1916 216.313 17.4607 216.064 18.3379 215.891C19.3167 215.699 20.0712 215.309 20.5701 214.991C20.3366 215.821 20.1074 216.665 19.8831 217.523C19.7532 218.018 19.6276 218.511 19.5055 219H23.0947C23.1749 218.703 23.2551 218.405 23.3353 218.107H21.6347C22.5049 214.695 23.3751 211.284 24.2452 207.872ZM19.5573 214.554C18.7808 215.139 17.6417 215.321 16.741 214.915C16.5344 214.822 16.0341 214.595 15.7963 214.073C15.6309 213.71 15.6551 213.343 15.7445 212.922C16.1171 211.169 17.1867 210.072 17.1867 210.072C17.5473 209.702 18.6552 208.672 20.3636 208.475C20.9406 208.408 21.4261 208.456 21.7547 208.509C21.512 210.53 21.0073 212.034 20.6042 213.008C20.3252 213.683 20.0676 214.169 19.5566 214.554H19.5573Z" fill="white" stroke="white" stroke-width="0.5" stroke-miterlimit="10"/>
<path d="M25.672 219.136C26.0293 219.445 26.4133 219.6 26.824 219.6C27.2347 219.6 27.5493 219.501 27.768 219.304C27.992 219.101 28.104 218.824 28.104 218.472C28.104 218.12 27.9973 217.861 27.784 217.696C27.5707 217.525 27.28 217.44 26.912 217.44H26.4V217C26.672 216.968 26.8933 216.952 27.064 216.952C27.2347 216.952 27.384 216.96 27.512 216.976C27.8427 216.731 28.008 216.408 28.008 216.008C28.008 215.731 27.9093 215.517 27.712 215.368C27.5147 215.219 27.256 215.144 26.936 215.144C26.6213 215.144 26.3067 215.197 25.992 215.304L25.872 214.864C26.272 214.709 26.688 214.632 27.12 214.632C27.552 214.632 27.9093 214.755 28.192 215C28.48 215.24 28.624 215.576 28.624 216.008C28.624 216.44 28.424 216.816 28.024 217.136C28.488 217.371 28.72 217.811 28.72 218.456C28.72 218.947 28.5573 219.344 28.232 219.648C27.912 219.947 27.5067 220.096 27.016 220.096C26.744 220.096 26.472 220.051 26.2 219.96C25.9333 219.864 25.7147 219.728 25.544 219.552L25.672 219.136Z" fill="white"/>
<path d="M24.2452 276.872C24.0295 276.826 23.7229 276.767 23.3524 276.717C22.7519 276.637 21.4871 276.478 20.0208 276.751C19.294 276.887 17.8752 277.168 16.4833 278.262C16.0227 278.624 15.0205 279.504 14.4052 280.941C14.1411 281.559 13.897 282.152 14.0446 282.899C14.2426 283.9 15.0042 284.465 15.144 284.565C16.1916 285.313 17.4607 285.064 18.3379 284.891C19.3167 284.699 20.0712 284.309 20.5701 283.991C20.3366 284.821 20.1074 285.665 19.8831 286.523C19.7532 287.018 19.6276 287.511 19.5055 288H23.0947C23.1749 287.703 23.2551 287.405 23.3353 287.107H21.6347C22.5049 283.695 23.3751 280.284 24.2452 276.872ZM19.5573 283.554C18.7808 284.139 17.6417 284.321 16.741 283.915C16.5344 283.822 16.0341 283.595 15.7963 283.073C15.6309 282.71 15.6551 282.343 15.7445 281.922C16.1171 280.169 17.1867 279.072 17.1867 279.072C17.5473 278.702 18.6552 277.672 20.3636 277.475C20.9406 277.408 21.4261 277.456 21.7547 277.509C21.512 279.53 21.0073 281.034 20.6042 282.008C20.3252 282.683 20.0676 283.169 19.5566 283.554H19.5573Z" fill="white" stroke="white" stroke-width="0.5" stroke-miterlimit="10"/>
<path d="M25.552 287.44V287.224L26.816 283.632L27.36 283.728L26.248 286.944H27.8V285.24H28.392V286.944H29L28.928 287.44H28.392V289H27.8V287.44H25.552Z" fill="white"/>
<path d="M81.2452 19.8717C81.0295 19.8256 80.7229 19.7667 80.3524 19.717C79.7519 19.6368 78.4871 19.4778 77.0208 19.7511C76.294 19.8866 74.8752 20.1677 73.4833 21.2621C73.0227 21.6241 72.0205 22.5035 71.4052 23.9415C71.1411 24.559 70.897 25.1516 71.0446 25.899C71.2426 26.9004 72.0042 27.4647 72.144 27.5648C73.1916 28.3129 74.4607 28.0637 75.3379 27.8913C76.3167 27.6989 77.0712 27.3093 77.5701 26.9906C77.3366 27.821 77.1074 28.6649 76.8831 29.523C76.7532 30.0184 76.6276 30.511 76.5055 31H80.0947C80.1749 30.7026 80.2551 30.4045 80.3353 30.1071H78.6347C79.5049 26.6953 80.3751 23.2835 81.2452 19.8717ZM76.5573 26.5541C75.7808 27.1389 74.6417 27.3213 73.741 26.9146C73.5344 26.8217 73.0341 26.5953 72.7963 26.0729C72.6309 25.7102 72.6551 25.3432 72.7445 24.9224C73.1171 23.1693 74.1867 22.072 74.1867 22.072C74.5473 21.7022 75.6552 20.6716 77.3636 20.475C77.9406 20.4083 78.4261 20.4559 78.7547 20.5091C78.512 22.5305 78.0073 24.0345 77.6042 25.0082C77.3252 25.6825 77.0676 26.1687 76.5566 26.5541H76.5573Z" fill="white" stroke="white" stroke-width="0.5" stroke-miterlimit="10"/>
<path d="M83.16 32V31.504H84.144L84.168 27.368L83.064 28.08L82.8 27.72L84.192 26.632L84.752 26.728V31.504H85.704V32H83.16Z" fill="white"/>
<path d="M148.245 19.8717C148.029 19.8256 147.723 19.7667 147.352 19.717C146.752 19.6368 145.487 19.4778 144.021 19.7511C143.294 19.8866 141.875 20.1677 140.483 21.2621C140.023 21.6241 139.021 22.5035 138.405 23.9415C138.141 24.559 137.897 25.1516 138.045 25.899C138.243 26.9004 139.004 27.4647 139.144 27.5648C140.192 28.3129 141.461 28.0637 142.338 27.8913C143.317 27.6989 144.071 27.3093 144.57 26.9906C144.337 27.821 144.107 28.6649 143.883 29.523C143.753 30.0184 143.628 30.511 143.505 31H147.095C147.175 30.7026 147.255 30.4045 147.335 30.1071H145.635C146.505 26.6953 147.375 23.2835 148.245 19.8717ZM143.557 26.5541C142.781 27.1389 141.642 27.3213 140.741 26.9146C140.534 26.8217 140.034 26.5953 139.796 26.0729C139.631 25.7102 139.655 25.3432 139.744 24.9224C140.117 23.1693 141.187 22.072 141.187 22.072C141.547 21.7022 142.655 20.6716 144.364 20.475C144.941 20.4083 145.426 20.4559 145.755 20.5091C145.512 22.5305 145.007 24.0345 144.604 25.0082C144.325 25.6825 144.068 26.1687 143.557 26.5541H143.557Z" fill="white" stroke="white" stroke-width="0.5" stroke-miterlimit="10"/>
<path d="M149.52 32V31.784C149.819 31.4853 150.133 31.1467 150.464 30.768C150.795 30.384 151.003 30.1333 151.088 30.016C151.179 29.8933 151.293 29.728 151.432 29.52C151.571 29.312 151.672 29.136 151.736 28.992C151.912 28.608 152 28.2747 152 27.992C152 27.7093 151.899 27.4987 151.696 27.36C151.499 27.216 151.227 27.144 150.88 27.144C150.539 27.144 150.205 27.1973 149.88 27.304L149.76 26.864C150.16 26.7093 150.589 26.632 151.048 26.632C151.507 26.632 151.883 26.752 152.176 26.992C152.469 27.2267 152.616 27.576 152.616 28.04C152.616 28.92 151.912 30.0773 150.504 31.512L152.728 31.488L152.76 32H149.52Z" fill="white"/>
<path d="M215.245 19.8717C215.029 19.8256 214.723 19.7667 214.352 19.717C213.752 19.6368 212.487 19.4778 211.021 19.7511C210.294 19.8866 208.875 20.1677 207.483 21.2621C207.023 21.6241 206.021 22.5035 205.405 23.9415C205.141 24.559 204.897 25.1516 205.045 25.899C205.243 26.9004 206.004 27.4647 206.144 27.5648C207.192 28.3129 208.461 28.0637 209.338 27.8913C210.317 27.6989 211.071 27.3093 211.57 26.9906C211.337 27.821 211.107 28.6649 210.883 29.523C210.753 30.0184 210.628 30.511 210.505 31H214.095C214.175 30.7026 214.255 30.4045 214.335 30.1071H212.635C213.505 26.6953 214.375 23.2835 215.245 19.8717ZM210.557 26.5541C209.781 27.1389 208.642 27.3213 207.741 26.9146C207.534 26.8217 207.034 26.5953 206.796 26.0729C206.631 25.7102 206.655 25.3432 206.744 24.9224C207.117 23.1693 208.187 22.072 208.187 22.072C208.547 21.7022 209.655 20.6716 211.364 20.475C211.941 20.4083 212.426 20.4559 212.755 20.5091C212.512 22.5305 212.007 24.0345 211.604 25.0082C211.325 25.6825 211.068 26.1687 210.557 26.5541H210.557Z" fill="white" stroke="white" stroke-width="0.5" stroke-miterlimit="10"/>
<path d="M216.672 31.136C217.029 31.4453 217.413 31.6 217.824 31.6C218.235 31.6 218.549 31.5013 218.768 31.304C218.992 31.1013 219.104 30.824 219.104 30.472C219.104 30.12 218.997 29.8613 218.784 29.696C218.571 29.5253 218.28 29.44 217.912 29.44H217.4V29C217.672 28.968 217.893 28.952 218.064 28.952C218.235 28.952 218.384 28.96 218.512 28.976C218.843 28.7307 219.008 28.408 219.008 28.008C219.008 27.7307 218.909 27.5173 218.712 27.368C218.515 27.2187 218.256 27.144 217.936 27.144C217.621 27.144 217.307 27.1973 216.992 27.304L216.872 26.864C217.272 26.7093 217.688 26.632 218.12 26.632C218.552 26.632 218.909 26.7547 219.192 27C219.48 27.24 219.624 27.576 219.624 28.008C219.624 28.44 219.424 28.816 219.024 29.136C219.488 29.3707 219.72 29.8107 219.72 30.456C219.72 30.9467 219.557 31.344 219.232 31.648C218.912 31.9467 218.507 32.096 218.016 32.096C217.744 32.096 217.472 32.0507 217.2 31.96C216.933 31.864 216.715 31.728 216.544 31.552L216.672 31.136Z" fill="white"/>
<path d="M282.245 19.8717C282.029 19.8256 281.723 19.7667 281.352 19.717C280.752 19.6368 279.487 19.4778 278.021 19.7511C277.294 19.8866 275.875 20.1677 274.483 21.2621C274.023 21.6241 273.021 22.5035 272.405 23.9415C272.141 24.559 271.897 25.1516 272.045 25.899C272.243 26.9004 273.004 27.4647 273.144 27.5648C274.192 28.3129 275.461 28.0637 276.338 27.8913C277.317 27.6989 278.071 27.3093 278.57 26.9906C278.337 27.821 278.107 28.6649 277.883 29.523C277.753 30.0184 277.628 30.511 277.505 31H281.095C281.175 30.7026 281.255 30.4045 281.335 30.1071H279.635C280.505 26.6953 281.375 23.2835 282.245 19.8717ZM277.557 26.5541C276.781 27.1389 275.642 27.3213 274.741 26.9146C274.534 26.8217 274.034 26.5953 273.796 26.0729C273.631 25.7102 273.655 25.3432 273.744 24.9224C274.117 23.1693 275.187 22.072 275.187 22.072C275.547 21.7022 276.655 20.6716 278.364 20.475C278.941 20.4083 279.426 20.4559 279.755 20.5091C279.512 22.5305 279.007 24.0345 278.604 25.0082C278.325 25.6825 278.068 26.1687 277.557 26.5541H277.557Z" fill="white" stroke="white" stroke-width="0.5" stroke-miterlimit="10"/>
<path d="M283.552 30.44V30.224L284.816 26.632L285.36 26.728L284.248 29.944H285.8V28.24H286.392V29.944H287L286.928 30.44H286.392V32H285.8V30.44H283.552Z" fill="white"/>
<defs>
<clipPath id="clip0_484_747">
<rect width="67.5" height="67.5" fill="white" transform="translate(45 247.5)"/>
</clipPath>
<clipPath id="clip1_484_747">
<rect width="67.5" height="67.5" fill="white" transform="translate(247.5 45)"/>
</clipPath>
</defs>
</svg>
