<svg width="338" height="222" viewBox="0 0 338 222" fill="none" xmlns="http://www.w3.org/2000/svg">
<path d="M63.9616 2.45455V9H63.1689V2.45455H63.9616ZM66.7034 2.45455V9H65.9108V2.45455H66.7034Z" fill="white"/>
<path d="M60.569 14.9545V21.5H59.7764V14.9545H60.569ZM62.9017 14.9545L64.5892 17.6776H64.6404L66.3279 14.9545H67.2611L65.2029 18.2273L67.2611 21.5H66.3279L64.6404 18.8281H64.5892L62.9017 21.5H61.9685L64.0779 18.2273L61.9685 14.9545H62.9017Z" fill="white"/>
<path d="M60.358 27.4545V34H59.5654V27.4545H60.358ZM61.7448 27.4545H62.6524L64.4678 30.5099H64.5445L66.3598 27.4545H67.2675L64.9024 31.3026V34H64.1098V31.3026L61.7448 27.4545Z" fill="white"/>
<path d="M60.7184 39.9545V46.5H59.9258V39.9545H60.7184ZM62.4503 46.5V45.9247L65.9787 40.6577H62.4119V39.9545H66.9247V40.5298L63.3963 45.7969H66.9631V46.5H62.4503Z" fill="white"/>
<path d="M60.1599 52.4545L61.8474 55.1776H61.8985L63.586 52.4545H64.5193L62.461 55.7273L64.5193 59H63.586L61.8985 56.3281H61.8474L60.1599 59H59.2266L61.336 55.7273L59.2266 52.4545H60.1599ZM66.7034 52.4545V59H65.9108V52.4545H66.7034Z" fill="white"/>
<path d="M56.7673 64.9545L58.4548 67.6776H58.5059L60.1934 64.9545H61.1267L59.0684 68.2273L61.1267 71.5H60.1934L58.5059 68.8281H58.4548L56.7673 71.5H55.8341L57.9434 68.2273L55.8341 64.9545H56.7673ZM62.9017 64.9545L64.5892 67.6776H64.6404L66.3279 64.9545H67.2611L65.2029 68.2273L67.2611 71.5H66.3279L64.6404 68.8281H64.5892L62.9017 71.5H61.9685L64.0779 68.2273L61.9685 64.9545H62.9017Z" fill="white"/>
<path d="M56.5564 77.4545L58.2439 80.1776H58.295L59.9825 77.4545H60.9157L58.8575 80.7273L60.9157 84H59.9825L58.295 81.3281H58.2439L56.5564 84H55.6231L57.7325 80.7273L55.6231 77.4545H56.5564ZM61.7448 77.4545H62.6524L64.4678 80.5099H64.5445L66.3598 77.4545H67.2675L64.9024 81.3026V84H64.1098V81.3026L61.7448 77.4545Z" fill="white"/>
<path d="M56.9167 89.9545L58.6042 92.6776H58.6554L60.3429 89.9545H61.2761L59.2179 93.2273L61.2761 96.5H60.3429L58.6554 93.8281H58.6042L56.9167 96.5H55.9835L58.0929 93.2273L55.9835 89.9545H56.9167ZM62.4503 96.5V95.9247L65.9787 90.6577H62.4119V89.9545H66.9247V90.5298L63.3963 95.7969H66.9631V96.5H62.4503Z" fill="white"/>
<path d="M59.0029 102.455H59.9106L61.7259 105.51H61.8026L63.618 102.455H64.5257L62.1606 106.303V109H61.368V106.303L59.0029 102.455ZM66.7034 102.455V109H65.9108V102.455H66.7034Z" fill="white"/>
<path d="M55.6103 114.955H56.518L58.3334 118.01H58.4101L60.2254 114.955H61.1331L58.768 118.803V121.5H57.9754V118.803L55.6103 114.955ZM62.9017 114.955L64.5892 117.678H64.6404L66.3279 114.955H67.2611L65.2029 118.227L67.2611 121.5H66.3279L64.6404 118.828H64.5892L62.9017 121.5H61.9685L64.0779 118.227L61.9685 114.955H62.9017Z" fill="white"/>
<path d="M55.3994 127.455H56.3071L58.1224 130.51H58.1991L60.0145 127.455H60.9221L58.5571 131.303V134H57.7645V131.303L55.3994 127.455ZM61.7448 127.455H62.6524L64.4678 130.51H64.5445L66.3598 127.455H67.2675L64.9024 131.303V134H64.1098V131.303L61.7448 127.455Z" fill="white"/>
<path d="M55.7598 139.955H56.6674L58.4828 143.01H58.5595L60.3748 139.955H61.2825L58.9174 143.803V146.5H58.1248V143.803L55.7598 139.955ZM62.4503 146.5V145.925L65.9787 140.658H62.4119V139.955H66.9247V140.53L63.3963 145.797H66.9631V146.5H62.4503Z" fill="white"/>
<path d="M59.7084 159V158.425L63.2369 153.158H59.6701V152.455H64.1829V153.03L60.6545 158.297H64.2212V159H59.7084ZM66.7034 152.455V159H65.9108V152.455H66.7034Z" fill="white"/>
<path d="M56.3159 171.5V170.925L59.8443 165.658H56.2775V164.955H60.7903V165.53L57.2619 170.797H60.8287V171.5H56.3159ZM62.9017 164.955L64.5892 167.678H64.6404L66.3279 164.955H67.2611L65.2029 168.227L67.2611 171.5H66.3279L64.6404 168.828H64.5892L62.9017 171.5H61.9685L64.0779 168.227L61.9685 164.955H62.9017Z" fill="white"/>
<path d="M56.1049 184V183.425L59.6333 178.158H56.0666V177.455H60.5794V178.03L57.051 183.297H60.6177V184H56.1049ZM61.7448 177.455H62.6524L64.4678 180.51H64.5445L66.3598 177.455H67.2675L64.9024 181.303V184H64.1098V181.303L61.7448 177.455Z" fill="white"/>
<path d="M56.4653 196.5V195.925L59.9937 190.658H56.4269V189.955H60.9397V190.53L57.4113 195.797H60.9781V196.5H56.4653ZM62.4503 196.5V195.925L65.9787 190.658H62.4119V189.955H66.9247V190.53L63.3963 195.797H66.9631V196.5H62.4503Z" fill="white"/>
<g clip-path="url(#clip0_484_748)">
<mask id="path-17-outside-1_484_748" maskUnits="userSpaceOnUse" x="72" y="0" width="202" height="202" fill="black">
<rect fill="white" x="72" width="202" height="202"/>
<path d="M74 0H274V200H74V0Z"/>
</mask>
<path d="M74 0H274V200H74V0Z" fill="black" fill-opacity="0.33"/>
<rect x="74" width="12.5" height="12.5" fill="#4D55A2"/>
<rect x="236.5" y="12.5" width="12.5" height="12.5" fill="#767DBD"/>
<rect x="249" y="25" width="12.5" height="12.5" fill="#555DA8"/>
<path d="M111.5 37.5H124V50H111.5V37.5Z" fill="#6F76B9"/>
<path d="M257.25 123.5H269.75V136H257.25V123.5Z" fill="#9FA4DC"/>
<rect x="161.5" y="50" width="12.5" height="12.5" fill="#6068AF"/>
<rect x="199" y="62.5" width="12.5" height="12.5" fill="#4D55A2"/>
<rect x="199" y="25" width="12.5" height="12.5" fill="#8C8EA7"/>
<rect x="149" y="25" width="12.5" height="12.5" fill="#B9BDE0"/>
<rect x="186.5" y="75" width="12.5" height="12.5" fill="#A64F4F"/>
<rect x="124" y="87.5" width="12.5" height="12.5" fill="#555DA8"/>
<rect x="93" y="100" width="12.5" height="12.5" fill="#9B9CA7"/>
<rect x="211.5" y="100" width="12.5" height="12.5" fill="#555DA8"/>
<rect x="255" y="81" width="12.5" height="12.5" fill="#DFB9B9"/>
<rect x="149" y="112.5" width="12.5" height="12.5" fill="#A64F4F"/>
<rect x="136.5" y="125" width="12.5" height="12.5" fill="#4D55A2"/>
<rect x="174" y="137.5" width="12.5" height="12.5" fill="#6068AF"/>
<rect x="155" y="150" width="12.5" height="12.5" fill="#DABEBE"/>
<rect x="199" y="169" width="12.5" height="12.5" fill="#EAAAAA"/>
<rect x="224" y="150" width="12.5" height="12.5" fill="#6F76B9"/>
<rect x="86.5" y="162.5" width="12.5" height="12.5" fill="#555DA8"/>
<rect x="99" y="175" width="12.5" height="12.5" fill="#767DBD"/>
<rect x="261.5" y="187.5" width="12.5" height="12.5" fill="#4D55A2"/>
</g>
<path d="M74 200H72V202H74V200ZM274 198H74V202H274V198ZM76 200V0H72V200H76Z" fill="#6B7B92" mask="url(#path-17-outside-1_484_748)"/>
<path d="M143.732 214.785L146.851 215.517L146.887 215.481L146.155 212.363L146.815 211.703L147.673 215.472L151.443 216.331L150.783 216.991L147.7 216.295L147.664 216.331L148.36 219.413L147.7 220.073L146.878 216.268L143.072 215.445L143.732 214.785ZM147.401 211.116L148.043 210.475L151.487 211.351L151.541 211.297L150.664 207.853L151.306 207.211L152.355 211.605L154.262 213.512L153.701 214.072L151.794 212.165L147.401 211.116Z" fill="white"/>
<path d="M157.477 214.304L160.595 215.036L160.631 215L159.899 211.882L160.559 211.222L161.418 214.991L165.187 215.85L164.528 216.51L161.445 215.814L161.409 215.85L162.105 218.933L161.445 219.592L160.622 215.787L156.817 214.964L157.477 214.304ZM166.018 215.02L165.611 214.613L164.382 208.394L161.859 210.916L161.362 210.419L164.553 207.228L164.96 207.634L166.189 213.854L168.712 211.332L169.209 211.829L166.018 215.02Z" fill="white"/>
<path d="M170.081 212.84L170.723 212.198L174.167 213.075L174.221 213.021L173.344 209.577L173.986 208.935L175.034 213.328L176.942 215.236L176.381 215.796L174.474 213.889L170.081 212.84ZM175.526 207.395L180.154 212.024L179.594 212.584L174.965 207.956L175.526 207.395Z" fill="white"/>
<path d="M181.438 215.454L182.08 214.812L185.524 215.689L185.578 215.635L184.701 212.191L185.343 211.549L186.392 215.942L188.299 217.85L187.739 218.41L185.831 216.503L181.438 215.454ZM186.594 210.298L189.713 211.031L189.749 210.994L189.016 207.876L189.676 207.216L190.535 210.985L194.305 211.844L193.645 212.504L190.562 211.808L190.526 211.844L191.222 214.927L190.562 215.587L189.74 211.781L185.934 210.958L186.594 210.298Z" fill="white"/>
<path d="M195.334 215.529L195.976 214.887L199.42 215.764L199.474 215.709L198.598 212.265L199.239 211.624L200.288 216.017L202.195 217.924L201.635 218.485L199.727 216.577L195.334 215.529ZM199.821 211.042L200.463 210.4L203.907 211.277L203.961 211.223L203.084 207.778L203.726 207.137L204.775 211.53L206.682 213.437L206.122 213.998L204.214 212.09L199.821 211.042Z" fill="white"/>
<path d="M209.079 215.048L209.721 214.406L213.165 215.283L213.219 215.229L212.342 211.784L212.984 211.143L214.033 215.536L215.94 217.443L215.379 218.004L213.472 216.096L209.079 215.048ZM218.438 214.945L218.031 214.538L216.802 208.319L214.28 210.841L213.783 210.344L216.974 207.153L217.38 207.56L218.61 213.779L221.132 211.257L221.629 211.754L218.438 214.945Z" fill="white"/>
<path d="M227.428 217.097L227.021 216.69L225.792 210.471L223.27 212.993L222.773 212.496L225.964 209.305L226.371 209.712L227.6 215.931L230.122 213.409L230.619 213.906L227.428 217.097ZM227.746 207.523L232.374 212.151L231.814 212.711L227.186 208.083L227.746 207.523Z" fill="white"/>
<path d="M238.432 219.357L238.025 218.951L236.796 212.731L234.274 215.253L233.777 214.756L236.968 211.565L237.374 211.972L238.604 218.191L241.126 215.669L241.623 216.166L238.432 219.357ZM238.461 210.072L241.579 210.804L241.615 210.768L240.883 207.65L241.543 206.99L242.402 210.759L246.171 211.618L245.512 212.278L242.429 211.582L242.393 211.618L243.089 214.701L242.429 215.36L241.606 211.555L237.801 210.732L238.461 210.072Z" fill="white"/>
<path d="M251.621 219.432L251.214 219.025L249.985 212.806L247.463 215.328L246.966 214.831L250.157 211.64L250.563 212.047L251.793 218.266L254.315 215.744L254.812 216.241L251.621 219.432ZM250.981 210.816L251.623 210.174L255.067 211.051L255.121 210.997L254.244 207.552L254.886 206.911L255.934 211.304L257.842 213.211L257.281 213.772L255.374 211.864L250.981 210.816Z" fill="white"/>
<path d="M265.012 219.305L264.605 218.898L263.376 212.679L260.854 215.201L260.357 214.703L263.548 211.512L263.955 211.919L265.184 218.139L267.706 215.616L268.203 216.114L265.012 219.305ZM269.244 215.073L268.837 214.666L267.608 208.446L265.086 210.969L264.589 210.471L267.78 207.28L268.187 207.687L269.416 213.906L271.938 211.384L272.435 211.882L269.244 215.073Z" fill="white"/>
<rect x="296" width="12" height="60" rx="2" fill="url(#paint0_linear_484_748)"/>
<path d="M322.602 2.45455V9H321.809V3.28551H321.771L320.173 4.34659V3.54119L321.809 2.45455H322.602ZM325.02 9.05114C324.862 9.05114 324.727 8.99467 324.614 8.88175C324.501 8.76882 324.445 8.63352 324.445 8.47585C324.445 8.31818 324.501 8.18288 324.614 8.06996C324.727 7.95703 324.862 7.90057 325.02 7.90057C325.178 7.90057 325.313 7.95703 325.426 8.06996C325.539 8.18288 325.595 8.31818 325.595 8.47585C325.595 8.58026 325.569 8.67614 325.515 8.76349C325.464 8.85085 325.395 8.92116 325.308 8.97443C325.222 9.02557 325.127 9.05114 325.02 9.05114ZM329.203 9.08949C328.721 9.08949 328.311 8.95845 327.972 8.69638C327.633 8.43217 327.374 8.04972 327.195 7.54901C327.016 7.04616 326.927 6.43892 326.927 5.72727C326.927 5.01989 327.016 4.41584 327.195 3.91513C327.377 3.41229 327.636 3.02876 327.975 2.76456C328.316 2.49822 328.725 2.36506 329.203 2.36506C329.68 2.36506 330.088 2.49822 330.427 2.76456C330.767 3.02876 331.027 3.41229 331.206 3.91513C331.388 4.41584 331.478 5.01989 331.478 5.72727C331.478 6.43892 331.389 7.04616 331.21 7.54901C331.031 8.04972 330.772 8.43217 330.433 8.69638C330.094 8.95845 329.684 9.08949 329.203 9.08949ZM329.203 8.38636C329.68 8.38636 330.051 8.15625 330.315 7.69602C330.579 7.2358 330.711 6.57955 330.711 5.72727C330.711 5.16051 330.65 4.67791 330.529 4.27947C330.41 3.88104 330.237 3.57741 330.011 3.36861C329.787 3.1598 329.518 3.0554 329.203 3.0554C328.729 3.0554 328.36 3.28871 328.093 3.75533C327.827 4.21982 327.694 4.87713 327.694 5.72727C327.694 6.29403 327.754 6.77557 327.873 7.17188C327.992 7.56818 328.164 7.86967 328.388 8.07635C328.613 8.28303 328.885 8.38636 329.203 8.38636ZM335.188 9.08949C334.706 9.08949 334.296 8.95845 333.957 8.69638C333.618 8.43217 333.359 8.04972 333.18 7.54901C333.001 7.04616 332.912 6.43892 332.912 5.72727C332.912 5.01989 333.001 4.41584 333.18 3.91513C333.362 3.41229 333.621 3.02876 333.96 2.76456C334.301 2.49822 334.71 2.36506 335.188 2.36506C335.665 2.36506 336.073 2.49822 336.412 2.76456C336.752 3.02876 337.012 3.41229 337.191 3.91513C337.373 4.41584 337.463 5.01989 337.463 5.72727C337.463 6.43892 337.374 7.04616 337.195 7.54901C337.016 8.04972 336.757 8.43217 336.418 8.69638C336.079 8.95845 335.669 9.08949 335.188 9.08949ZM335.188 8.38636C335.665 8.38636 336.036 8.15625 336.3 7.69602C336.564 7.2358 336.696 6.57955 336.696 5.72727C336.696 5.16051 336.635 4.67791 336.514 4.27947C336.395 3.88104 336.222 3.57741 335.996 3.36861C335.772 3.1598 335.503 3.0554 335.188 3.0554C334.714 3.0554 334.345 3.28871 334.078 3.75533C333.812 4.21982 333.679 4.87713 333.679 5.72727C333.679 6.29403 333.739 6.77557 333.858 7.17188C333.977 7.56818 334.149 7.86967 334.373 8.07635C334.598 8.28303 334.87 8.38636 335.188 8.38636Z" fill="white"/>
<path d="M320.827 57.0895C320.346 57.0895 319.936 56.9585 319.597 56.6964C319.258 56.4322 318.999 56.0497 318.82 55.549C318.641 55.0462 318.552 54.4389 318.552 53.7273C318.552 53.0199 318.641 52.4158 318.82 51.9151C319.001 51.4123 319.261 51.0288 319.6 50.7646C319.941 50.4982 320.35 50.3651 320.827 50.3651C321.304 50.3651 321.713 50.4982 322.051 50.7646C322.392 51.0288 322.652 51.4123 322.831 51.9151C323.012 52.4158 323.103 53.0199 323.103 53.7273C323.103 54.4389 323.013 55.0462 322.834 55.549C322.655 56.0497 322.396 56.4322 322.058 56.6964C321.719 56.9585 321.309 57.0895 320.827 57.0895ZM320.827 56.3864C321.304 56.3864 321.675 56.1562 321.939 55.696C322.204 55.2358 322.336 54.5795 322.336 53.7273C322.336 53.1605 322.275 52.6779 322.154 52.2795C322.034 51.881 321.862 51.5774 321.636 51.3686C321.412 51.1598 321.143 51.0554 320.827 51.0554C320.354 51.0554 319.985 51.2887 319.718 51.7553C319.452 52.2198 319.319 52.8771 319.319 53.7273C319.319 54.294 319.378 54.7756 319.498 55.1719C319.617 55.5682 319.789 55.8697 320.012 56.0763C320.238 56.283 320.51 56.3864 320.827 56.3864ZM325.011 57.0511C324.854 57.0511 324.718 56.9947 324.605 56.8817C324.492 56.7688 324.436 56.6335 324.436 56.4759C324.436 56.3182 324.492 56.1829 324.605 56.07C324.718 55.957 324.854 55.9006 325.011 55.9006C325.169 55.9006 325.304 55.957 325.417 56.07C325.53 56.1829 325.587 56.3182 325.587 56.4759C325.587 56.5803 325.56 56.6761 325.507 56.7635C325.456 56.8509 325.386 56.9212 325.299 56.9744C325.214 57.0256 325.118 57.0511 325.011 57.0511ZM329.31 50.3651C329.578 50.3672 329.846 50.4183 330.115 50.5185C330.383 50.6186 330.628 50.7848 330.85 51.017C331.072 51.2472 331.25 51.5614 331.384 51.9599C331.518 52.3583 331.585 52.858 331.585 53.4588C331.585 54.0405 331.53 54.5572 331.419 55.0089C331.31 55.4585 331.153 55.8377 330.946 56.1467C330.741 56.4556 330.492 56.69 330.198 56.8498C329.906 57.0096 329.576 57.0895 329.207 57.0895C328.841 57.0895 328.514 57.017 328.226 56.8722C327.941 56.7251 327.706 56.5217 327.523 56.2617C327.342 55.9996 327.226 55.696 327.175 55.3509H327.954C328.025 55.6513 328.164 55.8995 328.373 56.0955C328.584 56.2894 328.862 56.3864 329.207 56.3864C329.712 56.3864 330.111 56.1658 330.403 55.7248C330.697 55.2837 330.844 54.6605 330.844 53.8551H330.793C330.673 54.0341 330.532 54.1886 330.367 54.3185C330.203 54.4485 330.021 54.5487 329.821 54.619C329.621 54.6893 329.408 54.7244 329.182 54.7244C328.807 54.7244 328.463 54.6317 328.149 54.4464C327.838 54.2589 327.589 54.0021 327.402 53.6761C327.216 53.348 327.123 52.973 327.123 52.5511C327.123 52.1506 327.213 51.7841 327.392 51.4517C327.573 51.1172 327.827 50.8509 328.153 50.6527C328.481 50.4545 328.866 50.3587 329.31 50.3651ZM329.31 51.0682C329.041 51.0682 328.799 51.1353 328.584 51.2695C328.371 51.4016 328.202 51.5806 328.076 51.8065C327.952 52.0302 327.891 52.2784 327.891 52.5511C327.891 52.8239 327.95 53.0721 328.07 53.2958C328.191 53.5174 328.356 53.6942 328.565 53.8263C328.776 53.9563 329.016 54.0213 329.284 54.0213C329.486 54.0213 329.675 53.9819 329.85 53.9031C330.024 53.8221 330.177 53.7124 330.307 53.5739C330.439 53.4332 330.542 53.2745 330.617 53.0977C330.691 52.9187 330.729 52.7322 330.729 52.5384C330.729 52.2827 330.667 52.043 330.543 51.8192C330.422 51.5955 330.253 51.4144 330.038 51.2759C329.825 51.1374 329.582 51.0682 329.31 51.0682ZM335.247 57.0895C334.872 57.0895 334.535 57.0149 334.234 56.8658C333.934 56.7166 333.693 56.5121 333.512 56.2521C333.331 55.9922 333.232 55.696 333.215 55.3636H333.982C334.012 55.6598 334.146 55.9048 334.384 56.0987C334.625 56.2905 334.913 56.3864 335.247 56.3864C335.516 56.3864 335.755 56.3235 335.963 56.1978C336.174 56.0721 336.339 55.8995 336.459 55.68C336.58 55.4585 336.641 55.2081 336.641 54.929C336.641 54.6435 336.578 54.3888 336.452 54.1651C336.329 53.9393 336.158 53.7614 335.941 53.6314C335.724 53.5014 335.475 53.4354 335.196 53.4332C334.996 53.4311 334.79 53.462 334.579 53.5259C334.369 53.5877 334.195 53.6676 334.059 53.7656L333.317 53.6761L333.713 50.4545H337.114V51.1577H334.378L334.148 53.0881H334.186C334.321 52.9815 334.489 52.8931 334.691 52.8228C334.894 52.7525 335.105 52.7173 335.324 52.7173C335.725 52.7173 336.082 52.8132 336.395 53.005C336.71 53.1946 336.957 53.4545 337.136 53.7848C337.317 54.1151 337.408 54.4922 337.408 54.9162C337.408 55.3338 337.314 55.7067 337.127 56.0348C336.941 56.3608 336.686 56.6186 336.36 56.8082C336.034 56.9957 335.663 57.0895 335.247 57.0895Z" fill="white"/>
<rect x="296" y="70" width="12" height="60" rx="2" fill="url(#paint1_linear_484_748)"/>
<path d="M322.831 79.0895C322.35 79.0895 321.939 78.9585 321.601 78.6964C321.262 78.4322 321.003 78.0497 320.824 77.549C320.645 77.0462 320.556 76.4389 320.556 75.7273C320.556 75.0199 320.645 74.4158 320.824 73.9151C321.005 73.4123 321.265 73.0288 321.604 72.7646C321.945 72.4982 322.354 72.3651 322.831 72.3651C323.308 72.3651 323.716 72.4982 324.055 72.7646C324.396 73.0288 324.656 73.4123 324.835 73.9151C325.016 74.4158 325.107 75.0199 325.107 75.7273C325.107 76.4389 325.017 77.0462 324.838 77.549C324.659 78.0497 324.4 78.4322 324.062 78.6964C323.723 78.9585 323.313 79.0895 322.831 79.0895ZM322.831 78.3864C323.308 78.3864 323.679 78.1562 323.943 77.696C324.208 77.2358 324.34 76.5795 324.34 75.7273C324.34 75.1605 324.279 74.6779 324.157 74.2795C324.038 73.881 323.866 73.5774 323.64 73.3686C323.416 73.1598 323.146 73.0554 322.831 73.0554C322.358 73.0554 321.988 73.2887 321.722 73.7553C321.456 74.2198 321.323 74.8771 321.323 75.7273C321.323 76.294 321.382 76.7756 321.502 77.1719C321.621 77.5682 321.792 77.8697 322.016 78.0763C322.242 78.283 322.514 78.3864 322.831 78.3864ZM327.015 79.0511C326.858 79.0511 326.722 78.9947 326.609 78.8817C326.496 78.7688 326.44 78.6335 326.44 78.4759C326.44 78.3182 326.496 78.1829 326.609 78.07C326.722 77.957 326.858 77.9006 327.015 77.9006C327.173 77.9006 327.308 77.957 327.421 78.07C327.534 78.1829 327.59 78.3182 327.59 78.4759C327.59 78.5803 327.564 78.6761 327.511 78.7635C327.459 78.8509 327.39 78.9212 327.303 78.9744C327.218 79.0256 327.122 79.0511 327.015 79.0511ZM330.81 72.4545V79H330.017V73.2855H329.979L328.381 74.3466V73.5412L330.017 72.4545H330.81ZM335.188 79.0895C334.706 79.0895 334.296 78.9585 333.957 78.6964C333.618 78.4322 333.359 78.0497 333.18 77.549C333.001 77.0462 332.912 76.4389 332.912 75.7273C332.912 75.0199 333.001 74.4158 333.18 73.9151C333.362 73.4123 333.621 73.0288 333.96 72.7646C334.301 72.4982 334.71 72.3651 335.188 72.3651C335.665 72.3651 336.073 72.4982 336.412 72.7646C336.752 73.0288 337.012 73.4123 337.191 73.9151C337.373 74.4158 337.463 75.0199 337.463 75.7273C337.463 76.4389 337.374 77.0462 337.195 77.549C337.016 78.0497 336.757 78.4322 336.418 78.6964C336.079 78.9585 335.669 79.0895 335.188 79.0895ZM335.188 78.3864C335.665 78.3864 336.036 78.1562 336.3 77.696C336.564 77.2358 336.696 76.5795 336.696 75.7273C336.696 75.1605 336.635 74.6779 336.514 74.2795C336.395 73.881 336.222 73.5774 335.996 73.3686C335.772 73.1598 335.503 73.0554 335.188 73.0554C334.714 73.0554 334.345 73.2887 334.078 73.7553C333.812 74.2198 333.679 74.8771 333.679 75.7273C333.679 76.294 333.739 76.7756 333.858 77.1719C333.977 77.5682 334.149 77.8697 334.373 78.0763C334.598 78.283 334.87 78.3864 335.188 78.3864Z" fill="white"/>
<path d="M320.836 103.089C320.354 103.089 319.944 102.958 319.606 102.696C319.267 102.432 319.008 102.05 318.829 101.549C318.65 101.046 318.56 100.439 318.56 99.7273C318.56 99.0199 318.65 98.4158 318.829 97.9151C319.01 97.4123 319.27 97.0288 319.609 96.7646C319.95 96.4982 320.359 96.3651 320.836 96.3651C321.313 96.3651 321.721 96.4982 322.06 96.7646C322.401 97.0288 322.661 97.4123 322.84 97.9151C323.021 98.4158 323.112 99.0199 323.112 99.7273C323.112 100.439 323.022 101.046 322.843 101.549C322.664 102.05 322.405 102.432 322.066 102.696C321.728 102.958 321.318 103.089 320.836 103.089ZM320.836 102.386C321.313 102.386 321.684 102.156 321.948 101.696C322.212 101.236 322.345 100.58 322.345 99.7273C322.345 99.1605 322.284 98.6779 322.162 98.2795C322.043 97.881 321.87 97.5774 321.645 97.3686C321.421 97.1598 321.151 97.0554 320.836 97.0554C320.363 97.0554 319.993 97.2887 319.727 97.7553C319.461 98.2198 319.327 98.8771 319.327 99.7273C319.327 100.294 319.387 100.776 319.506 101.172C319.626 101.568 319.797 101.87 320.021 102.076C320.247 102.283 320.519 102.386 320.836 102.386ZM325.02 103.051C324.862 103.051 324.727 102.995 324.614 102.882C324.501 102.769 324.445 102.634 324.445 102.476C324.445 102.318 324.501 102.183 324.614 102.07C324.727 101.957 324.862 101.901 325.02 101.901C325.178 101.901 325.313 101.957 325.426 102.07C325.539 102.183 325.595 102.318 325.595 102.476C325.595 102.58 325.569 102.676 325.515 102.763C325.464 102.851 325.395 102.921 325.308 102.974C325.222 103.026 325.127 103.051 325.02 103.051ZM329.203 103.089C328.721 103.089 328.311 102.958 327.972 102.696C327.633 102.432 327.374 102.05 327.195 101.549C327.016 101.046 326.927 100.439 326.927 99.7273C326.927 99.0199 327.016 98.4158 327.195 97.9151C327.377 97.4123 327.636 97.0288 327.975 96.7646C328.316 96.4982 328.725 96.3651 329.203 96.3651C329.68 96.3651 330.088 96.4982 330.427 96.7646C330.767 97.0288 331.027 97.4123 331.206 97.9151C331.388 98.4158 331.478 99.0199 331.478 99.7273C331.478 100.439 331.389 101.046 331.21 101.549C331.031 102.05 330.772 102.432 330.433 102.696C330.094 102.958 329.684 103.089 329.203 103.089ZM329.203 102.386C329.68 102.386 330.051 102.156 330.315 101.696C330.579 101.236 330.711 100.58 330.711 99.7273C330.711 99.1605 330.65 98.6779 330.529 98.2795C330.41 97.881 330.237 97.5774 330.011 97.3686C329.787 97.1598 329.518 97.0554 329.203 97.0554C328.729 97.0554 328.36 97.2887 328.093 97.7553C327.827 98.2198 327.694 98.8771 327.694 99.7273C327.694 100.294 327.754 100.776 327.873 101.172C327.992 101.568 328.164 101.87 328.388 102.076C328.613 102.283 328.885 102.386 329.203 102.386ZM335.188 103.089C334.706 103.089 334.296 102.958 333.957 102.696C333.618 102.432 333.359 102.05 333.18 101.549C333.001 101.046 332.912 100.439 332.912 99.7273C332.912 99.0199 333.001 98.4158 333.18 97.9151C333.362 97.4123 333.621 97.0288 333.96 96.7646C334.301 96.4982 334.71 96.3651 335.188 96.3651C335.665 96.3651 336.073 96.4982 336.412 96.7646C336.752 97.0288 337.012 97.4123 337.191 97.9151C337.373 98.4158 337.463 99.0199 337.463 99.7273C337.463 100.439 337.374 101.046 337.195 101.549C337.016 102.05 336.757 102.432 336.418 102.696C336.079 102.958 335.669 103.089 335.188 103.089ZM335.188 102.386C335.665 102.386 336.036 102.156 336.3 101.696C336.564 101.236 336.696 100.58 336.696 99.7273C336.696 99.1605 336.635 98.6779 336.514 98.2795C336.395 97.881 336.222 97.5774 335.996 97.3686C335.772 97.1598 335.503 97.0554 335.188 97.0554C334.714 97.0554 334.345 97.2887 334.078 97.7553C333.812 98.2198 333.679 98.8771 333.679 99.7273C333.679 100.294 333.739 100.776 333.858 101.172C333.977 101.568 334.149 101.87 334.373 102.076C334.598 102.283 334.87 102.386 335.188 102.386Z" fill="white"/>
<path d="M319.022 123.376V124.079H316.158V123.376H319.022ZM322.831 127.089C322.35 127.089 321.939 126.958 321.601 126.696C321.262 126.432 321.003 126.05 320.824 125.549C320.645 125.046 320.556 124.439 320.556 123.727C320.556 123.02 320.645 122.416 320.824 121.915C321.005 121.412 321.265 121.029 321.604 120.765C321.945 120.498 322.354 120.365 322.831 120.365C323.308 120.365 323.716 120.498 324.055 120.765C324.396 121.029 324.656 121.412 324.835 121.915C325.016 122.416 325.107 123.02 325.107 123.727C325.107 124.439 325.017 125.046 324.838 125.549C324.659 126.05 324.4 126.432 324.062 126.696C323.723 126.958 323.313 127.089 322.831 127.089ZM322.831 126.386C323.308 126.386 323.679 126.156 323.943 125.696C324.208 125.236 324.34 124.58 324.34 123.727C324.34 123.161 324.279 122.678 324.157 122.279C324.038 121.881 323.866 121.577 323.64 121.369C323.416 121.16 323.146 121.055 322.831 121.055C322.358 121.055 321.988 121.289 321.722 121.755C321.456 122.22 321.323 122.877 321.323 123.727C321.323 124.294 321.382 124.776 321.502 125.172C321.621 125.568 321.792 125.87 322.016 126.076C322.242 126.283 322.514 126.386 322.831 126.386ZM327.015 127.051C326.858 127.051 326.722 126.995 326.609 126.882C326.496 126.769 326.44 126.634 326.44 126.476C326.44 126.318 326.496 126.183 326.609 126.07C326.722 125.957 326.858 125.901 327.015 125.901C327.173 125.901 327.308 125.957 327.421 126.07C327.534 126.183 327.59 126.318 327.59 126.476C327.59 126.58 327.564 126.676 327.511 126.763C327.459 126.851 327.39 126.921 327.303 126.974C327.218 127.026 327.122 127.051 327.015 127.051ZM330.81 120.455V127H330.017V121.286H329.979L328.381 122.347V121.541L330.017 120.455H330.81ZM335.188 127.089C334.706 127.089 334.296 126.958 333.957 126.696C333.618 126.432 333.359 126.05 333.18 125.549C333.001 125.046 332.912 124.439 332.912 123.727C332.912 123.02 333.001 122.416 333.18 121.915C333.362 121.412 333.621 121.029 333.96 120.765C334.301 120.498 334.71 120.365 335.188 120.365C335.665 120.365 336.073 120.498 336.412 120.765C336.752 121.029 337.012 121.412 337.191 121.915C337.373 122.416 337.463 123.02 337.463 123.727C337.463 124.439 337.374 125.046 337.195 125.549C337.016 126.05 336.757 126.432 336.418 126.696C336.079 126.958 335.669 127.089 335.188 127.089ZM335.188 126.386C335.665 126.386 336.036 126.156 336.3 125.696C336.564 125.236 336.696 124.58 336.696 123.727C336.696 123.161 336.635 122.678 336.514 122.279C336.395 121.881 336.222 121.577 335.996 121.369C335.772 121.16 335.503 121.055 335.188 121.055C334.714 121.055 334.345 121.289 334.078 121.755C333.812 122.22 333.679 122.877 333.679 123.727C333.679 124.294 333.739 124.776 333.858 125.172C333.977 125.568 334.149 125.87 334.373 126.076C334.598 126.283 334.87 126.386 335.188 126.386Z" fill="white"/>
<rect x="296" y="140" width="12" height="60" rx="2" fill="url(#paint2_linear_484_748)"/>
<path d="M317.018 145.376V146.079H314.154V145.376H317.018ZM320.827 149.089C320.346 149.089 319.936 148.958 319.597 148.696C319.258 148.432 318.999 148.05 318.82 147.549C318.641 147.046 318.552 146.439 318.552 145.727C318.552 145.02 318.641 144.416 318.82 143.915C319.001 143.412 319.261 143.029 319.6 142.765C319.941 142.498 320.35 142.365 320.827 142.365C321.304 142.365 321.713 142.498 322.051 142.765C322.392 143.029 322.652 143.412 322.831 143.915C323.012 144.416 323.103 145.02 323.103 145.727C323.103 146.439 323.013 147.046 322.834 147.549C322.655 148.05 322.396 148.432 322.058 148.696C321.719 148.958 321.309 149.089 320.827 149.089ZM320.827 148.386C321.304 148.386 321.675 148.156 321.939 147.696C322.204 147.236 322.336 146.58 322.336 145.727C322.336 145.161 322.275 144.678 322.154 144.279C322.034 143.881 321.862 143.577 321.636 143.369C321.412 143.16 321.143 143.055 320.827 143.055C320.354 143.055 319.985 143.289 319.718 143.755C319.452 144.22 319.319 144.877 319.319 145.727C319.319 146.294 319.378 146.776 319.498 147.172C319.617 147.568 319.789 147.87 320.012 148.076C320.238 148.283 320.51 148.386 320.827 148.386ZM325.011 149.051C324.854 149.051 324.718 148.995 324.605 148.882C324.492 148.769 324.436 148.634 324.436 148.476C324.436 148.318 324.492 148.183 324.605 148.07C324.718 147.957 324.854 147.901 325.011 147.901C325.169 147.901 325.304 147.957 325.417 148.07C325.53 148.183 325.587 148.318 325.587 148.476C325.587 148.58 325.56 148.676 325.507 148.763C325.456 148.851 325.386 148.921 325.299 148.974C325.214 149.026 325.118 149.051 325.011 149.051ZM329.31 142.365C329.578 142.367 329.846 142.418 330.115 142.518C330.383 142.619 330.628 142.785 330.85 143.017C331.072 143.247 331.25 143.561 331.384 143.96C331.518 144.358 331.585 144.858 331.585 145.459C331.585 146.04 331.53 146.557 331.419 147.009C331.31 147.458 331.153 147.838 330.946 148.147C330.741 148.456 330.492 148.69 330.198 148.85C329.906 149.01 329.576 149.089 329.207 149.089C328.841 149.089 328.514 149.017 328.226 148.872C327.941 148.725 327.706 148.522 327.523 148.262C327.342 148 327.226 147.696 327.175 147.351H327.954C328.025 147.651 328.164 147.9 328.373 148.096C328.584 148.289 328.862 148.386 329.207 148.386C329.712 148.386 330.111 148.166 330.403 147.725C330.697 147.284 330.844 146.661 330.844 145.855H330.793C330.673 146.034 330.532 146.189 330.367 146.319C330.203 146.449 330.021 146.549 329.821 146.619C329.621 146.689 329.408 146.724 329.182 146.724C328.807 146.724 328.463 146.632 328.149 146.446C327.838 146.259 327.589 146.002 327.402 145.676C327.216 145.348 327.123 144.973 327.123 144.551C327.123 144.151 327.213 143.784 327.392 143.452C327.573 143.117 327.827 142.851 328.153 142.653C328.481 142.455 328.866 142.359 329.31 142.365ZM329.31 143.068C329.041 143.068 328.799 143.135 328.584 143.27C328.371 143.402 328.202 143.581 328.076 143.806C327.952 144.03 327.891 144.278 327.891 144.551C327.891 144.824 327.95 145.072 328.07 145.296C328.191 145.517 328.356 145.694 328.565 145.826C328.776 145.956 329.016 146.021 329.284 146.021C329.486 146.021 329.675 145.982 329.85 145.903C330.024 145.822 330.177 145.712 330.307 145.574C330.439 145.433 330.542 145.275 330.617 145.098C330.691 144.919 330.729 144.732 330.729 144.538C330.729 144.283 330.667 144.043 330.543 143.819C330.422 143.596 330.253 143.414 330.038 143.276C329.825 143.137 329.582 143.068 329.31 143.068ZM335.247 149.089C334.872 149.089 334.535 149.015 334.234 148.866C333.934 148.717 333.693 148.512 333.512 148.252C333.331 147.992 333.232 147.696 333.215 147.364H333.982C334.012 147.66 334.146 147.905 334.384 148.099C334.625 148.29 334.913 148.386 335.247 148.386C335.516 148.386 335.755 148.324 335.963 148.198C336.174 148.072 336.339 147.9 336.459 147.68C336.58 147.458 336.641 147.208 336.641 146.929C336.641 146.643 336.578 146.389 336.452 146.165C336.329 145.939 336.158 145.761 335.941 145.631C335.724 145.501 335.475 145.435 335.196 145.433C334.996 145.431 334.79 145.462 334.579 145.526C334.369 145.588 334.195 145.668 334.059 145.766L333.317 145.676L333.713 142.455H337.114V143.158H334.378L334.148 145.088H334.186C334.321 144.982 334.489 144.893 334.691 144.823C334.894 144.752 335.105 144.717 335.324 144.717C335.725 144.717 336.082 144.813 336.395 145.005C336.71 145.195 336.957 145.455 337.136 145.785C337.317 146.115 337.408 146.492 337.408 146.916C337.408 147.334 337.314 147.707 337.127 148.035C336.941 148.361 336.686 148.619 336.36 148.808C336.034 148.996 335.663 149.089 335.247 149.089Z" fill="white"/>
<path d="M318.626 193.376V194.079H315.763V193.376H318.626ZM322.602 190.455V197H321.809V191.286H321.771L320.173 192.347V191.541L321.809 190.455H322.602ZM325.02 197.051C324.862 197.051 324.727 196.995 324.614 196.882C324.501 196.769 324.445 196.634 324.445 196.476C324.445 196.318 324.501 196.183 324.614 196.07C324.727 195.957 324.862 195.901 325.02 195.901C325.178 195.901 325.313 195.957 325.426 196.07C325.539 196.183 325.595 196.318 325.595 196.476C325.595 196.58 325.569 196.676 325.515 196.763C325.464 196.851 325.395 196.921 325.308 196.974C325.222 197.026 325.127 197.051 325.02 197.051ZM329.202 197.089C328.721 197.089 328.311 196.958 327.972 196.696C327.633 196.432 327.374 196.05 327.195 195.549C327.016 195.046 326.927 194.439 326.927 193.727C326.927 193.02 327.016 192.416 327.195 191.915C327.377 191.412 327.636 191.029 327.975 190.765C328.316 190.498 328.725 190.365 329.202 190.365C329.68 190.365 330.088 190.498 330.427 190.765C330.767 191.029 331.027 191.412 331.206 191.915C331.388 192.416 331.478 193.02 331.478 193.727C331.478 194.439 331.389 195.046 331.21 195.549C331.031 196.05 330.772 196.432 330.433 196.696C330.094 196.958 329.684 197.089 329.202 197.089ZM329.202 196.386C329.68 196.386 330.051 196.156 330.315 195.696C330.579 195.236 330.711 194.58 330.711 193.727C330.711 193.161 330.65 192.678 330.529 192.279C330.41 191.881 330.237 191.577 330.011 191.369C329.787 191.16 329.518 191.055 329.202 191.055C328.729 191.055 328.36 191.289 328.093 191.755C327.827 192.22 327.694 192.877 327.694 193.727C327.694 194.294 327.754 194.776 327.873 195.172C327.992 195.568 328.164 195.87 328.388 196.076C328.613 196.283 328.885 196.386 329.202 196.386ZM335.188 197.089C334.706 197.089 334.296 196.958 333.957 196.696C333.618 196.432 333.359 196.05 333.18 195.549C333.001 195.046 332.912 194.439 332.912 193.727C332.912 193.02 333.001 192.416 333.18 191.915C333.362 191.412 333.621 191.029 333.96 190.765C334.301 190.498 334.71 190.365 335.188 190.365C335.665 190.365 336.073 190.498 336.412 190.765C336.752 191.029 337.012 191.412 337.191 191.915C337.373 192.416 337.463 193.02 337.463 193.727C337.463 194.439 337.374 195.046 337.195 195.549C337.016 196.05 336.757 196.432 336.418 196.696C336.079 196.958 335.669 197.089 335.188 197.089ZM335.188 196.386C335.665 196.386 336.036 196.156 336.3 195.696C336.564 195.236 336.696 194.58 336.696 193.727C336.696 193.161 336.635 192.678 336.514 192.279C336.395 191.881 336.222 191.577 335.996 191.369C335.772 191.16 335.503 191.055 335.188 191.055C334.714 191.055 334.345 191.289 334.078 191.755C333.812 192.22 333.679 192.877 333.679 193.727C333.679 194.294 333.739 194.776 333.858 195.172C333.977 195.568 334.149 195.87 334.373 196.076C334.598 196.283 334.87 196.386 335.188 196.386Z" fill="white"/>
<defs>
<linearGradient id="paint0_linear_484_748" x1="302" y1="0" x2="302" y2="60" gradientUnits="userSpaceOnUse">
<stop stop-color="#444D9C"/>
<stop offset="1" stop-color="#8B91CB"/>
</linearGradient>
<linearGradient id="paint1_linear_484_748" x1="302" y1="70" x2="302" y2="130" gradientUnits="userSpaceOnUse">
<stop stop-color="#8B91CB"/>
<stop offset="0.494792" stop-color="#E3E3E3"/>
<stop offset="1" stop-color="#DC9B9B"/>
</linearGradient>
<linearGradient id="paint2_linear_484_748" x1="302" y1="140" x2="302" y2="200" gradientUnits="userSpaceOnUse">
<stop stop-color="#DC9B9B"/>
<stop offset="1" stop-color="#871A1A"/>
</linearGradient>
<clipPath id="clip0_484_748">
<path d="M74 0H274V200H74V0Z" fill="white"/>
</clipPath>
</defs>
</svg>
