<svg width="164" height="41" viewBox="0 0 164 41" fill="none" xmlns="http://www.w3.org/2000/svg">
<g clip-path="url(#clip0_59_14111)">
<path d="M62.2047 33.9225C62.2047 33.7384 62.1455 33.5872 62.0223 33.4636C61.899 33.3375 61.7536 33.2745 61.581 33.2745H53.7053V30.2186H60.5285C60.7084 30.2186 60.8563 30.1556 60.982 30.0245C61.1077 29.8959 61.1694 29.7446 61.1694 29.5605V28.7108C61.1694 28.5268 61.1077 28.3755 60.982 28.2469C60.8563 28.1183 60.706 28.0528 60.5285 28.0528H53.7053V25.0347H61.5983C61.7782 25.0347 61.9261 24.9716 62.0518 24.8405C62.1776 24.7119 62.2392 24.5607 62.2392 24.3766V23.5269C62.2392 23.3428 62.1776 23.189 62.0494 23.0554C61.9237 22.9218 61.7758 22.8587 61.5958 22.8587H51.398C51.2181 22.8587 51.0653 22.9218 50.9371 23.0478C50.8089 23.1739 50.7473 23.3227 50.7473 23.5067V34.7697C50.7473 34.9638 50.8089 35.1227 50.9371 35.2513C51.0677 35.3799 51.2181 35.4454 51.398 35.4454H61.5515C61.7314 35.4454 61.8818 35.3824 62.0124 35.2513C62.1406 35.1227 62.2022 34.9689 62.2022 34.7873V33.92L62.2047 33.9225Z" fill="#F1F3FF"/>
<path d="M75.7376 33.9402C75.7376 33.7561 75.676 33.6023 75.5478 33.4687C75.4221 33.335 75.2742 33.272 75.0943 33.272H67.2013V23.5445C67.2013 23.3479 67.1397 23.189 67.0115 23.0554C66.8858 22.9218 66.7379 22.8587 66.5579 22.8587H64.894C64.7141 22.8587 64.5637 22.9243 64.4355 23.0554C64.3049 23.1865 64.2433 23.3454 64.2433 23.542V34.805C64.2433 34.9865 64.3049 35.1353 64.4331 35.2563C64.5637 35.3824 64.7141 35.4429 64.8965 35.4429H75.0943C75.2742 35.4429 75.4221 35.3799 75.5478 35.2487C75.6735 35.1202 75.7352 34.9689 75.7352 34.7848V33.9351L75.7376 33.9402Z" fill="#F1F3FF"/>
<path d="M89.0142 33.9225C89.0142 33.7384 88.955 33.5872 88.8318 33.4636C88.7085 33.3375 88.5631 33.2745 88.3906 33.2745H80.5148V30.2186H87.338C87.5179 30.2186 87.6658 30.1556 87.7916 30.0245C87.9173 29.8959 87.9789 29.7446 87.9789 29.5605V28.7108C87.9789 28.5268 87.9173 28.3755 87.7916 28.2469C87.6658 28.1183 87.5155 28.0528 87.338 28.0528H80.5148V25.0347H88.4078C88.5878 25.0347 88.7357 24.9716 88.8614 24.8405C88.9871 24.7119 89.0487 24.5607 89.0487 24.3766V23.5269C89.0487 23.3428 88.9871 23.189 88.8589 23.0554C88.7332 22.9218 88.5853 22.8587 88.4053 22.8587H78.2076C78.0276 22.8587 77.8748 22.9218 77.7466 23.0478C77.6184 23.1739 77.5568 23.3227 77.5568 23.5067V34.7697C77.5568 34.9638 77.6184 35.1227 77.7466 35.2513C77.8773 35.3799 78.0276 35.4454 78.2076 35.4454H88.361C88.5409 35.4454 88.6913 35.3824 88.8219 35.2513C88.9501 35.1227 89.0117 34.9689 89.0117 34.7873V33.92L89.0142 33.9225Z" fill="#F1F3FF"/>
<path d="M106.871 23.5471C106.871 23.3504 106.812 23.189 106.688 23.0554C106.568 22.9268 106.425 22.8613 106.247 22.8613H102.648C102.461 22.8613 102.286 22.9319 102.111 23.0731C101.933 23.2168 101.817 23.3857 101.758 23.5849L98.9679 31.8449L96.18 23.5899C96.1184 23.3857 96.0025 23.2168 95.825 23.0705C95.6525 22.9293 95.475 22.8587 95.2877 22.8587H91.6887C91.5113 22.8587 91.3634 22.9218 91.2401 23.0529C91.1144 23.1865 91.0552 23.3454 91.0552 23.542V34.7697C91.0552 34.9638 91.1169 35.1227 91.245 35.2513C91.3757 35.3799 91.5261 35.4454 91.706 35.4454H93.2984C93.4783 35.4454 93.6262 35.3824 93.752 35.2513C93.8777 35.1227 93.9393 34.9638 93.9393 34.7697V24.8204L97.4199 34.7596C97.4939 34.9462 97.6171 35.1075 97.7946 35.2462C97.9647 35.3824 98.1422 35.4479 98.3295 35.4479H99.594C99.7839 35.4479 99.9613 35.3824 100.134 35.2462C100.314 35.1075 100.435 34.9487 100.506 34.7571L103.994 24.8229V34.7697C103.994 34.9664 104.056 35.1252 104.181 35.2513C104.307 35.3799 104.458 35.4454 104.635 35.4454H106.227C106.407 35.4454 106.555 35.3824 106.681 35.2513C106.807 35.1227 106.868 34.9638 106.868 34.7697V23.542L106.871 23.5471Z" fill="#F1F3FF"/>
<path d="M121.244 33.9225C121.244 33.7384 121.185 33.5872 121.062 33.4636C120.939 33.3375 120.793 33.2745 120.621 33.2745H112.745V30.2186H119.568C119.748 30.2186 119.896 30.1556 120.022 30.0245C120.147 29.8959 120.209 29.7446 120.209 29.5605V28.7108C120.209 28.5268 120.147 28.3755 120.022 28.2469C119.896 28.1183 119.746 28.0528 119.568 28.0528H112.745V25.0347H120.638C120.818 25.0347 120.966 24.9716 121.091 24.8405C121.217 24.7119 121.279 24.5607 121.279 24.3766V23.5269C121.279 23.3428 121.217 23.189 121.089 23.0554C120.963 22.9218 120.815 22.8587 120.635 22.8587H110.438C110.258 22.8587 110.105 22.9218 109.977 23.0478C109.849 23.1739 109.787 23.3227 109.787 23.5067V34.7697C109.787 34.9638 109.849 35.1227 109.977 35.2513C110.107 35.3799 110.258 35.4454 110.438 35.4454H120.591C120.771 35.4454 120.921 35.3824 121.052 35.2513C121.18 35.1227 121.242 34.9689 121.242 34.7873V33.92L121.244 33.9225Z" fill="#F1F3FF"/>
<path d="M136.076 23.5269C136.076 23.3328 136.015 23.1764 135.889 23.0478C135.763 22.9218 135.613 22.8587 135.433 22.8587H133.912C133.732 22.8587 133.582 22.9218 133.456 23.0478C133.33 23.1739 133.269 23.3252 133.269 23.5067V32.5811L127.579 23.6303C127.446 23.4134 127.271 23.2294 127.062 23.0756C126.865 22.9319 126.682 22.8587 126.517 22.8587H123.916C123.739 22.8587 123.591 22.9218 123.468 23.0529C123.342 23.1865 123.283 23.3403 123.283 23.5244V34.7873C123.283 34.9689 123.344 35.1227 123.473 35.2513C123.603 35.3799 123.754 35.4454 123.934 35.4454H125.492C125.671 35.4454 125.819 35.3824 125.945 35.2513C126.071 35.1227 126.132 34.9714 126.132 34.7873V26.3685L131.371 34.6814C131.499 34.8932 131.674 35.0773 131.893 35.2261C132.103 35.3698 132.305 35.4429 132.495 35.4429H135.43C135.61 35.4429 135.758 35.3799 135.884 35.2487C136.01 35.1202 136.071 34.9689 136.071 34.7848V23.5219L136.076 23.5269Z" fill="#F1F3FF"/>
<path d="M150.433 23.5269C150.433 23.3302 150.373 23.1739 150.25 23.0478C150.127 22.9218 149.974 22.8587 149.782 22.8587H138.559C138.366 22.8587 138.213 22.9218 138.09 23.0478C137.967 23.1739 137.908 23.3302 137.908 23.5269V24.3766C137.908 24.5707 137.967 24.7271 138.09 24.8506C138.213 24.9742 138.366 25.0347 138.559 25.0347H142.692V34.8075C142.692 34.989 142.754 35.1378 142.877 35.2614C143.003 35.3874 143.153 35.4479 143.333 35.4479H145.005C145.185 35.4479 145.335 35.3874 145.461 35.2614C145.586 35.1378 145.645 34.989 145.645 34.8075V25.0347H149.779C149.972 25.0347 150.124 24.9742 150.248 24.8506C150.371 24.7271 150.43 24.5707 150.43 24.3766V23.5269H150.433Z" fill="#F1F3FF"/>
<path d="M164 31.9331C164 31.096 163.699 30.4178 163.078 29.858C162.445 29.2857 161.663 28.8697 160.754 28.6201C159.819 28.3629 158.875 28.141 157.951 27.9569C157.012 27.7704 156.198 27.5535 155.535 27.3089C154.798 27.0392 154.423 26.666 154.423 26.197C154.423 25.6348 154.727 24.9641 156.169 24.9641L158.836 25.0195C159.874 25.0195 160.559 25.3549 160.869 26.0205C161.116 26.5475 161.456 26.8022 161.912 26.8022H162.965C163.113 26.8022 163.273 26.7366 163.445 26.6055C163.603 26.487 163.68 26.2853 163.68 25.9928C163.68 25.1027 163.233 24.3741 162.311 23.7715C161.377 23.1588 160.312 22.8461 159.144 22.8461L156.893 22.7906C154.892 22.7906 153.467 23.1083 152.661 23.7336C151.86 24.3539 151.47 25.2212 151.47 26.3811C151.47 26.9938 151.635 27.5308 151.961 27.9822C152.291 28.4385 152.73 28.8066 153.267 29.0689C153.822 29.3412 154.438 29.5807 155.101 29.7799C155.767 29.9816 156.447 30.1531 157.123 30.2867C157.805 30.4228 158.439 30.5615 159.006 30.7002C160.381 31.028 161.052 31.4944 161.052 32.1273C161.052 32.6895 160.749 33.3602 159.307 33.3602L156.208 33.2972C155.17 33.2972 154.485 32.9619 154.174 32.3013C153.93 31.7793 153.588 31.5247 153.132 31.5247H152.079C151.926 31.5247 151.761 31.5902 151.589 31.7188C151.433 31.8373 151.357 32.0365 151.357 32.329C151.357 33.219 151.806 33.9477 152.73 34.5503C153.667 35.163 154.734 35.4757 155.9 35.4757L158.584 35.5311C160.581 35.5311 162.006 35.2134 162.814 34.5881C163.618 33.9679 164.007 33.1005 164.007 31.9407L164 31.9331Z" fill="#F1F3FF"/>
<path d="M65.1233 17.0722C65.1233 16.8881 65.0616 16.7369 64.9384 16.6057C64.8151 16.4772 64.6623 16.4141 64.4725 16.4141H62.6459L62.9245 16.0939C63.2868 15.6754 63.6295 15.1913 63.9475 14.6567C64.3887 13.9306 64.6105 12.9699 64.6105 11.8076C64.6105 9.59886 64.0313 7.98266 62.8875 7.00689C61.7339 6.02103 59.9886 5.52432 57.7011 5.52432C55.4136 5.52432 53.6634 6.05129 52.495 7.08757C51.334 8.11629 50.7473 9.77031 50.7473 11.9992C50.7473 14.2281 51.3364 15.8796 52.495 16.9108C53.6634 17.9471 55.4062 18.4741 57.6789 18.4741H64.4725C64.6623 18.4741 64.8151 18.411 64.9384 18.2825C65.0641 18.1539 65.1233 18.0001 65.1233 17.816V17.0747V17.0722ZM57.6789 16.4141C56.3133 16.4141 55.2952 16.0309 54.6568 15.2719C54.0258 14.5206 53.7053 13.4187 53.7053 11.9967C53.7053 10.5746 54.0258 9.47279 54.6568 8.72142C55.2952 7.96249 56.3182 7.57924 57.6912 7.57924C59.0642 7.57924 60.0774 7.93475 60.7084 8.63065C61.3345 9.32655 61.6525 10.3931 61.6525 11.8051C61.6525 14.8635 60.3165 16.4141 57.6789 16.4141Z" fill="#F1F3FF"/>
<path d="M78.9668 6.45974C78.9668 6.27568 78.9052 6.12188 78.7745 5.99076C78.6439 5.85713 78.4886 5.7941 78.2988 5.7941H76.6546C76.4747 5.7941 76.3268 5.85713 76.201 5.99076C76.0729 6.1244 76.0112 6.2782 76.0112 6.46226V13.4641C76.0112 14.397 75.8042 15.1055 75.3925 15.5745C74.9759 16.0485 74.335 16.2906 73.4871 16.2906H72.0721C71.2242 16.2906 70.5833 16.0485 70.1667 15.5745C69.755 15.108 69.548 14.397 69.548 13.4641V6.45974C69.548 6.27568 69.4863 6.12188 69.3557 5.99076C69.225 5.85713 69.0796 5.7941 68.9046 5.7941H67.2506C67.0608 5.7941 66.9055 5.85713 66.7798 5.99076C66.6516 6.1244 66.59 6.2782 66.59 6.46226V13.4465C66.59 15.0349 67.0484 16.2805 67.9506 17.1478C68.8553 18.0152 70.2135 18.4564 71.9834 18.4564H73.5758C75.3408 18.4564 76.6941 18.0152 77.6036 17.1453C78.5083 16.2805 78.9668 15.0349 78.9668 13.4465V6.45974Z" fill="#F1F3FF"/>
<path d="M93.7199 6.44209C93.7199 6.26559 93.6657 6.11431 93.5498 5.98068C93.4414 5.85209 93.3132 5.7941 93.148 5.7941H88.3807C85.1343 5.79914 83.2732 6.90602 82.6914 9.17778L80.4729 17.7883C80.4581 17.8538 80.4483 17.932 80.4483 18.0177C80.4483 18.0505 80.4606 18.1236 80.5567 18.2522C80.5814 18.285 80.6504 18.3783 80.9018 18.3783H82.6446C82.8344 18.3783 83.0119 18.3127 83.1844 18.1765C83.357 18.0429 83.4655 17.879 83.5123 17.6748L84.1433 15.2467H90.7668V17.7202C90.7668 17.9168 90.826 18.0707 90.9468 18.1942C91.0676 18.3177 91.2179 18.3783 91.4102 18.3783H93.0741C93.2565 18.3783 93.4069 18.3152 93.5375 18.1917C93.6632 18.0707 93.7273 17.9194 93.7273 17.7404V6.44209H93.7199ZM90.7619 13.0758H84.6906L85.5336 9.92662C85.6914 9.33158 86.002 8.85252 86.4555 8.49953C86.9091 8.14654 87.4465 7.96752 88.0504 7.96752H90.7594V13.0758H90.7619Z" fill="#F1F3FF"/>
<path d="M109.42 6.45976C109.42 6.26561 109.358 6.10929 109.232 5.9807C109.107 5.85463 108.956 5.7916 108.776 5.7916H107.255C107.075 5.7916 106.925 5.85463 106.799 5.9807C106.674 6.10677 106.612 6.25805 106.612 6.43959V15.5165L100.923 6.56566C100.79 6.34882 100.615 6.16476 100.405 6.01095C100.208 5.86724 100.025 5.79412 99.8603 5.79412H97.2597C97.0822 5.79412 96.9343 5.85715 96.8111 5.98826C96.6853 6.1219 96.6262 6.2757 96.6262 6.45976V17.7227C96.6262 17.9043 96.6878 18.0581 96.816 18.1866C96.9466 18.3152 97.097 18.3808 97.2769 18.3808H98.8348C99.0148 18.3808 99.1627 18.3178 99.2884 18.1866C99.4141 18.0581 99.4757 17.9068 99.4757 17.7227V9.30639L104.714 17.6193C104.842 17.8311 105.017 18.0152 105.236 18.164C105.446 18.3077 105.648 18.3808 105.838 18.3808H108.774C108.954 18.3808 109.102 18.3178 109.227 18.1866C109.353 18.0581 109.415 17.9068 109.415 17.7227V6.45976H109.42Z" fill="#F1F3FF"/>
<path d="M123.773 6.45976C123.773 6.26309 123.714 6.10677 123.591 5.9807C123.468 5.85463 123.315 5.7916 123.123 5.7916H111.899C111.707 5.7916 111.554 5.85463 111.431 5.9807C111.308 6.10677 111.249 6.26309 111.249 6.45976V7.30946C111.249 7.50361 111.308 7.65993 111.431 7.78348C111.554 7.90703 111.707 7.96754 111.899 7.96754H116.033V17.7404C116.033 17.9219 116.095 18.0707 116.218 18.1942C116.344 18.3203 116.494 18.3808 116.674 18.3808H118.345C118.525 18.3808 118.676 18.3203 118.801 18.1942C118.927 18.0707 118.986 17.9219 118.986 17.7404V7.96754H123.12C123.312 7.96754 123.465 7.90703 123.589 7.78348C123.712 7.65993 123.771 7.50361 123.771 7.30946V6.45976H123.773Z" fill="#F1F3FF"/>
<path d="M137.792 6.45974C137.792 6.27568 137.73 6.12188 137.6 5.99076C137.469 5.85713 137.314 5.7941 137.124 5.7941H135.48C135.3 5.7941 135.152 5.85713 135.026 5.99076C134.898 6.1244 134.836 6.2782 134.836 6.46226V13.4641C134.836 14.397 134.629 15.1055 134.218 15.5745C133.801 16.0485 133.16 16.2906 132.312 16.2906H130.897C130.049 16.2906 129.408 16.0485 128.992 15.5745C128.58 15.108 128.373 14.397 128.373 13.4641V6.45974C128.373 6.27568 128.311 6.12188 128.181 5.99076C128.05 5.85713 127.905 5.7941 127.73 5.7941H126.076C125.886 5.7941 125.731 5.85713 125.605 5.99076C125.477 6.1244 125.415 6.2782 125.415 6.46226V13.4465C125.415 15.0349 125.874 16.2805 126.776 17.1478C127.68 18.0152 129.039 18.4564 130.809 18.4564H132.401C134.166 18.4564 135.519 18.0152 136.429 17.1453C137.333 16.2805 137.792 15.0349 137.792 13.4465V6.45974Z" fill="#F1F3FF"/>
<path d="M156.341 6.47993C156.341 6.28326 156.282 6.1219 156.159 5.98826C156.038 5.85967 155.895 5.79412 155.718 5.79412H152.119C151.931 5.79412 151.756 5.86472 151.581 6.00591C151.404 6.14963 151.288 6.31856 151.229 6.51775L148.438 14.7778L145.65 6.52279C145.589 6.31856 145.473 6.14963 145.295 6.00339C145.123 5.86219 144.945 5.7916 144.758 5.7916H141.159C140.982 5.7916 140.834 5.85463 140.711 5.98574C140.585 6.11937 140.526 6.27822 140.526 6.47489V17.7025C140.526 17.8967 140.587 18.0555 140.715 18.1841C140.846 18.3127 140.996 18.3783 141.176 18.3783H142.769C142.949 18.3783 143.097 18.3152 143.222 18.1841C143.348 18.0555 143.41 17.8967 143.41 17.7025V7.75574L146.89 17.695C146.964 17.8816 147.088 18.0429 147.265 18.1816C147.435 18.3178 147.613 18.3833 147.8 18.3833H149.064C149.254 18.3833 149.432 18.3178 149.604 18.1816C149.784 18.0429 149.905 17.8841 149.977 17.6925L153.465 7.75826V17.7051C153.465 17.9017 153.526 18.0606 153.652 18.1866C153.778 18.3152 153.928 18.3808 154.105 18.3808H155.698C155.878 18.3808 156.026 18.3178 156.151 18.1866C156.277 18.0581 156.339 17.8992 156.339 17.7051V6.47993H156.341Z" fill="#F1F3FF"/>
<path d="M32.7625 11.4594C34.7099 17.609 31.4709 24.2201 25.5376 26.3053L25.4735 26.1061L25.4538 26.0405L24.8498 24.0209V24.0133C29.5432 22.324 32.0847 17.077 30.5366 12.2032C28.1924 4.82066 20.4646 0.741082 13.2396 3.03049L12.5124 0.753689C20.96 -1.94166 30.0116 2.82373 32.7625 11.4594ZM16.5896 26.8675C20.361 31.996 27.5071 33.1029 32.622 29.3132C39.8051 23.9654 41.4369 13.6858 36.3195 6.30322L34.4264 7.71267C38.7895 14.0312 37.3869 22.8157 31.249 27.3768C27.1941 30.3899 21.527 29.5326 18.5098 25.4909C18.5049 25.4909 18.5024 25.4858 18.5024 25.4858C18.5024 25.4858 18.5041 25.4883 18.5073 25.4934L16.8287 26.6935L16.6832 26.7944L16.592 26.865L16.5896 26.8675ZM15.9807 34.6913C23.1712 40.024 33.2333 38.4356 38.5183 31.1791L36.6252 29.7696C32.097 35.9671 23.4965 37.311 17.3586 32.7499C13.3037 29.7368 12.3522 23.9679 15.1722 19.7825L13.5206 18.4991L13.3062 18.3352L13.3012 18.3402C9.69491 23.5948 10.8757 30.8866 15.9832 34.6913H15.9807ZM16.0694 40.9998L16.7917 38.723C9.62835 36.2319 5.7213 28.282 8.06553 20.902C9.61356 16.0281 14.694 13.3101 19.4588 14.7649L20.1293 12.7806L20.2181 12.4982C14.2207 10.6173 7.79931 14.0186 5.84209 20.1607C3.10346 28.8014 7.68839 38.1053 16.0719 40.9998H16.0694ZM0 22.1979H2.33684C2.44037 14.4649 8.62509 8.20182 16.2124 8.20182C21.2213 8.20182 25.3133 12.2965 25.4365 17.3821C25.4414 17.3973 25.4414 17.4099 25.4414 17.425V17.43H27.7832C27.6797 11.0157 22.5278 5.8166 16.2149 5.80904C7.33096 5.81408 0.0986006 13.1487 0 22.1979Z" fill="#F1F3FF"/>
<path d="M25.4365 17.3823C25.4414 17.3975 25.4414 17.4101 25.4414 17.4252V17.3823H25.4365Z" fill="#F1F3FF"/>
<path d="M18.5024 25.4858C18.5024 25.4858 18.5024 25.4905 18.5069 25.4929L18.5114 25.4882L18.5046 25.4835L18.5024 25.4858Z" fill="#F1F3FF"/>
<path d="M13.3012 18.3404L13.5181 18.5018L15.1944 19.7474V19.7448L13.3037 18.3354L13.3012 18.3404Z" fill="#F1F3FF"/>
<path d="M13.3037 18.3354L13.5181 18.5018L15.1944 19.7474V19.7448L13.3037 18.3354Z" fill="#F1F3FF"/>
<path d="M15.1944 19.7474L13.5182 18.4993L15.1697 19.7827L16.8533 21.0786C15.5222 22.6873 15.3546 25.0675 16.5846 26.8677H16.5896L16.6808 26.7971L16.8262 26.6963L18.5049 25.4961C18.5049 25.4961 18.5 25.491 18.5 25.4885C18.5 25.4885 18.5049 25.4936 18.5073 25.4936L20.2279 24.2606C21.3076 26.0558 23.4744 26.956 25.5326 26.3105L25.471 26.1063L25.4513 26.0407L24.8474 24.0211V24.0135L24.2311 21.951C26.2302 21.4594 27.7339 19.6314 27.7758 17.4302H25.4365V17.4252C25.4365 17.4101 25.4365 17.3974 25.4316 17.3823L23.324 17.347C23.3314 17.2285 23.3363 17.1075 23.3363 16.9915C23.3363 15.0248 22.1285 13.1767 20.2131 12.5009L20.1244 12.7833L19.4564 14.7677V14.7727L18.7686 16.8175C16.8632 16.0107 14.6003 16.5856 13.3037 18.3379L15.1919 19.7474V19.7524L15.1944 19.7474ZM18.0661 20.3172C18.0661 18.8069 19.2641 17.5865 20.7382 17.5865C22.2147 17.5865 23.4103 18.8069 23.4103 20.3172C23.4103 21.8275 22.2123 23.0504 20.7382 23.0504C19.2616 23.0504 18.0661 21.825 18.0661 20.3172Z" fill="#F1F3FF"/>
</g>
<defs>
<clipPath id="clip0_59_14111">
<rect width="164" height="41" fill="white"/>
</clipPath>
</defs>
</svg>
