<?xml version="1.0" encoding="utf-8"?>
<svg viewBox="0 0 230 220" fill="none" xmlns="http://www.w3.org/2000/svg">
  <path d="M 59.161 22.06 L 206.161 22.06" stroke="#6B7B92" stroke-width="2" stroke-linecap="round"/>
  <path d="M 59.161 193.06 L 206.161 193.06" stroke="#6B7B92" stroke-width="2" stroke-linecap="round"/>
  <path d="M 126.161 26.06 L 117.501 41.06 L 134.821 41.06 L 126.161 26.06 Z M 126.161 189.06 L 134.821 174.06 L 117.501 174.06 L 126.161 189.06 Z M 124.661 39.56 L 124.661 175.56 L 127.661 175.56 L 127.661 39.56 L 124.661 39.56 Z" fill="#B89230"/>
  <path d="M 174.247 116.466 L 174.247 118.201 C 174.247 119.133 174.164 119.919 173.997 120.56 C 173.83 121.201 173.591 121.716 173.278 122.107 C 172.966 122.498 172.588 122.781 172.145 122.958 C 171.708 123.13 171.213 123.216 170.661 123.216 C 170.223 123.216 169.82 123.162 169.45 123.052 C 169.08 122.943 168.747 122.768 168.45 122.529 C 168.158 122.284 167.908 121.966 167.7 121.576 C 167.492 121.185 167.333 120.711 167.223 120.154 C 167.114 119.596 167.059 118.945 167.059 118.201 L 167.059 116.466 C 167.059 115.534 167.143 114.753 167.309 114.122 C 167.481 113.492 167.723 112.987 168.036 112.607 C 168.349 112.221 168.723 111.945 169.161 111.779 C 169.604 111.612 170.099 111.529 170.645 111.529 C 171.088 111.529 171.494 111.583 171.864 111.693 C 172.239 111.797 172.572 111.966 172.864 112.201 C 173.156 112.43 173.403 112.737 173.606 113.122 C 173.815 113.503 173.973 113.969 174.083 114.521 C 174.192 115.073 174.247 115.721 174.247 116.466 Z M 172.794 118.435 L 172.794 116.224 C 172.794 115.714 172.763 115.266 172.7 114.88 C 172.643 114.49 172.557 114.156 172.442 113.88 C 172.328 113.604 172.182 113.38 172.005 113.208 C 171.833 113.037 171.632 112.912 171.403 112.833 C 171.179 112.75 170.927 112.708 170.645 112.708 C 170.302 112.708 169.997 112.774 169.731 112.904 C 169.466 113.029 169.242 113.229 169.059 113.505 C 168.882 113.781 168.747 114.143 168.653 114.591 C 168.559 115.039 168.513 115.583 168.513 116.224 L 168.513 118.435 C 168.513 118.945 168.541 119.396 168.599 119.787 C 168.661 120.177 168.752 120.516 168.872 120.802 C 168.992 121.083 169.138 121.315 169.309 121.498 C 169.481 121.68 169.679 121.815 169.903 121.904 C 170.132 121.987 170.385 122.029 170.661 122.029 C 171.015 122.029 171.325 121.961 171.591 121.826 C 171.856 121.69 172.078 121.479 172.255 121.193 C 172.437 120.901 172.572 120.529 172.661 120.076 C 172.75 119.617 172.794 119.07 172.794 118.435 Z M 180.856 111.622 L 180.856 123.06 L 179.411 123.06 L 179.411 113.427 L 176.497 114.49 L 176.497 113.185 L 180.63 111.622 L 180.856 111.622 Z" fill="white"/>
  <path d="M 147.637 95.575 C 147.956 96.235 144.093 97.736 141.787 101.856 C 141.128 103.036 139.381 106.166 140.738 108.697 C 141.487 110.087 143.085 111.127 144.572 111.137 C 147.437 111.147 150.562 107.267 151.401 101.226 L 155.654 101.226 C 155.154 102.836 154.795 104.216 154.535 105.276 C 153.896 107.917 153.926 108.557 154.186 109.187 C 154.615 110.207 155.634 111.037 156.692 111.277 C 159.887 112.007 162.981 107.247 163.311 106.747 C 165.078 103.966 166.126 99.766 164.569 98.376 C 163.71 97.616 162.293 97.886 161.923 96.916 C 161.733 96.415 161.883 95.725 162.273 95.385 C 163.281 94.495 166.336 95.525 167.843 97.336 C 170.189 100.166 169.131 105.306 166.795 108.497 C 166.456 108.967 163.031 113.487 157.53 113.027 C 154.126 112.747 151.89 110.717 151.191 110.027 C 150.462 110.777 148.795 112.287 146.249 112.817 C 142.785 113.537 138.482 112.307 136.845 109.327 C 134.369 104.826 139.071 98.306 143.664 96.205 C 145.421 95.405 147.417 95.125 147.637 95.575 Z" fill="white"/>
  <path d="M 12.571 31.694 L 12.571 11.694" stroke="white" stroke-width="2" stroke-linecap="round"/>
  <path d="M 24.051 30.194 L 24.051 28.706 L 27.003 28.706 L 27.075 16.298 L 23.763 18.434 L 22.971 17.354 L 27.147 14.09 L 28.827 14.378 L 28.827 28.706 L 31.683 28.706 L 31.683 30.194 L 24.051 30.194 Z" fill="white"/>
  <path d="M 42.571 12.194 L 48.571 21.694 L 42.571 31.194" stroke="white" stroke-width="2" stroke-linecap="round"/>
  <path d="M 12.571 203.694 L 12.571 183.694" stroke="white" stroke-width="2" stroke-linecap="round"/>
  <path d="M 31.491 199.65 C 31.075 200.514 30.491 201.202 29.739 201.714 C 29.003 202.226 28.123 202.482 27.099 202.482 C 26.075 202.482 25.195 202.274 24.459 201.858 C 23.739 201.442 23.187 200.85 22.803 200.082 C 22.115 198.69 21.771 196.802 21.771 194.418 C 21.771 192.114 22.155 190.194 22.923 188.658 C 23.339 187.842 23.923 187.21 24.675 186.762 C 25.443 186.314 26.339 186.09 27.363 186.09 C 28.403 186.09 29.275 186.29 29.979 186.69 C 30.699 187.074 31.251 187.634 31.635 188.37 C 32.355 189.746 32.715 191.554 32.715 193.794 C 32.715 196.034 32.307 197.986 31.491 199.65 Z M 25.299 200.442 C 25.795 200.81 26.403 200.994 27.123 200.994 C 27.843 200.994 28.459 200.77 28.971 200.322 C 29.499 199.858 29.891 199.25 30.147 198.498 C 30.627 197.09 30.867 195.522 30.867 193.794 C 30.867 192.082 30.675 190.674 30.291 189.57 C 29.827 188.242 28.859 187.578 27.387 187.578 C 26.651 187.578 26.019 187.786 25.491 188.202 C 24.963 188.602 24.571 189.154 24.315 189.858 C 23.851 191.138 23.619 192.658 23.619 194.418 C 23.619 197.602 24.179 199.61 25.299 200.442 Z" fill="white"/>
  <path d="M 42.571 184.194 L 48.571 193.694 L 42.571 203.194" stroke="white" stroke-width="2" stroke-linecap="round"/>
</svg>