<svg width="162" height="33" viewBox="0 0 162 33" fill="none" xmlns="http://www.w3.org/2000/svg">
<path d="M1.5 16.5H160.5" stroke="#6B7B92" stroke-width="2" stroke-linecap="round"/>
<rect x="45.5" y="0.5" width="32" height="32" rx="3.5" fill="#4C596B" stroke="#A3A7AD"/>
<path d="M65.224 25H59.464C59.256 25 59.152 24.904 59.152 24.712V23.488C59.152 23.296 59.256 23.2 59.464 23.2H61.288V9.568H59.464C59.256 9.568 59.152 9.472 59.152 9.28V8.056C59.152 7.864 59.256 7.768 59.464 7.768H65.224C65.432 7.768 65.536 7.864 65.536 8.056V9.28C65.536 9.472 65.432 9.568 65.224 9.568H63.376V23.2H65.224C65.432 23.2 65.536 23.296 65.536 23.488V24.712C65.536 24.904 65.432 25 65.224 25Z" fill="white"/>
</svg>
