<svg width="28" height="28" viewBox="0 0 28 28" fill="none" xmlns="http://www.w3.org/2000/svg">
<path fill-rule="evenodd" clip-rule="evenodd" d="M21.4539 12.9079C21.4539 12.9079 21.7503 13.0728 21.9227 13.3652C21.9227 13.3652 22.0959 13.659 22.0959 14.0001C22.0959 14.0001 22.0959 14.3411 21.9227 14.6349C21.9227 14.6349 21.7495 14.9287 21.451 15.0938L8.25857 22.4828C8.25857 22.4828 7.91401 22.6732 7.52596 22.6342C7.52596 22.6342 7.13791 22.5952 6.84088 22.3425C6.84088 22.3425 6.54385 22.0898 6.44324 21.713C6.44324 21.713 6.34263 21.3362 6.47413 20.969L8.95858 14.0001L6.47382 7.03024C6.47382 7.03024 6.34263 6.66395 6.44324 6.28715C6.44324 6.28715 6.54385 5.91035 6.84088 5.65761C6.84088 5.65761 7.13791 5.40488 7.52596 5.36589C7.52596 5.36589 7.91401 5.3269 8.25538 5.51549L21.451 12.9063L21.4539 12.9079ZM7.65093 6.60962L20.8431 13.9985L20.8459 14.0001L7.65093 21.3905L10.1319 14.4314C10.1319 14.4314 10.3009 14.0001 10.1319 13.5687L7.65093 6.60962Z" fill="black"/>
<path d="M9.62503 14.6251H14.625C14.9702 14.6251 15.25 14.3453 15.25 14.0001C15.25 13.6549 14.9702 13.3751 14.625 13.3751H9.62503C9.27985 13.3751 9.00003 13.6549 9.00003 14.0001C9.00003 14.3453 9.27985 14.6251 9.62503 14.6251Z" fill="black"/>
</svg>
