<svg width="794" height="457" viewBox="0 0 794 457" fill="none" xmlns="http://www.w3.org/2000/svg">
<path d="M3 79L238 79" stroke="white" stroke-width="6" stroke-linecap="round"/>
<path d="M263.297 78.375H266.203C266.193 79.375 266.099 80.1875 265.922 80.8125C265.755 81.4271 265.479 81.9948 265.094 82.5156C264.719 83.0365 264.208 83.6458 263.562 84.3438C263.125 84.8125 262.708 85.2656 262.312 85.7031C261.917 86.1406 261.594 86.6198 261.344 87.1406C261.094 87.6615 260.969 88.2812 260.969 89C260.969 89.7604 261.104 90.401 261.375 90.9219C261.646 91.4427 262.042 91.8333 262.562 92.0938C263.083 92.3646 263.719 92.5 264.469 92.5C265.083 92.5 265.656 92.3854 266.188 92.1562C266.719 91.9271 267.151 91.5729 267.484 91.0938C267.828 90.625 268 90.0312 268 89.3125H270.891C270.88 90.4896 270.589 91.5052 270.016 92.3594C269.453 93.224 268.688 93.8854 267.719 94.3438C266.76 94.8021 265.677 95.0312 264.469 95.0312C263.115 95.0312 261.958 94.7969 261 94.3281C260.052 93.8594 259.323 93.1823 258.812 92.2969C258.312 91.4115 258.062 90.3438 258.062 89.0938C258.062 88.1458 258.25 87.2708 258.625 86.4688C259.01 85.6562 259.495 84.9062 260.078 84.2188C260.661 83.5208 261.266 82.8698 261.891 82.2656C262.266 81.901 262.552 81.5208 262.75 81.125C262.958 80.7188 263.099 80.2865 263.172 79.8281C263.255 79.3698 263.297 78.8854 263.297 78.375ZM266.328 73.4219C266.328 73.8802 266.182 74.2708 265.891 74.5938C265.599 74.9167 265.177 75.0781 264.625 75.0781C264.062 75.0781 263.635 74.9167 263.344 74.5938C263.052 74.2708 262.906 73.8802 262.906 73.4219C262.906 72.9635 263.052 72.5781 263.344 72.2656C263.635 71.9427 264.062 71.7812 264.625 71.7812C265.177 71.7812 265.599 71.9427 265.891 72.2656C266.182 72.5781 266.328 72.9635 266.328 73.4219Z" fill="white"/>
<path d="M283.08 89V88.136C284.275 86.9413 285.533 85.5867 286.856 84.072C288.179 82.536 289.011 81.5333 289.352 81.064C289.715 80.5733 290.173 79.912 290.728 79.08C291.283 78.248 291.688 77.544 291.944 76.968C292.648 75.432 293 74.0987 293 72.968C293 71.8373 292.595 70.9947 291.784 70.44C290.995 69.864 289.907 69.576 288.52 69.576C287.155 69.576 285.821 69.7893 284.52 70.216L284.04 68.456C285.64 67.8373 287.357 67.528 289.192 67.528C291.027 67.528 292.531 68.008 293.704 68.968C294.877 69.9067 295.464 71.304 295.464 73.16C295.464 76.68 292.648 81.3093 287.016 87.048L295.912 86.952L296.04 89H283.08Z" fill="white"/>
<path d="M307 65L321 79L307 93" stroke="white" stroke-width="3" stroke-linecap="round"/>
<path d="M3 220L238 220" stroke="white" stroke-width="6" stroke-linecap="round"/>
<path d="M263.297 219.375H266.203C266.193 220.375 266.099 221.188 265.922 221.812C265.755 222.427 265.479 222.995 265.094 223.516C264.719 224.036 264.208 224.646 263.562 225.344C263.125 225.812 262.708 226.266 262.312 226.703C261.917 227.141 261.594 227.62 261.344 228.141C261.094 228.661 260.969 229.281 260.969 230C260.969 230.76 261.104 231.401 261.375 231.922C261.646 232.443 262.042 232.833 262.562 233.094C263.083 233.365 263.719 233.5 264.469 233.5C265.083 233.5 265.656 233.385 266.188 233.156C266.719 232.927 267.151 232.573 267.484 232.094C267.828 231.625 268 231.031 268 230.312H270.891C270.88 231.49 270.589 232.505 270.016 233.359C269.453 234.224 268.688 234.885 267.719 235.344C266.76 235.802 265.677 236.031 264.469 236.031C263.115 236.031 261.958 235.797 261 235.328C260.052 234.859 259.323 234.182 258.812 233.297C258.312 232.411 258.062 231.344 258.062 230.094C258.062 229.146 258.25 228.271 258.625 227.469C259.01 226.656 259.495 225.906 260.078 225.219C260.661 224.521 261.266 223.87 261.891 223.266C262.266 222.901 262.552 222.521 262.75 222.125C262.958 221.719 263.099 221.286 263.172 220.828C263.255 220.37 263.297 219.885 263.297 219.375ZM266.328 214.422C266.328 214.88 266.182 215.271 265.891 215.594C265.599 215.917 265.177 216.078 264.625 216.078C264.062 216.078 263.635 215.917 263.344 215.594C263.052 215.271 262.906 214.88 262.906 214.422C262.906 213.964 263.052 213.578 263.344 213.266C263.635 212.943 264.062 212.781 264.625 212.781C265.177 212.781 265.599 212.943 265.891 213.266C266.182 213.578 266.328 213.964 266.328 214.422Z" fill="white"/>
<path d="M285.64 230V228.016H289.576L289.672 211.472L285.256 214.32L284.2 212.88L289.768 208.528L292.008 208.912V228.016H295.816V230H285.64Z" fill="white"/>
<path d="M307 206L321 220L307 234" stroke="white" stroke-width="3" stroke-linecap="round"/>
<path d="M3 361L238 361" stroke="white" stroke-width="6" stroke-linecap="round"/>
<path d="M263.297 360.375H266.203C266.193 361.375 266.099 362.188 265.922 362.812C265.755 363.427 265.479 363.995 265.094 364.516C264.719 365.036 264.208 365.646 263.562 366.344C263.125 366.812 262.708 367.266 262.312 367.703C261.917 368.141 261.594 368.62 261.344 369.141C261.094 369.661 260.969 370.281 260.969 371C260.969 371.76 261.104 372.401 261.375 372.922C261.646 373.443 262.042 373.833 262.562 374.094C263.083 374.365 263.719 374.5 264.469 374.5C265.083 374.5 265.656 374.385 266.188 374.156C266.719 373.927 267.151 373.573 267.484 373.094C267.828 372.625 268 372.031 268 371.312H270.891C270.88 372.49 270.589 373.505 270.016 374.359C269.453 375.224 268.688 375.885 267.719 376.344C266.76 376.802 265.677 377.031 264.469 377.031C263.115 377.031 261.958 376.797 261 376.328C260.052 375.859 259.323 375.182 258.812 374.297C258.312 373.411 258.062 372.344 258.062 371.094C258.062 370.146 258.25 369.271 258.625 368.469C259.01 367.656 259.495 366.906 260.078 366.219C260.661 365.521 261.266 364.87 261.891 364.266C262.266 363.901 262.552 363.521 262.75 363.125C262.958 362.719 263.099 362.286 263.172 361.828C263.255 361.37 263.297 360.885 263.297 360.375ZM266.328 355.422C266.328 355.88 266.182 356.271 265.891 356.594C265.599 356.917 265.177 357.078 264.625 357.078C264.062 357.078 263.635 356.917 263.344 356.594C263.052 356.271 262.906 355.88 262.906 355.422C262.906 354.964 263.052 354.578 263.344 354.266C263.635 353.943 264.062 353.781 264.625 353.781C265.177 353.781 265.599 353.943 265.891 354.266C266.182 354.578 266.328 354.964 266.328 355.422Z" fill="white"/>
<path d="M295.56 367.608C295.005 368.76 294.227 369.677 293.224 370.36C292.243 371.043 291.069 371.384 289.704 371.384C288.339 371.384 287.165 371.107 286.184 370.552C285.224 369.997 284.488 369.208 283.976 368.184C283.059 366.328 282.6 363.811 282.6 360.632C282.6 357.56 283.112 355 284.136 352.952C284.691 351.864 285.469 351.021 286.472 350.424C287.496 349.827 288.691 349.528 290.056 349.528C291.443 349.528 292.605 349.795 293.544 350.328C294.504 350.84 295.24 351.587 295.752 352.568C296.712 354.403 297.192 356.813 297.192 359.8C297.192 362.787 296.648 365.389 295.56 367.608ZM287.304 368.664C287.965 369.155 288.776 369.4 289.736 369.4C290.696 369.4 291.517 369.101 292.2 368.504C292.904 367.885 293.427 367.075 293.768 366.072C294.408 364.195 294.728 362.104 294.728 359.8C294.728 357.517 294.472 355.64 293.96 354.168C293.341 352.397 292.051 351.512 290.088 351.512C289.107 351.512 288.264 351.789 287.56 352.344C286.856 352.877 286.333 353.613 285.992 354.552C285.373 356.259 285.064 358.285 285.064 360.632C285.064 364.877 285.811 367.555 287.304 368.664Z" fill="white"/>
<path d="M307 347L321 361L307 375" stroke="white" stroke-width="3" stroke-linecap="round"/>
<g filter="url(#filter0_d_202_601)">
<rect x="476" y="20" width="280" height="381" rx="20" fill="#2D3745" shape-rendering="crispEdges"/>
<rect x="476.5" y="20.5" width="279" height="380" rx="19.5" stroke="#4A5361" shape-rendering="crispEdges"/>
<path d="M503.156 65.6953L506.047 67.9844L505.031 68.9219L502.188 66.6641L503.156 65.6953ZM506.008 60.9531V61.6719C506.008 62.526 505.901 63.2917 505.688 63.9688C505.474 64.6458 505.167 65.2214 504.766 65.6953C504.365 66.1693 503.883 66.5312 503.32 66.7812C502.763 67.0312 502.138 67.1562 501.445 67.1562C500.773 67.1562 500.156 67.0312 499.594 66.7812C499.036 66.5312 498.552 66.1693 498.141 65.6953C497.734 65.2214 497.419 64.6458 497.195 63.9688C496.971 63.2917 496.859 62.526 496.859 61.6719V60.9531C496.859 60.099 496.969 59.3359 497.188 58.6641C497.411 57.987 497.727 57.4115 498.133 56.9375C498.539 56.4583 499.021 56.0938 499.578 55.8438C500.141 55.5938 500.758 55.4688 501.43 55.4688C502.122 55.4688 502.75 55.5938 503.312 55.8438C503.875 56.0938 504.357 56.4583 504.758 56.9375C505.159 57.4115 505.466 57.987 505.68 58.6641C505.898 59.3359 506.008 60.099 506.008 60.9531ZM504.516 61.6719V60.9375C504.516 60.2604 504.445 59.6615 504.305 59.1406C504.169 58.6198 503.969 58.1823 503.703 57.8281C503.438 57.474 503.115 57.2057 502.734 57.0234C502.354 56.8411 501.919 56.75 501.43 56.75C500.966 56.75 500.544 56.8411 500.164 57.0234C499.789 57.2057 499.466 57.474 499.195 57.8281C498.924 58.1823 498.716 58.6198 498.57 59.1406C498.424 59.6615 498.352 60.2604 498.352 60.9375V61.6719C498.352 62.3542 498.424 62.9583 498.57 63.4844C498.716 64.0052 498.924 64.4453 499.195 64.8047C499.471 65.1589 499.799 65.4271 500.18 65.6094C500.56 65.7917 500.982 65.8828 501.445 65.8828C501.935 65.8828 502.37 65.7917 502.75 65.6094C503.13 65.4271 503.451 65.1589 503.711 64.8047C503.977 64.4453 504.177 64.0052 504.312 63.4844C504.448 62.9583 504.516 62.3542 504.516 61.6719ZM513.489 65.0469V58.5469H514.942V67H513.559L513.489 65.0469ZM513.762 63.2656L514.364 63.25C514.364 63.8125 514.304 64.3333 514.184 64.8125C514.07 65.2865 513.882 65.6979 513.622 66.0469C513.361 66.3958 513.02 66.6693 512.598 66.8672C512.177 67.0599 511.664 67.1562 511.059 67.1562C510.648 67.1562 510.27 67.0964 509.927 66.9766C509.588 66.8568 509.296 66.6719 509.052 66.4219C508.807 66.1719 508.617 65.8464 508.481 65.4453C508.351 65.0443 508.286 64.5625 508.286 64V58.5469H509.731V64.0156C509.731 64.3958 509.773 64.7109 509.856 64.9609C509.945 65.2057 510.062 65.401 510.208 65.5469C510.359 65.6875 510.526 65.7865 510.708 65.8438C510.895 65.901 511.088 65.9297 511.286 65.9297C511.901 65.9297 512.387 65.8125 512.747 65.5781C513.106 65.3385 513.364 65.0182 513.52 64.6172C513.682 64.2109 513.762 63.7604 513.762 63.2656ZM522.673 65.3594V55H524.127V67H522.798L522.673 65.3594ZM516.986 62.8672V62.7031C516.986 62.0573 517.064 61.4714 517.22 60.9453C517.382 60.4141 517.608 59.9583 517.9 59.5781C518.197 59.1979 518.548 58.9062 518.955 58.7031C519.366 58.4948 519.824 58.3906 520.33 58.3906C520.861 58.3906 521.324 58.4844 521.72 58.6719C522.121 58.8542 522.46 59.1224 522.736 59.4766C523.017 59.8255 523.239 60.2474 523.4 60.7422C523.561 61.237 523.673 61.7969 523.736 62.4219V63.1406C523.679 63.7604 523.567 64.3177 523.4 64.8125C523.239 65.3073 523.017 65.7292 522.736 66.0781C522.46 66.4271 522.121 66.6953 521.72 66.8828C521.319 67.0651 520.851 67.1562 520.314 67.1562C519.819 67.1562 519.366 67.0495 518.955 66.8359C518.548 66.6224 518.197 66.3229 517.9 65.9375C517.608 65.5521 517.382 65.099 517.22 64.5781C517.064 64.0521 516.986 63.4818 516.986 62.8672ZM518.439 62.7031V62.8672C518.439 63.2891 518.481 63.6849 518.564 64.0547C518.653 64.4245 518.788 64.75 518.97 65.0312C519.153 65.3125 519.384 65.5339 519.666 65.6953C519.947 65.8516 520.283 65.9297 520.673 65.9297C521.153 65.9297 521.546 65.8281 521.853 65.625C522.166 65.4219 522.416 65.1536 522.603 64.8203C522.791 64.487 522.936 64.125 523.041 63.7344V61.8516C522.978 61.5651 522.887 61.2891 522.767 61.0234C522.653 60.7526 522.502 60.513 522.314 60.3047C522.132 60.0911 521.905 59.9219 521.634 59.7969C521.369 59.6719 521.054 59.6094 520.689 59.6094C520.293 59.6094 519.952 59.6927 519.666 59.8594C519.384 60.0208 519.153 60.2448 518.97 60.5312C518.788 60.8125 518.653 61.1406 518.564 61.5156C518.481 61.8854 518.439 62.2812 518.439 62.7031ZM528.147 58.5469V67H526.694V58.5469H528.147ZM526.584 56.3047C526.584 56.0703 526.655 55.8724 526.795 55.7109C526.941 55.5495 527.155 55.4688 527.436 55.4688C527.712 55.4688 527.923 55.5495 528.069 55.7109C528.22 55.8724 528.295 56.0703 528.295 56.3047C528.295 56.5286 528.22 56.7214 528.069 56.8828C527.923 57.0391 527.712 57.1172 527.436 57.1172C527.155 57.1172 526.941 57.0391 526.795 56.8828C526.655 56.7214 526.584 56.5286 526.584 56.3047ZM534.206 58.5469V59.6562H529.636V58.5469H534.206ZM531.183 56.4922H532.628V64.9062C532.628 65.1927 532.672 65.4089 532.761 65.5547C532.849 65.7005 532.964 65.7969 533.105 65.8438C533.245 65.8906 533.396 65.9141 533.558 65.9141C533.678 65.9141 533.803 65.9036 533.933 65.8828C534.068 65.8568 534.17 65.8359 534.237 65.8203L534.245 67C534.131 67.0365 533.98 67.0703 533.792 67.1016C533.61 67.138 533.389 67.1562 533.128 67.1562C532.774 67.1562 532.448 67.0859 532.152 66.9453C531.855 66.8047 531.618 66.5703 531.441 66.2422C531.269 65.9089 531.183 65.4609 531.183 64.8984V56.4922ZM544.864 55.5625V67H543.419V57.3672L540.505 58.4297V57.125L544.638 55.5625H544.864Z" fill="white"/>
<rect x="496" y="90" width="229" height="46" rx="5" fill="#3A4C5B"/>
<rect x="496.5" y="90.5" width="228" height="45" rx="4.5" stroke="#4C4C66" stroke-opacity="0.1"/>
<path d="M508.673 112.401H509.575C510.017 112.401 510.382 112.328 510.669 112.183C510.961 112.032 511.177 111.829 511.318 111.574C511.464 111.314 511.537 111.023 511.537 110.699C511.537 110.316 511.473 109.995 511.346 109.735C511.218 109.476 511.027 109.28 510.771 109.147C510.516 109.015 510.193 108.949 509.801 108.949C509.445 108.949 509.131 109.02 508.857 109.161C508.589 109.298 508.377 109.494 508.222 109.749C508.071 110.004 507.996 110.305 507.996 110.651H506.731C506.731 110.146 506.859 109.685 507.114 109.271C507.369 108.856 507.727 108.525 508.188 108.279C508.652 108.033 509.19 107.91 509.801 107.91C510.402 107.91 510.929 108.017 511.38 108.231C511.831 108.441 512.182 108.756 512.433 109.175C512.683 109.59 512.809 110.107 512.809 110.727C512.809 110.977 512.749 111.246 512.631 111.533C512.517 111.816 512.337 112.08 512.091 112.326C511.849 112.572 511.535 112.775 511.147 112.935C510.76 113.09 510.295 113.167 509.753 113.167H508.673V112.401ZM508.673 113.44V112.682H509.753C510.386 112.682 510.91 112.757 511.325 112.907C511.74 113.058 512.066 113.258 512.303 113.509C512.544 113.759 512.713 114.035 512.809 114.336C512.909 114.632 512.959 114.928 512.959 115.225C512.959 115.689 512.879 116.102 512.72 116.462C512.565 116.822 512.344 117.127 512.057 117.378C511.774 117.629 511.441 117.818 511.059 117.945C510.676 118.073 510.259 118.137 509.808 118.137C509.375 118.137 508.967 118.075 508.584 117.952C508.206 117.829 507.871 117.651 507.579 117.419C507.287 117.182 507.06 116.893 506.896 116.551C506.731 116.204 506.649 115.81 506.649 115.368H507.914C507.914 115.715 507.989 116.018 508.14 116.277C508.295 116.537 508.513 116.74 508.796 116.886C509.083 117.027 509.42 117.098 509.808 117.098C510.195 117.098 510.528 117.032 510.806 116.899C511.088 116.763 511.305 116.558 511.455 116.284C511.61 116.011 511.688 115.667 511.688 115.252C511.688 114.837 511.601 114.498 511.428 114.233C511.255 113.965 511.008 113.766 510.689 113.639C510.375 113.507 510.004 113.44 509.575 113.44H508.673Z" fill="white"/>
<path d="M701.5 111.5L705 114.5L708.5 111.5" stroke="white" stroke-linecap="round"/>
<path d="M498.938 173.625V185H497.43V173.625H498.938ZM503.106 178.352V185H501.661V176.547H503.028L503.106 178.352ZM502.762 180.453L502.161 180.43C502.166 179.852 502.252 179.318 502.419 178.828C502.585 178.333 502.82 177.904 503.122 177.539C503.424 177.174 503.783 176.893 504.2 176.695C504.622 176.492 505.088 176.391 505.598 176.391C506.015 176.391 506.39 176.448 506.723 176.562C507.057 176.672 507.341 176.849 507.575 177.094C507.815 177.339 507.997 177.656 508.122 178.047C508.247 178.432 508.309 178.904 508.309 179.461V185H506.856V179.445C506.856 179.003 506.791 178.648 506.661 178.383C506.531 178.112 506.341 177.917 506.091 177.797C505.841 177.672 505.533 177.609 505.169 177.609C504.809 177.609 504.481 177.685 504.184 177.836C503.893 177.987 503.64 178.195 503.427 178.461C503.218 178.727 503.054 179.031 502.934 179.375C502.82 179.714 502.762 180.073 502.762 180.453ZM512.275 176.547V185H510.822V176.547H512.275ZM510.712 174.305C510.712 174.07 510.783 173.872 510.923 173.711C511.069 173.549 511.283 173.469 511.564 173.469C511.84 173.469 512.051 173.549 512.197 173.711C512.348 173.872 512.423 174.07 512.423 174.305C512.423 174.529 512.348 174.721 512.197 174.883C512.051 175.039 511.84 175.117 511.564 175.117C511.283 175.117 511.069 175.039 510.923 174.883C510.783 174.721 510.712 174.529 510.712 174.305ZM518.334 176.547V177.656H513.764V176.547H518.334ZM515.311 174.492H516.756V182.906C516.756 183.193 516.801 183.409 516.889 183.555C516.978 183.701 517.092 183.797 517.233 183.844C517.373 183.891 517.524 183.914 517.686 183.914C517.806 183.914 517.931 183.904 518.061 183.883C518.196 183.857 518.298 183.836 518.366 183.82L518.373 185C518.259 185.036 518.108 185.07 517.92 185.102C517.738 185.138 517.517 185.156 517.256 185.156C516.902 185.156 516.577 185.086 516.28 184.945C515.983 184.805 515.746 184.57 515.569 184.242C515.397 183.909 515.311 183.461 515.311 182.898V174.492ZM521.8 176.547V185H520.347V176.547H521.8ZM520.237 174.305C520.237 174.07 520.308 173.872 520.448 173.711C520.594 173.549 520.808 173.469 521.089 173.469C521.365 173.469 521.576 173.549 521.722 173.711C521.873 173.872 521.948 174.07 521.948 174.305C521.948 174.529 521.873 174.721 521.722 174.883C521.576 175.039 521.365 175.117 521.089 175.117C520.808 175.117 520.594 175.039 520.448 174.883C520.308 174.721 520.237 174.529 520.237 174.305ZM529.305 183.555V179.203C529.305 178.87 529.237 178.581 529.102 178.336C528.971 178.086 528.773 177.893 528.508 177.758C528.242 177.622 527.914 177.555 527.523 177.555C527.159 177.555 526.839 177.617 526.562 177.742C526.292 177.867 526.078 178.031 525.922 178.234C525.771 178.438 525.695 178.656 525.695 178.891H524.25C524.25 178.589 524.328 178.289 524.484 177.992C524.641 177.695 524.865 177.427 525.156 177.188C525.453 176.943 525.807 176.75 526.219 176.609C526.635 176.464 527.099 176.391 527.609 176.391C528.224 176.391 528.766 176.495 529.234 176.703C529.708 176.911 530.078 177.227 530.344 177.648C530.615 178.065 530.75 178.589 530.75 179.219V183.156C530.75 183.438 530.773 183.737 530.82 184.055C530.872 184.372 530.948 184.646 531.047 184.875V185H529.539C529.466 184.833 529.409 184.612 529.367 184.336C529.326 184.055 529.305 183.794 529.305 183.555ZM529.555 179.875L529.57 180.891H528.109C527.698 180.891 527.331 180.924 527.008 180.992C526.685 181.055 526.414 181.151 526.195 181.281C525.977 181.411 525.81 181.576 525.695 181.773C525.581 181.966 525.523 182.193 525.523 182.453C525.523 182.719 525.583 182.961 525.703 183.18C525.823 183.398 526.003 183.573 526.242 183.703C526.487 183.828 526.786 183.891 527.141 183.891C527.583 183.891 527.974 183.797 528.312 183.609C528.651 183.422 528.919 183.193 529.117 182.922C529.32 182.651 529.43 182.388 529.445 182.133L530.062 182.828C530.026 183.047 529.927 183.289 529.766 183.555C529.604 183.82 529.388 184.076 529.117 184.32C528.852 184.56 528.534 184.76 528.164 184.922C527.799 185.078 527.388 185.156 526.93 185.156C526.357 185.156 525.854 185.044 525.422 184.82C524.995 184.596 524.661 184.297 524.422 183.922C524.188 183.542 524.07 183.117 524.07 182.648C524.07 182.195 524.159 181.797 524.336 181.453C524.513 181.104 524.768 180.815 525.102 180.586C525.435 180.352 525.836 180.174 526.305 180.055C526.773 179.935 527.297 179.875 527.875 179.875H529.555ZM534.794 173V185H533.341V173H534.794ZM538.884 176.547V185H537.431V176.547H538.884ZM537.322 174.305C537.322 174.07 537.392 173.872 537.533 173.711C537.679 173.549 537.892 173.469 538.173 173.469C538.449 173.469 538.66 173.549 538.806 173.711C538.957 173.872 539.033 174.07 539.033 174.305C539.033 174.529 538.957 174.721 538.806 174.883C538.66 175.039 538.449 175.117 538.173 175.117C537.892 175.117 537.679 175.039 537.533 174.883C537.392 174.721 537.322 174.529 537.322 174.305ZM547.702 183.812V185H541.553V183.812H547.702ZM547.475 177.57L541.881 185H540.998V183.938L546.553 176.547H547.475V177.57ZM546.834 176.547V177.742H541.061V176.547H546.834ZM554.527 183.555V179.203C554.527 178.87 554.459 178.581 554.323 178.336C554.193 178.086 553.995 177.893 553.73 177.758C553.464 177.622 553.136 177.555 552.745 177.555C552.381 177.555 552.06 177.617 551.784 177.742C551.514 177.867 551.3 178.031 551.144 178.234C550.993 178.438 550.917 178.656 550.917 178.891H549.472C549.472 178.589 549.55 178.289 549.706 177.992C549.862 177.695 550.086 177.427 550.378 177.188C550.675 176.943 551.029 176.75 551.441 176.609C551.857 176.464 552.321 176.391 552.831 176.391C553.446 176.391 553.987 176.495 554.456 176.703C554.93 176.911 555.3 177.227 555.566 177.648C555.836 178.065 555.972 178.589 555.972 179.219V183.156C555.972 183.438 555.995 183.737 556.042 184.055C556.094 184.372 556.17 184.646 556.269 184.875V185H554.761C554.688 184.833 554.631 184.612 554.589 184.336C554.547 184.055 554.527 183.794 554.527 183.555ZM554.777 179.875L554.792 180.891H553.331C552.92 180.891 552.553 180.924 552.23 180.992C551.907 181.055 551.636 181.151 551.417 181.281C551.198 181.411 551.032 181.576 550.917 181.773C550.803 181.966 550.745 182.193 550.745 182.453C550.745 182.719 550.805 182.961 550.925 183.18C551.045 183.398 551.224 183.573 551.464 183.703C551.709 183.828 552.008 183.891 552.362 183.891C552.805 183.891 553.196 183.797 553.534 183.609C553.873 183.422 554.141 183.193 554.339 182.922C554.542 182.651 554.652 182.388 554.667 182.133L555.284 182.828C555.248 183.047 555.149 183.289 554.987 183.555C554.826 183.82 554.61 184.076 554.339 184.32C554.073 184.56 553.756 184.76 553.386 184.922C553.021 185.078 552.61 185.156 552.152 185.156C551.579 185.156 551.076 185.044 550.644 184.82C550.217 184.596 549.883 184.297 549.644 183.922C549.409 183.542 549.292 183.117 549.292 182.648C549.292 182.195 549.381 181.797 549.558 181.453C549.735 181.104 549.99 180.815 550.323 180.586C550.657 180.352 551.058 180.174 551.527 180.055C551.995 179.935 552.519 179.875 553.097 179.875H554.777ZM561.984 176.547V177.656H557.414V176.547H561.984ZM558.961 174.492H560.406V182.906C560.406 183.193 560.451 183.409 560.539 183.555C560.628 183.701 560.742 183.797 560.883 183.844C561.023 183.891 561.174 183.914 561.336 183.914C561.456 183.914 561.581 183.904 561.711 183.883C561.846 183.857 561.948 183.836 562.016 183.82L562.023 185C561.909 185.036 561.758 185.07 561.57 185.102C561.388 185.138 561.167 185.156 560.906 185.156C560.552 185.156 560.227 185.086 559.93 184.945C559.633 184.805 559.396 184.57 559.219 184.242C559.047 183.909 558.961 183.461 558.961 182.898V174.492ZM565.45 176.547V185H563.997V176.547H565.45ZM563.887 174.305C563.887 174.07 563.958 173.872 564.098 173.711C564.244 173.549 564.458 173.469 564.739 173.469C565.015 173.469 565.226 173.549 565.372 173.711C565.523 173.872 565.598 174.07 565.598 174.305C565.598 174.529 565.523 174.721 565.372 174.883C565.226 175.039 565.015 175.117 564.739 175.117C564.458 175.117 564.244 175.039 564.098 174.883C563.958 174.721 563.887 174.529 563.887 174.305ZM567.588 180.867V180.688C567.588 180.078 567.676 179.513 567.853 178.992C568.03 178.466 568.285 178.01 568.619 177.625C568.952 177.234 569.356 176.932 569.83 176.719C570.304 176.5 570.835 176.391 571.423 176.391C572.017 176.391 572.551 176.5 573.025 176.719C573.504 176.932 573.91 177.234 574.244 177.625C574.582 178.01 574.84 178.466 575.017 178.992C575.194 179.513 575.283 180.078 575.283 180.688V180.867C575.283 181.477 575.194 182.042 575.017 182.562C574.84 183.083 574.582 183.539 574.244 183.93C573.91 184.315 573.507 184.617 573.033 184.836C572.564 185.049 572.033 185.156 571.439 185.156C570.845 185.156 570.311 185.049 569.838 184.836C569.364 184.617 568.957 184.315 568.619 183.93C568.285 183.539 568.03 183.083 567.853 182.562C567.676 182.042 567.588 181.477 567.588 180.867ZM569.033 180.688V180.867C569.033 181.289 569.082 181.688 569.181 182.062C569.28 182.432 569.429 182.76 569.627 183.047C569.83 183.333 570.082 183.56 570.384 183.727C570.686 183.888 571.038 183.969 571.439 183.969C571.835 183.969 572.181 183.888 572.478 183.727C572.78 183.56 573.03 183.333 573.228 183.047C573.426 182.76 573.574 182.432 573.673 182.062C573.778 181.688 573.83 181.289 573.83 180.867V180.688C573.83 180.271 573.778 179.878 573.673 179.508C573.574 179.133 573.423 178.802 573.22 178.516C573.022 178.224 572.772 177.995 572.47 177.828C572.173 177.661 571.824 177.578 571.423 177.578C571.028 177.578 570.679 177.661 570.377 177.828C570.08 177.995 569.83 178.224 569.627 178.516C569.429 178.802 569.28 179.133 569.181 179.508C569.082 179.878 569.033 180.271 569.033 180.688ZM578.741 178.352V185H577.295V176.547H578.662L578.741 178.352ZM578.397 180.453L577.795 180.43C577.801 179.852 577.886 179.318 578.053 178.828C578.22 178.333 578.454 177.904 578.756 177.539C579.058 177.174 579.418 176.893 579.834 176.695C580.256 176.492 580.722 176.391 581.233 176.391C581.649 176.391 582.024 176.448 582.358 176.562C582.691 176.672 582.975 176.849 583.209 177.094C583.449 177.339 583.631 177.656 583.756 178.047C583.881 178.432 583.944 178.904 583.944 179.461V185H582.491V179.445C582.491 179.003 582.426 178.648 582.295 178.383C582.165 178.112 581.975 177.917 581.725 177.797C581.475 177.672 581.168 177.609 580.803 177.609C580.444 177.609 580.116 177.685 579.819 177.836C579.527 177.987 579.274 178.195 579.061 178.461C578.853 178.727 578.689 179.031 578.569 179.375C578.454 179.714 578.397 180.073 578.397 180.453ZM591.953 178.172V188.25H590.5V176.547H591.828L591.953 178.172ZM597.648 180.703V180.867C597.648 181.482 597.576 182.052 597.43 182.578C597.284 183.099 597.07 183.552 596.789 183.938C596.513 184.323 596.172 184.622 595.766 184.836C595.359 185.049 594.893 185.156 594.367 185.156C593.831 185.156 593.357 185.068 592.945 184.891C592.534 184.714 592.185 184.456 591.898 184.117C591.612 183.779 591.383 183.372 591.211 182.898C591.044 182.424 590.93 181.891 590.867 181.297V180.422C590.93 179.797 591.047 179.237 591.219 178.742C591.391 178.247 591.617 177.826 591.898 177.477C592.185 177.122 592.531 176.854 592.938 176.672C593.344 176.484 593.812 176.391 594.344 176.391C594.875 176.391 595.346 176.495 595.758 176.703C596.169 176.906 596.516 177.198 596.797 177.578C597.078 177.958 597.289 178.414 597.43 178.945C597.576 179.471 597.648 180.057 597.648 180.703ZM596.195 180.867V180.703C596.195 180.281 596.151 179.885 596.062 179.516C595.974 179.141 595.836 178.812 595.648 178.531C595.466 178.245 595.232 178.021 594.945 177.859C594.659 177.693 594.318 177.609 593.922 177.609C593.557 177.609 593.24 177.672 592.969 177.797C592.703 177.922 592.477 178.091 592.289 178.305C592.102 178.513 591.948 178.753 591.828 179.023C591.714 179.289 591.628 179.565 591.57 179.852V181.875C591.674 182.24 591.82 182.583 592.008 182.906C592.195 183.224 592.445 183.482 592.758 183.68C593.07 183.872 593.464 183.969 593.938 183.969C594.328 183.969 594.664 183.888 594.945 183.727C595.232 183.56 595.466 183.333 595.648 183.047C595.836 182.76 595.974 182.432 596.062 182.062C596.151 181.688 596.195 181.289 596.195 180.867ZM604.677 183.555V179.203C604.677 178.87 604.609 178.581 604.473 178.336C604.343 178.086 604.145 177.893 603.88 177.758C603.614 177.622 603.286 177.555 602.895 177.555C602.531 177.555 602.21 177.617 601.934 177.742C601.664 177.867 601.45 178.031 601.294 178.234C601.143 178.438 601.067 178.656 601.067 178.891H599.622C599.622 178.589 599.7 178.289 599.856 177.992C600.012 177.695 600.236 177.427 600.528 177.188C600.825 176.943 601.179 176.75 601.591 176.609C602.007 176.464 602.471 176.391 602.981 176.391C603.596 176.391 604.137 176.495 604.606 176.703C605.08 176.911 605.45 177.227 605.716 177.648C605.986 178.065 606.122 178.589 606.122 179.219V183.156C606.122 183.438 606.145 183.737 606.192 184.055C606.244 184.372 606.32 184.646 606.419 184.875V185H604.911C604.838 184.833 604.781 184.612 604.739 184.336C604.697 184.055 604.677 183.794 604.677 183.555ZM604.927 179.875L604.942 180.891H603.481C603.07 180.891 602.703 180.924 602.38 180.992C602.057 181.055 601.786 181.151 601.567 181.281C601.348 181.411 601.182 181.576 601.067 181.773C600.953 181.966 600.895 182.193 600.895 182.453C600.895 182.719 600.955 182.961 601.075 183.18C601.195 183.398 601.374 183.573 601.614 183.703C601.859 183.828 602.158 183.891 602.512 183.891C602.955 183.891 603.346 183.797 603.684 183.609C604.023 183.422 604.291 183.193 604.489 182.922C604.692 182.651 604.802 182.388 604.817 182.133L605.434 182.828C605.398 183.047 605.299 183.289 605.137 183.555C604.976 183.82 604.76 184.076 604.489 184.32C604.223 184.56 603.906 184.76 603.536 184.922C603.171 185.078 602.76 185.156 602.302 185.156C601.729 185.156 601.226 185.044 600.794 184.82C600.367 184.596 600.033 184.297 599.794 183.922C599.559 183.542 599.442 183.117 599.442 182.648C599.442 182.195 599.531 181.797 599.708 181.453C599.885 181.104 600.14 180.815 600.473 180.586C600.807 180.352 601.208 180.174 601.677 180.055C602.145 179.935 602.669 179.875 603.247 179.875H604.927ZM610.041 177.875V185H608.595V176.547H610.002L610.041 177.875ZM612.681 176.5L612.673 177.844C612.554 177.818 612.439 177.802 612.33 177.797C612.226 177.786 612.106 177.781 611.97 177.781C611.637 177.781 611.343 177.833 611.088 177.938C610.832 178.042 610.616 178.188 610.439 178.375C610.262 178.562 610.121 178.786 610.017 179.047C609.918 179.302 609.853 179.583 609.822 179.891L609.416 180.125C609.416 179.615 609.465 179.135 609.564 178.688C609.668 178.24 609.827 177.844 610.041 177.5C610.254 177.151 610.525 176.88 610.853 176.688C611.186 176.49 611.582 176.391 612.041 176.391C612.145 176.391 612.265 176.404 612.4 176.43C612.535 176.451 612.629 176.474 612.681 176.5ZM618.889 183.555V179.203C618.889 178.87 618.821 178.581 618.686 178.336C618.556 178.086 618.358 177.893 618.092 177.758C617.827 177.622 617.498 177.555 617.108 177.555C616.743 177.555 616.423 177.617 616.147 177.742C615.876 177.867 615.662 178.031 615.506 178.234C615.355 178.438 615.28 178.656 615.28 178.891H613.834C613.834 178.589 613.912 178.289 614.069 177.992C614.225 177.695 614.449 177.427 614.741 177.188C615.037 176.943 615.392 176.75 615.803 176.609C616.22 176.464 616.683 176.391 617.194 176.391C617.808 176.391 618.35 176.495 618.819 176.703C619.293 176.911 619.662 177.227 619.928 177.648C620.199 178.065 620.334 178.589 620.334 179.219V183.156C620.334 183.438 620.358 183.737 620.405 184.055C620.457 184.372 620.532 184.646 620.631 184.875V185H619.123C619.051 184.833 618.993 184.612 618.952 184.336C618.91 184.055 618.889 183.794 618.889 183.555ZM619.139 179.875L619.155 180.891H617.694C617.282 180.891 616.915 180.924 616.592 180.992C616.269 181.055 615.998 181.151 615.78 181.281C615.561 181.411 615.394 181.576 615.28 181.773C615.165 181.966 615.108 182.193 615.108 182.453C615.108 182.719 615.168 182.961 615.287 183.18C615.407 183.398 615.587 183.573 615.827 183.703C616.071 183.828 616.371 183.891 616.725 183.891C617.168 183.891 617.558 183.797 617.897 183.609C618.235 183.422 618.504 183.193 618.702 182.922C618.905 182.651 619.014 182.388 619.03 182.133L619.647 182.828C619.61 183.047 619.511 183.289 619.35 183.555C619.189 183.82 618.972 184.076 618.702 184.32C618.436 184.56 618.118 184.76 617.748 184.922C617.384 185.078 616.972 185.156 616.514 185.156C615.941 185.156 615.439 185.044 615.006 184.82C614.579 184.596 614.246 184.297 614.006 183.922C613.772 183.542 613.655 183.117 613.655 182.648C613.655 182.195 613.743 181.797 613.92 181.453C614.097 181.104 614.353 180.815 614.686 180.586C615.019 180.352 615.42 180.174 615.889 180.055C616.358 179.935 616.881 179.875 617.459 179.875H619.139ZM624.245 178.227V185H622.792V176.547H624.167L624.245 178.227ZM623.948 180.453L623.277 180.43C623.282 179.852 623.357 179.318 623.503 178.828C623.649 178.333 623.865 177.904 624.152 177.539C624.438 177.174 624.795 176.893 625.222 176.695C625.649 176.492 626.144 176.391 626.706 176.391C627.102 176.391 627.467 176.448 627.8 176.562C628.133 176.672 628.422 176.846 628.667 177.086C628.912 177.326 629.102 177.633 629.238 178.008C629.373 178.383 629.441 178.836 629.441 179.367V185H627.995V179.438C627.995 178.995 627.92 178.641 627.769 178.375C627.623 178.109 627.415 177.917 627.144 177.797C626.873 177.672 626.555 177.609 626.191 177.609C625.764 177.609 625.407 177.685 625.12 177.836C624.834 177.987 624.605 178.195 624.433 178.461C624.261 178.727 624.136 179.031 624.058 179.375C623.985 179.714 623.948 180.073 623.948 180.453ZM629.425 179.656L628.456 179.953C628.461 179.49 628.537 179.044 628.683 178.617C628.834 178.19 629.05 177.81 629.331 177.477C629.618 177.143 629.969 176.88 630.386 176.688C630.803 176.49 631.279 176.391 631.816 176.391C632.269 176.391 632.67 176.451 633.019 176.57C633.373 176.69 633.67 176.875 633.909 177.125C634.154 177.37 634.339 177.685 634.464 178.07C634.589 178.456 634.652 178.914 634.652 179.445V185H633.198V179.43C633.198 178.956 633.123 178.589 632.972 178.328C632.826 178.062 632.618 177.878 632.347 177.773C632.081 177.664 631.764 177.609 631.394 177.609C631.076 177.609 630.795 177.664 630.55 177.773C630.305 177.883 630.099 178.034 629.933 178.227C629.766 178.414 629.639 178.63 629.55 178.875C629.467 179.12 629.425 179.38 629.425 179.656ZM640.547 185.156C639.958 185.156 639.424 185.057 638.945 184.859C638.471 184.656 638.062 184.372 637.719 184.008C637.38 183.643 637.12 183.211 636.938 182.711C636.755 182.211 636.664 181.664 636.664 181.07V180.742C636.664 180.055 636.766 179.443 636.969 178.906C637.172 178.365 637.448 177.906 637.797 177.531C638.146 177.156 638.542 176.872 638.984 176.68C639.427 176.487 639.885 176.391 640.359 176.391C640.964 176.391 641.484 176.495 641.922 176.703C642.365 176.911 642.727 177.203 643.008 177.578C643.289 177.948 643.497 178.385 643.633 178.891C643.768 179.391 643.836 179.938 643.836 180.531V181.18H637.523V180H642.391V179.891C642.37 179.516 642.292 179.151 642.156 178.797C642.026 178.443 641.818 178.151 641.531 177.922C641.245 177.693 640.854 177.578 640.359 177.578C640.031 177.578 639.729 177.648 639.453 177.789C639.177 177.924 638.94 178.128 638.742 178.398C638.544 178.669 638.391 179 638.281 179.391C638.172 179.781 638.117 180.232 638.117 180.742V181.07C638.117 181.471 638.172 181.849 638.281 182.203C638.396 182.552 638.56 182.859 638.773 183.125C638.992 183.391 639.255 183.599 639.562 183.75C639.875 183.901 640.229 183.977 640.625 183.977C641.135 183.977 641.568 183.872 641.922 183.664C642.276 183.456 642.586 183.177 642.852 182.828L643.727 183.523C643.544 183.799 643.312 184.062 643.031 184.312C642.75 184.562 642.404 184.766 641.992 184.922C641.586 185.078 641.104 185.156 640.547 185.156ZM649.262 176.547V177.656H644.692V176.547H649.262ZM646.239 174.492H647.684V182.906C647.684 183.193 647.729 183.409 647.817 183.555C647.906 183.701 648.02 183.797 648.161 183.844C648.302 183.891 648.453 183.914 648.614 183.914C648.734 183.914 648.859 183.904 648.989 183.883C649.124 183.857 649.226 183.836 649.294 183.82L649.302 185C649.187 185.036 649.036 185.07 648.848 185.102C648.666 185.138 648.445 185.156 648.184 185.156C647.83 185.156 647.505 185.086 647.208 184.945C646.911 184.805 646.674 184.57 646.497 184.242C646.325 183.909 646.239 183.461 646.239 182.898V174.492ZM654.666 185.156C654.077 185.156 653.543 185.057 653.064 184.859C652.59 184.656 652.181 184.372 651.837 184.008C651.499 183.643 651.239 183.211 651.056 182.711C650.874 182.211 650.783 181.664 650.783 181.07V180.742C650.783 180.055 650.884 179.443 651.087 178.906C651.291 178.365 651.567 177.906 651.916 177.531C652.265 177.156 652.66 176.872 653.103 176.68C653.546 176.487 654.004 176.391 654.478 176.391C655.082 176.391 655.603 176.495 656.041 176.703C656.483 176.911 656.845 177.203 657.127 177.578C657.408 177.948 657.616 178.385 657.752 178.891C657.887 179.391 657.955 179.938 657.955 180.531V181.18H651.642V180H656.509V179.891C656.489 179.516 656.41 179.151 656.275 178.797C656.145 178.443 655.936 178.151 655.65 177.922C655.364 177.693 654.973 177.578 654.478 177.578C654.15 177.578 653.848 177.648 653.572 177.789C653.296 177.924 653.059 178.128 652.861 178.398C652.663 178.669 652.509 179 652.4 179.391C652.291 179.781 652.236 180.232 652.236 180.742V181.07C652.236 181.471 652.291 181.849 652.4 182.203C652.515 182.552 652.679 182.859 652.892 183.125C653.111 183.391 653.374 183.599 653.681 183.75C653.994 183.901 654.348 183.977 654.744 183.977C655.254 183.977 655.686 183.872 656.041 183.664C656.395 183.456 656.705 183.177 656.97 182.828L657.845 183.523C657.663 183.799 657.431 184.062 657.15 184.312C656.869 184.562 656.522 184.766 656.111 184.922C655.705 185.078 655.223 185.156 654.666 185.156ZM661.288 177.875V185H659.842V176.547H661.248L661.288 177.875ZM663.928 176.5L663.92 177.844C663.801 177.818 663.686 177.802 663.577 177.797C663.472 177.786 663.353 177.781 663.217 177.781C662.884 177.781 662.59 177.833 662.334 177.938C662.079 178.042 661.863 178.188 661.686 178.375C661.509 178.562 661.368 178.786 661.264 179.047C661.165 179.302 661.1 179.583 661.069 179.891L660.663 180.125C660.663 179.615 660.712 179.135 660.811 178.688C660.915 178.24 661.074 177.844 661.288 177.5C661.501 177.151 661.772 176.88 662.1 176.688C662.433 176.49 662.829 176.391 663.288 176.391C663.392 176.391 663.511 176.404 663.647 176.43C663.782 176.451 663.876 176.474 663.928 176.5ZM670.386 182.758C670.386 182.549 670.339 182.357 670.245 182.18C670.157 181.997 669.972 181.833 669.691 181.688C669.415 181.536 668.998 181.406 668.441 181.297C667.972 181.198 667.547 181.081 667.167 180.945C666.792 180.81 666.472 180.646 666.206 180.453C665.946 180.26 665.745 180.034 665.605 179.773C665.464 179.513 665.394 179.208 665.394 178.859C665.394 178.526 665.467 178.211 665.613 177.914C665.764 177.617 665.974 177.354 666.245 177.125C666.521 176.896 666.852 176.716 667.238 176.586C667.623 176.456 668.053 176.391 668.527 176.391C669.204 176.391 669.782 176.51 670.261 176.75C670.74 176.99 671.107 177.31 671.363 177.711C671.618 178.107 671.745 178.547 671.745 179.031H670.3C670.3 178.797 670.23 178.57 670.089 178.352C669.954 178.128 669.753 177.943 669.488 177.797C669.227 177.651 668.907 177.578 668.527 177.578C668.126 177.578 667.8 177.641 667.55 177.766C667.305 177.885 667.126 178.039 667.011 178.227C666.902 178.414 666.847 178.612 666.847 178.82C666.847 178.977 666.873 179.117 666.925 179.242C666.982 179.362 667.081 179.474 667.222 179.578C667.363 179.677 667.56 179.771 667.816 179.859C668.071 179.948 668.396 180.036 668.792 180.125C669.485 180.281 670.055 180.469 670.503 180.688C670.951 180.906 671.284 181.174 671.503 181.492C671.722 181.81 671.831 182.195 671.831 182.648C671.831 183.018 671.753 183.357 671.597 183.664C671.446 183.971 671.224 184.237 670.933 184.461C670.646 184.68 670.303 184.852 669.902 184.977C669.506 185.096 669.06 185.156 668.566 185.156C667.821 185.156 667.191 185.023 666.675 184.758C666.159 184.492 665.769 184.148 665.503 183.727C665.238 183.305 665.105 182.859 665.105 182.391H666.558C666.579 182.786 666.693 183.102 666.902 183.336C667.11 183.565 667.365 183.729 667.667 183.828C667.969 183.922 668.269 183.969 668.566 183.969C668.961 183.969 669.292 183.917 669.558 183.812C669.829 183.708 670.034 183.565 670.175 183.383C670.316 183.201 670.386 182.992 670.386 182.758Z" fill="white"/>
<rect x="496" y="203" width="229" height="46" rx="5" fill="#3A4C5B"/>
<rect x="496.5" y="203.5" width="228" height="45" rx="4.5" stroke="#4C4C66" stroke-opacity="0.1"/>
<path d="M567.833 221.047V231H566.534V221.047H567.833ZM571.032 221.047V222.127H563.342V221.047H571.032ZM574.103 230.234L576.161 223.604H577.514L574.548 232.142C574.479 232.324 574.388 232.52 574.274 232.729C574.165 232.944 574.024 233.146 573.85 233.338C573.677 233.529 573.468 233.684 573.221 233.803C572.98 233.926 572.691 233.987 572.353 233.987C572.253 233.987 572.125 233.974 571.971 233.946C571.816 233.919 571.706 233.896 571.642 233.878L571.636 232.853C571.672 232.857 571.729 232.862 571.806 232.866C571.888 232.875 571.945 232.88 571.977 232.88C572.264 232.88 572.508 232.841 572.709 232.764C572.909 232.691 573.078 232.565 573.215 232.388C573.356 232.215 573.477 231.975 573.577 231.67L574.103 230.234ZM572.593 223.604L574.513 229.346L574.842 230.679L573.932 231.144L571.212 223.604H572.593ZM580.121 225.025V233.844H578.849V223.604H580.011L580.121 225.025ZM585.104 227.24V227.384C585.104 227.922 585.04 228.421 584.913 228.881C584.785 229.337 584.598 229.733 584.352 230.07C584.111 230.408 583.812 230.67 583.457 230.856C583.101 231.043 582.693 231.137 582.233 231.137C581.764 231.137 581.349 231.059 580.989 230.904C580.629 230.749 580.324 230.524 580.073 230.228C579.822 229.931 579.622 229.576 579.471 229.161C579.325 228.746 579.225 228.279 579.171 227.76V226.994C579.225 226.447 579.328 225.957 579.478 225.524C579.629 225.091 579.827 224.722 580.073 224.417C580.324 224.107 580.627 223.872 580.982 223.713C581.337 223.549 581.748 223.467 582.212 223.467C582.677 223.467 583.09 223.558 583.45 223.74C583.81 223.918 584.113 224.173 584.359 224.506C584.605 224.839 584.79 225.237 584.913 225.702C585.04 226.162 585.104 226.675 585.104 227.24ZM583.833 227.384V227.24C583.833 226.871 583.794 226.525 583.716 226.201C583.639 225.873 583.518 225.586 583.354 225.34C583.195 225.089 582.99 224.893 582.739 224.752C582.488 224.606 582.19 224.533 581.843 224.533C581.524 224.533 581.246 224.588 581.009 224.697C580.777 224.807 580.579 224.955 580.415 225.142C580.251 225.324 580.116 225.534 580.011 225.771C579.911 226.003 579.836 226.244 579.786 226.495V228.266C579.877 228.585 580.004 228.885 580.169 229.168C580.333 229.446 580.551 229.672 580.825 229.845C581.098 230.013 581.442 230.098 581.857 230.098C582.199 230.098 582.493 230.027 582.739 229.886C582.99 229.74 583.195 229.542 583.354 229.291C583.518 229.04 583.639 228.753 583.716 228.43C583.794 228.102 583.833 227.753 583.833 227.384ZM589.987 231.137C589.472 231.137 589.005 231.05 588.585 230.877C588.171 230.699 587.813 230.451 587.512 230.132C587.216 229.813 586.988 229.435 586.829 228.997C586.669 228.56 586.589 228.081 586.589 227.562V227.274C586.589 226.673 586.678 226.137 586.856 225.668C587.034 225.194 587.275 224.793 587.58 224.465C587.886 224.137 588.232 223.888 588.62 223.72C589.007 223.551 589.408 223.467 589.823 223.467C590.351 223.467 590.807 223.558 591.19 223.74C591.577 223.923 591.894 224.178 592.14 224.506C592.386 224.829 592.568 225.212 592.687 225.654C592.805 226.092 592.865 226.57 592.865 227.09V227.657H587.341V226.625H591.6V226.529C591.582 226.201 591.513 225.882 591.395 225.572C591.281 225.262 591.099 225.007 590.848 224.807C590.597 224.606 590.256 224.506 589.823 224.506C589.536 224.506 589.271 224.567 589.03 224.69C588.788 224.809 588.581 224.987 588.408 225.224C588.234 225.461 588.1 225.75 588.004 226.092C587.909 226.434 587.861 226.828 587.861 227.274V227.562C587.861 227.912 587.909 228.243 588.004 228.553C588.105 228.858 588.248 229.127 588.435 229.359C588.626 229.592 588.857 229.774 589.125 229.906C589.399 230.038 589.709 230.104 590.055 230.104C590.502 230.104 590.88 230.013 591.19 229.831C591.5 229.649 591.771 229.405 592.003 229.1L592.769 229.708C592.609 229.95 592.407 230.18 592.161 230.398C591.914 230.617 591.611 230.795 591.251 230.932C590.896 231.068 590.474 231.137 589.987 231.137ZM602.575 229.735V225.928C602.575 225.636 602.516 225.383 602.397 225.169C602.284 224.95 602.11 224.782 601.878 224.663C601.646 224.545 601.358 224.485 601.017 224.485C600.698 224.485 600.417 224.54 600.176 224.649C599.939 224.759 599.752 224.902 599.615 225.08C599.483 225.258 599.417 225.449 599.417 225.654H598.152C598.152 225.39 598.221 225.128 598.357 224.868C598.494 224.608 598.69 224.374 598.945 224.164C599.205 223.95 599.515 223.781 599.875 223.658C600.24 223.531 600.645 223.467 601.092 223.467C601.63 223.467 602.104 223.558 602.514 223.74C602.928 223.923 603.252 224.198 603.484 224.567C603.721 224.932 603.84 225.39 603.84 225.941V229.387C603.84 229.633 603.86 229.895 603.901 230.173C603.947 230.451 604.013 230.69 604.1 230.891V231H602.78C602.716 230.854 602.666 230.66 602.63 230.419C602.593 230.173 602.575 229.945 602.575 229.735ZM602.794 226.516L602.808 227.404H601.529C601.169 227.404 600.848 227.434 600.565 227.493C600.283 227.548 600.046 227.632 599.854 227.746C599.663 227.86 599.517 228.004 599.417 228.177C599.317 228.345 599.267 228.544 599.267 228.771C599.267 229.004 599.319 229.216 599.424 229.407C599.529 229.599 599.686 229.751 599.896 229.865C600.11 229.975 600.372 230.029 600.682 230.029C601.069 230.029 601.411 229.947 601.707 229.783C602.003 229.619 602.238 229.419 602.411 229.182C602.589 228.945 602.685 228.715 602.698 228.491L603.238 229.1C603.206 229.291 603.12 229.503 602.979 229.735C602.837 229.968 602.648 230.191 602.411 230.405C602.179 230.615 601.901 230.79 601.577 230.932C601.258 231.068 600.898 231.137 600.497 231.137C599.996 231.137 599.556 231.039 599.178 230.843C598.804 230.647 598.512 230.385 598.303 230.057C598.098 229.724 597.995 229.353 597.995 228.942C597.995 228.546 598.073 228.197 598.228 227.896C598.382 227.591 598.606 227.338 598.897 227.138C599.189 226.933 599.54 226.778 599.95 226.673C600.36 226.568 600.818 226.516 601.324 226.516H602.794ZM610.966 225.183V231H609.702V223.604H610.898L610.966 225.183ZM610.666 227.021L610.139 227.001C610.144 226.495 610.219 226.028 610.365 225.6C610.511 225.167 610.716 224.791 610.98 224.472C611.244 224.153 611.559 223.907 611.923 223.733C612.293 223.556 612.7 223.467 613.147 223.467C613.512 223.467 613.84 223.517 614.131 223.617C614.423 223.713 614.671 223.868 614.877 224.082C615.086 224.296 615.246 224.574 615.355 224.916C615.464 225.253 615.519 225.666 615.519 226.153V231H614.248V226.14C614.248 225.752 614.191 225.442 614.077 225.21C613.963 224.973 613.796 224.802 613.578 224.697C613.359 224.588 613.09 224.533 612.771 224.533C612.457 224.533 612.17 224.599 611.91 224.731C611.655 224.864 611.434 225.046 611.247 225.278C611.064 225.511 610.921 225.777 610.816 226.078C610.716 226.374 610.666 226.689 610.666 227.021ZM622.165 229.291V223.604H623.437V231H622.227L622.165 229.291ZM622.405 227.732L622.931 227.719C622.931 228.211 622.879 228.667 622.774 229.086C622.674 229.501 622.51 229.861 622.282 230.166C622.054 230.471 621.755 230.711 621.386 230.884C621.017 231.052 620.568 231.137 620.039 231.137C619.679 231.137 619.349 231.084 619.048 230.979C618.752 230.875 618.497 230.713 618.283 230.494C618.068 230.275 617.902 229.991 617.784 229.64C617.67 229.289 617.613 228.867 617.613 228.375V223.604H618.877V228.389C618.877 228.721 618.914 228.997 618.987 229.216C619.064 229.43 619.167 229.601 619.294 229.729C619.426 229.852 619.572 229.938 619.732 229.988C619.896 230.038 620.065 230.063 620.238 230.063C620.775 230.063 621.202 229.961 621.516 229.756C621.83 229.546 622.056 229.266 622.193 228.915C622.334 228.56 622.405 228.165 622.405 227.732ZM626.822 225.073V231H625.551V223.604H626.754L626.822 225.073ZM626.563 227.021L625.975 227.001C625.979 226.495 626.045 226.028 626.173 225.6C626.301 225.167 626.49 224.791 626.74 224.472C626.991 224.153 627.303 223.907 627.677 223.733C628.051 223.556 628.484 223.467 628.976 223.467C629.322 223.467 629.641 223.517 629.933 223.617C630.224 223.713 630.477 223.866 630.692 224.075C630.906 224.285 631.072 224.554 631.191 224.882C631.309 225.21 631.368 225.606 631.368 226.071V231H630.104V226.133C630.104 225.745 630.038 225.436 629.905 225.203C629.778 224.971 629.596 224.802 629.359 224.697C629.122 224.588 628.844 224.533 628.525 224.533C628.151 224.533 627.839 224.599 627.588 224.731C627.337 224.864 627.137 225.046 626.987 225.278C626.836 225.511 626.727 225.777 626.658 226.078C626.595 226.374 626.563 226.689 626.563 227.021ZM631.355 226.324L630.507 226.584C630.512 226.178 630.578 225.789 630.705 225.415C630.837 225.041 631.027 224.709 631.273 224.417C631.523 224.125 631.831 223.895 632.196 223.727C632.56 223.553 632.977 223.467 633.446 223.467C633.843 223.467 634.194 223.519 634.499 223.624C634.809 223.729 635.069 223.891 635.279 224.109C635.493 224.324 635.654 224.599 635.764 224.937C635.873 225.274 635.928 225.675 635.928 226.14V231H634.656V226.126C634.656 225.711 634.59 225.39 634.458 225.162C634.331 224.93 634.148 224.768 633.911 224.677C633.679 224.581 633.401 224.533 633.077 224.533C632.799 224.533 632.553 224.581 632.339 224.677C632.125 224.772 631.945 224.905 631.799 225.073C631.653 225.237 631.542 225.426 631.464 225.641C631.391 225.855 631.355 226.083 631.355 226.324ZM638.035 220.5H639.307V229.564L639.197 231H638.035V220.5ZM644.304 227.24V227.384C644.304 227.922 644.24 228.421 644.112 228.881C643.985 229.337 643.798 229.733 643.552 230.07C643.306 230.408 643.005 230.67 642.649 230.856C642.294 231.043 641.886 231.137 641.426 231.137C640.956 231.137 640.544 231.057 640.188 230.897C639.838 230.733 639.541 230.499 639.3 230.193C639.058 229.888 638.865 229.519 638.719 229.086C638.577 228.653 638.479 228.165 638.425 227.623V226.994C638.479 226.447 638.577 225.957 638.719 225.524C638.865 225.091 639.058 224.722 639.3 224.417C639.541 224.107 639.838 223.872 640.188 223.713C640.539 223.549 640.947 223.467 641.412 223.467C641.877 223.467 642.289 223.558 642.649 223.74C643.009 223.918 643.31 224.173 643.552 224.506C643.798 224.839 643.985 225.237 644.112 225.702C644.24 226.162 644.304 226.675 644.304 227.24ZM643.032 227.384V227.24C643.032 226.871 642.998 226.525 642.93 226.201C642.861 225.873 642.752 225.586 642.602 225.34C642.451 225.089 642.253 224.893 642.007 224.752C641.761 224.606 641.458 224.533 641.098 224.533C640.779 224.533 640.501 224.588 640.264 224.697C640.031 224.807 639.833 224.955 639.669 225.142C639.505 225.324 639.37 225.534 639.266 225.771C639.165 226.003 639.09 226.244 639.04 226.495V228.143C639.113 228.462 639.231 228.769 639.396 229.065C639.564 229.357 639.787 229.596 640.065 229.783C640.348 229.97 640.697 230.063 641.111 230.063C641.453 230.063 641.745 229.995 641.986 229.858C642.232 229.717 642.431 229.523 642.581 229.277C642.736 229.031 642.85 228.746 642.923 228.423C642.996 228.099 643.032 227.753 643.032 227.384ZM649.173 231.137C648.658 231.137 648.191 231.05 647.771 230.877C647.357 230.699 646.999 230.451 646.698 230.132C646.402 229.813 646.174 229.435 646.014 228.997C645.855 228.56 645.775 228.081 645.775 227.562V227.274C645.775 226.673 645.864 226.137 646.042 225.668C646.22 225.194 646.461 224.793 646.766 224.465C647.072 224.137 647.418 223.888 647.805 223.72C648.193 223.551 648.594 223.467 649.009 223.467C649.537 223.467 649.993 223.558 650.376 223.74C650.763 223.923 651.08 224.178 651.326 224.506C651.572 224.829 651.754 225.212 651.873 225.654C651.991 226.092 652.051 226.57 652.051 227.09V227.657H646.527V226.625H650.786V226.529C650.768 226.201 650.699 225.882 650.581 225.572C650.467 225.262 650.285 225.007 650.034 224.807C649.783 224.606 649.442 224.506 649.009 224.506C648.721 224.506 648.457 224.567 648.216 224.69C647.974 224.809 647.767 224.987 647.594 225.224C647.42 225.461 647.286 225.75 647.19 226.092C647.095 226.434 647.047 226.828 647.047 227.274V227.562C647.047 227.912 647.095 228.243 647.19 228.553C647.29 228.858 647.434 229.127 647.621 229.359C647.812 229.592 648.042 229.774 648.311 229.906C648.585 230.038 648.895 230.104 649.241 230.104C649.688 230.104 650.066 230.013 650.376 229.831C650.686 229.649 650.957 229.405 651.189 229.1L651.955 229.708C651.795 229.95 651.593 230.18 651.346 230.398C651.1 230.617 650.797 230.795 650.437 230.932C650.082 231.068 649.66 231.137 649.173 231.137ZM654.992 224.766V231H653.727V223.604H654.958L654.992 224.766ZM657.302 223.562L657.296 224.738C657.191 224.715 657.09 224.702 656.995 224.697C656.904 224.688 656.799 224.684 656.68 224.684C656.389 224.684 656.131 224.729 655.908 224.82C655.685 224.911 655.495 225.039 655.34 225.203C655.185 225.367 655.062 225.563 654.971 225.791C654.885 226.014 654.828 226.26 654.8 226.529L654.445 226.734C654.445 226.288 654.488 225.868 654.575 225.477C654.666 225.085 654.805 224.738 654.992 224.438C655.179 224.132 655.416 223.895 655.703 223.727C655.994 223.553 656.341 223.467 656.742 223.467C656.833 223.467 656.938 223.478 657.056 223.501C657.175 223.519 657.257 223.54 657.302 223.562Z" fill="white" fill-opacity="0.46"/>
<rect x="496" y="265" width="229" height="46" rx="5" fill="#3A4C5B"/>
<rect x="496.5" y="265.5" width="228" height="45" rx="4.5" stroke="#4C4C66" stroke-opacity="0.1"/>
<path d="M567.833 283.047V293H566.534V283.047H567.833ZM571.032 283.047V284.127H563.342V283.047H571.032ZM574.103 292.234L576.161 285.604H577.514L574.548 294.142C574.479 294.324 574.388 294.52 574.274 294.729C574.165 294.944 574.024 295.146 573.85 295.338C573.677 295.529 573.468 295.684 573.221 295.803C572.98 295.926 572.691 295.987 572.353 295.987C572.253 295.987 572.125 295.974 571.971 295.946C571.816 295.919 571.706 295.896 571.642 295.878L571.636 294.853C571.672 294.857 571.729 294.862 571.806 294.866C571.888 294.875 571.945 294.88 571.977 294.88C572.264 294.88 572.508 294.841 572.709 294.764C572.909 294.691 573.078 294.565 573.215 294.388C573.356 294.215 573.477 293.975 573.577 293.67L574.103 292.234ZM572.593 285.604L574.513 291.346L574.842 292.679L573.932 293.144L571.212 285.604H572.593ZM580.121 287.025V295.844H578.849V285.604H580.011L580.121 287.025ZM585.104 289.24V289.384C585.104 289.922 585.04 290.421 584.913 290.881C584.785 291.337 584.598 291.733 584.352 292.07C584.111 292.408 583.812 292.67 583.457 292.856C583.101 293.043 582.693 293.137 582.233 293.137C581.764 293.137 581.349 293.059 580.989 292.904C580.629 292.749 580.324 292.524 580.073 292.228C579.822 291.931 579.622 291.576 579.471 291.161C579.325 290.746 579.225 290.279 579.171 289.76V288.994C579.225 288.447 579.328 287.957 579.478 287.524C579.629 287.091 579.827 286.722 580.073 286.417C580.324 286.107 580.627 285.872 580.982 285.713C581.337 285.549 581.748 285.467 582.212 285.467C582.677 285.467 583.09 285.558 583.45 285.74C583.81 285.918 584.113 286.173 584.359 286.506C584.605 286.839 584.79 287.237 584.913 287.702C585.04 288.162 585.104 288.675 585.104 289.24ZM583.833 289.384V289.24C583.833 288.871 583.794 288.525 583.716 288.201C583.639 287.873 583.518 287.586 583.354 287.34C583.195 287.089 582.99 286.893 582.739 286.752C582.488 286.606 582.19 286.533 581.843 286.533C581.524 286.533 581.246 286.588 581.009 286.697C580.777 286.807 580.579 286.955 580.415 287.142C580.251 287.324 580.116 287.534 580.011 287.771C579.911 288.003 579.836 288.244 579.786 288.495V290.266C579.877 290.585 580.004 290.885 580.169 291.168C580.333 291.446 580.551 291.672 580.825 291.845C581.098 292.013 581.442 292.098 581.857 292.098C582.199 292.098 582.493 292.027 582.739 291.886C582.99 291.74 583.195 291.542 583.354 291.291C583.518 291.04 583.639 290.753 583.716 290.43C583.794 290.102 583.833 289.753 583.833 289.384ZM589.987 293.137C589.472 293.137 589.005 293.05 588.585 292.877C588.171 292.699 587.813 292.451 587.512 292.132C587.216 291.813 586.988 291.435 586.829 290.997C586.669 290.56 586.589 290.081 586.589 289.562V289.274C586.589 288.673 586.678 288.137 586.856 287.668C587.034 287.194 587.275 286.793 587.58 286.465C587.886 286.137 588.232 285.888 588.62 285.72C589.007 285.551 589.408 285.467 589.823 285.467C590.351 285.467 590.807 285.558 591.19 285.74C591.577 285.923 591.894 286.178 592.14 286.506C592.386 286.829 592.568 287.212 592.687 287.654C592.805 288.092 592.865 288.57 592.865 289.09V289.657H587.341V288.625H591.6V288.529C591.582 288.201 591.513 287.882 591.395 287.572C591.281 287.262 591.099 287.007 590.848 286.807C590.597 286.606 590.256 286.506 589.823 286.506C589.536 286.506 589.271 286.567 589.03 286.69C588.788 286.809 588.581 286.987 588.408 287.224C588.234 287.461 588.1 287.75 588.004 288.092C587.909 288.434 587.861 288.828 587.861 289.274V289.562C587.861 289.912 587.909 290.243 588.004 290.553C588.105 290.858 588.248 291.127 588.435 291.359C588.626 291.592 588.857 291.774 589.125 291.906C589.399 292.038 589.709 292.104 590.055 292.104C590.502 292.104 590.88 292.013 591.19 291.831C591.5 291.649 591.771 291.405 592.003 291.1L592.769 291.708C592.609 291.95 592.407 292.18 592.161 292.398C591.914 292.617 591.611 292.795 591.251 292.932C590.896 293.068 590.474 293.137 589.987 293.137ZM602.575 291.735V287.928C602.575 287.636 602.516 287.383 602.397 287.169C602.284 286.95 602.11 286.782 601.878 286.663C601.646 286.545 601.358 286.485 601.017 286.485C600.698 286.485 600.417 286.54 600.176 286.649C599.939 286.759 599.752 286.902 599.615 287.08C599.483 287.258 599.417 287.449 599.417 287.654H598.152C598.152 287.39 598.221 287.128 598.357 286.868C598.494 286.608 598.69 286.374 598.945 286.164C599.205 285.95 599.515 285.781 599.875 285.658C600.24 285.531 600.645 285.467 601.092 285.467C601.63 285.467 602.104 285.558 602.514 285.74C602.928 285.923 603.252 286.198 603.484 286.567C603.721 286.932 603.84 287.39 603.84 287.941V291.387C603.84 291.633 603.86 291.895 603.901 292.173C603.947 292.451 604.013 292.69 604.1 292.891V293H602.78C602.716 292.854 602.666 292.66 602.63 292.419C602.593 292.173 602.575 291.945 602.575 291.735ZM602.794 288.516L602.808 289.404H601.529C601.169 289.404 600.848 289.434 600.565 289.493C600.283 289.548 600.046 289.632 599.854 289.746C599.663 289.86 599.517 290.004 599.417 290.177C599.317 290.345 599.267 290.544 599.267 290.771C599.267 291.004 599.319 291.216 599.424 291.407C599.529 291.599 599.686 291.751 599.896 291.865C600.11 291.975 600.372 292.029 600.682 292.029C601.069 292.029 601.411 291.947 601.707 291.783C602.003 291.619 602.238 291.419 602.411 291.182C602.589 290.945 602.685 290.715 602.698 290.491L603.238 291.1C603.206 291.291 603.12 291.503 602.979 291.735C602.837 291.968 602.648 292.191 602.411 292.405C602.179 292.615 601.901 292.79 601.577 292.932C601.258 293.068 600.898 293.137 600.497 293.137C599.996 293.137 599.556 293.039 599.178 292.843C598.804 292.647 598.512 292.385 598.303 292.057C598.098 291.724 597.995 291.353 597.995 290.942C597.995 290.546 598.073 290.197 598.228 289.896C598.382 289.591 598.606 289.338 598.897 289.138C599.189 288.933 599.54 288.778 599.95 288.673C600.36 288.568 600.818 288.516 601.324 288.516H602.794ZM610.966 287.183V293H609.702V285.604H610.898L610.966 287.183ZM610.666 289.021L610.139 289.001C610.144 288.495 610.219 288.028 610.365 287.6C610.511 287.167 610.716 286.791 610.98 286.472C611.244 286.153 611.559 285.907 611.923 285.733C612.293 285.556 612.7 285.467 613.147 285.467C613.512 285.467 613.84 285.517 614.131 285.617C614.423 285.713 614.671 285.868 614.877 286.082C615.086 286.296 615.246 286.574 615.355 286.916C615.464 287.253 615.519 287.666 615.519 288.153V293H614.248V288.14C614.248 287.752 614.191 287.442 614.077 287.21C613.963 286.973 613.796 286.802 613.578 286.697C613.359 286.588 613.09 286.533 612.771 286.533C612.457 286.533 612.17 286.599 611.91 286.731C611.655 286.864 611.434 287.046 611.247 287.278C611.064 287.511 610.921 287.777 610.816 288.078C610.716 288.374 610.666 288.689 610.666 289.021ZM622.165 291.291V285.604H623.437V293H622.227L622.165 291.291ZM622.405 289.732L622.931 289.719C622.931 290.211 622.879 290.667 622.774 291.086C622.674 291.501 622.51 291.861 622.282 292.166C622.054 292.471 621.755 292.711 621.386 292.884C621.017 293.052 620.568 293.137 620.039 293.137C619.679 293.137 619.349 293.084 619.048 292.979C618.752 292.875 618.497 292.713 618.283 292.494C618.068 292.275 617.902 291.991 617.784 291.64C617.67 291.289 617.613 290.867 617.613 290.375V285.604H618.877V290.389C618.877 290.721 618.914 290.997 618.987 291.216C619.064 291.43 619.167 291.601 619.294 291.729C619.426 291.852 619.572 291.938 619.732 291.988C619.896 292.038 620.065 292.063 620.238 292.063C620.775 292.063 621.202 291.961 621.516 291.756C621.83 291.546 622.056 291.266 622.193 290.915C622.334 290.56 622.405 290.165 622.405 289.732ZM626.822 287.073V293H625.551V285.604H626.754L626.822 287.073ZM626.563 289.021L625.975 289.001C625.979 288.495 626.045 288.028 626.173 287.6C626.301 287.167 626.49 286.791 626.74 286.472C626.991 286.153 627.303 285.907 627.677 285.733C628.051 285.556 628.484 285.467 628.976 285.467C629.322 285.467 629.641 285.517 629.933 285.617C630.224 285.713 630.477 285.866 630.692 286.075C630.906 286.285 631.072 286.554 631.191 286.882C631.309 287.21 631.368 287.606 631.368 288.071V293H630.104V288.133C630.104 287.745 630.038 287.436 629.905 287.203C629.778 286.971 629.596 286.802 629.359 286.697C629.122 286.588 628.844 286.533 628.525 286.533C628.151 286.533 627.839 286.599 627.588 286.731C627.337 286.864 627.137 287.046 626.987 287.278C626.836 287.511 626.727 287.777 626.658 288.078C626.595 288.374 626.563 288.689 626.563 289.021ZM631.355 288.324L630.507 288.584C630.512 288.178 630.578 287.789 630.705 287.415C630.837 287.041 631.027 286.709 631.273 286.417C631.523 286.125 631.831 285.895 632.196 285.727C632.56 285.553 632.977 285.467 633.446 285.467C633.843 285.467 634.194 285.519 634.499 285.624C634.809 285.729 635.069 285.891 635.279 286.109C635.493 286.324 635.654 286.599 635.764 286.937C635.873 287.274 635.928 287.675 635.928 288.14V293H634.656V288.126C634.656 287.711 634.59 287.39 634.458 287.162C634.331 286.93 634.148 286.768 633.911 286.677C633.679 286.581 633.401 286.533 633.077 286.533C632.799 286.533 632.553 286.581 632.339 286.677C632.125 286.772 631.945 286.905 631.799 287.073C631.653 287.237 631.542 287.426 631.464 287.641C631.391 287.855 631.355 288.083 631.355 288.324ZM638.035 282.5H639.307V291.564L639.197 293H638.035V282.5ZM644.304 289.24V289.384C644.304 289.922 644.24 290.421 644.112 290.881C643.985 291.337 643.798 291.733 643.552 292.07C643.306 292.408 643.005 292.67 642.649 292.856C642.294 293.043 641.886 293.137 641.426 293.137C640.956 293.137 640.544 293.057 640.188 292.897C639.838 292.733 639.541 292.499 639.3 292.193C639.058 291.888 638.865 291.519 638.719 291.086C638.577 290.653 638.479 290.165 638.425 289.623V288.994C638.479 288.447 638.577 287.957 638.719 287.524C638.865 287.091 639.058 286.722 639.3 286.417C639.541 286.107 639.838 285.872 640.188 285.713C640.539 285.549 640.947 285.467 641.412 285.467C641.877 285.467 642.289 285.558 642.649 285.74C643.009 285.918 643.31 286.173 643.552 286.506C643.798 286.839 643.985 287.237 644.112 287.702C644.24 288.162 644.304 288.675 644.304 289.24ZM643.032 289.384V289.24C643.032 288.871 642.998 288.525 642.93 288.201C642.861 287.873 642.752 287.586 642.602 287.34C642.451 287.089 642.253 286.893 642.007 286.752C641.761 286.606 641.458 286.533 641.098 286.533C640.779 286.533 640.501 286.588 640.264 286.697C640.031 286.807 639.833 286.955 639.669 287.142C639.505 287.324 639.37 287.534 639.266 287.771C639.165 288.003 639.09 288.244 639.04 288.495V290.143C639.113 290.462 639.231 290.769 639.396 291.065C639.564 291.357 639.787 291.596 640.065 291.783C640.348 291.97 640.697 292.063 641.111 292.063C641.453 292.063 641.745 291.995 641.986 291.858C642.232 291.717 642.431 291.523 642.581 291.277C642.736 291.031 642.85 290.746 642.923 290.423C642.996 290.099 643.032 289.753 643.032 289.384ZM649.173 293.137C648.658 293.137 648.191 293.05 647.771 292.877C647.357 292.699 646.999 292.451 646.698 292.132C646.402 291.813 646.174 291.435 646.014 290.997C645.855 290.56 645.775 290.081 645.775 289.562V289.274C645.775 288.673 645.864 288.137 646.042 287.668C646.22 287.194 646.461 286.793 646.766 286.465C647.072 286.137 647.418 285.888 647.805 285.72C648.193 285.551 648.594 285.467 649.009 285.467C649.537 285.467 649.993 285.558 650.376 285.74C650.763 285.923 651.08 286.178 651.326 286.506C651.572 286.829 651.754 287.212 651.873 287.654C651.991 288.092 652.051 288.57 652.051 289.09V289.657H646.527V288.625H650.786V288.529C650.768 288.201 650.699 287.882 650.581 287.572C650.467 287.262 650.285 287.007 650.034 286.807C649.783 286.606 649.442 286.506 649.009 286.506C648.721 286.506 648.457 286.567 648.216 286.69C647.974 286.809 647.767 286.987 647.594 287.224C647.42 287.461 647.286 287.75 647.19 288.092C647.095 288.434 647.047 288.828 647.047 289.274V289.562C647.047 289.912 647.095 290.243 647.19 290.553C647.29 290.858 647.434 291.127 647.621 291.359C647.812 291.592 648.042 291.774 648.311 291.906C648.585 292.038 648.895 292.104 649.241 292.104C649.688 292.104 650.066 292.013 650.376 291.831C650.686 291.649 650.957 291.405 651.189 291.1L651.955 291.708C651.795 291.95 651.593 292.18 651.346 292.398C651.1 292.617 650.797 292.795 650.437 292.932C650.082 293.068 649.66 293.137 649.173 293.137ZM654.992 286.766V293H653.727V285.604H654.958L654.992 286.766ZM657.302 285.562L657.296 286.738C657.191 286.715 657.09 286.702 656.995 286.697C656.904 286.688 656.799 286.684 656.68 286.684C656.389 286.684 656.131 286.729 655.908 286.82C655.685 286.911 655.495 287.039 655.34 287.203C655.185 287.367 655.062 287.563 654.971 287.791C654.885 288.014 654.828 288.26 654.8 288.529L654.445 288.734C654.445 288.288 654.488 287.868 654.575 287.477C654.666 287.085 654.805 286.738 654.992 286.438C655.179 286.132 655.416 285.895 655.703 285.727C655.994 285.553 656.341 285.467 656.742 285.467C656.833 285.467 656.938 285.478 657.056 285.501C657.175 285.519 657.257 285.54 657.302 285.562Z" fill="white" fill-opacity="0.46"/>
<rect x="496" y="327" width="229" height="46" rx="5" fill="#3A4C5B"/>
<rect x="496.5" y="327.5" width="228" height="45" rx="4.5" stroke="#4C4C66" stroke-opacity="0.1"/>
<path d="M567.833 345.047V355H566.534V345.047H567.833ZM571.032 345.047V346.127H563.342V345.047H571.032ZM574.103 354.234L576.161 347.604H577.514L574.548 356.142C574.479 356.324 574.388 356.52 574.274 356.729C574.165 356.944 574.024 357.146 573.85 357.338C573.677 357.529 573.468 357.684 573.221 357.803C572.98 357.926 572.691 357.987 572.353 357.987C572.253 357.987 572.125 357.974 571.971 357.946C571.816 357.919 571.706 357.896 571.642 357.878L571.636 356.853C571.672 356.857 571.729 356.862 571.806 356.866C571.888 356.875 571.945 356.88 571.977 356.88C572.264 356.88 572.508 356.841 572.709 356.764C572.909 356.691 573.078 356.565 573.215 356.388C573.356 356.215 573.477 355.975 573.577 355.67L574.103 354.234ZM572.593 347.604L574.513 353.346L574.842 354.679L573.932 355.144L571.212 347.604H572.593ZM580.121 349.025V357.844H578.849V347.604H580.011L580.121 349.025ZM585.104 351.24V351.384C585.104 351.922 585.04 352.421 584.913 352.881C584.785 353.337 584.598 353.733 584.352 354.07C584.111 354.408 583.812 354.67 583.457 354.856C583.101 355.043 582.693 355.137 582.233 355.137C581.764 355.137 581.349 355.059 580.989 354.904C580.629 354.749 580.324 354.524 580.073 354.228C579.822 353.931 579.622 353.576 579.471 353.161C579.325 352.746 579.225 352.279 579.171 351.76V350.994C579.225 350.447 579.328 349.957 579.478 349.524C579.629 349.091 579.827 348.722 580.073 348.417C580.324 348.107 580.627 347.872 580.982 347.713C581.337 347.549 581.748 347.467 582.212 347.467C582.677 347.467 583.09 347.558 583.45 347.74C583.81 347.918 584.113 348.173 584.359 348.506C584.605 348.839 584.79 349.237 584.913 349.702C585.04 350.162 585.104 350.675 585.104 351.24ZM583.833 351.384V351.24C583.833 350.871 583.794 350.525 583.716 350.201C583.639 349.873 583.518 349.586 583.354 349.34C583.195 349.089 582.99 348.893 582.739 348.752C582.488 348.606 582.19 348.533 581.843 348.533C581.524 348.533 581.246 348.588 581.009 348.697C580.777 348.807 580.579 348.955 580.415 349.142C580.251 349.324 580.116 349.534 580.011 349.771C579.911 350.003 579.836 350.244 579.786 350.495V352.266C579.877 352.585 580.004 352.885 580.169 353.168C580.333 353.446 580.551 353.672 580.825 353.845C581.098 354.013 581.442 354.098 581.857 354.098C582.199 354.098 582.493 354.027 582.739 353.886C582.99 353.74 583.195 353.542 583.354 353.291C583.518 353.04 583.639 352.753 583.716 352.43C583.794 352.102 583.833 351.753 583.833 351.384ZM589.987 355.137C589.472 355.137 589.005 355.05 588.585 354.877C588.171 354.699 587.813 354.451 587.512 354.132C587.216 353.813 586.988 353.435 586.829 352.997C586.669 352.56 586.589 352.081 586.589 351.562V351.274C586.589 350.673 586.678 350.137 586.856 349.668C587.034 349.194 587.275 348.793 587.58 348.465C587.886 348.137 588.232 347.888 588.62 347.72C589.007 347.551 589.408 347.467 589.823 347.467C590.351 347.467 590.807 347.558 591.19 347.74C591.577 347.923 591.894 348.178 592.14 348.506C592.386 348.829 592.568 349.212 592.687 349.654C592.805 350.092 592.865 350.57 592.865 351.09V351.657H587.341V350.625H591.6V350.529C591.582 350.201 591.513 349.882 591.395 349.572C591.281 349.262 591.099 349.007 590.848 348.807C590.597 348.606 590.256 348.506 589.823 348.506C589.536 348.506 589.271 348.567 589.03 348.69C588.788 348.809 588.581 348.987 588.408 349.224C588.234 349.461 588.1 349.75 588.004 350.092C587.909 350.434 587.861 350.828 587.861 351.274V351.562C587.861 351.912 587.909 352.243 588.004 352.553C588.105 352.858 588.248 353.127 588.435 353.359C588.626 353.592 588.857 353.774 589.125 353.906C589.399 354.038 589.709 354.104 590.055 354.104C590.502 354.104 590.88 354.013 591.19 353.831C591.5 353.649 591.771 353.405 592.003 353.1L592.769 353.708C592.609 353.95 592.407 354.18 592.161 354.398C591.914 354.617 591.611 354.795 591.251 354.932C590.896 355.068 590.474 355.137 589.987 355.137ZM602.575 353.735V349.928C602.575 349.636 602.516 349.383 602.397 349.169C602.284 348.95 602.11 348.782 601.878 348.663C601.646 348.545 601.358 348.485 601.017 348.485C600.698 348.485 600.417 348.54 600.176 348.649C599.939 348.759 599.752 348.902 599.615 349.08C599.483 349.258 599.417 349.449 599.417 349.654H598.152C598.152 349.39 598.221 349.128 598.357 348.868C598.494 348.608 598.69 348.374 598.945 348.164C599.205 347.95 599.515 347.781 599.875 347.658C600.24 347.531 600.645 347.467 601.092 347.467C601.63 347.467 602.104 347.558 602.514 347.74C602.928 347.923 603.252 348.198 603.484 348.567C603.721 348.932 603.84 349.39 603.84 349.941V353.387C603.84 353.633 603.86 353.895 603.901 354.173C603.947 354.451 604.013 354.69 604.1 354.891V355H602.78C602.716 354.854 602.666 354.66 602.63 354.419C602.593 354.173 602.575 353.945 602.575 353.735ZM602.794 350.516L602.808 351.404H601.529C601.169 351.404 600.848 351.434 600.565 351.493C600.283 351.548 600.046 351.632 599.854 351.746C599.663 351.86 599.517 352.004 599.417 352.177C599.317 352.345 599.267 352.544 599.267 352.771C599.267 353.004 599.319 353.216 599.424 353.407C599.529 353.599 599.686 353.751 599.896 353.865C600.11 353.975 600.372 354.029 600.682 354.029C601.069 354.029 601.411 353.947 601.707 353.783C602.003 353.619 602.238 353.419 602.411 353.182C602.589 352.945 602.685 352.715 602.698 352.491L603.238 353.1C603.206 353.291 603.12 353.503 602.979 353.735C602.837 353.968 602.648 354.191 602.411 354.405C602.179 354.615 601.901 354.79 601.577 354.932C601.258 355.068 600.898 355.137 600.497 355.137C599.996 355.137 599.556 355.039 599.178 354.843C598.804 354.647 598.512 354.385 598.303 354.057C598.098 353.724 597.995 353.353 597.995 352.942C597.995 352.546 598.073 352.197 598.228 351.896C598.382 351.591 598.606 351.338 598.897 351.138C599.189 350.933 599.54 350.778 599.95 350.673C600.36 350.568 600.818 350.516 601.324 350.516H602.794ZM610.966 349.183V355H609.702V347.604H610.898L610.966 349.183ZM610.666 351.021L610.139 351.001C610.144 350.495 610.219 350.028 610.365 349.6C610.511 349.167 610.716 348.791 610.98 348.472C611.244 348.153 611.559 347.907 611.923 347.733C612.293 347.556 612.7 347.467 613.147 347.467C613.512 347.467 613.84 347.517 614.131 347.617C614.423 347.713 614.671 347.868 614.877 348.082C615.086 348.296 615.246 348.574 615.355 348.916C615.464 349.253 615.519 349.666 615.519 350.153V355H614.248V350.14C614.248 349.752 614.191 349.442 614.077 349.21C613.963 348.973 613.796 348.802 613.578 348.697C613.359 348.588 613.09 348.533 612.771 348.533C612.457 348.533 612.17 348.599 611.91 348.731C611.655 348.864 611.434 349.046 611.247 349.278C611.064 349.511 610.921 349.777 610.816 350.078C610.716 350.374 610.666 350.689 610.666 351.021ZM622.165 353.291V347.604H623.437V355H622.227L622.165 353.291ZM622.405 351.732L622.931 351.719C622.931 352.211 622.879 352.667 622.774 353.086C622.674 353.501 622.51 353.861 622.282 354.166C622.054 354.471 621.755 354.711 621.386 354.884C621.017 355.052 620.568 355.137 620.039 355.137C619.679 355.137 619.349 355.084 619.048 354.979C618.752 354.875 618.497 354.713 618.283 354.494C618.068 354.275 617.902 353.991 617.784 353.64C617.67 353.289 617.613 352.867 617.613 352.375V347.604H618.877V352.389C618.877 352.721 618.914 352.997 618.987 353.216C619.064 353.43 619.167 353.601 619.294 353.729C619.426 353.852 619.572 353.938 619.732 353.988C619.896 354.038 620.065 354.063 620.238 354.063C620.775 354.063 621.202 353.961 621.516 353.756C621.83 353.546 622.056 353.266 622.193 352.915C622.334 352.56 622.405 352.165 622.405 351.732ZM626.822 349.073V355H625.551V347.604H626.754L626.822 349.073ZM626.563 351.021L625.975 351.001C625.979 350.495 626.045 350.028 626.173 349.6C626.301 349.167 626.49 348.791 626.74 348.472C626.991 348.153 627.303 347.907 627.677 347.733C628.051 347.556 628.484 347.467 628.976 347.467C629.322 347.467 629.641 347.517 629.933 347.617C630.224 347.713 630.477 347.866 630.692 348.075C630.906 348.285 631.072 348.554 631.191 348.882C631.309 349.21 631.368 349.606 631.368 350.071V355H630.104V350.133C630.104 349.745 630.038 349.436 629.905 349.203C629.778 348.971 629.596 348.802 629.359 348.697C629.122 348.588 628.844 348.533 628.525 348.533C628.151 348.533 627.839 348.599 627.588 348.731C627.337 348.864 627.137 349.046 626.987 349.278C626.836 349.511 626.727 349.777 626.658 350.078C626.595 350.374 626.563 350.689 626.563 351.021ZM631.355 350.324L630.507 350.584C630.512 350.178 630.578 349.789 630.705 349.415C630.837 349.041 631.027 348.709 631.273 348.417C631.523 348.125 631.831 347.895 632.196 347.727C632.56 347.553 632.977 347.467 633.446 347.467C633.843 347.467 634.194 347.519 634.499 347.624C634.809 347.729 635.069 347.891 635.279 348.109C635.493 348.324 635.654 348.599 635.764 348.937C635.873 349.274 635.928 349.675 635.928 350.14V355H634.656V350.126C634.656 349.711 634.59 349.39 634.458 349.162C634.331 348.93 634.148 348.768 633.911 348.677C633.679 348.581 633.401 348.533 633.077 348.533C632.799 348.533 632.553 348.581 632.339 348.677C632.125 348.772 631.945 348.905 631.799 349.073C631.653 349.237 631.542 349.426 631.464 349.641C631.391 349.855 631.355 350.083 631.355 350.324ZM638.035 344.5H639.307V353.564L639.197 355H638.035V344.5ZM644.304 351.24V351.384C644.304 351.922 644.24 352.421 644.112 352.881C643.985 353.337 643.798 353.733 643.552 354.07C643.306 354.408 643.005 354.67 642.649 354.856C642.294 355.043 641.886 355.137 641.426 355.137C640.956 355.137 640.544 355.057 640.188 354.897C639.838 354.733 639.541 354.499 639.3 354.193C639.058 353.888 638.865 353.519 638.719 353.086C638.577 352.653 638.479 352.165 638.425 351.623V350.994C638.479 350.447 638.577 349.957 638.719 349.524C638.865 349.091 639.058 348.722 639.3 348.417C639.541 348.107 639.838 347.872 640.188 347.713C640.539 347.549 640.947 347.467 641.412 347.467C641.877 347.467 642.289 347.558 642.649 347.74C643.009 347.918 643.31 348.173 643.552 348.506C643.798 348.839 643.985 349.237 644.112 349.702C644.24 350.162 644.304 350.675 644.304 351.24ZM643.032 351.384V351.24C643.032 350.871 642.998 350.525 642.93 350.201C642.861 349.873 642.752 349.586 642.602 349.34C642.451 349.089 642.253 348.893 642.007 348.752C641.761 348.606 641.458 348.533 641.098 348.533C640.779 348.533 640.501 348.588 640.264 348.697C640.031 348.807 639.833 348.955 639.669 349.142C639.505 349.324 639.37 349.534 639.266 349.771C639.165 350.003 639.09 350.244 639.04 350.495V352.143C639.113 352.462 639.231 352.769 639.396 353.065C639.564 353.357 639.787 353.596 640.065 353.783C640.348 353.97 640.697 354.063 641.111 354.063C641.453 354.063 641.745 353.995 641.986 353.858C642.232 353.717 642.431 353.523 642.581 353.277C642.736 353.031 642.85 352.746 642.923 352.423C642.996 352.099 643.032 351.753 643.032 351.384ZM649.173 355.137C648.658 355.137 648.191 355.05 647.771 354.877C647.357 354.699 646.999 354.451 646.698 354.132C646.402 353.813 646.174 353.435 646.014 352.997C645.855 352.56 645.775 352.081 645.775 351.562V351.274C645.775 350.673 645.864 350.137 646.042 349.668C646.22 349.194 646.461 348.793 646.766 348.465C647.072 348.137 647.418 347.888 647.805 347.72C648.193 347.551 648.594 347.467 649.009 347.467C649.537 347.467 649.993 347.558 650.376 347.74C650.763 347.923 651.08 348.178 651.326 348.506C651.572 348.829 651.754 349.212 651.873 349.654C651.991 350.092 652.051 350.57 652.051 351.09V351.657H646.527V350.625H650.786V350.529C650.768 350.201 650.699 349.882 650.581 349.572C650.467 349.262 650.285 349.007 650.034 348.807C649.783 348.606 649.442 348.506 649.009 348.506C648.721 348.506 648.457 348.567 648.216 348.69C647.974 348.809 647.767 348.987 647.594 349.224C647.42 349.461 647.286 349.75 647.19 350.092C647.095 350.434 647.047 350.828 647.047 351.274V351.562C647.047 351.912 647.095 352.243 647.19 352.553C647.29 352.858 647.434 353.127 647.621 353.359C647.812 353.592 648.042 353.774 648.311 353.906C648.585 354.038 648.895 354.104 649.241 354.104C649.688 354.104 650.066 354.013 650.376 353.831C650.686 353.649 650.957 353.405 651.189 353.1L651.955 353.708C651.795 353.95 651.593 354.18 651.346 354.398C651.1 354.617 650.797 354.795 650.437 354.932C650.082 355.068 649.66 355.137 649.173 355.137ZM654.992 348.766V355H653.727V347.604H654.958L654.992 348.766ZM657.302 347.562L657.296 348.738C657.191 348.715 657.09 348.702 656.995 348.697C656.904 348.688 656.799 348.684 656.68 348.684C656.389 348.684 656.131 348.729 655.908 348.82C655.685 348.911 655.495 349.039 655.34 349.203C655.185 349.367 655.062 349.563 654.971 349.791C654.885 350.014 654.828 350.26 654.8 350.529L654.445 350.734C654.445 350.288 654.488 349.868 654.575 349.477C654.666 349.085 654.805 348.738 654.992 348.438C655.179 348.132 655.416 347.895 655.703 347.727C655.994 347.553 656.341 347.467 656.742 347.467C656.833 347.467 656.938 347.478 657.056 347.501C657.175 347.519 657.257 347.54 657.302 347.562Z" fill="white" fill-opacity="0.46"/>
</g>
<defs>
<filter id="filter0_d_202_601" x="438" y="0" width="356" height="457" filterUnits="userSpaceOnUse" color-interpolation-filters="sRGB">
<feFlood flood-opacity="0" result="BackgroundImageFix"/>
<feColorMatrix in="SourceAlpha" type="matrix" values="0 0 0 0 0 0 0 0 0 0 0 0 0 0 0 0 0 0 127 0" result="hardAlpha"/>
<feOffset dy="18"/>
<feGaussianBlur stdDeviation="19"/>
<feComposite in2="hardAlpha" operator="out"/>
<feColorMatrix type="matrix" values="0 0 0 0 0.0862745 0 0 0 0 0.113725 0 0 0 0 0.141176 0 0 0 0.08 0"/>
<feBlend mode="normal" in2="BackgroundImageFix" result="effect1_dropShadow_202_601"/>
<feBlend mode="normal" in="SourceGraphic" in2="effect1_dropShadow_202_601" result="shape"/>
</filter>
</defs>
</svg>
