<svg width="235" height="187" viewBox="0 0 235 187" fill="none" xmlns="http://www.w3.org/2000/svg">
<path d="M24.0742 151.939C30.5498 152.526 43.4303 151.108 48.9805 145.903C52.4673 142.634 54.7089 139.113 58.6939 125.784L72.3923 56.3704L80.8605 16.6339C81.3586 14.8734 81.6076 13.1129 82.6039 11.3524C83.2217 10.2606 86.0908 5.56802 89.0795 11.6039C91.4705 16.4327 94.3928 30.3823 95.5551 36.7536L100.785 66.6817L112.242 126.035C113.986 134.837 117.871 141.527 120.461 144.143C123.699 147.412 126.439 151.436 136.401 151.436C144.371 151.436 161.308 151.604 168.779 151.688" stroke="white"/>
<path d="M22.8477 7.97119V152.063H232.548" stroke="#82A0CB"/>
<path d="M1.92 17.04C1.504 17.04 1.20533 16.96 1.024 16.8C0.832 16.6507 0.714667 16.4587 0.672 16.224C0.992 16.1813 1.264 16.096 1.488 15.968C1.712 15.84 1.904 15.648 2.064 15.392C2.224 15.136 2.36267 14.8 2.48 14.384C2.59733 13.968 2.71467 13.4613 2.832 12.864L4.032 6.32H5.856L4.416 13.664C4.27733 14.368 4.096 14.9707 3.872 15.472C3.648 15.984 3.376 16.3733 3.056 16.64C2.736 16.9067 2.35733 17.04 1.92 17.04ZM2.848 6.56L2.992 5.84H4.112L4.336 4.976C4.48533 4.4 4.69867 3.93067 4.976 3.568C5.264 3.19467 5.62667 2.92267 6.064 2.752C6.50133 2.57067 7.008 2.48 7.584 2.48C7.872 2.48 8.14933 2.50667 8.416 2.56C8.68267 2.60267 8.91733 2.67733 9.12 2.784C9.32267 2.89067 9.48267 3.02933 9.6 3.2C9.71733 3.36 9.776 3.55733 9.776 3.792C9.776 4.15467 9.65333 4.432 9.408 4.624C9.16267 4.80533 8.87467 4.896 8.544 4.896C8.42667 4.896 8.304 4.88533 8.176 4.864C8.05867 4.832 7.95733 4.784 7.872 4.72C7.936 4.60267 7.98933 4.48 8.032 4.352C8.07467 4.21333 8.096 4.06933 8.096 3.92C8.096 3.696 8.03733 3.52 7.92 3.392C7.81333 3.25333 7.63733 3.184 7.392 3.184C7.008 3.184 6.72 3.344 6.528 3.664C6.34667 3.97333 6.21867 4.336 6.144 4.752L5.952 5.84H7.36L7.264 6.56H2.848Z" fill="white"/>
<path d="M28.9121 161.797V163.098C28.9121 163.797 28.8496 164.387 28.7246 164.867C28.5996 165.348 28.4199 165.734 28.1855 166.027C27.9512 166.32 27.668 166.533 27.3359 166.666C27.0078 166.795 26.6367 166.859 26.2227 166.859C25.8945 166.859 25.5918 166.818 25.3145 166.736C25.0371 166.654 24.7871 166.523 24.5645 166.344C24.3457 166.16 24.1582 165.922 24.002 165.629C23.8457 165.336 23.7266 164.98 23.6445 164.562C23.5625 164.145 23.5215 163.656 23.5215 163.098V161.797C23.5215 161.098 23.584 160.512 23.709 160.039C23.8379 159.566 24.0195 159.188 24.2539 158.902C24.4883 158.613 24.7695 158.406 25.0977 158.281C25.4297 158.156 25.8008 158.094 26.2109 158.094C26.543 158.094 26.8477 158.135 27.125 158.217C27.4062 158.295 27.6562 158.422 27.875 158.598C28.0938 158.77 28.2793 159 28.4316 159.289C28.5879 159.574 28.707 159.924 28.7891 160.338C28.8711 160.752 28.9121 161.238 28.9121 161.797ZM27.8223 163.273V161.615C27.8223 161.232 27.7988 160.896 27.752 160.607C27.709 160.314 27.6445 160.064 27.5586 159.857C27.4727 159.65 27.3633 159.482 27.2305 159.354C27.1016 159.225 26.9512 159.131 26.7793 159.072C26.6113 159.01 26.4219 158.979 26.2109 158.979C25.9531 158.979 25.7246 159.027 25.5254 159.125C25.3262 159.219 25.1582 159.369 25.0215 159.576C24.8887 159.783 24.7871 160.055 24.7168 160.391C24.6465 160.727 24.6113 161.135 24.6113 161.615V163.273C24.6113 163.656 24.6328 163.994 24.6758 164.287C24.7227 164.58 24.791 164.834 24.8809 165.049C24.9707 165.26 25.0801 165.434 25.209 165.57C25.3379 165.707 25.4863 165.809 25.6543 165.875C25.8262 165.938 26.0156 165.969 26.2227 165.969C26.4883 165.969 26.7207 165.918 26.9199 165.816C27.1191 165.715 27.2852 165.557 27.418 165.342C27.5547 165.123 27.6562 164.844 27.7227 164.504C27.7891 164.16 27.8223 163.75 27.8223 163.273Z" fill="white"/>
<path d="M222.104 158.164V166.742H221.02V159.518L218.834 160.314V159.336L221.934 158.164H222.104ZM230.846 161.797V163.098C230.846 163.797 230.784 164.387 230.659 164.867C230.534 165.348 230.354 165.734 230.12 166.027C229.886 166.32 229.602 166.533 229.27 166.666C228.942 166.795 228.571 166.859 228.157 166.859C227.829 166.859 227.526 166.818 227.249 166.736C226.971 166.654 226.721 166.523 226.499 166.344C226.28 166.16 226.093 165.922 225.936 165.629C225.78 165.336 225.661 164.98 225.579 164.562C225.497 164.145 225.456 163.656 225.456 163.098V161.797C225.456 161.098 225.518 160.512 225.643 160.039C225.772 159.566 225.954 159.188 226.188 158.902C226.423 158.613 226.704 158.406 227.032 158.281C227.364 158.156 227.735 158.094 228.145 158.094C228.477 158.094 228.782 158.135 229.059 158.217C229.341 158.295 229.591 158.422 229.809 158.598C230.028 158.77 230.214 159 230.366 159.289C230.522 159.574 230.641 159.924 230.723 160.338C230.805 160.752 230.846 161.238 230.846 161.797ZM229.757 163.273V161.615C229.757 161.232 229.733 160.896 229.686 160.607C229.643 160.314 229.579 160.064 229.493 159.857C229.407 159.65 229.298 159.482 229.165 159.354C229.036 159.225 228.886 159.131 228.714 159.072C228.546 159.01 228.356 158.979 228.145 158.979C227.887 158.979 227.659 159.027 227.46 159.125C227.261 159.219 227.093 159.369 226.956 159.576C226.823 159.783 226.721 160.055 226.651 160.391C226.581 160.727 226.546 161.135 226.546 161.615V163.273C226.546 163.656 226.567 163.994 226.61 164.287C226.657 164.58 226.725 164.834 226.815 165.049C226.905 165.26 227.014 165.434 227.143 165.57C227.272 165.707 227.421 165.809 227.589 165.875C227.761 165.938 227.95 165.969 228.157 165.969C228.423 165.969 228.655 165.918 228.854 165.816C229.054 165.715 229.22 165.557 229.352 165.342C229.489 165.123 229.591 164.844 229.657 164.504C229.723 164.16 229.757 163.75 229.757 163.273Z" fill="white"/>
<path d="M16.082 6.10059V14.6787H14.998V7.4541L12.8125 8.25098V7.27246L15.9121 6.10059H16.082Z" fill="white"/>
<path d="M228.947 180.044H229.221C229.122 180.398 228.926 180.721 228.635 181.013C228.343 181.304 228.002 181.45 227.611 181.45C227.273 181.45 227.01 181.369 226.822 181.208C226.635 181.041 226.505 180.828 226.432 180.567C226.359 180.302 226.322 180.023 226.322 179.731V175.239H225.299V175.028C225.627 174.903 225.916 174.711 226.166 174.45C226.421 174.185 226.643 173.89 226.83 173.567C227.018 173.239 227.174 172.924 227.299 172.622H227.518V174.763H229.033V175.239H227.518V179.56C227.518 179.7 227.533 179.854 227.564 180.021C227.596 180.187 227.656 180.333 227.744 180.458C227.833 180.578 227.965 180.638 228.143 180.638C228.356 180.638 228.525 180.583 228.65 180.474C228.775 180.364 228.874 180.221 228.947 180.044Z" fill="white"/>
<path d="M232.548 8.58398L22.8477 8.58398" stroke="#53657F" stroke-width="0.3"/>
<path d="M232.548 23.2998L22.8477 23.2998" stroke="#53657F" stroke-width="0.3"/>
<path d="M232.548 36.7896L22.8477 36.7896" stroke="#53657F" stroke-width="0.3"/>
<path d="M232.548 52.7314L22.8477 52.7314" stroke="#53657F" stroke-width="0.3"/>
<path d="M232.548 66.2212L22.8477 66.2212" stroke="#53657F" stroke-width="0.3"/>
<path d="M232.548 82.1631L22.8477 82.1631" stroke="#53657F" stroke-width="0.3"/>
<path d="M232.548 95.6528L22.8477 95.6528" stroke="#53657F" stroke-width="0.3"/>
<path d="M232.548 110.369L22.8477 110.369" stroke="#53657F" stroke-width="0.3"/>
<path d="M232.548 126.311L22.8477 126.311" stroke="#53657F" stroke-width="0.3"/>
<path d="M232.548 139.8H22.8477" stroke="#53657F" stroke-width="0.3"/>
<path d="M43.6953 152.063V8.58398" stroke="#53657F" stroke-width="0.3"/>
<path d="M85.3887 152.063V8.58398" stroke="#53657F" stroke-width="0.3"/>
<path d="M211.699 152.063V8.58398" stroke="#53657F" stroke-width="0.3"/>
<path d="M107.463 152.063V8.58398" stroke="#53657F" stroke-width="0.3"/>
<path d="M232.547 152.063V8.58398" stroke="#53657F" stroke-width="0.3"/>
<path d="M128.311 152.063V8.58398" stroke="#53657F" stroke-width="0.3"/>
<path d="M147.932 152.063V8.58398" stroke="#53657F" stroke-width="0.3"/>
<path d="M170.006 152.063V8.58398" stroke="#53657F" stroke-width="0.3"/>
<path d="M190.854 152.063V8.58398" stroke="#53657F" stroke-width="0.3"/>
<path d="M64.543 152.063V8.58398" stroke="#53657F" stroke-width="0.3"/>
</svg>
