<svg width="230" height="368" viewBox="0 0 230 368" fill="none" xmlns="http://www.w3.org/2000/svg">
<path d="M19 165H166" stroke="#6B7B92" stroke-width="2" stroke-linecap="round"/>
<path d="M19 20H166" stroke="#6B7B92" stroke-width="2" stroke-linecap="round"/>
<path d="M19 336H166" stroke="#6B7B92" stroke-width="2" stroke-linecap="round"/>
<path d="M42 22L33.3397 37L50.6603 37L42 22ZM42 332L50.6603 317L33.3398 317L42 332ZM40.5 35.5L40.5 318.5L43.5 318.5L43.5 35.5L40.5 35.5Z" fill="#B89230"/>
<path d="M131 22L122.34 37L139.66 37L131 22ZM131 164L139.66 149L122.34 149L131 164ZM129.5 35.5L129.5 150.5L132.5 150.5L132.5 35.5L129.5 35.5Z" fill="#B89230"/>
<path d="M86 169L77.3397 184L94.6603 184L86 169ZM86 332L94.6603 317L77.3398 317L86 332ZM84.5 182.5L84.5 318.5L87.5 318.5L87.5 182.5L84.5 182.5Z" fill="#B89230"/>
<path d="M73.0859 120.406V122.141C73.0859 123.073 73.0026 123.859 72.8359 124.5C72.6693 125.141 72.4297 125.656 72.1172 126.047C71.8047 126.438 71.4271 126.721 70.9844 126.898C70.5469 127.07 70.0521 127.156 69.5 127.156C69.0625 127.156 68.6589 127.102 68.2891 126.992C67.9193 126.883 67.5859 126.708 67.2891 126.469C66.9974 126.224 66.7474 125.906 66.5391 125.516C66.3307 125.125 66.1719 124.651 66.0625 124.094C65.9531 123.536 65.8984 122.885 65.8984 122.141V120.406C65.8984 119.474 65.9818 118.693 66.1484 118.062C66.3203 117.432 66.5625 116.927 66.875 116.547C67.1875 116.161 67.5625 115.885 68 115.719C68.4427 115.552 68.9375 115.469 69.4844 115.469C69.9271 115.469 70.3333 115.523 70.7031 115.633C71.0781 115.737 71.4115 115.906 71.7031 116.141C71.9948 116.37 72.2422 116.677 72.4453 117.062C72.6536 117.443 72.8125 117.909 72.9219 118.461C73.0312 119.013 73.0859 119.661 73.0859 120.406ZM71.6328 122.375V120.164C71.6328 119.654 71.6016 119.206 71.5391 118.82C71.4818 118.43 71.3958 118.096 71.2812 117.82C71.1667 117.544 71.0208 117.32 70.8438 117.148C70.6719 116.977 70.4714 116.852 70.2422 116.773C70.0182 116.69 69.7656 116.648 69.4844 116.648C69.1406 116.648 68.8359 116.714 68.5703 116.844C68.3047 116.969 68.0807 117.169 67.8984 117.445C67.7214 117.721 67.5859 118.083 67.4922 118.531C67.3984 118.979 67.3516 119.523 67.3516 120.164V122.375C67.3516 122.885 67.3802 123.336 67.4375 123.727C67.5 124.117 67.5911 124.456 67.7109 124.742C67.8307 125.023 67.9766 125.255 68.1484 125.438C68.3203 125.62 68.5182 125.755 68.7422 125.844C68.9714 125.927 69.224 125.969 69.5 125.969C69.8542 125.969 70.1641 125.901 70.4297 125.766C70.6953 125.63 70.9167 125.419 71.0938 125.133C71.276 124.841 71.4115 124.469 71.5 124.016C71.5885 123.557 71.6328 123.01 71.6328 122.375ZM82.3984 125.812V127H74.9531V125.961L78.6797 121.812C79.138 121.302 79.4922 120.87 79.7422 120.516C79.9974 120.156 80.1745 119.836 80.2734 119.555C80.3776 119.268 80.4297 118.977 80.4297 118.68C80.4297 118.305 80.3516 117.966 80.1953 117.664C80.0443 117.357 79.8203 117.112 79.5234 116.93C79.2266 116.747 78.8672 116.656 78.4453 116.656C77.9401 116.656 77.5182 116.755 77.1797 116.953C76.8464 117.146 76.5964 117.417 76.4297 117.766C76.263 118.115 76.1797 118.516 76.1797 118.969H74.7344C74.7344 118.328 74.875 117.742 75.1562 117.211C75.4375 116.68 75.8542 116.258 76.4062 115.945C76.9583 115.628 77.638 115.469 78.4453 115.469C79.1641 115.469 79.7786 115.596 80.2891 115.852C80.7995 116.102 81.1901 116.456 81.4609 116.914C81.737 117.367 81.875 117.898 81.875 118.508C81.875 118.841 81.8177 119.18 81.7031 119.523C81.5938 119.862 81.4401 120.201 81.2422 120.539C81.0495 120.878 80.8229 121.211 80.5625 121.539C80.3073 121.867 80.0339 122.19 79.7422 122.508L76.6953 125.812H82.3984Z" fill="white"/>
<path d="M157.695 115.562V127H156.25V117.367L153.336 118.43V117.125L157.469 115.562H157.695ZM169.398 125.812V127H161.953V125.961L165.68 121.812C166.138 121.302 166.492 120.87 166.742 120.516C166.997 120.156 167.174 119.836 167.273 119.555C167.378 119.268 167.43 118.977 167.43 118.68C167.43 118.305 167.352 117.966 167.195 117.664C167.044 117.357 166.82 117.112 166.523 116.93C166.227 116.747 165.867 116.656 165.445 116.656C164.94 116.656 164.518 116.755 164.18 116.953C163.846 117.146 163.596 117.417 163.43 117.766C163.263 118.115 163.18 118.516 163.18 118.969H161.734C161.734 118.328 161.875 117.742 162.156 117.211C162.438 116.68 162.854 116.258 163.406 115.945C163.958 115.628 164.638 115.469 165.445 115.469C166.164 115.469 166.779 115.596 167.289 115.852C167.799 116.102 168.19 116.456 168.461 116.914C168.737 117.367 168.875 117.898 168.875 118.508C168.875 118.841 168.818 119.18 168.703 119.523C168.594 119.862 168.44 120.201 168.242 120.539C168.049 120.878 167.823 121.211 167.562 121.539C167.307 121.867 167.034 122.19 166.742 122.508L163.695 125.812H169.398Z" fill="white"/>
<path d="M121.086 281.406V283.141C121.086 284.073 121.003 284.859 120.836 285.5C120.669 286.141 120.43 286.656 120.117 287.047C119.805 287.438 119.427 287.721 118.984 287.898C118.547 288.07 118.052 288.156 117.5 288.156C117.062 288.156 116.659 288.102 116.289 287.992C115.919 287.883 115.586 287.708 115.289 287.469C114.997 287.224 114.747 286.906 114.539 286.516C114.331 286.125 114.172 285.651 114.062 285.094C113.953 284.536 113.898 283.885 113.898 283.141V281.406C113.898 280.474 113.982 279.693 114.148 279.062C114.32 278.432 114.562 277.927 114.875 277.547C115.188 277.161 115.562 276.885 116 276.719C116.443 276.552 116.938 276.469 117.484 276.469C117.927 276.469 118.333 276.523 118.703 276.633C119.078 276.737 119.411 276.906 119.703 277.141C119.995 277.37 120.242 277.677 120.445 278.062C120.654 278.443 120.812 278.909 120.922 279.461C121.031 280.013 121.086 280.661 121.086 281.406ZM119.633 283.375V281.164C119.633 280.654 119.602 280.206 119.539 279.82C119.482 279.43 119.396 279.096 119.281 278.82C119.167 278.544 119.021 278.32 118.844 278.148C118.672 277.977 118.471 277.852 118.242 277.773C118.018 277.69 117.766 277.648 117.484 277.648C117.141 277.648 116.836 277.714 116.57 277.844C116.305 277.969 116.081 278.169 115.898 278.445C115.721 278.721 115.586 279.083 115.492 279.531C115.398 279.979 115.352 280.523 115.352 281.164V283.375C115.352 283.885 115.38 284.336 115.438 284.727C115.5 285.117 115.591 285.456 115.711 285.742C115.831 286.023 115.977 286.255 116.148 286.438C116.32 286.62 116.518 286.755 116.742 286.844C116.971 286.927 117.224 286.969 117.5 286.969C117.854 286.969 118.164 286.901 118.43 286.766C118.695 286.63 118.917 286.419 119.094 286.133C119.276 285.841 119.411 285.469 119.5 285.016C119.589 284.557 119.633 284.01 119.633 283.375ZM127.695 276.562V288H126.25V278.367L123.336 279.43V278.125L127.469 276.562H127.695Z" fill="white"/>
<path d="M48.4759 96.4867C48.7954 97.1101 44.9318 98.5269 42.6256 102.418C41.9667 103.533 40.2197 106.489 41.5774 108.879C42.3261 110.192 43.9235 111.174 45.411 111.184C48.2762 111.193 51.401 107.528 52.2396 101.823H56.4926C55.9934 103.344 55.634 104.648 55.3744 105.649C54.7355 108.142 54.7654 108.747 55.025 109.342C55.4543 110.305 56.4726 111.089 57.5308 111.316C60.7255 112.006 63.8204 107.51 64.1498 107.037C65.9169 104.411 66.9651 100.444 65.4077 99.1315C64.5491 98.4136 63.1315 98.6686 62.7621 97.7524C62.5724 97.2802 62.7222 96.6284 63.1115 96.3073C64.1199 95.4666 67.1748 96.4395 68.6823 98.1491C71.0284 100.822 69.9701 105.677 67.634 108.69C67.2946 109.134 63.8703 113.403 58.3694 112.969C54.9651 112.705 52.7288 110.787 52.03 110.135C51.3012 110.844 49.634 112.27 47.0882 112.771C43.624 113.451 39.3211 112.289 37.6839 109.474C35.208 105.224 39.9102 99.0653 44.5025 97.0818C46.2596 96.3262 48.2563 96.0617 48.4759 96.4867Z" fill="white"/>
<path d="M94.4759 260.515C94.7954 261.175 90.9318 262.676 88.6256 266.796C87.9667 267.976 86.2197 271.106 87.5774 273.637C88.3261 275.027 89.9235 276.067 91.411 276.077C94.2762 276.087 97.401 272.207 98.2396 266.166H102.493C101.993 267.776 101.634 269.156 101.374 270.216C100.735 272.857 100.765 273.497 101.025 274.127C101.454 275.147 102.473 275.977 103.531 276.217C106.726 276.947 109.82 272.187 110.15 271.687C111.917 268.906 112.965 264.706 111.408 263.316C110.549 262.556 109.132 262.826 108.762 261.856C108.572 261.355 108.722 260.665 109.112 260.325C110.12 259.435 113.175 260.465 114.682 262.276C117.028 265.106 115.97 270.246 113.634 273.437C113.295 273.907 109.87 278.427 104.369 277.967C100.965 277.687 98.7288 275.657 98.03 274.967C97.3012 275.717 95.634 277.227 93.0882 277.757C89.624 278.477 85.3211 277.247 83.6839 274.267C81.208 269.766 85.9102 263.246 90.5025 261.145C92.2596 260.345 94.2563 260.065 94.4759 260.515Z" fill="white"/>
<path d="M135.476 93.5154C135.795 94.1754 131.932 95.6756 129.626 99.796C128.967 100.976 127.22 104.106 128.577 106.637C129.326 108.027 130.923 109.067 132.411 109.077C135.276 109.087 138.401 105.207 139.24 99.166H143.493C142.993 100.776 142.634 102.156 142.374 103.216C141.735 105.857 141.765 106.497 142.025 107.127C142.454 108.147 143.473 108.977 144.531 109.217C147.726 109.947 150.82 105.187 151.15 104.687C152.917 101.906 153.965 97.7058 152.408 96.3157C151.549 95.5556 150.132 95.8256 149.762 94.8555C149.572 94.3555 149.722 93.6654 150.112 93.3253C151.12 92.4353 154.175 93.4654 155.682 95.2755C158.028 98.1058 156.97 103.246 154.634 106.437C154.295 106.907 150.87 111.427 145.369 110.967C141.965 110.687 139.729 108.657 139.03 107.967C138.301 108.717 136.634 110.227 134.088 110.757C130.624 111.477 126.321 110.247 124.684 107.267C122.208 102.766 126.91 96.2457 131.503 94.1454C133.26 93.3453 135.256 93.0653 135.476 93.5154Z" fill="white"/>
<path d="M177 26.5L177 6.5" stroke="white" stroke-width="2" stroke-linecap="round"/>
<path d="M186.56 25V24.352C187.456 23.456 188.4 22.44 189.392 21.304C190.384 20.152 191.008 19.4 191.264 19.048C191.536 18.68 191.88 18.184 192.296 17.56C192.712 16.936 193.016 16.408 193.208 15.976C193.736 14.824 194 13.824 194 12.976C194 12.128 193.696 11.496 193.088 11.08C192.496 10.648 191.68 10.432 190.64 10.432C189.616 10.432 188.616 10.592 187.64 10.912L187.28 9.592C188.48 9.128 189.768 8.896 191.144 8.896C192.52 8.896 193.648 9.256 194.528 9.976C195.408 10.68 195.848 11.728 195.848 13.12C195.848 15.76 193.736 19.232 189.512 23.536L196.184 23.464L196.28 25H186.56Z" fill="white"/>
<path d="M207 7L213 16.5L207 26" stroke="white" stroke-width="2" stroke-linecap="round"/>
<path d="M177 173.5L177 153.5" stroke="white" stroke-width="2" stroke-linecap="round"/>
<path d="M188.48 172V170.512H191.432L191.504 158.104L188.192 160.24L187.4 159.16L191.576 155.896L193.256 156.184V170.512H196.112V172H188.48Z" fill="white"/>
<path d="M207 154L213 163.5L207 173" stroke="white" stroke-width="2" stroke-linecap="round"/>
<path d="M177 345.5L177 325.5" stroke="white" stroke-width="2" stroke-linecap="round"/>
<path d="M195.92 341.456C195.504 342.32 194.92 343.008 194.168 343.52C193.432 344.032 192.552 344.288 191.528 344.288C190.504 344.288 189.624 344.08 188.888 343.664C188.168 343.248 187.616 342.656 187.232 341.888C186.544 340.496 186.2 338.608 186.2 336.224C186.2 333.92 186.584 332 187.352 330.464C187.768 329.648 188.352 329.016 189.104 328.568C189.872 328.12 190.768 327.896 191.792 327.896C192.832 327.896 193.704 328.096 194.408 328.496C195.128 328.88 195.68 329.44 196.064 330.176C196.784 331.552 197.144 333.36 197.144 335.6C197.144 337.84 196.736 339.792 195.92 341.456ZM189.728 342.248C190.224 342.616 190.832 342.8 191.552 342.8C192.272 342.8 192.888 342.576 193.4 342.128C193.928 341.664 194.32 341.056 194.576 340.304C195.056 338.896 195.296 337.328 195.296 335.6C195.296 333.888 195.104 332.48 194.72 331.376C194.256 330.048 193.288 329.384 191.816 329.384C191.08 329.384 190.448 329.592 189.92 330.008C189.392 330.408 189 330.96 188.744 331.664C188.28 332.944 188.048 334.464 188.048 336.224C188.048 339.408 188.608 341.416 189.728 342.248Z" fill="white"/>
<path d="M207 326L213 335.5L207 345" stroke="white" stroke-width="2" stroke-linecap="round"/>
</svg>
