<svg width="486" height="466" viewBox="0 0 486 466" fill="none" xmlns="http://www.w3.org/2000/svg">
<path d="M207 86L195.638 88.0606L203.104 96.8698L207 86ZM89 186L100.362 183.939L92.8963 175.13L89 186ZM199.487 91.0558L95.2195 179.418L96.5126 180.944L200.78 92.5816L199.487 91.0558Z" fill="white"/>
<path d="M384 219L374 213.226V224.774L384 219ZM292 219L302 224.774V213.226L292 219ZM375 218H301V220H375V218Z" fill="white"/>
<path d="M188.5 219.117L178.5 213.343L178.5 224.89L188.5 219.117ZM102 219.117L112 224.89L112 213.343L102 219.117ZM179.5 218.117L111 218.117L111 220.117L179.5 220.117L179.5 218.117Z" fill="white"/>
<path d="M243 279L237.426 289.112L248.97 288.884L243 279ZM244.633 361.377L250.207 351.264L238.662 351.493L244.633 361.377ZM242.178 288.018L243.455 352.398L245.454 352.359L244.178 287.978L242.178 288.018Z" fill="white"/>
<path d="M410.5 266.5L399.364 269.555L407.578 277.671L410.5 266.5ZM292.035 386.377L303.17 383.322L294.957 375.206L292.035 386.377ZM403.463 272.199L297.65 379.272L299.072 380.678L404.885 273.604L403.463 272.199Z" fill="white"/>
<path d="M252 28.9363C251.263 28.7787 250.215 28.5775 248.95 28.4077C246.898 28.1337 242.578 27.5906 237.568 28.5241C235.085 28.9872 230.238 29.9474 225.484 33.6863C223.91 34.9229 220.486 37.9271 218.384 42.8395C217.482 44.9489 216.648 46.9736 217.152 49.5267C217.829 52.948 220.431 54.8756 220.908 55.2175C224.487 57.7731 228.822 56.922 231.819 56.3328C235.163 55.6757 237.74 54.3446 239.445 53.2559C238.647 56.0928 237.864 58.9757 237.098 61.9072C236.654 63.5996 236.225 65.2823 235.808 66.953H248.07C248.344 65.937 248.618 64.9186 248.892 63.9027H243.082C246.055 52.2472 249.027 40.5918 252 28.9363ZM235.985 51.7647C233.332 53.7627 229.441 54.3858 226.364 52.9965C225.658 52.6788 223.949 51.9054 223.137 50.1208C222.572 48.8818 222.654 47.6282 222.96 46.1904C224.233 40.2014 227.887 36.4528 227.887 36.4528C229.118 35.1896 232.903 31.6689 238.739 30.9973C240.711 30.7694 242.369 30.9318 243.492 31.1137C242.663 38.0192 240.939 43.1571 239.561 46.4838C238.608 48.7872 237.728 50.4481 235.983 51.7647H235.985Z" fill="white" stroke="white" stroke-miterlimit="10"/>
<path d="M256.64 71V69.016H260.576L260.672 52.472L256.256 55.32L255.2 53.88L260.768 49.528L263.008 49.912V69.016H266.816V71H256.64Z" fill="white"/>
<path d="M442 202.936C441.263 202.779 440.215 202.577 438.95 202.408C436.898 202.134 432.578 201.591 427.568 202.524C425.085 202.987 420.238 203.947 415.484 207.686C413.91 208.923 410.486 211.927 408.384 216.839C407.482 218.949 406.648 220.974 407.152 223.527C407.829 226.948 410.431 228.876 410.908 229.217C414.487 231.773 418.822 230.922 421.819 230.333C425.163 229.676 427.74 228.345 429.445 227.256C428.647 230.093 427.864 232.976 427.098 235.907C426.654 237.6 426.225 239.282 425.808 240.953H438.07C438.344 239.937 438.618 238.919 438.892 237.903H433.082C436.055 226.247 439.027 214.592 442 202.936ZM425.985 225.765C423.332 227.763 419.441 228.386 416.364 226.996C415.658 226.679 413.949 225.905 413.137 224.121C412.572 222.882 412.654 221.628 412.96 220.19C414.233 214.201 417.887 210.453 417.887 210.453C419.118 209.19 422.903 205.669 428.739 204.997C430.711 204.769 432.369 204.932 433.492 205.114C432.663 212.019 430.939 217.157 429.561 220.484C428.608 222.787 427.728 224.448 425.983 225.765H425.985Z" fill="white" stroke="white" stroke-miterlimit="10"/>
<path d="M444.688 241.544C446.117 242.781 447.653 243.4 449.296 243.4C450.939 243.4 452.197 243.005 453.072 242.216C453.968 241.405 454.416 240.296 454.416 238.888C454.416 237.48 453.989 236.445 453.136 235.784C452.283 235.101 451.12 234.76 449.648 234.76H447.6V233C448.688 232.872 449.573 232.808 450.256 232.808C450.939 232.808 451.536 232.84 452.048 232.904C453.371 231.923 454.032 230.632 454.032 229.032C454.032 227.923 453.637 227.069 452.848 226.472C452.059 225.875 451.024 225.576 449.744 225.576C448.485 225.576 447.227 225.789 445.968 226.216L445.488 224.456C447.088 223.837 448.752 223.528 450.48 223.528C452.208 223.528 453.637 224.019 454.768 225C455.92 225.96 456.496 227.304 456.496 229.032C456.496 230.76 455.696 232.264 454.096 233.544C455.952 234.483 456.88 236.243 456.88 238.824C456.88 240.787 456.229 242.376 454.928 243.592C453.648 244.787 452.027 245.384 450.064 245.384C448.976 245.384 447.888 245.203 446.8 244.84C445.733 244.456 444.859 243.912 444.176 243.208L444.688 241.544Z" fill="white"/>
<path d="M250 202.936C249.263 202.779 248.215 202.577 246.95 202.408C244.898 202.134 240.578 201.591 235.568 202.524C233.085 202.987 228.238 203.947 223.484 207.686C221.91 208.923 218.486 211.927 216.384 216.839C215.482 218.949 214.648 220.974 215.152 223.527C215.829 226.948 218.431 228.876 218.908 229.217C222.487 231.773 226.822 230.922 229.819 230.333C233.163 229.676 235.74 228.345 237.445 227.256C236.647 230.093 235.864 232.976 235.098 235.907C234.654 237.6 234.225 239.282 233.808 240.953H246.07C246.344 239.937 246.618 238.919 246.892 237.903H241.082C244.055 226.247 247.027 214.592 250 202.936ZM233.985 225.765C231.332 227.763 227.441 228.386 224.364 226.996C223.658 226.679 221.949 225.905 221.137 224.121C220.572 222.882 220.654 221.628 220.96 220.19C222.233 214.201 225.887 210.453 225.887 210.453C227.118 209.19 230.903 205.669 236.739 204.997C238.711 204.769 240.369 204.932 241.492 205.114C240.663 212.019 238.939 217.157 237.561 220.484C236.608 222.787 235.728 224.448 233.983 225.765H233.985Z" fill="white" stroke="white" stroke-miterlimit="10"/>
<path d="M252.08 245V244.136C253.275 242.941 254.533 241.587 255.856 240.072C257.179 238.536 258.011 237.533 258.352 237.064C258.715 236.573 259.173 235.912 259.728 235.08C260.283 234.248 260.688 233.544 260.944 232.968C261.648 231.432 262 230.099 262 228.968C262 227.837 261.595 226.995 260.784 226.44C259.995 225.864 258.907 225.576 257.52 225.576C256.155 225.576 254.821 225.789 253.52 226.216L253.04 224.456C254.64 223.837 256.357 223.528 258.192 223.528C260.027 223.528 261.531 224.008 262.704 224.968C263.877 225.907 264.464 227.304 264.464 229.16C264.464 232.68 261.648 237.309 256.016 243.048L264.912 242.952L265.04 245H252.08Z" fill="white"/>
<path d="M253 389.936C252.263 389.779 251.215 389.577 249.95 389.408C247.898 389.134 243.578 388.591 238.568 389.524C236.085 389.987 231.238 390.947 226.484 394.686C224.91 395.923 221.486 398.927 219.384 403.839C218.482 405.949 217.648 407.974 218.152 410.527C218.829 413.948 221.431 415.876 221.908 416.217C225.487 418.773 229.822 417.922 232.819 417.333C236.163 416.676 238.74 415.345 240.445 414.256C239.647 417.093 238.864 419.976 238.098 422.907C237.654 424.6 237.225 426.282 236.808 427.953H249.07C249.344 426.937 249.618 425.919 249.892 424.903H244.082C247.055 413.247 250.027 401.592 253 389.936ZM236.985 412.765C234.332 414.763 230.441 415.386 227.364 413.996C226.658 413.679 224.949 412.905 224.137 411.121C223.572 409.882 223.654 408.628 223.96 407.19C225.233 401.201 228.887 397.453 228.887 397.453C230.118 396.19 233.903 392.669 239.739 391.997C241.711 391.769 243.369 391.932 244.492 392.114C243.663 399.019 241.939 404.157 240.561 407.484C239.608 409.787 238.728 411.448 236.983 412.765H236.985Z" fill="white" stroke="white" stroke-miterlimit="10"/>
<path d="M255.208 425.76V424.896L260.264 410.528L262.44 410.912L257.992 423.776H264.2V416.96H266.568V423.776H269L268.712 425.76H266.568V432H264.2V425.76H255.208Z" fill="white"/>
<path d="M56 198.936C55.2629 198.779 54.2154 198.577 52.9497 198.408C50.8985 198.134 46.5777 197.591 41.5683 198.524C39.0854 198.987 34.2385 199.947 29.4836 203.686C27.91 204.923 24.4864 207.927 22.3842 212.839C21.4822 214.949 20.6481 216.974 21.1524 219.527C21.8289 222.948 24.4306 224.876 24.9083 225.217C28.4871 227.773 32.8224 226.922 35.8193 226.333C39.163 225.676 41.7404 224.345 43.445 223.256C42.6473 226.093 41.8641 228.976 41.0979 231.907C40.6542 233.6 40.225 235.282 39.808 236.953H52.0696C52.3436 235.937 52.6176 234.919 52.8916 233.903H47.082C50.0547 222.247 53.0273 210.592 56 198.936ZM39.985 221.765C37.3323 223.763 33.4407 224.386 30.3638 222.996C29.6582 222.679 27.9488 221.905 27.1365 220.121C26.5716 218.882 26.654 217.628 26.9595 216.19C28.2325 210.201 31.8865 206.453 31.8865 206.453C33.1182 205.19 36.9032 201.669 42.7394 200.997C44.7107 200.769 46.3692 200.932 47.4918 201.114C46.6625 208.019 44.9386 213.157 43.5614 216.484C42.6085 218.787 41.7283 220.448 39.9825 221.765H39.985Z" fill="white" stroke="white" stroke-miterlimit="10"/>
<path d="M59.008 237.544C60.5013 238.781 62.1227 239.4 63.872 239.4C67.328 239.4 69.056 237.747 69.056 234.44C69.056 232.968 68.6293 231.848 67.776 231.08C66.944 230.312 65.856 229.928 64.512 229.928C63.1893 229.928 61.6427 230.045 59.872 230.28L60.576 219.912H70.4L70.112 221.896H62.656L62.24 228.136C63.328 228.008 64.3307 227.944 65.248 227.944C67.2107 227.944 68.7467 228.531 69.856 229.704C70.9653 230.856 71.52 232.467 71.52 234.536C71.52 236.584 70.8693 238.237 69.568 239.496C68.2667 240.755 66.5813 241.384 64.512 241.384C61.9093 241.384 59.904 240.648 58.496 239.176L59.008 237.544Z" fill="white"/>
<circle cx="246.5" cy="52.5" r="50.5" stroke="white" stroke-width="4"/>
<circle cx="52.5" cy="223.5" r="50.5" stroke="white" stroke-width="4"/>
<circle cx="242.5" cy="226.5" r="50.5" stroke="white" stroke-width="4"/>
<circle cx="246.5" cy="413.5" r="50.5" stroke="white" stroke-width="4"/>
<circle cx="433.5" cy="226.5" r="50.5" stroke="white" stroke-width="4"/>
</svg>
