<?xml version="1.0" encoding="utf-8"?>
<svg viewBox="0 0 230 368" fill="none" xmlns="http://www.w3.org/2000/svg">
  <path d="M 57 165 L 204 165" stroke="#6B7B92" stroke-width="2" stroke-linecap="round"/>
  <path d="M 57 20 L 204 20" stroke="#6B7B92" stroke-width="2" stroke-linecap="round"/>
  <path d="M 57 336 L 204 336" stroke="#6B7B92" stroke-width="2" stroke-linecap="round"/>
  <path d="M 80 22 L 71.34 37 L 88.66 37 L 80 22 Z M 80 332 L 88.66 317 L 71.34 317 L 80 332 Z M 78.5 35.5 L 78.5 318.5 L 81.5 318.5 L 81.5 35.5 L 78.5 35.5 Z" fill="#B89230"/>
  <path d="M 169 22 L 160.34 37 L 177.66 37 L 169 22 Z M 169 164 L 177.66 149 L 160.34 149 L 169 164 Z M 167.5 35.5 L 167.5 150.5 L 170.5 150.5 L 170.5 35.5 L 167.5 35.5 Z" fill="#B89230"/>
  <path d="M 124 169 L 115.34 184 L 132.66 184 L 124 169 Z M 124 332 L 132.66 317 L 115.34 317 L 124 332 Z M 122.5 182.5 L 122.5 318.5 L 125.5 318.5 L 125.5 182.5 L 122.5 182.5 Z" fill="#B89230"/>
  <path d="M 123.086 108.406 L 123.086 110.141 C 123.086 111.073 123.003 111.859 122.836 112.5 C 122.669 113.141 122.43 113.656 122.117 114.047 C 121.805 114.438 121.427 114.721 120.984 114.898 C 120.547 115.07 120.052 115.156 119.5 115.156 C 119.063 115.156 118.659 115.102 118.289 114.992 C 117.919 114.883 117.586 114.708 117.289 114.469 C 116.997 114.224 116.747 113.906 116.539 113.516 C 116.331 113.125 116.172 112.651 116.063 112.094 C 115.953 111.536 115.898 110.885 115.898 110.141 L 115.898 108.406 C 115.898 107.474 115.982 106.693 116.148 106.062 C 116.32 105.432 116.563 104.927 116.875 104.547 C 117.188 104.161 117.563 103.885 118 103.719 C 118.443 103.552 118.938 103.469 119.484 103.469 C 119.927 103.469 120.333 103.523 120.703 103.633 C 121.078 103.737 121.412 103.906 121.703 104.141 C 121.995 104.37 122.242 104.677 122.445 105.062 C 122.654 105.443 122.813 105.909 122.922 106.461 C 123.031 107.013 123.086 107.661 123.086 108.406 Z M 121.633 110.375 L 121.633 108.164 C 121.633 107.654 121.602 107.206 121.539 106.82 C 121.482 106.43 121.396 106.096 121.281 105.82 C 121.167 105.544 121.021 105.32 120.844 105.148 C 120.672 104.977 120.471 104.852 120.242 104.773 C 120.018 104.69 119.766 104.648 119.484 104.648 C 119.141 104.648 118.836 104.714 118.57 104.844 C 118.305 104.969 118.081 105.169 117.898 105.445 C 117.721 105.721 117.586 106.083 117.492 106.531 C 117.398 106.979 117.352 107.523 117.352 108.164 L 117.352 110.375 C 117.352 110.885 117.38 111.336 117.438 111.727 C 117.5 112.117 117.591 112.456 117.711 112.742 C 117.831 113.023 117.977 113.255 118.148 113.438 C 118.32 113.62 118.518 113.755 118.742 113.844 C 118.971 113.927 119.224 113.969 119.5 113.969 C 119.854 113.969 120.164 113.901 120.43 113.766 C 120.695 113.63 120.917 113.419 121.094 113.133 C 121.276 112.841 121.412 112.469 121.5 112.016 C 121.589 111.557 121.633 111.01 121.633 110.375 Z M 132.398 113.812 L 132.398 115 L 124.953 115 L 124.953 113.961 L 128.68 109.812 C 129.138 109.302 129.492 108.87 129.742 108.516 C 129.997 108.156 130.175 107.836 130.273 107.555 C 130.378 107.268 130.43 106.977 130.43 106.68 C 130.43 106.305 130.352 105.966 130.195 105.664 C 130.044 105.357 129.82 105.112 129.523 104.93 C 129.227 104.747 128.867 104.656 128.445 104.656 C 127.94 104.656 127.518 104.755 127.18 104.953 C 126.846 105.146 126.596 105.417 126.43 105.766 C 126.263 106.115 126.18 106.516 126.18 106.969 L 124.734 106.969 C 124.734 106.328 124.875 105.742 125.156 105.211 C 125.438 104.68 125.854 104.258 126.406 103.945 C 126.958 103.628 127.638 103.469 128.445 103.469 C 129.164 103.469 129.779 103.596 130.289 103.852 C 130.8 104.102 131.19 104.456 131.461 104.914 C 131.737 105.367 131.875 105.898 131.875 106.508 C 131.875 106.841 131.818 107.18 131.703 107.523 C 131.594 107.862 131.44 108.201 131.242 108.539 C 131.05 108.878 130.823 109.211 130.563 109.539 C 130.307 109.867 130.034 110.19 129.742 110.508 L 126.695 113.812 L 132.398 113.812 Z" fill="white"/>
  <path d="M 209.695 106.562 L 209.695 118 L 208.25 118 L 208.25 108.367 L 205.336 109.43 L 205.336 108.125 L 209.469 106.562 L 209.695 106.562 Z M 221.398 116.812 L 221.398 118 L 213.953 118 L 213.953 116.961 L 217.68 112.812 C 218.138 112.302 218.492 111.87 218.742 111.516 C 218.997 111.156 219.174 110.836 219.273 110.555 C 219.378 110.268 219.43 109.977 219.43 109.68 C 219.43 109.305 219.352 108.966 219.195 108.664 C 219.044 108.357 218.82 108.112 218.523 107.93 C 218.227 107.747 217.867 107.656 217.445 107.656 C 216.94 107.656 216.518 107.755 216.18 107.953 C 215.846 108.146 215.596 108.417 215.43 108.766 C 215.263 109.115 215.18 109.516 215.18 109.969 L 213.734 109.969 C 213.734 109.328 213.875 108.742 214.156 108.211 C 214.438 107.68 214.854 107.258 215.406 106.945 C 215.958 106.628 216.638 106.469 217.445 106.469 C 218.164 106.469 218.779 106.596 219.289 106.852 C 219.799 107.102 220.19 107.456 220.461 107.914 C 220.737 108.367 220.875 108.898 220.875 109.508 C 220.875 109.841 220.818 110.18 220.703 110.523 C 220.594 110.862 220.44 111.201 220.242 111.539 C 220.049 111.878 219.823 112.211 219.562 112.539 C 219.307 112.867 219.034 113.19 218.742 113.508 L 215.695 116.812 L 221.398 116.812 Z" fill="white"/>
  <path d="M 172.086 259.406 L 172.086 261.141 C 172.086 262.073 172.003 262.859 171.836 263.5 C 171.669 264.141 171.43 264.656 171.117 265.047 C 170.805 265.438 170.427 265.721 169.984 265.898 C 169.547 266.07 169.052 266.156 168.5 266.156 C 168.062 266.156 167.659 266.102 167.289 265.992 C 166.919 265.883 166.586 265.708 166.289 265.469 C 165.997 265.224 165.747 264.906 165.539 264.516 C 165.331 264.125 165.172 263.651 165.062 263.094 C 164.953 262.536 164.898 261.885 164.898 261.141 L 164.898 259.406 C 164.898 258.474 164.982 257.693 165.148 257.062 C 165.32 256.432 165.562 255.927 165.875 255.547 C 166.188 255.161 166.562 254.885 167 254.719 C 167.443 254.552 167.938 254.469 168.484 254.469 C 168.927 254.469 169.333 254.523 169.703 254.633 C 170.078 254.737 170.411 254.906 170.703 255.141 C 170.995 255.37 171.242 255.677 171.445 256.062 C 171.654 256.443 171.812 256.909 171.922 257.461 C 172.031 258.013 172.086 258.661 172.086 259.406 Z M 170.633 261.375 L 170.633 259.164 C 170.633 258.654 170.602 258.206 170.539 257.82 C 170.482 257.43 170.396 257.096 170.281 256.82 C 170.167 256.544 170.021 256.32 169.844 256.148 C 169.672 255.977 169.471 255.852 169.242 255.773 C 169.018 255.69 168.766 255.648 168.484 255.648 C 168.141 255.648 167.836 255.714 167.57 255.844 C 167.305 255.969 167.081 256.169 166.898 256.445 C 166.721 256.721 166.586 257.083 166.492 257.531 C 166.398 257.979 166.352 258.523 166.352 259.164 L 166.352 261.375 C 166.352 261.885 166.38 262.336 166.438 262.727 C 166.5 263.117 166.591 263.456 166.711 263.742 C 166.831 264.023 166.977 264.255 167.148 264.438 C 167.32 264.62 167.518 264.755 167.742 264.844 C 167.971 264.927 168.224 264.969 168.5 264.969 C 168.854 264.969 169.164 264.901 169.43 264.766 C 169.695 264.63 169.917 264.419 170.094 264.133 C 170.276 263.841 170.411 263.469 170.5 263.016 C 170.589 262.557 170.633 262.01 170.633 261.375 Z M 178.695 254.562 L 178.695 266 L 177.25 266 L 177.25 256.367 L 174.336 257.43 L 174.336 256.125 L 178.469 254.562 L 178.695 254.562 Z" fill="white"/>
  <path d="M 98.476 84.487 C 98.795 85.11 94.932 86.527 92.626 90.418 C 91.967 91.533 90.22 94.489 91.577 96.879 C 92.326 98.192 93.924 99.174 95.411 99.184 C 98.276 99.193 101.401 95.528 102.24 89.823 L 106.493 89.823 C 105.993 91.344 105.634 92.648 105.374 93.649 C 104.736 96.142 104.765 96.747 105.025 97.342 C 105.454 98.305 106.473 99.089 107.531 99.316 C 110.726 100.006 113.82 95.51 114.15 95.037 C 115.917 92.411 116.965 88.444 115.408 87.132 C 114.549 86.414 113.132 86.669 112.762 85.752 C 112.572 85.28 112.722 84.628 113.112 84.307 C 114.12 83.467 117.175 84.44 118.682 86.149 C 121.028 88.822 119.97 93.677 117.634 96.69 C 117.295 97.134 113.87 101.403 108.369 100.969 C 104.965 100.705 102.729 98.787 102.03 98.135 C 101.301 98.844 99.634 100.27 97.088 100.771 C 93.624 101.451 89.321 100.289 87.684 97.474 C 85.208 93.224 89.91 87.065 94.503 85.082 C 96.26 84.326 98.256 84.062 98.476 84.487 Z" fill="white"/>
  <path d="M 145.476 238.515 C 145.795 239.175 141.932 240.676 139.626 244.796 C 138.967 245.976 137.22 249.106 138.577 251.637 C 139.326 253.027 140.924 254.067 142.411 254.077 C 145.276 254.087 148.401 250.207 149.24 244.166 L 153.493 244.166 C 152.993 245.776 152.634 247.156 152.374 248.216 C 151.735 250.857 151.765 251.497 152.025 252.127 C 152.454 253.147 153.473 253.977 154.531 254.217 C 157.726 254.947 160.82 250.187 161.15 249.687 C 162.917 246.906 163.965 242.706 162.408 241.316 C 161.549 240.556 160.132 240.826 159.762 239.856 C 159.572 239.355 159.722 238.665 160.112 238.325 C 161.12 237.435 164.175 238.465 165.682 240.276 C 168.028 243.106 166.97 248.246 164.634 251.437 C 164.295 251.907 160.87 256.427 155.369 255.967 C 151.965 255.687 149.729 253.657 149.03 252.967 C 148.301 253.717 146.634 255.227 144.088 255.757 C 140.624 256.477 136.321 255.247 134.684 252.267 C 132.208 247.766 136.91 241.246 141.503 239.145 C 143.26 238.345 145.256 238.065 145.476 238.515 Z" fill="white"/>
  <path d="M 187.476 84.515 C 187.795 85.175 183.932 86.676 181.626 90.796 C 180.967 91.976 179.22 95.106 180.577 97.637 C 181.326 99.027 182.923 100.067 184.411 100.077 C 187.276 100.087 190.401 96.207 191.24 90.166 L 195.493 90.166 C 194.993 91.776 194.634 93.156 194.374 94.216 C 193.735 96.857 193.765 97.497 194.025 98.127 C 194.454 99.147 195.473 99.977 196.531 100.217 C 199.726 100.947 202.82 96.187 203.15 95.687 C 204.917 92.906 205.965 88.706 204.408 87.316 C 203.549 86.556 202.132 86.826 201.762 85.856 C 201.572 85.356 201.722 84.665 202.112 84.325 C 203.12 83.435 206.175 84.465 207.682 86.276 C 210.028 89.106 208.97 94.246 206.634 97.437 C 206.295 97.907 202.87 102.427 197.369 101.967 C 193.965 101.687 191.729 99.657 191.03 98.967 C 190.301 99.717 188.634 101.227 186.088 101.757 C 182.624 102.477 178.321 101.247 176.684 98.267 C 174.208 93.766 178.91 87.246 183.503 85.145 C 185.26 84.345 187.256 84.065 187.476 84.515 Z" fill="white"/>
  <path d="M 10.41 29.634 L 10.41 9.634" stroke="white" stroke-width="2" stroke-linecap="round"/>
  <path d="M 19.97 28.134 L 19.97 27.486 C 20.866 26.59 21.81 25.574 22.802 24.438 C 23.794 23.286 24.418 22.534 24.674 22.182 C 24.946 21.814 25.29 21.318 25.706 20.694 C 26.122 20.07 26.426 19.542 26.618 19.11 C 27.146 17.958 27.41 16.958 27.41 16.11 C 27.41 15.262 27.106 14.63 26.498 14.214 C 25.906 13.782 25.09 13.566 24.05 13.566 C 23.026 13.566 22.026 13.726 21.05 14.046 L 20.69 12.726 C 21.89 12.262 23.178 12.03 24.554 12.03 C 25.93 12.03 27.058 12.39 27.938 13.11 C 28.818 13.814 29.258 14.862 29.258 16.254 C 29.258 18.894 27.146 22.366 22.922 26.67 L 29.594 26.598 L 29.69 28.134 L 19.97 28.134 Z" fill="white"/>
  <path d="M 40.41 10.134 L 46.41 19.634 L 40.41 29.134" stroke="white" stroke-width="2" stroke-linecap="round"/>
  <path d="M 10.41 175.634 L 10.41 155.634" stroke="white" stroke-width="2" stroke-linecap="round"/>
  <path d="M 21.89 174.134 L 21.89 172.646 L 24.842 172.646 L 24.914 160.238 L 21.602 162.374 L 20.81 161.294 L 24.986 158.03 L 26.666 158.318 L 26.666 172.646 L 29.522 172.646 L 29.522 174.134 L 21.89 174.134 Z" fill="white"/>
  <path d="M 40.41 156.134 L 46.41 165.634 L 40.41 175.134" stroke="white" stroke-width="2" stroke-linecap="round"/>
  <path d="M 10.41 345.634 L 10.41 325.634" stroke="white" stroke-width="2" stroke-linecap="round"/>
  <path d="M 29.33 341.59 C 28.914 342.454 28.33 343.142 27.578 343.654 C 26.842 344.166 25.962 344.422 24.938 344.422 C 23.914 344.422 23.034 344.214 22.298 343.798 C 21.578 343.382 21.026 342.79 20.642 342.022 C 19.954 340.63 19.61 338.742 19.61 336.358 C 19.61 334.054 19.994 332.134 20.762 330.598 C 21.178 329.782 21.762 329.15 22.514 328.702 C 23.282 328.254 24.178 328.03 25.202 328.03 C 26.242 328.03 27.114 328.23 27.818 328.63 C 28.538 329.014 29.09 329.574 29.474 330.31 C 30.194 331.686 30.554 333.494 30.554 335.734 C 30.554 337.974 30.146 339.926 29.33 341.59 Z M 23.138 342.382 C 23.634 342.75 24.242 342.934 24.962 342.934 C 25.682 342.934 26.298 342.71 26.81 342.262 C 27.338 341.798 27.73 341.19 27.986 340.438 C 28.466 339.03 28.706 337.462 28.706 335.734 C 28.706 334.022 28.514 332.614 28.13 331.51 C 27.666 330.182 26.698 329.518 25.226 329.518 C 24.49 329.518 23.858 329.726 23.33 330.142 C 22.802 330.542 22.41 331.094 22.154 331.798 C 21.69 333.078 21.458 334.598 21.458 336.358 C 21.458 339.542 22.018 341.55 23.138 342.382 Z" fill="white"/>
  <path d="M 40.41 326.134 L 46.41 335.634 L 40.41 345.134" stroke="white" stroke-width="2" stroke-linecap="round"/>
</svg>