<?xml version="1.0" encoding="utf-8"?>
<svg viewBox="0 0 197 235" fill="none" xmlns="http://www.w3.org/2000/svg">
  <path d="M 47 125 L 194 125" stroke="#6B7B92" stroke-width="2" stroke-linecap="round"/>
  <path d="M 47 14 L 194 14" stroke="#6B7B92" stroke-width="2" stroke-linecap="round"/>
  <path d="M 47 222 L 194 222" stroke="#6B7B92" stroke-width="2" stroke-linecap="round"/>
  <path d="M 1 23.5 L 1 3.5" stroke="white" stroke-width="2" stroke-linecap="round"/>
  <path d="M 10.56 22 L 10.56 21.352 C 11.456 20.456 12.4 19.44 13.392 18.304 C 14.384 17.152 15.008 16.4 15.264 16.048 C 15.536 15.68 15.88 15.184 16.296 14.56 C 16.712 13.936 17.016 13.408 17.208 12.976 C 17.736 11.824 18 10.824 18 9.976 C 18 9.128 17.696 8.496 17.088 8.08 C 16.496 7.648 15.68 7.432 14.64 7.432 C 13.616 7.432 12.616 7.592 11.64 7.912 L 11.28 6.592 C 12.48 6.128 13.768 5.896 15.144 5.896 C 16.52 5.896 17.648 6.256 18.528 6.976 C 19.408 7.68 19.848 8.728 19.848 10.12 C 19.848 12.76 17.736 16.232 13.512 20.536 L 20.184 20.464 L 20.28 22 L 10.56 22 Z" fill="white"/>
  <path d="M 31 4 L 37 13.5 L 31 23" stroke="white" stroke-width="2" stroke-linecap="round"/>
  <path d="M 1 133.5 L 1 113.5" stroke="white" stroke-width="2" stroke-linecap="round"/>
  <path d="M 12.48 132 L 12.48 130.512 L 15.432 130.512 L 15.504 118.104 L 12.192 120.24 L 11.4 119.16 L 15.576 115.896 L 17.256 116.184 L 17.256 130.512 L 20.112 130.512 L 20.112 132 L 12.48 132 Z" fill="white"/>
  <path d="M 31 114 L 37 123.5 L 31 133" stroke="white" stroke-width="2" stroke-linecap="round"/>
  <path d="M 1 231.5 L 1 211.5" stroke="white" stroke-width="2" stroke-linecap="round"/>
  <path d="M 19.92 227.456 C 19.504 228.32 18.92 229.008 18.168 229.52 C 17.432 230.032 16.552 230.288 15.528 230.288 C 14.504 230.288 13.624 230.08 12.888 229.664 C 12.168 229.248 11.616 228.656 11.232 227.888 C 10.544 226.496 10.2 224.608 10.2 222.224 C 10.2 219.92 10.584 218 11.352 216.464 C 11.768 215.648 12.352 215.016 13.104 214.568 C 13.872 214.12 14.768 213.896 15.792 213.896 C 16.832 213.896 17.704 214.096 18.408 214.496 C 19.128 214.88 19.68 215.44 20.064 216.176 C 20.784 217.552 21.144 219.36 21.144 221.6 C 21.144 223.84 20.736 225.792 19.92 227.456 Z M 13.728 228.248 C 14.224 228.616 14.832 228.8 15.552 228.8 C 16.272 228.8 16.888 228.576 17.4 228.128 C 17.928 227.664 18.32 227.056 18.576 226.304 C 19.056 224.896 19.296 223.328 19.296 221.6 C 19.296 219.888 19.104 218.48 18.72 217.376 C 18.256 216.048 17.288 215.384 15.816 215.384 C 15.08 215.384 14.448 215.592 13.92 216.008 C 13.392 216.408 13 216.96 12.744 217.664 C 12.28 218.944 12.048 220.464 12.048 222.224 C 12.048 225.408 12.608 227.416 13.728 228.248 Z" fill="white"/>
  <path d="M 31 212 L 37 221.5 L 31 231" stroke="white" stroke-width="2" stroke-linecap="round"/>
</svg>